# Blender 5.2.0 LTS
# www.blender.org
mtllib cabin_door.mtl
o Cube.002
v 0.057288 -0.010514 -0.017522
v 0.057288 -0.010514 -1.090855
v 0.026865 4.272466 -0.042431
v 0.060358 4.385972 -1.069646
v -0.038588 -0.011001 -0.017498
v -0.038588 -0.011001 -1.090855
v -0.035518 4.385485 -1.069646
v -0.069011 4.271979 -0.042408
v 0.057288 -0.010514 -0.776573
v 0.057288 -0.010514 -0.748190
v 0.032574 0.061896 -0.764202
v 0.067506 4.246874 -0.735920
v 0.067492 4.248382 -0.776592
v 0.059669 4.183721 -0.756848
v -0.038588 -0.011001 -0.748183
v -0.038588 -0.011001 -0.776566
v -0.027750 0.057855 -0.764196
v -0.028384 4.247894 -0.776586
v -0.028370 4.246387 -0.735914
v -0.000654 4.179680 -0.756877
v 0.057288 -0.010514 -2.164729
v 0.061223 4.326533 -2.165883
v -0.038588 -0.011001 -2.164753
v -0.034653 4.326046 -2.165907
v 0.057288 -0.010514 -1.405185
v 0.057288 -0.010514 -1.433576
v 0.032574 0.061896 -1.421226
v 0.060542 4.388775 -1.399944
v 0.060490 4.357635 -1.358530
v 0.052688 4.310162 -1.386643
v -0.038588 -0.011001 -1.433583
v -0.038588 -0.011001 -1.405192
v -0.027750 0.057855 -1.421230
v -0.035386 4.357148 -1.358538
v -0.035334 4.388288 -1.399951
v -0.007636 4.306122 -1.386672
v 0.057288 -0.010514 -0.508945
v 0.060517 4.261868 -0.520084
v -0.038588 -0.011001 -0.508933
v -0.035360 4.261382 -0.520073
v 0.060698 4.391136 -0.457017
v -0.035179 4.390650 -0.457004
v 0.057288 -0.010514 -0.459098
v -0.038588 -0.011001 -0.459084
v 0.057288 -0.010514 -0.568465
v -0.038588 -0.011001 -0.568453
v 0.060639 4.390244 -0.564258
v -0.035237 4.389757 -0.564248
v 0.057288 -0.010514 -2.091017
v 0.057288 -0.010514 -1.846432
v 0.060764 4.392142 -1.803704
v 0.060894 4.394123 -2.048069
v -0.038588 -0.011001 -2.091040
v -0.038588 -0.011001 -1.846449
v -0.035112 4.391655 -1.803720
v -0.034982 4.393636 -2.048091
v 0.057288 -0.010514 -2.055756
v 0.060875 4.393838 -2.012530
v -0.038588 -0.011001 -2.055778
v -0.035001 4.393352 -2.012552
v 0.060819 4.338647 -2.030328
v -0.035057 4.338161 -2.030349
v 0.057288 -0.010514 -2.073382
v -0.038588 -0.011001 -2.073404
v 0.057288 -0.010514 -2.032611
v -0.038588 -0.011001 -2.032632
v 0.060796 4.336765 -1.989323
v -0.035080 4.336279 -1.989343
v 0.057288 -0.010514 -1.939409
v -0.038588 -0.011001 -1.939427
v 0.060798 4.379200 -1.897841
v -0.035078 4.378713 -1.897859
v 0.057288 -0.010514 -1.639639
v -0.038588 -0.011001 -1.639651
v 0.060682 4.415029 -1.600391
v -0.035194 4.414542 -1.600403
v 0.060668 4.357442 -1.700100
v -0.035207 4.356956 -1.700114
v 0.057288 -0.010514 -1.742927
v -0.038588 -0.011001 -1.742942
vn 0.0002 0.0058 1.0000
vn 0.0063 -0.2205 -0.9754
vn 0.0051 -0.1720 0.9851
vn -0.0084 0.2835 0.9589
vn -0.0087 0.3058 -0.9521
vn -0.6395 0.0022 0.7688
vn -0.6923 0.0048 -0.7216
vn 0.7020 -0.0037 0.7122
vn 0.7500 -0.0018 -0.6614
vn 0.0051 -1.0000 -0.0000
vn 0.9998 -0.0016 0.0202
vn 0.9999 -0.0015 -0.0121
vn -0.0046 0.9051 0.4251
vn -0.0040 0.7674 -0.6411
vn -0.9998 0.0016 -0.0202
vn -0.9999 0.0015 0.0121
vn 0.0003 -0.0003 -1.0000
vn 0.0049 -0.1718 0.9851
vn 0.0065 -0.2208 -0.9753
vn -0.0141 0.4937 -0.8695
vn -0.0049 0.1625 0.9867
vn -0.7547 0.0082 -0.6560
vn -0.5550 -0.0051 0.8318
vn 0.8061 0.0034 -0.5917
vn 0.6196 -0.0079 0.7848
vn 1.0000 -0.0007 0.0003
vn 1.0000 -0.0008 0.0003
vn -0.0051 0.9952 -0.0976
vn -0.0050 0.9915 0.1299
vn -1.0000 0.0007 -0.0003
vn -1.0000 0.0008 0.0007
vn -0.0023 0.4385 -0.8987
vn 1.0000 -0.0008 -0.0007
vn 0.9992 0.0032 0.0399
vn -0.0048 0.9615 0.2748
vn -0.9992 -0.0032 -0.0399
vn -1.0000 0.0008 -0.0002
vn -0.0015 0.3254 0.9456
vn 1.0000 -0.0008 0.0002
vn -1.0000 0.0008 -0.0003
vn -1.0000 0.0009 -0.0020
vn -0.0043 0.8674 -0.4976
vn -0.0050 0.9907 -0.1362
vn 1.0000 -0.0009 0.0020
vn 1.0000 -0.0008 -0.0003
vn -0.0013 0.3069 -0.9517
vn -1.0000 0.0008 0.0003
vn -1.0000 0.0008 -0.0008
vn -0.0018 0.3046 0.9525
vn 1.0000 -0.0008 0.0008
vn 1.0000 -0.0008 0.0007
vn -0.0021 0.3767 0.9263
vn -1.0000 0.0008 -0.0007
vn -0.0045 0.9072 -0.4208
vn -0.0043 0.8659 -0.5001
vn -0.0049 0.9482 0.3176
vt 0.731857 0.016360
vt 0.731857 0.282251
vt 0.724043 0.282734
vt 0.724043 0.016843
vt 0.759687 0.162368
vt 0.751890 0.161666
vt 0.752953 0.157225
vt 0.757868 0.157448
vt 0.752292 0.152808
vt 0.760121 0.152807
vt 0.736355 0.161448
vt 0.744184 0.161539
vt 0.741644 0.166128
vt 0.736732 0.165862
vt 0.743671 0.170929
vt 0.735878 0.170172
vt 0.665612 0.281307
vt 0.665613 0.021173
vt 0.666369 0.025379
vt 0.666816 0.277140
vt 0.667347 0.021173
vt 0.668096 0.281214
vt 0.665613 0.021203
vt 0.665612 0.281336
vt 0.666818 0.277387
vt 0.666369 0.025626
vt 0.668096 0.281244
vt 0.667347 0.021203
vt 0.760121 0.123416
vt 0.752291 0.123416
vt 0.678324 0.021203
vt 0.678581 0.290001
vt 0.646417 0.021203
vt 0.647712 0.289740
vt 0.757259 0.189294
vt 0.753549 0.230423
vt 0.745751 0.229721
vt 0.749461 0.188592
vt 0.737714 0.132760
vt 0.745543 0.132850
vt 0.735128 0.188534
vt 0.742921 0.189291
vt 0.678325 0.021173
vt 0.678582 0.289972
vt 0.647712 0.289711
vt 0.646417 0.021173
vt 0.716223 0.016360
vt 0.724043 0.016761
vt 0.724043 0.285827
vt 0.716223 0.285426
vt 0.759695 0.084459
vt 0.757866 0.089283
vt 0.752952 0.089501
vt 0.751897 0.085162
vt 0.760120 0.094021
vt 0.752291 0.094020
vt 0.737922 0.105688
vt 0.738448 0.101750
vt 0.743366 0.101630
vt 0.745751 0.105777
vt 0.737712 0.096765
vt 0.745522 0.096217
vt 0.630067 0.287980
vt 0.628348 0.284863
vt 0.626237 0.025379
vt 0.627217 0.021173
vt 0.627537 0.289882
vt 0.625483 0.021173
vt 0.627217 0.021203
vt 0.626238 0.025626
vt 0.628350 0.285110
vt 0.630067 0.288009
vt 0.625483 0.021203
vt 0.627538 0.289911
vt 0.612897 0.021203
vt 0.615294 0.291515
vt 0.754169 0.023225
vt 0.746371 0.023927
vt 0.745751 0.017061
vt 0.753549 0.016360
vt 0.736471 0.077990
vt 0.744281 0.077442
vt 0.685005 0.021173
vt 0.685132 0.290026
vt 0.681280 0.282130
vt 0.681960 0.021173
vt 0.733300 0.207355
vt 0.733857 0.197416
vt 0.741650 0.198172
vt 0.741093 0.208112
vt 0.758178 0.179108
vt 0.757678 0.184652
vt 0.749880 0.183949
vt 0.750380 0.178406
vt 0.685004 0.021203
vt 0.681960 0.021203
vt 0.681279 0.282160
vt 0.685131 0.290056
vt 0.711976 0.021203
vt 0.710454 0.282807
vt 0.731857 0.246860
vt 0.739650 0.247618
vt 0.711977 0.021173
vt 0.710456 0.282778
vt 0.612896 0.021173
vt 0.615294 0.291485
vt 0.580823 0.021173
vt 0.585325 0.021173
vt 0.587949 0.290208
vt 0.580753 0.286080
vt 0.594586 0.021173
vt 0.600265 0.021173
vt 0.602875 0.290087
vt 0.597125 0.289297
vt 0.731857 0.016909
vt 0.739667 0.016360
vt 0.740737 0.028101
vt 0.732927 0.028650
vt 0.734336 0.049321
vt 0.742146 0.048772
vt 0.742809 0.057587
vt 0.734998 0.058136
vt 0.757095 0.055646
vt 0.749297 0.056349
vt 0.748427 0.046708
vt 0.756225 0.046006
vt 0.754317 0.024868
vt 0.746519 0.025570
vt 0.580824 0.021203
vt 0.580754 0.286110
vt 0.587950 0.290238
vt 0.585327 0.021203
vt 0.594587 0.021203
vt 0.597126 0.289327
vt 0.602876 0.290117
vt 0.600266 0.021203
vt 0.586404 0.021203
vt 0.589034 0.286850
vt 0.590121 0.290221
vt 0.587480 0.021203
vt 0.754660 0.028665
vt 0.746862 0.029367
vt 0.746667 0.027211
vt 0.754465 0.026510
vt 0.733020 0.032469
vt 0.740831 0.031920
vt 0.741271 0.035702
vt 0.733461 0.036251
vt 0.586403 0.021173
vt 0.587479 0.021173
vt 0.590119 0.290191
vt 0.589032 0.286820
vt 0.755443 0.037346
vt 0.747645 0.038048
vt 0.591538 0.286735
vt 0.588894 0.021203
vt 0.741383 0.039853
vt 0.733573 0.040402
vt 0.588893 0.021173
vt 0.591537 0.286705
vt 0.750165 0.065969
vt 0.757963 0.065267
vt 0.606587 0.021173
vt 0.609203 0.287968
vt 0.735587 0.068044
vt 0.743398 0.067495
vt 0.606588 0.021203
vt 0.609204 0.287998
s 0
usemtl Cabin
f 1/1/1 3/2/1 8/3/1 5/4/1
f 10/5/2 15/6/2 17/7/2 11/8/2
f 11/8/3 17/7/3 16/9/3 9/10/3
f 13/11/4 18/12/4 20/13/4 14/14/4
f 14/14/5 20/13/5 19/15/5 12/16/5
f 18/17/6 16/18/6 17/19/6 20/20/6
f 20/20/7 17/19/7 15/21/7 19/22/7
f 9/23/8 13/24/8 14/25/8 11/26/8
f 11/26/9 14/25/9 12/27/9 10/28/9
f 2/29/10 9/10/10 16/9/10 6/30/10
f 45/31/11 10/28/11 12/27/11 47/32/11
f 9/23/12 2/33/12 4/34/12 13/24/12
f 43/35/10 1/36/10 5/37/10 44/38/10
f 13/11/13 4/39/13 7/40/13 18/12/13
f 47/41/14 12/16/14 19/15/14 48/42/14
f 46/43/15 48/44/15 19/22/15 15/21/15
f 16/18/16 18/17/16 7/45/16 6/46/16
f 21/47/17 23/48/17 24/49/17 22/50/17
f 26/51/18 27/52/18 33/53/18 31/54/18
f 27/52/19 25/55/19 32/56/19 33/53/19
f 29/57/20 30/58/20 36/59/20 34/60/20
f 30/58/21 28/61/21 35/62/21 36/59/21
f 34/63/22 36/64/22 33/65/22 32/66/22
f 36/64/23 35/67/23 31/68/23 33/65/23
f 25/69/24 27/70/24 30/71/24 29/72/24
f 27/70/25 26/73/25 28/74/25 30/71/25
f 2/29/10 6/30/10 32/56/10 25/55/10
f 25/69/26 29/72/26 4/34/26 2/33/26
f 73/75/27 75/76/27 28/74/27 26/73/27
f 29/57/28 34/60/28 7/40/28 4/39/28
f 49/77/10 53/78/10 23/79/10 21/80/10
f 75/81/29 76/82/29 35/62/29 28/61/29
f 32/66/30 6/46/30 7/45/30 34/63/30
f 44/83/31 42/84/31 40/85/31 39/86/31
f 41/87/32 38/88/32 40/89/32 42/90/32
f 45/91/10 37/92/10 39/93/10 46/94/10
f 43/95/33 37/96/33 38/97/33 41/98/33
f 1/99/34 43/95/34 41/98/34 3/100/34
f 3/101/35 41/87/35 42/90/35 8/102/35
f 5/103/36 8/104/36 42/84/36 44/83/36
f 37/92/10 43/35/10 44/38/10 39/93/10
f 10/5/10 45/91/10 46/94/10 15/6/10
f 39/86/37 40/85/37 48/44/37 46/43/37
f 38/88/38 47/41/38 48/42/38 40/89/38
f 37/96/39 45/31/39 47/32/39 38/97/39
f 74/105/40 31/68/40 35/67/40 76/106/40
f 23/107/41 53/108/41 56/109/41 24/110/41
f 70/111/37 54/112/37 55/113/37 72/114/37
f 22/115/42 24/116/42 56/117/42 52/118/42
f 71/119/43 72/120/43 55/121/43 51/122/43
f 79/123/10 80/124/10 54/125/10 50/126/10
f 63/127/10 64/128/10 53/78/10 49/77/10
f 21/129/44 22/130/44 52/131/44 49/132/44
f 69/133/39 71/134/39 51/135/39 50/136/39
f 63/137/45 61/138/45 58/139/45 57/140/45
f 65/141/10 66/142/10 59/143/10 57/144/10
f 61/145/46 62/146/46 60/147/46 58/148/46
f 64/149/47 59/150/47 60/151/47 62/152/47
f 53/108/48 64/149/48 62/152/48 56/109/48
f 52/118/49 56/117/49 62/146/49 61/145/49
f 49/132/50 52/131/50 61/138/50 63/137/50
f 57/144/10 59/143/10 64/128/10 63/127/10
f 69/153/10 70/154/10 66/142/10 65/141/10
f 57/140/51 58/139/51 67/155/51 65/156/51
f 58/148/52 60/147/52 68/157/52 67/158/52
f 59/150/53 66/159/53 68/160/53 60/151/53
f 50/126/10 54/125/10 70/154/10 69/153/10
f 65/156/39 67/155/39 71/134/39 69/133/39
f 67/158/54 68/157/54 72/120/54 71/119/54
f 66/159/37 70/111/37 72/114/37 68/160/37
f 26/51/10 31/54/10 74/161/10 73/162/10
f 80/163/37 74/105/37 76/106/37 78/164/37
f 77/165/55 78/166/55 76/82/55 75/81/55
f 79/167/39 77/168/39 75/76/39 73/75/39
f 50/136/27 51/135/27 77/168/27 79/167/27
f 51/122/56 55/121/56 78/166/56 77/165/56
f 54/112/40 80/163/40 78/164/40 55/113/40
f 73/162/10 74/161/10 80/124/10 79/123/10
o Sphere
v 0.001498 2.997722 -1.092584
v -0.148798 2.995868 -1.242422
v -0.218673 2.995354 -1.092584
v -0.148693 2.886577 -1.198536
v -0.148649 2.841307 -1.092584
v -0.148693 2.886577 -0.986632
v -0.148798 2.995868 -0.942746
v -0.148903 3.105159 -0.986632
v -0.148946 3.150429 -1.092584
v -0.148903 3.105159 -1.198536
v -0.066817 2.996471 -1.286009
v -0.066681 2.855388 -1.229356
v -0.066625 2.796950 -1.092584
v -0.066681 2.855388 -0.955812
v -0.066817 2.996471 -0.899160
v -0.066953 3.137554 -0.955812
v -0.067009 3.195992 -1.092584
v -0.066953 3.137554 -1.229356
v -0.035625 2.793525 -1.289549
v -0.035820 2.996699 -1.371135
v -0.035544 2.709368 -1.092584
v -0.035625 2.793525 -0.895619
v -0.035820 2.996699 -0.814033
v -0.036015 3.199872 -0.895619
v -0.036096 3.284029 -1.092584
v -0.036015 3.199872 -1.289549
v -0.066235 3.143494 -0.950059
v -0.066235 3.143494 -1.235109
v -0.066294 3.204391 -1.092584
v -0.066094 2.996476 -0.891023
v -0.065953 2.849458 -0.950059
v -0.065894 2.788562 -1.092584
v -0.065953 2.849458 -1.235110
v -0.066094 2.996476 -1.294145
v -0.085289 3.143354 -0.950059
v -0.083432 3.192238 -0.902682
v -0.085348 3.204251 -1.092584
v -0.083510 3.273377 -1.092584
v -0.083432 3.192238 -1.282486
v -0.083244 2.996350 -1.361146
v -0.083244 2.996350 -0.824022
v -0.083056 2.800463 -0.902682
v -0.082978 2.719323 -1.092584
v -0.083056 2.800462 -1.282486
v -0.085148 2.996336 -0.891023
v -0.085007 2.849319 -0.950059
v -0.084948 2.788422 -1.092584
v -0.085007 2.849319 -1.235110
v -0.085148 2.996336 -1.294145
v -0.085289 3.143354 -1.235109
vn -1.0000 -0.0010 -0.0000
vn -0.7241 -0.0007 -0.6897
vn -0.7275 -0.4780 -0.4923
vn 0.6792 -0.5106 -0.5273
vn 0.6712 0.0006 -0.7413
vn 1.0000 0.0013 -0.0000
vn -0.8098 -0.0008 -0.5868
vn -0.8153 0.4027 -0.4162
vn -0.0051 0.6960 -0.7180
vn -0.0000 -0.0000 -1.0000
vn 0.6859 -0.7277 -0.0000
vn 0.6792 -0.5106 0.5273
vn -0.7320 -0.6813 -0.0000
vn 0.6792 0.7340 -0.0000
vn -0.2192 0.9757 -0.0000
vn -0.2140 0.6798 0.7015
vn 0.6744 0.5143 0.5298
vn -0.7275 -0.4780 0.4923
vn -0.7241 -0.0007 0.6897
vn 0.6712 0.0006 0.7413
vn 0.6744 0.5143 -0.5298
vn -0.7312 0.4744 0.4901
vn -0.7373 0.6755 -0.0000
vn -0.7312 0.4744 -0.4901
vn -0.8127 -0.4060 -0.4179
vn 0.0051 -0.6960 -0.7180
vn -0.2140 0.6798 -0.7015
vn -0.4787 0.6109 -0.6306
vn -0.4694 -0.0005 -0.8830
vn -0.4860 0.8740 -0.0000
vn -0.4787 0.6109 0.6306
vn -0.4694 -0.0005 0.8830
vn -0.4714 -0.6141 0.6330
vn -0.4757 -0.8796 -0.0000
vn -0.4714 -0.6141 -0.6330
vn -0.2043 -0.6815 -0.7027
vn -0.2061 -0.0002 -0.9785
vn -0.2054 -0.9787 -0.0000
vn -0.2043 -0.6815 0.7027
vn -0.2061 -0.0002 0.9785
vn -0.8165 -0.5773 -0.0000
vn 0.0074 -1.0000 -0.0000
vn -0.8127 -0.4060 0.4179
vn 0.0051 -0.6960 0.7180
vn -0.9961 -0.0010 -0.0885
vn -0.9963 0.0597 -0.0625
vn -0.8098 -0.0008 0.5868
vn -0.9961 -0.0616 -0.0626
vn -0.8153 0.4027 0.4162
vn -0.9962 -0.0868 -0.0000
vn -0.8200 0.5723 -0.0000
vn -0.9961 -0.0616 0.0626
vn -0.9964 0.0848 -0.0000
vn -0.9963 0.0597 0.0625
vn -0.9961 -0.0010 0.0885
vn -0.9996 -0.0010 0.0284
vn -0.9996 -0.0204 0.0201
vn -0.9996 0.0185 0.0201
vn -0.9996 0.0266 -0.0000
vn -0.9996 0.0185 -0.0201
vn -0.9996 -0.0285 -0.0000
vn -0.9996 -0.0204 -0.0201
vn -0.9996 -0.0010 -0.0284
vn -0.0000 -0.0000 1.0000
vn -0.0051 0.6960 0.7180
vn -0.0074 1.0000 -0.0000
vt 0.833169 0.821190
vt 0.820517 0.821233
vt 0.824222 0.812005
vt 0.724683 0.333454
vt 0.726974 0.333454
vt 0.725835 0.336223
vt 0.848703 0.805980
vt 0.833359 0.799569
vt 0.833233 0.796306
vt 0.850904 0.803585
vt 0.723062 0.335074
vt 0.723062 0.337366
vt 0.833169 0.808183
vt 0.862236 0.850200
vt 0.856023 0.844005
vt 0.865782 0.821276
vt 0.873949 0.821286
vt 0.842115 0.812005
vt 0.845820 0.821233
vt 0.724683 0.338986
vt 0.728594 0.337366
vt 0.728595 0.335075
vt 0.842115 0.830461
vt 0.726974 0.338986
vt 0.833169 0.834284
vt 0.824222 0.830461
vt 0.855056 0.821361
vt 0.858347 0.821247
vt 0.833301 0.862013
vt 0.833294 0.853845
vt 0.819318 0.835581
vt 0.813581 0.821294
vt 0.833169 0.841499
vt 0.847019 0.835581
vt 0.852756 0.821294
vt 0.847019 0.807007
vt 0.833169 0.801090
vt 0.819318 0.807007
vt 0.792478 0.821229
vt 0.800647 0.821241
vt 0.810518 0.844040
vt 0.804320 0.850249
vt 0.804397 0.792218
vt 0.810571 0.798487
vt 0.833659 0.780416
vt 0.833221 0.788882
vt 0.862364 0.792665
vt 0.856110 0.798356
vt 0.848479 0.836637
vt 0.850838 0.838823
vt 0.833162 0.843084
vt 0.833285 0.846383
vt 0.818487 0.835913
vt 0.833167 0.842188
vt 0.817860 0.836526
vt 0.812429 0.821221
vt 0.811542 0.821221
vt 0.818592 0.806535
vt 0.817965 0.805912
vt 0.833355 0.800456
vt 0.847865 0.836015
vt 0.854163 0.821355
vt 0.848077 0.806604
vt 0.815753 0.803701
vt 0.808144 0.821219
vt 0.815669 0.838881
s 1
usemtl Cabin
f 83/169/57 82/170/58 84/171/59
f 99/172/60 100/173/61 81/174/62
f 110/175/63 111/176/64 126/177/65 125/178/66
f 101/179/67 81/174/62 102/180/68
f 83/169/57 84/171/59 85/181/69
f 101/179/67 99/172/60 81/174/62
f 105/182/70 118/183/71 116/184/72 104/185/73
f 83/169/57 85/181/69 86/186/74
f 83/169/57 86/186/74 87/187/75
f 103/188/76 102/180/68 81/174/62
f 105/189/70 81/174/62 106/190/77
f 83/169/57 87/187/75 88/191/78
f 104/192/73 103/188/76 81/174/62
f 83/169/57 88/191/78 89/193/79
f 105/189/70 104/192/73 81/174/62
f 83/169/57 89/193/79 90/194/80
f 107/195/81 110/175/63 125/178/66 115/196/82
f 106/190/77 81/174/62 100/173/61
f 83/169/57 90/194/80 82/170/58
f 105/182/70 106/197/77 119/198/83 118/183/71
f 90/194/80 98/199/84 91/200/85 82/170/58
f 89/193/79 97/201/86 98/199/84 90/194/80
f 88/191/78 96/202/87 97/201/86 89/193/79
f 87/187/75 95/203/88 96/202/87 88/191/78
f 86/186/74 94/204/89 95/203/88 87/187/75
f 85/181/69 93/205/90 94/204/89 86/186/74
f 84/171/59 92/206/91 93/205/90 85/181/69
f 82/170/58 91/200/85 92/206/91 84/171/59
f 99/207/60 124/208/92 120/209/93 100/210/61
f 101/211/67 123/212/94 124/208/92 99/207/60
f 102/213/68 122/214/95 123/212/94 101/211/67
f 103/215/76 121/216/96 122/214/95 102/213/68
f 104/185/73 116/184/72 121/216/96 103/215/76
f 119/198/83 106/197/77 100/210/61 120/209/93
f 109/217/97 107/195/81 115/196/82 117/218/98
f 108/219/99 109/217/97 117/218/98 130/220/100
f 91/221/101 98/222/102 108/219/99 114/223/103
f 92/224/104 91/221/101 114/223/103 113/225/105
f 93/226/106 92/224/104 113/225/105 112/227/107
f 94/228/108 93/226/106 112/227/107 111/176/64
f 98/222/102 97/229/109 109/217/97 108/219/99
f 97/229/109 96/230/110 107/195/81 109/217/97
f 96/230/110 95/231/111 110/175/63 107/195/81
f 95/231/111 94/228/108 111/176/64 110/175/63
f 125/178/112 126/177/113 122/214/113 121/216/112
f 115/196/114 125/178/112 121/216/112 116/184/114
f 117/218/115 115/196/114 116/184/114 118/183/115
f 130/220/116 117/218/115 118/183/115 119/198/116
f 126/177/113 127/232/117 123/212/117 122/214/113
f 127/232/117 128/233/118 124/208/118 123/212/117
f 128/233/118 129/234/119 120/209/119 124/208/118
f 129/234/119 130/220/116 119/198/116 120/209/119
f 114/223/103 108/219/99 130/220/100 129/234/120
f 113/225/105 114/223/103 129/234/120 128/233/121
f 112/227/107 113/225/105 128/233/121 127/232/122
f 111/176/64 112/227/107 127/232/122 126/177/65
o Torus
v -0.153331 2.553734 -1.247169
v -0.121910 2.565181 -1.236949
v -0.119022 2.594068 -1.216508
v -0.147556 2.611508 -1.206287
v -0.178978 2.600061 -1.216508
v -0.181865 2.571174 -1.236949
v -0.139835 2.688748 -1.342708
v -0.109306 2.691268 -1.326171
v -0.108203 2.702302 -1.293097
v -0.137629 2.710816 -1.276560
v -0.168158 2.708295 -1.293097
v -0.169261 2.697262 -1.326171
v -0.123153 2.855634 -1.342708
v -0.093727 2.847121 -1.326171
v -0.094829 2.836087 -1.293097
v -0.125359 2.833567 -1.276560
v -0.154785 2.842080 -1.293097
v -0.153682 2.853114 -1.326171
v -0.109656 2.990649 -1.247169
v -0.081122 2.973208 -1.236949
v -0.084010 2.944321 -1.216508
v -0.115431 2.932875 -1.206287
v -0.143965 2.950315 -1.216508
v -0.141078 2.979202 -1.236949
v -0.104501 3.042219 -1.092584
v -0.076308 3.021369 -1.092584
v -0.079877 2.985663 -1.092584
v -0.111640 2.970807 -1.092584
v -0.139833 2.991657 -1.092584
v -0.136263 3.027363 -1.092584
v -0.109656 2.990649 -0.937999
v -0.081122 2.973208 -0.948219
v -0.084010 2.944321 -0.968660
v -0.115431 2.932875 -0.978881
v -0.143965 2.950315 -0.968660
v -0.141078 2.979202 -0.948219
v -0.123153 2.855634 -0.842460
v -0.093727 2.847121 -0.858997
v -0.094829 2.836087 -0.892071
v -0.125359 2.833567 -0.908608
v -0.154785 2.842080 -0.892071
v -0.153682 2.853114 -0.858997
v -0.139835 2.688748 -0.842460
v -0.109306 2.691268 -0.858997
v -0.108203 2.702302 -0.892071
v -0.137629 2.710816 -0.908608
v -0.168158 2.708295 -0.892071
v -0.169261 2.697262 -0.858997
v -0.153331 2.553734 -0.937999
v -0.121910 2.565181 -0.948219
v -0.119022 2.594068 -0.968660
v -0.147556 2.611508 -0.978881
v -0.178978 2.600061 -0.968660
v -0.181865 2.571174 -0.948219
v -0.155909 2.527949 -1.015291
v -0.124317 2.541101 -1.020402
v -0.121089 2.573397 -1.030622
v -0.149452 2.592542 -1.035733
v -0.181044 2.579390 -1.030622
v -0.184272 2.547094 -1.020402
v -0.155909 2.527949 -1.169877
v -0.124317 2.541101 -1.164767
v -0.121089 2.573397 -1.154546
v -0.149452 2.592542 -1.149436
v -0.181044 2.579390 -1.154546
v -0.184272 2.547094 -1.164767
v -0.159711 2.489909 -1.080687
v -0.159711 2.489909 -1.104482
v -0.101020 2.517527 -1.104423
v -0.101020 2.517527 -1.080745
v -0.095196 2.582672 -1.104137
v -0.095196 2.582672 -1.081031
v -0.146708 2.619989 -1.103859
v -0.146708 2.619989 -1.081309
v -0.204587 2.593607 -1.104137
v -0.204587 2.593607 -1.081031
v -0.211774 2.528598 -1.104423
v -0.211774 2.528598 -1.080745
vn -0.0796 -0.7962 -0.5998
vn 0.7799 -0.5282 -0.3358
vn 0.9398 0.2365 0.2465
vn 0.0796 0.7962 0.5998
vn -0.8744 0.4179 0.2465
vn -0.8690 -0.3633 -0.3358
vn -0.0299 -0.2989 -0.9538
vn 0.8030 -0.2513 -0.5404
vn 0.9169 0.0342 0.3977
vn 0.0299 0.2989 0.9538
vn -0.8920 0.2150 0.3977
vn -0.8369 -0.0874 -0.5404
vn 0.0299 0.2989 -0.9538
vn 0.8369 0.0874 -0.5404
vn 0.8920 -0.2150 0.3977
vn -0.0299 -0.2989 0.9538
vn -0.9169 -0.0342 0.3977
vn -0.8030 0.2513 -0.5404
vn 0.0796 0.7962 -0.5998
vn 0.8690 0.3633 -0.3358
vn 0.8744 -0.4179 0.2465
vn -0.0796 -0.7962 0.5998
vn -0.9398 -0.2365 0.2465
vn -0.7799 0.5282 -0.3358
vn 0.0995 0.9950 -0.0000
vn 0.8826 0.4702 -0.0000
vn 0.8683 -0.4960 -0.0000
vn -0.0995 -0.9950 -0.0000
vn -0.9493 -0.3143 -0.0000
vn -0.7721 0.6356 -0.0000
vn 0.8690 0.3633 0.3358
vn 0.8744 -0.4179 -0.2465
vn -0.9398 -0.2365 -0.2465
vn -0.7799 0.5282 0.3358
vn 0.8369 0.0874 0.5404
vn 0.8920 -0.2150 -0.3977
vn -0.9169 -0.0342 -0.3977
vn -0.8030 0.2513 0.5404
vn 0.8030 -0.2513 0.5404
vn 0.9169 0.0342 -0.3977
vn -0.8920 0.2150 -0.3977
vn -0.8369 -0.0874 0.5404
vn 0.7799 -0.5282 0.3358
vn 0.9398 0.2365 -0.2465
vn -0.8744 0.4179 -0.2465
vn -0.8690 -0.3633 0.3358
vn -0.0902 -0.9024 0.4214
vn 0.7702 -0.5400 0.3394
vn 0.8999 0.3870 0.2012
vn 0.0984 0.9848 0.1432
vn -0.8055 0.5575 0.2012
vn -0.8619 -0.3769 0.3394
vn -0.0902 -0.9024 -0.4214
vn 0.7702 -0.5400 -0.3394
vn 0.8999 0.3870 -0.2012
vn 0.0984 0.9848 -0.1432
vn -0.8055 0.5575 -0.2012
vn -0.8619 -0.3769 -0.3394
vn -0.0964 -0.9641 0.2476
vn -0.0964 -0.9641 -0.2476
vn 0.8012 -0.5506 -0.2344
vn 0.8012 -0.5506 0.2344
vn 0.8855 0.4056 -0.2267
vn 0.8855 0.4056 0.2267
vn 0.0968 0.9679 -0.2320
vn 0.0968 0.9679 0.2320
vn -0.7877 0.5728 -0.2267
vn -0.7877 0.5728 0.2267
vn -0.8943 -0.3811 -0.2344
vn -0.8943 -0.3811 0.2344
vt 0.891386 0.740365
vt 0.891289 0.748531
vt 0.888047 0.748513
vt 0.887157 0.740684
vt 0.884546 0.748634
vt 0.883379 0.741342
vt 0.880782 0.748963
vt 0.879442 0.742113
vt 0.903023 0.742681
vt 0.901402 0.749355
vt 0.897621 0.748872
vt 0.899187 0.741749
vt 0.894375 0.748547
vt 0.895550 0.740912
vt 0.891069 0.762203
vt 0.887987 0.762200
vt 0.884824 0.762134
vt 0.881253 0.762190
vt 0.900979 0.762529
vt 0.897409 0.762408
vt 0.894251 0.762236
vt 0.891065 0.775276
vt 0.887995 0.775295
vt 0.885082 0.775274
vt 0.881522 0.775211
vt 0.900795 0.775555
vt 0.897253 0.775471
vt 0.894118 0.775299
vt 0.891039 0.788339
vt 0.887965 0.788323
vt 0.884627 0.788273
vt 0.881103 0.788171
vt 0.900708 0.788567
vt 0.897161 0.788535
vt 0.894004 0.788365
vt 0.890828 0.801466
vt 0.887783 0.801412
vt 0.884645 0.801268
vt 0.881102 0.801222
vt 0.900569 0.801664
vt 0.897015 0.801674
vt 0.893872 0.801512
vt 0.890597 0.814438
vt 0.887623 0.814419
vt 0.884564 0.814278
vt 0.881099 0.814254
vt 0.900357 0.814701
vt 0.896917 0.814573
vt 0.893669 0.814480
vt 0.890525 0.827014
vt 0.887679 0.826998
vt 0.884678 0.826854
vt 0.881303 0.826819
vt 0.899587 0.827257
vt 0.896180 0.827122
vt 0.893376 0.827061
vt 0.890384 0.839362
vt 0.887433 0.839306
vt 0.884506 0.839137
vt 0.881196 0.839037
vt 0.899666 0.839499
vt 0.896368 0.839433
vt 0.893242 0.839412
vt 0.890066 0.851884
vt 0.887260 0.851851
vt 0.884308 0.851550
vt 0.880864 0.851123
vt 0.899398 0.851591
vt 0.895972 0.851796
vt 0.892996 0.851940
vt 0.893704 0.858887
vt 0.889930 0.859189
vt 0.897021 0.858313
vt 0.900516 0.857671
vt 0.882917 0.857987
vt 0.879442 0.857169
vt 0.886198 0.858719
vt 0.871277 0.775315
vt 0.871297 0.780193
vt 0.869283 0.780236
vt 0.869376 0.775315
vt 0.871436 0.785845
vt 0.869054 0.785887
vt 0.871822 0.794104
vt 0.868403 0.793993
vt 0.871822 0.756526
vt 0.871436 0.764784
vt 0.869054 0.764742
vt 0.868403 0.756636
vt 0.871297 0.770437
vt 0.869283 0.770394
vt 0.879350 0.775315
vt 0.879404 0.780085
vt 0.861338 0.775315
vt 0.861272 0.780031
vt 0.879404 0.770544
vt 0.861272 0.770598
vt 0.861560 0.784920
vt 0.879048 0.785045
vt 0.860555 0.790265
vt 0.879936 0.790515
vt 0.860555 0.760365
vt 0.861560 0.765709
vt 0.879936 0.760114
vt 0.879048 0.765585
s 1
usemtl Cabin
f 191/235/175 131/236/123 132/237/124 192/238/176
f 192/238/176 132/237/124 133/239/125 193/240/177
f 193/240/177 133/239/125 134/241/126 194/242/178
f 194/243/178 134/244/126 135/245/127 195/246/179
f 195/246/179 135/245/127 136/247/128 196/248/180
f 196/248/180 136/247/128 131/236/123 191/235/175
f 131/236/123 137/249/129 138/250/130 132/237/124
f 132/237/124 138/250/130 139/251/131 133/239/125
f 133/239/125 139/251/131 140/252/132 134/241/126
f 134/244/126 140/253/132 141/254/133 135/245/127
f 135/245/127 141/254/133 142/255/134 136/247/128
f 136/247/128 142/255/134 137/249/129 131/236/123
f 137/249/129 143/256/135 144/257/136 138/250/130
f 138/250/130 144/257/136 145/258/137 139/251/131
f 139/251/131 145/258/137 146/259/138 140/252/132
f 140/253/132 146/260/138 147/261/139 141/254/133
f 141/254/133 147/261/139 148/262/140 142/255/134
f 142/255/134 148/262/140 143/256/135 137/249/129
f 143/256/135 149/263/141 150/264/142 144/257/136
f 144/257/136 150/264/142 151/265/143 145/258/137
f 145/258/137 151/265/143 152/266/144 146/259/138
f 146/260/138 152/267/144 153/268/145 147/261/139
f 147/261/139 153/268/145 154/269/146 148/262/140
f 148/262/140 154/269/146 149/263/141 143/256/135
f 149/263/141 155/270/147 156/271/148 150/264/142
f 150/264/142 156/271/148 157/272/149 151/265/143
f 151/265/143 157/272/149 158/273/150 152/266/144
f 152/267/144 158/274/150 159/275/151 153/268/145
f 153/268/145 159/275/151 160/276/152 154/269/146
f 154/269/146 160/276/152 155/270/147 149/263/141
f 155/270/147 161/277/126 162/278/153 156/271/148
f 156/271/148 162/278/153 163/279/154 157/272/149
f 157/272/149 163/279/154 164/280/123 158/273/150
f 158/274/150 164/281/123 165/282/155 159/275/151
f 159/275/151 165/282/155 166/283/156 160/276/152
f 160/276/152 166/283/156 161/277/126 155/270/147
f 161/277/126 167/284/132 168/285/157 162/278/153
f 162/278/153 168/285/157 169/286/158 163/279/154
f 163/279/154 169/286/158 170/287/129 164/280/123
f 164/281/123 170/288/129 171/289/159 165/282/155
f 165/282/155 171/289/159 172/290/160 166/283/156
f 166/283/156 172/290/160 167/284/132 161/277/126
f 167/284/132 173/291/138 174/292/161 168/285/157
f 168/285/157 174/292/161 175/293/162 169/286/158
f 169/286/158 175/293/162 176/294/135 170/287/129
f 170/288/129 176/295/135 177/296/163 171/289/159
f 171/289/159 177/296/163 178/297/164 172/290/160
f 172/290/160 178/297/164 173/291/138 167/284/132
f 173/291/138 179/298/144 180/299/165 174/292/161
f 174/292/161 180/299/165 181/300/166 175/293/162
f 175/293/162 181/300/166 182/301/141 176/294/135
f 176/295/135 182/302/141 183/303/167 177/296/163
f 177/296/163 183/303/167 184/304/168 178/297/164
f 178/297/164 184/304/168 179/298/144 173/291/138
f 184/304/168 190/305/174 185/306/169 179/298/144
f 183/303/167 189/307/173 190/305/174 184/304/168
f 182/302/141 188/308/172 189/307/173 183/303/167
f 181/300/166 187/309/171 188/310/172 182/301/141
f 180/299/165 186/311/170 187/309/171 181/300/166
f 179/298/144 185/306/169 186/311/170 180/299/165
f 198/312/182 199/313/183 200/314/184 197/315/181
f 199/313/183 201/316/185 202/317/186 200/314/184
f 201/316/185 203/318/187 204/319/188 202/317/186
f 203/320/187 205/321/189 206/322/190 204/323/188
f 205/321/189 207/324/191 208/325/192 206/322/190
f 197/315/181 208/325/192 207/324/191 198/312/182
f 198/312/182 191/326/175 192/327/176 199/313/183
f 185/328/169 197/315/181 200/314/184 186/329/170
f 207/324/191 196/330/180 191/326/175 198/312/182
f 190/331/174 208/325/192 197/315/181 185/328/169
f 186/329/170 200/314/184 202/317/186 187/332/171
f 199/313/183 192/327/176 193/333/177 201/316/185
f 187/332/171 202/317/186 204/319/188 188/334/172
f 201/316/185 193/333/177 194/335/178 203/318/187
f 188/336/172 204/323/188 206/322/190 189/337/173
f 203/320/187 194/338/178 195/339/179 205/321/189
f 189/337/173 206/322/190 208/325/192 190/331/174
f 205/321/189 195/339/179 196/330/180 207/324/191
o Cylinder.002
v 0.001589 3.390729 0.054580
v 0.001589 2.658080 0.054580
v -0.019259 3.390729 0.050433
v -0.019259 2.658080 0.050433
v -0.036933 3.390729 0.038624
v -0.036933 2.658080 0.038624
v -0.048742 3.390729 0.020950
v -0.048742 2.658080 0.020950
v -0.052889 3.390729 0.000102
v -0.052889 2.658080 0.000102
v -0.048742 3.390729 -0.020746
v -0.048742 2.658080 -0.020746
v -0.036933 3.390729 -0.038420
v -0.036933 2.658080 -0.038420
v -0.019259 3.390729 -0.050229
v -0.019259 2.658080 -0.050229
v 0.001589 3.390729 -0.054376
v 0.001589 2.658080 -0.054376
v 0.022437 3.390729 -0.050229
v 0.022437 2.658080 -0.050229
v 0.040110 3.390729 -0.038420
v 0.040110 2.658080 -0.038420
v 0.051920 3.390729 -0.020746
v 0.051920 2.658080 -0.020746
v 0.056067 3.390729 0.000102
v 0.056067 2.658080 0.000102
v 0.051920 3.390729 0.020950
v 0.051920 2.658080 0.020950
v 0.040110 3.390729 0.038624
v 0.040110 2.658080 0.038624
v 0.022437 3.390729 0.050433
v 0.022437 2.658080 0.050433
v 0.001589 3.395297 0.000102
v 0.001589 2.655238 0.000102
v -0.049976 1.491040 -0.017476
v -0.049976 0.758391 -0.017476
v -0.039324 1.491040 -0.035870
v -0.039324 0.758391 -0.035870
v -0.022444 1.491040 -0.048789
v -0.022444 0.758391 -0.048789
v -0.001905 1.491040 -0.054264
v -0.001905 0.758391 -0.054264
v 0.019166 1.491040 -0.051462
v 0.019166 0.758391 -0.051462
v 0.037561 1.491040 -0.040811
v 0.037561 0.758391 -0.040811
v 0.050479 1.491040 -0.023931
v 0.050479 0.758391 -0.023931
v 0.055954 1.491040 -0.003392
v 0.055954 0.758391 -0.003392
v 0.053153 1.491040 0.017679
v 0.053153 0.758391 0.017679
v 0.042501 1.491040 0.036074
v 0.042501 0.758391 0.036074
v 0.025621 1.491040 0.048992
v 0.025621 0.758391 0.048992
v 0.005082 1.491040 0.054467
v 0.005082 0.758391 0.054467
v -0.015989 1.491040 0.051666
v -0.015989 0.758391 0.051666
v -0.034384 1.491040 0.041014
v -0.034384 0.758391 0.041014
v -0.047302 1.491040 0.024134
v -0.047302 0.758391 0.024134
v -0.052777 1.491040 0.003595
v -0.052777 0.758391 0.003595
v 0.001589 1.495608 0.000102
v 0.001589 0.755549 0.000102
vn -0.0000 0.1301 0.9915
vn -0.0000 -0.1306 0.9914
vn -0.3794 0.1301 0.9160
vn -0.3794 -0.1306 0.9160
vn -0.7011 0.1301 0.7011
vn -0.7010 -0.1306 0.7010
vn -0.9160 0.1301 0.3794
vn -0.9160 -0.1306 0.3794
vn -0.9915 0.1301 -0.0000
vn -0.9914 -0.1306 -0.0000
vn -0.9160 0.1301 -0.3794
vn -0.9160 -0.1306 -0.3794
vn -0.7011 0.1301 -0.7011
vn -0.7010 -0.1306 -0.7010
vn -0.3794 0.1301 -0.9160
vn -0.3794 -0.1306 -0.9160
vn -0.0000 0.1301 -0.9915
vn -0.0000 -0.1306 -0.9914
vn 0.3794 0.1301 -0.9160
vn 0.3794 -0.1306 -0.9160
vn 0.7011 0.1301 -0.7011
vn 0.7010 -0.1306 -0.7010
vn 0.9160 0.1301 -0.3794
vn 0.9160 -0.1306 -0.3794
vn 0.9915 0.1301 -0.0000
vn 0.9914 -0.1306 -0.0000
vn 0.9160 0.1301 0.3794
vn 0.9160 -0.1306 0.3794
vn 0.7011 0.1301 0.7011
vn 0.7010 -0.1306 0.7010
vn 0.3794 0.1301 0.9160
vn 0.3794 -0.1306 0.9160
vn -0.0000 1.0000 -0.0000
vn -0.0000 -1.0000 -0.0000
vn -0.9385 0.1301 -0.3199
vn -0.9384 -0.1306 -0.3199
vn -0.7446 0.1301 -0.6547
vn -0.7446 -0.1306 -0.6546
vn -0.4374 0.1301 -0.8898
vn -0.4374 -0.1306 -0.8897
vn -0.0636 0.1301 -0.9895
vn -0.0636 -0.1306 -0.9894
vn 0.3199 0.1301 -0.9385
vn 0.3199 -0.1306 -0.9384
vn 0.6547 0.1301 -0.7446
vn 0.6546 -0.1306 -0.7446
vn 0.8898 0.1301 -0.4374
vn 0.8897 -0.1306 -0.4374
vn 0.9895 0.1301 -0.0636
vn 0.9894 -0.1306 -0.0636
vn 0.9385 0.1301 0.3199
vn 0.9384 -0.1306 0.3199
vn 0.7446 0.1301 0.6547
vn 0.7446 -0.1306 0.6546
vn 0.4374 0.1301 0.8898
vn 0.4374 -0.1306 0.8897
vn 0.0636 0.1301 0.9895
vn 0.0636 -0.1306 0.9894
vn -0.3199 0.1301 0.9385
vn -0.3199 -0.1306 0.9384
vn -0.6547 0.1301 0.7446
vn -0.6546 -0.1306 0.7446
vn -0.8898 0.1301 0.4374
vn -0.8897 -0.1306 0.4374
vn -0.9895 0.1301 0.0636
vn -0.9894 -0.1306 0.0636
vt 0.059490 0.131292
vt 0.059490 0.156446
vt 0.056346 0.156446
vt 0.056346 0.131292
vt 0.053201 0.156446
vt 0.053201 0.131292
vt 0.050057 0.156446
vt 0.050057 0.131292
vt 0.046913 0.156446
vt 0.046913 0.131292
vt 0.043769 0.156446
vt 0.043769 0.131292
vt 0.040624 0.156446
vt 0.040624 0.131292
vt 0.037480 0.156446
vt 0.037480 0.131292
vt 0.034336 0.156446
vt 0.034336 0.131292
vt 0.031191 0.156446
vt 0.031191 0.131292
vt 0.028047 0.156446
vt 0.028047 0.131292
vt 0.024903 0.156446
vt 0.024903 0.131292
vt 0.021758 0.156446
vt 0.021758 0.131292
vt 0.018614 0.156446
vt 0.018614 0.131292
vt 0.015470 0.156446
vt 0.015470 0.131292
vt 0.012326 0.156446
vt 0.012326 0.131292
vt 0.009181 0.156446
vt 0.009181 0.131292
s 1
usemtl Cabin
f 209/340/193 211/343/195 212/342/196 210/341/194
f 211/343/195 213/345/197 214/344/198 212/342/196
f 213/345/197 215/347/199 216/346/200 214/344/198
f 215/347/199 217/349/201 218/348/202 216/346/200
f 217/349/201 219/351/203 220/350/204 218/348/202
f 219/351/203 221/353/205 222/352/206 220/350/204
f 221/353/205 223/355/207 224/354/208 222/352/206
f 223/355/207 225/357/209 226/356/210 224/354/208
f 225/357/209 227/359/211 228/358/212 226/356/210
f 227/359/211 229/361/213 230/360/214 228/358/212
f 229/361/213 231/363/215 232/362/216 230/360/214
f 231/363/215 233/365/217 234/364/218 232/362/216
f 233/365/217 235/367/219 236/366/220 234/364/218
f 235/367/219 237/369/221 238/368/222 236/366/220
f 222/352/206 242/352/226 220/350/204
f 237/369/221 239/371/223 240/370/224 238/368/222
f 239/371/223 209/373/193 210/372/194 240/370/224
f 217/349/201 241/349/225 219/351/203
f 227/359/211 241/359/225 229/361/213
f 237/369/221 241/369/225 239/371/223
f 213/345/197 241/345/225 215/347/199
f 223/355/207 241/355/225 225/357/209
f 209/340/193 241/340/225 211/343/195
f 233/365/217 241/365/225 235/367/219
f 219/351/203 241/351/225 221/353/205
f 229/361/213 241/361/225 231/363/215
f 239/371/223 241/371/225 209/373/193
f 215/347/199 241/347/225 217/349/201
f 225/357/209 241/357/225 227/359/211
f 235/367/219 241/367/225 237/369/221
f 211/343/195 241/343/225 213/345/197
f 221/353/205 241/353/225 223/355/207
f 231/363/215 241/363/225 233/365/217
f 232/362/216 242/362/226 230/360/214
f 210/372/194 242/372/226 240/370/224
f 218/348/202 242/348/226 216/346/200
f 228/358/212 242/358/226 226/356/210
f 238/368/222 242/368/226 236/366/220
f 214/344/198 242/344/226 212/342/196
f 224/354/208 242/354/226 222/352/206
f 234/364/218 242/364/226 232/362/216
f 220/350/204 242/350/226 218/348/202
f 230/360/214 242/360/226 228/358/212
f 240/370/224 242/370/226 238/368/222
f 216/346/200 242/346/226 214/344/198
f 226/356/210 242/356/226 224/354/208
f 212/342/196 242/342/226 210/341/194
f 236/366/220 242/366/226 234/364/218
f 243/340/227 245/343/229 246/342/230 244/341/228
f 245/343/229 247/345/231 248/344/232 246/342/230
f 247/345/231 249/347/233 250/346/234 248/344/232
f 249/347/233 251/349/235 252/348/236 250/346/234
f 251/349/235 253/351/237 254/350/238 252/348/236
f 253/351/237 255/353/239 256/352/240 254/350/238
f 255/353/239 257/355/241 258/354/242 256/352/240
f 257/355/241 259/357/243 260/356/244 258/354/242
f 259/357/243 261/359/245 262/358/246 260/356/244
f 261/359/245 263/361/247 264/360/248 262/358/246
f 263/361/247 265/363/249 266/362/250 264/360/248
f 265/363/249 267/365/251 268/364/252 266/362/250
f 267/365/251 269/367/253 270/366/254 268/364/252
f 269/367/253 271/369/255 272/368/256 270/366/254
f 256/352/240 276/352/226 254/350/238
f 271/369/255 273/371/257 274/370/258 272/368/256
f 273/371/257 243/373/227 244/372/228 274/370/258
f 251/349/235 275/349/225 253/351/237
f 261/359/245 275/359/225 263/361/247
f 271/369/255 275/369/225 273/371/257
f 247/345/231 275/345/225 249/347/233
f 257/355/241 275/355/225 259/357/243
f 243/340/227 275/340/225 245/343/229
f 267/365/251 275/365/225 269/367/253
f 253/351/237 275/351/225 255/353/239
f 263/361/247 275/361/225 265/363/249
f 273/371/257 275/371/225 243/373/227
f 249/347/233 275/347/225 251/349/235
f 259/357/243 275/357/225 261/359/245
f 269/367/253 275/367/225 271/369/255
f 245/343/229 275/343/225 247/345/231
f 255/353/239 275/353/225 257/355/241
f 265/363/249 275/363/225 267/365/251
f 266/362/250 276/362/226 264/360/248
f 244/372/228 276/372/226 274/370/258
f 252/348/236 276/348/226 250/346/234
f 262/358/246 276/358/226 260/356/244
f 272/368/256 276/368/226 270/366/254
f 248/344/232 276/344/226 246/342/230
f 258/354/242 276/354/226 256/352/240
f 268/364/252 276/364/226 266/362/250
f 254/350/238 276/350/226 252/348/236
f 264/360/248 276/360/226 262/358/246
f 274/370/258 276/370/226 272/368/256
f 250/346/234 276/346/226 248/344/232
f 260/356/244 276/356/226 258/354/242
f 246/342/230 276/342/226 244/341/228
f 270/366/254 276/366/226 268/364/252
