# Blender 5.2.0 LTS
# www.blender.org
mtllib door_inside.mtl
o Cube.012
v -0.080510 0.000000 1.638645
v -0.087086 3.481897 1.667927
v -0.080510 0.000000 0.000000
v -0.087086 3.481897 -0.029282
v 0.080510 0.000000 1.638645
v 0.087086 3.481897 1.667927
v 0.080510 0.000000 0.000000
v 0.087086 3.481897 -0.029282
vn -1.0000 -0.0019 -0.0000
vn -0.0000 -0.0084 -1.0000
vn 1.0000 -0.0019 -0.0000
vn -0.0000 -0.0084 1.0000
vn -0.0000 -1.0000 -0.0000
vn -0.0000 1.0000 -0.0000
vt 0.690658 0.029274
vt 0.694576 0.495148
vt 0.467492 0.495148
vt 0.471409 0.029274
vt 0.444189 0.494908
vt 0.449867 0.029052
vt 0.712201 0.029052
vt 0.717879 0.494908
vt 0.471409 0.007730
vt 0.690658 0.007730
vt 0.467492 0.518452
vt 0.694576 0.518452
s 0
usemtl cabin_details
f 1/1/1 2/2/1 4/3/1 3/4/1
f 3/4/2 4/3/2 8/5/2 7/6/2
f 7/1/3 8/2/3 6/3/3 5/4/3
f 5/7/4 6/8/4 2/2/4 1/1/4
f 3/4/5 7/9/5 5/10/5 1/1/5
f 8/11/6 4/3/6 2/2/6 6/12/6
o Cylinder.003
v -0.243161 1.686647 1.515365
v -0.238277 1.684807 1.494107
v -0.225905 1.679920 1.484876
v -0.212485 1.674771 1.493666
v -0.206847 1.672449 1.515365
v -0.212484 1.674770 1.537063
v -0.225797 1.679684 1.545874
v -0.238276 1.684805 1.536622
v -0.268467 1.620131 1.515364
v -0.263236 1.620131 1.488217
v -0.250609 1.620131 1.476972
v -0.238004 1.620151 1.488217
v -0.232757 1.620084 1.515364
v -0.238003 1.620149 1.542511
v -0.250609 1.620131 1.553756
v -0.263236 1.620131 1.542511
v -0.194533 1.713876 1.515364
v -0.191105 1.711420 1.503672
v -0.182715 1.705446 1.498801
v -0.174132 1.699445 1.503623
v -0.170511 1.696962 1.515363
v -0.174131 1.699444 1.527104
v -0.182714 1.705444 1.531926
v -0.191105 1.711418 1.527055
v -0.145158 1.733818 1.515364
v -0.141916 1.732421 1.504085
v -0.133996 1.728877 1.499413
v -0.125917 1.725157 1.504085
v -0.122514 1.723581 1.515364
v -0.125915 1.725155 1.526643
v -0.133984 1.728853 1.531314
v -0.141915 1.732419 1.526643
v -0.099531 1.793519 1.515410
v -0.096435 1.794005 1.488154
v -0.089436 1.794875 1.476984
v -0.082634 1.795620 1.488444
v -0.080014 1.795804 1.515821
v -0.083110 1.795318 1.543078
v -0.090109 1.794448 1.554248
v -0.096911 1.793703 1.542787
v -0.116553 1.754034 1.515242
v -0.113390 1.753307 1.496309
v -0.105383 1.750366 1.488545
v -0.098205 1.747820 1.496535
v -0.095263 1.746519 1.515483
v -0.098700 1.747701 1.534352
v -0.106121 1.750202 1.542158
v -0.113912 1.753191 1.534235
v -0.244848 1.544918 1.515365
v -0.239892 1.546120 1.494705
v -0.227649 1.549261 1.485873
v -0.214536 1.552305 1.494434
v -0.208909 1.553679 1.515365
v -0.214536 1.552305 1.536296
v -0.227565 1.549311 1.544860
v -0.239892 1.546120 1.536024
v -0.191698 1.504737 1.515364
v -0.188306 1.507034 1.503587
v -0.179979 1.512570 1.498709
v -0.171420 1.518057 1.503587
v -0.167794 1.520304 1.515363
v -0.171419 1.518058 1.527140
v -0.179978 1.512571 1.532018
v -0.188305 1.507035 1.527140
v -0.136228 1.470394 1.515364
v -0.132988 1.471810 1.503976
v -0.125082 1.475266 1.499259
v -0.117021 1.478716 1.503976
v -0.113626 1.480126 1.515364
v -0.117020 1.478716 1.526751
v -0.125053 1.475304 1.531468
v -0.132987 1.471810 1.526751
v -0.086892 1.337985 1.526006
v -0.084322 1.337958 1.530310
v -0.081674 1.337891 1.526115
v -0.080498 1.337824 1.515877
v -0.081485 1.337796 1.505594
v -0.084055 1.337823 1.501289
v -0.086703 1.337890 1.505485
v -0.087878 1.337957 1.515723
v -0.099355 1.422887 1.515255
v -0.107889 1.441087 1.515242
v -0.104609 1.442408 1.496309
v -0.095990 1.423880 1.491921
v -0.096609 1.444944 1.488545
v -0.088458 1.426179 1.482698
v -0.089318 1.448079 1.496535
v -0.081216 1.428598 1.492543
v -0.086402 1.449187 1.515483
v -0.078454 1.429790 1.515590
v -0.089818 1.448157 1.534352
v -0.081817 1.428701 1.538547
v -0.097349 1.445098 1.542158
v -0.089312 1.426369 1.548158
v -0.105133 1.442510 1.534235
v -0.096592 1.424019 1.538694
v -0.094104 1.815803 1.515635
v -0.091753 1.815854 1.495188
v -0.086463 1.815800 1.486809
v -0.081331 1.815674 1.495406
v -0.079365 1.815548 1.515944
v -0.081715 1.815497 1.536391
v -0.087006 1.815551 1.544770
v -0.092137 1.815677 1.536173
v -0.088934 1.830962 1.515806
v -0.088149 1.830979 1.508976
v -0.086382 1.830961 1.506177
v -0.084668 1.830919 1.509049
v -0.084011 1.830877 1.515909
v -0.084796 1.830860 1.522739
v -0.086563 1.830878 1.525537
v -0.088277 1.830920 1.522666
v -0.091949 1.351708 1.515571
v -0.089398 1.351562 1.493351
v -0.083650 1.351417 1.484245
v -0.078072 1.351358 1.493588
v -0.075932 1.351419 1.515906
v -0.078483 1.351564 1.538127
v -0.084231 1.351709 1.547232
v -0.089808 1.351769 1.537890
v -0.093944 1.384752 1.515424
v -0.090609 1.384720 1.486393
v -0.083097 1.384886 1.474478
v -0.075806 1.385151 1.486678
v -0.073011 1.385360 1.515862
v -0.076353 1.385395 1.544917
v -0.083870 1.385232 1.556807
v -0.091154 1.384964 1.544583
v 0.243161 1.686647 1.515364
v 0.238277 1.684807 1.494107
v 0.225905 1.679920 1.484876
v 0.212485 1.674772 1.493666
v 0.206847 1.672449 1.515364
v 0.212484 1.674770 1.537063
v 0.225797 1.679684 1.545874
v 0.238276 1.684806 1.536622
v 0.268467 1.620132 1.515364
v 0.263236 1.620132 1.488217
v 0.250609 1.620132 1.476972
v 0.238004 1.620152 1.488217
v 0.232757 1.620084 1.515364
v 0.238002 1.620149 1.542511
v 0.250609 1.620132 1.553756
v 0.263236 1.620132 1.542511
v 0.194533 1.713876 1.515363
v 0.191105 1.711420 1.503672
v 0.182715 1.705446 1.498801
v 0.174132 1.699445 1.503623
v 0.170511 1.696962 1.515363
v 0.174131 1.699444 1.527103
v 0.182714 1.705444 1.531926
v 0.191105 1.711418 1.527055
v 0.145158 1.733818 1.515363
v 0.141916 1.732421 1.504084
v 0.133996 1.728878 1.499413
v 0.125916 1.725157 1.504084
v 0.122514 1.723581 1.515363
v 0.125915 1.725156 1.526642
v 0.133984 1.728853 1.531314
v 0.141915 1.732419 1.526642
v 0.099531 1.793519 1.515410
v 0.096435 1.794005 1.488153
v 0.089436 1.794875 1.476984
v 0.082634 1.795620 1.488444
v 0.080013 1.795804 1.515821
v 0.083110 1.795319 1.543078
v 0.090109 1.794448 1.554248
v 0.096911 1.793703 1.542787
v 0.116553 1.754034 1.515242
v 0.113390 1.753307 1.496309
v 0.105383 1.750367 1.488545
v 0.098205 1.747820 1.496535
v 0.095263 1.746520 1.515483
v 0.098700 1.747701 1.534352
v 0.106121 1.750202 1.542158
v 0.113912 1.753191 1.534235
v 0.244848 1.544918 1.515364
v 0.239892 1.546120 1.494705
v 0.227649 1.549261 1.485873
v 0.214536 1.552305 1.494434
v 0.208909 1.553679 1.515364
v 0.214536 1.552305 1.536295
v 0.227565 1.549311 1.544860
v 0.239892 1.546120 1.536024
v 0.191698 1.504737 1.515363
v 0.188306 1.507034 1.503587
v 0.179979 1.512570 1.498709
v 0.171420 1.518057 1.503587
v 0.167794 1.520304 1.515363
v 0.171419 1.518058 1.527140
v 0.179978 1.512571 1.532018
v 0.188305 1.507035 1.527140
v 0.136228 1.470394 1.515363
v 0.132988 1.471810 1.503976
v 0.125082 1.475266 1.499259
v 0.117021 1.478717 1.503976
v 0.113626 1.480126 1.515363
v 0.117019 1.478716 1.526751
v 0.125052 1.475305 1.531468
v 0.132987 1.471810 1.526751
v 0.086892 1.337985 1.526006
v 0.084322 1.337958 1.530310
v 0.081674 1.337891 1.526115
v 0.080498 1.337824 1.515877
v 0.081485 1.337796 1.505594
v 0.084055 1.337824 1.501289
v 0.086703 1.337890 1.505485
v 0.087878 1.337957 1.515723
v 0.099355 1.422887 1.515255
v 0.107889 1.441087 1.515242
v 0.104609 1.442408 1.496309
v 0.095990 1.423880 1.491921
v 0.096609 1.444944 1.488545
v 0.088458 1.426179 1.482698
v 0.089318 1.448079 1.496535
v 0.081216 1.428599 1.492543
v 0.086402 1.449188 1.515483
v 0.078454 1.429790 1.515590
v 0.089818 1.448157 1.534352
v 0.081817 1.428701 1.538547
v 0.097349 1.445098 1.542158
v 0.089312 1.426369 1.548157
v 0.105133 1.442510 1.534235
v 0.096592 1.424019 1.538694
v 0.094103 1.815803 1.515635
v 0.091753 1.815854 1.495188
v 0.086462 1.815800 1.486809
v 0.081331 1.815674 1.495406
v 0.079365 1.815548 1.515944
v 0.081715 1.815497 1.536391
v 0.087006 1.815551 1.544770
v 0.092137 1.815677 1.536172
v 0.088934 1.830962 1.515806
v 0.088149 1.830979 1.508976
v 0.086382 1.830961 1.506177
v 0.084668 1.830919 1.509049
v 0.084011 1.830877 1.515909
v 0.084796 1.830860 1.522739
v 0.086563 1.830878 1.525537
v 0.088277 1.830920 1.522666
v 0.091949 1.351708 1.515571
v 0.089398 1.351562 1.493351
v 0.083650 1.351418 1.484245
v 0.078072 1.351358 1.493588
v 0.075932 1.351419 1.515906
v 0.078483 1.351565 1.538126
v 0.084231 1.351709 1.547232
v 0.089808 1.351769 1.537889
v 0.093944 1.384752 1.515424
v 0.090608 1.384720 1.486393
v 0.083097 1.384887 1.474477
v 0.075806 1.385151 1.486677
v 0.073011 1.385360 1.515862
v 0.076353 1.385395 1.544917
v 0.083870 1.385233 1.556807
v 0.091154 1.384964 1.544583
vn -0.7604 0.6494 -0.0000
vn -0.6206 0.5928 -0.5133
vn 0.0135 0.2524 -0.9675
vn 0.6551 -0.4091 -0.6352
vn 0.7585 -0.6516 -0.0000
vn 0.6559 -0.4107 0.6333
vn 0.0171 0.2482 0.9686
vn -0.6192 0.5928 0.5150
vn -0.9996 0.0293 -0.0000
vn -0.8503 0.0260 -0.5257
vn -0.1200 0.0081 -0.9927
vn 0.7952 -0.0392 -0.6050
vn 0.9984 -0.0563 -0.0000
vn 0.7962 -0.0396 0.6038
vn -0.1182 0.0079 0.9930
vn -0.8496 0.0260 0.5268
vn -0.4328 0.9015 0.0001
vn -0.3258 0.7838 -0.5286
vn 0.0814 0.1474 -0.9857
vn 0.4456 -0.6516 -0.6139
vn 0.5238 -0.8518 -0.0001
vn 0.4460 -0.6522 0.6130
vn 0.0826 0.1457 0.9859
vn -0.3253 0.7828 0.5305
vn -0.4841 0.8750 -0.0014
vn -0.4401 0.6948 -0.5688
vn -0.0712 -0.1245 -0.9897
vn 0.4374 -0.7456 -0.5028
vn 0.5609 -0.8279 0.0018
vn 0.4367 -0.7440 0.5056
vn -0.0735 -0.1244 0.9895
vn -0.4422 0.6953 0.5666
vn -0.9500 0.3123 -0.0083
vn -0.8789 0.2753 -0.3895
vn 0.0525 0.0574 -0.9970
vn 0.9199 -0.1394 -0.3664
vn 0.9851 -0.1717 0.0088
vn 0.9114 -0.1433 0.3857
vn 0.0297 0.0476 0.9984
vn -0.8871 0.2741 0.3713
vn -0.7855 0.6188 -0.0069
vn -0.7506 0.4225 -0.5080
vn -0.0006 -0.2931 -0.9561
vn 0.7221 -0.5591 -0.4074
vn 0.8255 -0.5644 0.0059
vn 0.7153 -0.5597 0.4184
vn -0.0195 -0.2904 0.9567
vn -0.7574 0.4279 0.4932
vn -0.8212 -0.5707 -0.0000
vn -0.6792 -0.5222 -0.5158
vn -0.0127 -0.2242 -0.9745
vn 0.6880 0.3716 -0.6233
vn 0.8167 0.5771 -0.0000
vn 0.6885 0.3722 0.6224
vn -0.0108 -0.2229 0.9748
vn -0.6787 -0.5221 0.5165
vn -0.5636 -0.8260 -0.0000
vn -0.4396 -0.7079 -0.5528
vn 0.0523 -0.1060 -0.9930
vn 0.5121 0.6048 -0.6099
vn 0.6161 0.7877 -0.0000
vn 0.5123 0.6052 0.6093
vn 0.0532 -0.1050 0.9930
vn -0.4393 -0.7075 0.5535
vn -0.6303 -0.7763 -0.0022
vn -0.5427 -0.5979 -0.5899
vn -0.0452 0.1164 -0.9922
vn 0.5341 0.6586 -0.5301
vn 0.6728 0.7398 0.0027
vn 0.5335 0.6564 0.5335
vn -0.0466 0.1168 0.9921
vn -0.5455 -0.5981 0.5872
vn -0.6021 -0.7863 0.1387
vn -0.0237 -0.8703 0.4919
vn 0.5701 -0.8077 0.1506
vn 0.6012 -0.7990 0.0092
vn 0.5732 -0.8088 -0.1316
vn -0.0079 -0.8750 -0.4841
vn -0.5990 -0.7878 -0.1434
vn -0.6298 -0.7768 -0.0021
vn -0.9626 -0.2706 -0.0112
vn -0.8336 -0.5523 -0.0087
vn -0.7636 -0.3821 -0.5205
vn -0.8899 -0.1650 -0.4254
vn -0.0364 0.2506 -0.9674
vn 0.0366 0.2041 -0.9783
vn 0.7124 0.5406 -0.4476
vn 0.8751 0.2998 -0.3799
vn 0.8415 0.5403 0.0081
vn 0.9638 0.2664 0.0108
vn 0.7057 0.5382 0.4608
vn 0.8651 0.3029 0.3998
vn -0.0537 0.2458 0.9678
vn 0.0088 0.2066 0.9784
vn -0.7722 -0.3858 0.5048
vn -0.8998 -0.1683 0.4025
vn -0.9599 0.2803 -0.0076
vn -0.8624 0.3952 -0.3163
vn 0.0703 0.5582 -0.8267
vn 0.9173 0.2522 -0.3082
vn 0.9916 0.1291 0.0099
vn 0.9097 0.2518 0.3303
vn 0.0478 0.5491 0.8344
vn -0.8703 0.3891 0.3020
vn -0.5997 0.8002 -0.0021
vn -0.5686 0.8103 -0.1421
vn 0.0229 0.8776 -0.4788
vn 0.5991 0.7900 -0.1303
vn 0.6268 0.7791 0.0092
vn 0.5960 0.7890 0.1493
vn 0.0071 0.8736 0.4866
vn -0.5717 0.8089 0.1375
vn -0.9851 -0.1718 -0.0086
vn -0.8986 -0.2833 -0.3351
vn 0.0053 -0.4913 -0.8710
vn 0.8974 -0.3088 -0.3152
vn 0.9793 -0.2022 0.0101
vn 0.8895 -0.3082 0.3372
vn -0.0167 -0.4846 0.8745
vn -0.9062 -0.2787 0.3178
vn -0.9954 -0.0954 -0.0099
vn -0.9240 -0.0863 -0.3726
vn 0.0419 -0.0445 -0.9981
vn 0.9378 0.0195 -0.3467
vn 0.9997 0.0228 0.0103
vn 0.9292 0.0235 0.3688
vn 0.0176 -0.0374 0.9991
vn -0.9323 -0.0857 0.3515
vn 0.7604 0.6494 -0.0000
vn 0.6206 0.5928 -0.5133
vn -0.0135 0.2524 -0.9675
vn -0.6551 -0.4091 -0.6352
vn -0.7585 -0.6516 -0.0000
vn -0.6559 -0.4107 0.6333
vn -0.0171 0.2482 0.9686
vn 0.6192 0.5928 0.5150
vn 0.9996 0.0293 -0.0000
vn 0.8503 0.0260 -0.5257
vn 0.1200 0.0081 -0.9927
vn -0.7952 -0.0392 -0.6050
vn -0.9984 -0.0563 -0.0000
vn -0.7962 -0.0396 0.6038
vn 0.1182 0.0079 0.9930
vn 0.8496 0.0260 0.5268
vn 0.4328 0.9015 0.0001
vn 0.3258 0.7838 -0.5286
vn -0.0814 0.1474 -0.9857
vn -0.4456 -0.6516 -0.6139
vn -0.5238 -0.8518 -0.0001
vn -0.4460 -0.6522 0.6130
vn -0.0826 0.1457 0.9859
vn 0.3253 0.7828 0.5305
vn 0.4841 0.8750 -0.0014
vn 0.4401 0.6948 -0.5688
vn 0.0712 -0.1245 -0.9897
vn -0.4374 -0.7456 -0.5028
vn -0.5609 -0.8279 0.0018
vn -0.4367 -0.7440 0.5056
vn 0.0735 -0.1244 0.9895
vn 0.4422 0.6953 0.5666
vn 0.9500 0.3123 -0.0083
vn 0.8789 0.2753 -0.3895
vn -0.0525 0.0574 -0.9970
vn -0.9199 -0.1394 -0.3664
vn -0.9851 -0.1716 0.0088
vn -0.9114 -0.1433 0.3857
vn -0.0297 0.0476 0.9984
vn 0.8871 0.2741 0.3713
vn 0.7855 0.6188 -0.0069
vn 0.7506 0.4225 -0.5080
vn 0.0006 -0.2931 -0.9561
vn -0.7221 -0.5591 -0.4074
vn -0.8255 -0.5644 0.0059
vn -0.7153 -0.5597 0.4184
vn 0.0195 -0.2904 0.9567
vn 0.7574 0.4279 0.4932
vn 0.8212 -0.5707 -0.0000
vn 0.6792 -0.5222 -0.5158
vn 0.0127 -0.2242 -0.9745
vn -0.6880 0.3716 -0.6233
vn -0.8167 0.5771 -0.0000
vn -0.6885 0.3722 0.6224
vn 0.0108 -0.2229 0.9748
vn 0.6787 -0.5221 0.5165
vn 0.5636 -0.8260 -0.0000
vn 0.4396 -0.7079 -0.5528
vn -0.0523 -0.1060 -0.9930
vn -0.5121 0.6048 -0.6099
vn -0.6161 0.7877 -0.0000
vn -0.5123 0.6052 0.6093
vn -0.0532 -0.1050 0.9930
vn 0.4393 -0.7075 0.5535
vn 0.6303 -0.7763 -0.0022
vn 0.5427 -0.5979 -0.5899
vn 0.0452 0.1164 -0.9922
vn -0.5341 0.6586 -0.5301
vn -0.6728 0.7398 0.0027
vn -0.5335 0.6564 0.5335
vn 0.0466 0.1168 0.9921
vn 0.5455 -0.5981 0.5872
vn 0.6021 -0.7863 0.1387
vn 0.0237 -0.8703 0.4919
vn -0.5701 -0.8077 0.1506
vn -0.6012 -0.7990 0.0092
vn -0.5732 -0.8088 -0.1316
vn 0.0079 -0.8750 -0.4841
vn 0.5990 -0.7878 -0.1434
vn 0.6298 -0.7768 -0.0021
vn 0.9626 -0.2706 -0.0112
vn 0.8336 -0.5523 -0.0087
vn 0.7636 -0.3821 -0.5205
vn 0.8898 -0.1650 -0.4254
vn 0.0364 0.2506 -0.9674
vn -0.0366 0.2041 -0.9783
vn -0.7124 0.5406 -0.4476
vn -0.8751 0.2998 -0.3799
vn -0.8415 0.5403 0.0081
vn -0.9638 0.2664 0.0108
vn -0.7057 0.5382 0.4608
vn -0.8651 0.3029 0.3998
vn 0.0537 0.2458 0.9678
vn -0.0088 0.2066 0.9784
vn 0.7722 -0.3858 0.5048
vn 0.8998 -0.1683 0.4025
vn 0.9599 0.2803 -0.0076
vn 0.8624 0.3952 -0.3163
vn -0.0703 0.5582 -0.8267
vn -0.9173 0.2522 -0.3082
vn -0.9916 0.1291 0.0099
vn -0.9097 0.2518 0.3303
vn -0.0478 0.5491 0.8344
vn 0.8703 0.3891 0.3020
vn 0.5997 0.8002 -0.0021
vn 0.5686 0.8103 -0.1421
vn -0.0229 0.8776 -0.4788
vn -0.5991 0.7900 -0.1303
vn -0.6268 0.7791 0.0092
vn -0.5960 0.7890 0.1493
vn -0.0071 0.8736 0.4866
vn 0.5717 0.8089 0.1375
vn 0.9851 -0.1718 -0.0086
vn 0.8986 -0.2833 -0.3351
vn -0.0053 -0.4913 -0.8710
vn -0.8974 -0.3088 -0.3152
vn -0.9793 -0.2022 0.0101
vn -0.8895 -0.3082 0.3372
vn 0.0167 -0.4846 0.8745
vn 0.9062 -0.2787 0.3178
vn 0.9954 -0.0954 -0.0099
vn 0.9240 -0.0863 -0.3726
vn -0.0419 -0.0445 -0.9981
vn -0.9378 0.0195 -0.3467
vn -0.9997 0.0228 0.0103
vn -0.9292 0.0235 0.3688
vn -0.0176 -0.0374 0.9991
vn 0.9323 -0.0857 0.3515
vt 0.301590 0.352080
vt 0.297440 0.352851
vt 0.302579 0.340911
vt 0.305377 0.340257
vt 0.305785 0.520734
vt 0.307110 0.536081
vt 0.300903 0.536128
vt 0.300900 0.521047
vt 0.309506 0.519598
vt 0.311391 0.535952
vt 0.299059 0.368890
vt 0.294649 0.368824
vt 0.307883 0.352036
vt 0.306879 0.369266
vt 0.314129 0.352808
vt 0.314689 0.369803
vt 0.318206 0.354017
vt 0.319077 0.370253
vt 0.296012 0.520731
vt 0.294698 0.536084
vt 0.290418 0.535957
vt 0.292339 0.519571
vt 0.297627 0.507396
vt 0.294921 0.506077
vt 0.295088 0.490808
vt 0.297524 0.492110
vt 0.308584 0.340017
vt 0.311741 0.340629
vt 0.314444 0.341604
vt 0.300911 0.507877
vt 0.304197 0.507405
vt 0.306906 0.506094
vt 0.304347 0.492120
vt 0.306791 0.490830
vt 0.306582 0.326661
vt 0.309379 0.326420
vt 0.312131 0.326985
vt 0.314141 0.328245
vt 0.300935 0.492722
vt 0.304442 0.327679
vt 0.319453 0.308744
vt 0.316456 0.308139
vt 0.315152 0.303554
vt 0.317534 0.303470
vt 0.292406 0.481152
vt 0.291156 0.468902
vt 0.294264 0.469934
vt 0.295427 0.481885
vt 0.313876 0.318962
vt 0.316325 0.319619
vt 0.309803 0.318633
vt 0.310323 0.307672
vt 0.305716 0.318582
vt 0.304193 0.307576
vt 0.303211 0.319012
vt 0.301188 0.307904
vt 0.306403 0.482041
vt 0.307827 0.470138
vt 0.310993 0.469192
vt 0.309430 0.481376
vt 0.300912 0.482327
vt 0.301036 0.470600
vt 0.299622 0.389112
vt 0.301681 0.403935
vt 0.298998 0.403112
vt 0.295792 0.387718
vt 0.305781 0.553427
vt 0.300908 0.553081
vt 0.309291 0.554607
vt 0.305667 0.389965
vt 0.311771 0.389825
vt 0.315757 0.388891
vt 0.296034 0.553431
vt 0.292544 0.554611
vt 0.297611 0.569505
vt 0.297564 0.587881
vt 0.295048 0.588855
vt 0.294869 0.570508
vt 0.304815 0.404474
vt 0.307989 0.404305
vt 0.310751 0.403802
vt 0.300918 0.569144
vt 0.304227 0.569501
vt 0.306969 0.570499
vt 0.306832 0.588842
vt 0.304305 0.587877
vt 0.303836 0.421131
vt 0.301025 0.420622
vt 0.308931 0.420139
vt 0.306689 0.420957
vt 0.300934 0.587437
vt 0.298903 0.419549
vt 0.296032 0.622772
vt 0.301154 0.622526
vt 0.301226 0.625766
vt 0.298923 0.625877
vt 0.300903 0.599142
vt 0.300925 0.604707
vt 0.294626 0.604877
vt 0.295556 0.599318
vt 0.291542 0.604910
vt 0.292629 0.599832
vt 0.310241 0.430495
vt 0.311153 0.435713
vt 0.308197 0.435537
vt 0.307538 0.430705
vt 0.302940 0.435130
vt 0.303253 0.430490
vt 0.297679 0.434812
vt 0.298975 0.430110
vt 0.294737 0.434569
vt 0.296325 0.429524
vt 0.309177 0.599656
vt 0.310328 0.604711
vt 0.307234 0.604733
vt 0.306249 0.599195
vt 0.301297 0.627493
vt 0.298784 0.627113
vt 0.293854 0.452785
vt 0.296461 0.452699
vt 0.298869 0.456454
vt 0.297636 0.456554
vt 0.306247 0.622630
vt 0.308780 0.623074
vt 0.304605 0.626148
vt 0.303508 0.625803
vt 0.293524 0.623292
vt 0.297827 0.626277
vt 0.306929 0.453447
vt 0.309526 0.453899
vt 0.305245 0.457095
vt 0.304026 0.456822
vt 0.312423 0.299476
vt 0.313239 0.299398
vt 0.296337 0.464713
vt 0.301142 0.465032
vt 0.305930 0.464852
vt 0.303562 0.302816
vt 0.305900 0.303125
vt 0.310522 0.303249
vt 0.294077 0.464094
vt 0.308224 0.464308
vt 0.301219 0.461426
vt 0.301264 0.460296
vt 0.302854 0.460616
vt 0.302723 0.461388
vt 0.299704 0.461344
vt 0.308212 0.299164
vt 0.309009 0.299318
vt 0.310712 0.299433
vt 0.298997 0.461067
vt 0.303434 0.461145
vt 0.301683 0.453124
vt 0.301447 0.456595
vt 0.299625 0.460537
vt 0.303728 0.626979
vt 0.301041 0.614667
vt 0.293858 0.615040
vt 0.290418 0.615420
vt 0.312379 0.445897
vt 0.309016 0.445673
vt 0.302225 0.445227
vt 0.295459 0.444719
vt 0.292134 0.444473
vt 0.311708 0.615165
vt 0.308231 0.614863
s 1
usemtl cabin_details
f 14/13/12 30/16/28 31/15/29 15/14/13
f 16/17/14 9/20/7 17/19/15 24/18/22
f 15/21/13 16/17/14 24/18/22 23/22/21
f 14/13/12 15/14/13 23/24/21 22/23/20
f 13/25/11 14/13/12 22/23/20 21/26/19
f 12/27/10 13/25/11 21/26/19 20/28/18
f 11/29/9 12/27/10 20/28/18 19/30/17
f 10/31/8 11/34/9 19/33/17 18/32/16
f 9/20/7 10/31/8 18/32/16 17/19/15
f 26/35/24 34/38/32 35/37/33 27/36/25
f 13/25/11 29/39/27 30/16/28 14/13/12
f 12/27/10 28/40/26 29/39/27 13/25/11
f 11/29/9 27/41/25 28/40/26 12/27/10
f 10/31/8 26/35/24 27/36/25 11/34/9
f 9/20/7 25/42/23 26/35/24 10/31/8
f 16/17/14 32/43/30 25/42/23 9/20/7
f 15/21/13 31/44/29 32/43/30 16/17/14
f 31/44/29 39/46/37 40/45/38 32/43/30
f 29/39/27 37/48/35 38/47/36 30/16/28
f 27/41/25 35/50/33 36/49/34 28/40/26
f 25/42/23 33/51/31 34/38/32 26/35/24
f 32/43/30 40/45/38 33/51/31 25/42/23
f 30/16/28 38/47/36 39/52/37 31/15/29
f 28/40/26 36/49/34 37/48/35 29/39/27
f 43/53/41 107/56/105 108/55/106 44/54/42
f 51/57/49 50/60/48 42/59/40 43/58/41
f 52/61/50 51/62/49 43/53/41 44/54/42
f 53/63/51 52/61/50 44/54/42 45/64/43
f 54/65/52 53/63/51 45/64/43 46/66/44
f 55/67/53 54/65/52 46/66/44 47/68/45
f 56/69/54 55/72/53 47/71/45 48/70/46
f 49/73/47 56/69/54 48/70/46 41/74/39
f 40/45/38 56/69/54 49/73/47 33/51/31
f 33/51/31 49/73/47 50/60/48 34/38/32
f 34/38/32 50/60/48 51/57/49 35/37/33
f 35/50/33 51/62/49 52/61/50 36/49/34
f 36/49/34 52/61/50 53/63/51 37/48/35
f 37/48/35 53/63/51 54/65/52 38/47/36
f 38/47/36 54/65/52 55/67/53 39/52/37
f 39/46/37 55/72/53 56/69/54 40/45/38
f 62/75/60 63/78/61 71/77/69 70/76/68
f 64/79/62 24/18/22 17/19/15 57/80/55
f 63/81/61 23/22/21 24/18/22 64/79/62
f 62/75/60 22/23/20 23/24/21 63/78/61
f 61/82/59 21/26/19 22/23/20 62/75/60
f 60/83/58 20/28/18 21/26/19 61/82/59
f 59/84/57 19/30/17 20/28/18 60/83/58
f 58/85/56 18/32/16 19/33/17 59/86/57
f 57/80/55 17/19/15 18/32/16 58/85/56
f 66/87/64 67/90/65 75/89/73 74/88/72
f 61/82/59 62/75/60 70/76/68 69/91/67
f 60/83/58 61/82/59 69/91/67 68/92/66
f 59/84/57 60/83/58 68/92/66 67/93/65
f 58/85/56 59/86/57 67/90/65 66/87/64
f 57/80/55 58/85/56 66/87/64 65/94/63
f 64/79/62 57/80/55 65/94/63 72/95/70
f 63/81/61 64/79/62 72/95/70 71/96/69
f 71/96/69 72/95/70 80/98/78 79/97/77
f 69/91/67 70/76/68 78/100/76 77/99/75
f 67/93/65 68/92/66 76/102/74 75/101/73
f 65/94/63 66/87/64 74/88/72 73/103/71
f 72/95/70 65/94/63 73/103/71 80/98/78
f 70/76/68 71/77/69 79/104/77 78/100/76
f 68/92/66 69/91/67 77/99/75 76/102/74
f 122/105/120 87/108/85 88/107/86 121/106/119
f 90/109/88 91/112/89 92/111/90 89/110/87
f 91/112/89 93/114/91 94/113/92 92/111/90
f 93/115/91 95/118/93 96/117/94 94/116/92
f 95/118/93 97/120/95 98/119/96 96/117/94
f 97/120/95 99/122/97 100/121/98 98/119/96
f 99/122/97 101/124/99 102/123/100 100/121/98
f 101/125/99 103/128/101 104/127/102 102/126/100
f 103/128/101 90/109/88 89/110/87 104/127/102
f 80/98/78 73/103/71 90/109/88 103/128/101
f 73/103/71 74/88/72 91/112/89 90/109/88
f 84/129/82 88/107/86 87/108/85 85/130/83
f 127/131/125 82/134/80 83/133/81 126/132/124
f 74/88/72 75/89/73 93/114/91 91/112/89
f 128/135/126 81/138/79 82/137/80 127/136/125
f 75/101/73 76/102/74 95/118/93 93/115/91
f 123/139/121 86/140/84 87/108/85 122/105/120
f 76/102/74 77/99/75 97/120/95 95/118/93
f 77/99/75 78/100/76 99/122/97 97/120/95
f 87/108/85 86/140/84 85/130/83
f 78/100/76 79/104/77 101/124/99 99/122/97
f 124/141/122 85/144/83 86/143/84 123/142/121
f 79/97/77 80/98/78 103/128/101 101/125/99
f 107/56/105 115/146/113 116/145/114 108/55/106
f 41/74/39 105/148/103 106/147/104 42/59/40
f 48/70/46 112/149/110 105/148/103 41/74/39
f 46/66/44 110/151/108 111/150/109 47/68/45
f 44/54/42 108/55/106 109/152/107 45/64/43
f 42/59/40 106/147/104 107/153/105 43/58/41
f 47/71/45 111/154/109 112/149/110 48/70/46
f 45/64/43 109/152/107 110/151/108 46/66/44
f 113/155/111 120/158/118 118/157/116 117/156/115
f 105/148/103 113/155/111 114/159/112 106/147/104
f 112/149/110 120/158/118 113/155/111 105/148/103
f 110/151/108 118/161/116 119/160/117 111/150/109
f 108/55/106 116/145/114 117/162/115 109/152/107
f 106/147/104 114/159/112 115/163/113 107/153/105
f 111/154/109 119/164/117 120/158/118 112/149/110
f 109/152/107 117/162/115 118/161/116 110/151/108
f 125/165/123 84/166/82 85/144/83 124/141/122
f 117/156/115 116/167/114 114/159/112 113/155/111
f 120/158/118 119/164/117 118/157/116
f 116/167/114 115/163/113 114/159/112
f 88/107/86 84/129/82 83/168/81 81/138/79
f 83/168/81 82/137/80 81/138/79
f 89/110/87 92/111/90 130/170/128 129/169/127
f 121/106/119 88/107/86 81/138/79 128/135/126
f 126/132/124 83/133/81 84/166/82 125/165/123
f 92/111/90 94/113/92 131/171/129 130/170/128
f 94/116/92 96/117/94 132/173/130 131/172/129
f 96/117/94 98/119/96 133/174/131 132/173/130
f 98/119/96 100/121/98 134/175/132 133/174/131
f 100/121/98 102/123/100 135/176/133 134/175/132
f 102/126/100 104/127/102 136/178/134 135/177/133
f 104/127/102 89/110/87 129/169/127 136/178/134
f 130/170/128 122/105/120 121/106/119 129/169/127
f 129/169/127 121/106/119 128/135/126 136/178/134
f 131/171/129 123/139/121 122/105/120 130/170/128
f 132/173/130 124/141/122 123/142/121 131/172/129
f 133/174/131 125/165/123 124/141/122 132/173/130
f 134/175/132 126/132/124 125/165/123 133/174/131
f 135/176/133 127/131/125 126/132/124 134/175/132
f 136/178/134 128/135/126 127/136/125 135/177/133
f 50/60/48 49/73/47 41/74/39 42/59/40
f 142/13/140 143/14/141 159/15/157 158/16/156
f 144/17/142 152/18/150 145/19/143 137/20/135
f 143/21/141 151/22/149 152/18/150 144/17/142
f 142/13/140 150/23/148 151/24/149 143/14/141
f 141/25/139 149/26/147 150/23/148 142/13/140
f 140/27/138 148/28/146 149/26/147 141/25/139
f 139/29/137 147/30/145 148/28/146 140/27/138
f 138/31/136 146/32/144 147/33/145 139/34/137
f 137/20/135 145/19/143 146/32/144 138/31/136
f 154/35/152 155/36/153 163/37/161 162/38/160
f 141/25/139 142/13/140 158/16/156 157/39/155
f 140/27/138 141/25/139 157/39/155 156/40/154
f 139/29/137 140/27/138 156/40/154 155/41/153
f 138/31/136 139/34/137 155/36/153 154/35/152
f 137/20/135 138/31/136 154/35/152 153/42/151
f 144/17/142 137/20/135 153/42/151 160/43/158
f 143/21/141 144/17/142 160/43/158 159/44/157
f 159/44/157 160/43/158 168/45/166 167/46/165
f 157/39/155 158/16/156 166/47/164 165/48/163
f 155/41/153 156/40/154 164/49/162 163/50/161
f 153/42/151 154/35/152 162/38/160 161/51/159
f 160/43/158 153/42/151 161/51/159 168/45/166
f 158/16/156 159/15/157 167/52/165 166/47/164
f 156/40/154 157/39/155 165/48/163 164/49/162
f 171/53/169 172/54/170 236/55/234 235/56/233
f 179/57/177 171/58/169 170/59/168 178/60/176
f 180/61/178 172/54/170 171/53/169 179/62/177
f 181/63/179 173/64/171 172/54/170 180/61/178
f 182/65/180 174/66/172 173/64/171 181/63/179
f 183/67/181 175/68/173 174/66/172 182/65/180
f 184/69/182 176/70/174 175/71/173 183/72/181
f 177/73/175 169/74/167 176/70/174 184/69/182
f 168/45/166 161/51/159 177/73/175 184/69/182
f 161/51/159 162/38/160 178/60/176 177/73/175
f 162/38/160 163/37/161 179/57/177 178/60/176
f 163/50/161 164/49/162 180/61/178 179/62/177
f 164/49/162 165/48/163 181/63/179 180/61/178
f 165/48/163 166/47/164 182/65/180 181/63/179
f 166/47/164 167/52/165 183/67/181 182/65/180
f 167/46/165 168/45/166 184/69/182 183/72/181
f 190/75/188 198/76/196 199/77/197 191/78/189
f 192/79/190 185/80/183 145/19/143 152/18/150
f 191/81/189 192/79/190 152/18/150 151/22/149
f 190/75/188 191/78/189 151/24/149 150/23/148
f 189/82/187 190/75/188 150/23/148 149/26/147
f 188/83/186 189/82/187 149/26/147 148/28/146
f 187/84/185 188/83/186 148/28/146 147/30/145
f 186/85/184 187/86/185 147/33/145 146/32/144
f 185/80/183 186/85/184 146/32/144 145/19/143
f 194/87/192 202/88/200 203/89/201 195/90/193
f 189/82/187 197/91/195 198/76/196 190/75/188
f 188/83/186 196/92/194 197/91/195 189/82/187
f 187/84/185 195/93/193 196/92/194 188/83/186
f 186/85/184 194/87/192 195/90/193 187/86/185
f 185/80/183 193/94/191 194/87/192 186/85/184
f 192/79/190 200/95/198 193/94/191 185/80/183
f 191/81/189 199/96/197 200/95/198 192/79/190
f 199/96/197 207/97/205 208/98/206 200/95/198
f 197/91/195 205/99/203 206/100/204 198/76/196
f 195/93/193 203/101/201 204/102/202 196/92/194
f 193/94/191 201/103/199 202/88/200 194/87/192
f 200/95/198 208/98/206 201/103/199 193/94/191
f 198/76/196 206/100/204 207/104/205 199/77/197
f 196/92/194 204/102/202 205/99/203 197/91/195
f 250/105/248 249/106/247 216/107/214 215/108/213
f 218/109/216 217/110/215 220/111/218 219/112/217
f 219/112/217 220/111/218 222/113/220 221/114/219
f 221/115/219 222/116/220 224/117/222 223/118/221
f 223/118/221 224/117/222 226/119/224 225/120/223
f 225/120/223 226/119/224 228/121/226 227/122/225
f 227/122/225 228/121/226 230/123/228 229/124/227
f 229/125/227 230/126/228 232/127/230 231/128/229
f 231/128/229 232/127/230 217/110/215 218/109/216
f 208/98/206 231/128/229 218/109/216 201/103/199
f 201/103/199 218/109/216 219/112/217 202/88/200
f 212/129/210 213/130/211 215/108/213 216/107/214
f 255/131/253 254/132/252 211/133/209 210/134/208
f 202/88/200 219/112/217 221/114/219 203/89/201
f 256/135/254 255/136/253 210/137/208 209/138/207
f 203/101/201 221/115/219 223/118/221 204/102/202
f 251/139/249 250/105/248 215/108/213 214/140/212
f 204/102/202 223/118/221 225/120/223 205/99/203
f 205/99/203 225/120/223 227/122/225 206/100/204
f 215/108/213 213/130/211 214/140/212
f 206/100/204 227/122/225 229/124/227 207/104/205
f 252/141/250 251/142/249 214/143/212 213/144/211
f 207/97/205 229/125/227 231/128/229 208/98/206
f 235/56/233 236/55/234 244/145/242 243/146/241
f 169/74/167 170/59/168 234/147/232 233/148/231
f 176/70/174 169/74/167 233/148/231 240/149/238
f 174/66/172 175/68/173 239/150/237 238/151/236
f 172/54/170 173/64/171 237/152/235 236/55/234
f 170/59/168 171/58/169 235/153/233 234/147/232
f 175/71/173 176/70/174 240/149/238 239/154/237
f 173/64/171 174/66/172 238/151/236 237/152/235
f 241/155/239 245/156/243 246/157/244 248/158/246
f 233/148/231 234/147/232 242/159/240 241/155/239
f 240/149/238 233/148/231 241/155/239 248/158/246
f 238/151/236 239/150/237 247/160/245 246/161/244
f 236/55/234 237/152/235 245/162/243 244/145/242
f 234/147/232 235/153/233 243/163/241 242/159/240
f 239/154/237 240/149/238 248/158/246 247/164/245
f 237/152/235 238/151/236 246/161/244 245/162/243
f 253/165/251 252/141/250 213/144/211 212/166/210
f 245/156/243 241/155/239 242/159/240 244/167/242
f 248/158/246 246/157/244 247/164/245
f 244/167/242 242/159/240 243/163/241
f 216/107/214 209/138/207 211/168/209 212/129/210
f 211/168/209 209/138/207 210/137/208
f 217/110/215 257/169/255 258/170/256 220/111/218
f 249/106/247 256/135/254 209/138/207 216/107/214
f 254/132/252 253/165/251 212/166/210 211/133/209
f 220/111/218 258/170/256 259/171/257 222/113/220
f 222/116/220 259/172/257 260/173/258 224/117/222
f 224/117/222 260/173/258 261/174/259 226/119/224
f 226/119/224 261/174/259 262/175/260 228/121/226
f 228/121/226 262/175/260 263/176/261 230/123/228
f 230/126/228 263/177/261 264/178/262 232/127/230
f 232/127/230 264/178/262 257/169/255 217/110/215
f 258/170/256 257/169/255 249/106/247 250/105/248
f 257/169/255 264/178/262 256/135/254 249/106/247
f 259/171/257 258/170/256 250/105/248 251/139/249
f 260/173/258 259/172/257 251/142/249 252/141/250
f 261/174/259 260/173/258 252/141/250 253/165/251
f 262/175/260 261/174/259 253/165/251 254/132/252
f 263/176/261 262/175/260 254/132/252 255/131/253
f 264/178/262 263/177/261 255/136/253 256/135/254
f 178/60/176 170/59/168 169/74/167 177/73/175
o Cube.017
v -0.125614 0.405275 0.370498
v -0.126951 3.137954 1.575059
v -0.125614 0.405275 0.157641
v -0.126951 3.137954 1.275329
v -0.092880 0.405275 0.370498
v -0.091543 3.137954 1.575059
v -0.092880 0.405275 0.157641
v -0.091543 3.137954 1.275329
v 0.125614 0.405275 0.370498
v 0.126951 3.137954 1.575059
v 0.125614 0.405275 0.157641
v 0.126951 3.137954 1.275329
v 0.092880 0.405275 0.370498
v 0.091543 3.137954 1.575059
v 0.092880 0.405275 0.157641
v 0.091543 3.137954 1.275329
vn -1.0000 -0.0005 -0.0000
vn -0.0000 0.3786 -0.9256
vn -0.0000 -0.4034 0.9150
vn -0.0000 -1.0000 -0.0000
vn -0.0000 1.0000 -0.0000
vn 1.0000 -0.0005 -0.0000
vt 0.418733 0.150838
vt 0.426245 0.472271
vt 0.398875 0.462302
vt 0.399295 0.143759
vt 0.383849 0.462256
vt 0.385405 0.143716
vt 0.432619 0.150489
vt 0.441265 0.471894
vt 0.404049 0.130707
vt 0.423486 0.137786
vt 0.393732 0.476420
vt 0.421103 0.486389
s 0
usemtl cabin_details
f 265/179/263 266/180/263 268/181/263 267/182/263
f 267/182/264 268/181/264 272/183/264 271/184/264
f 269/185/265 270/186/265 266/180/265 265/179/265
f 267/182/266 271/187/266 269/188/266 265/179/266
f 272/189/267 268/181/267 266/180/267 270/190/267
f 273/179/268 275/182/268 276/181/268 274/180/268
f 275/182/264 279/184/264 280/183/264 276/181/264
f 277/185/265 273/179/265 274/180/265 278/186/265
f 275/182/266 273/179/266 277/188/266 279/187/266
f 280/189/267 278/190/267 274/180/267 276/181/267
o Cube.018
v -0.146165 3.137932 0.057191
v -0.148404 3.128860 1.607900
v -0.146165 3.360053 0.057191
v -0.148404 3.369124 1.607900
v -0.091323 3.137932 0.057191
v -0.089083 3.128860 1.607900
v -0.091323 3.360053 0.057191
v -0.089083 3.369124 1.607900
v -0.150945 3.134158 0.832546
v -0.150945 3.395003 0.832546
v -0.086543 3.395003 0.832546
v -0.086543 3.134158 0.832546
v 0.146165 3.137931 0.057191
v 0.148404 3.128860 1.607901
v 0.146165 3.360053 0.057191
v 0.148404 3.369124 1.607901
v 0.091323 3.137931 0.057191
v 0.089084 3.128860 1.607901
v 0.091323 3.360053 0.057191
v 0.089084 3.369124 1.607901
v 0.150945 3.134158 0.832546
v 0.150945 3.395003 0.832546
v 0.086543 3.395003 0.832546
v 0.086543 3.134158 0.832546
vn -1.0000 -0.0000 0.0033
vn -0.0000 0.9994 0.0334
vn 1.0000 -0.0000 0.0033
vn -0.0000 -1.0000 -0.0068
vn -0.0000 -0.0000 -1.0000
vn -0.0000 -0.0000 1.0000
vn -0.0000 -1.0000 -0.0049
vn 1.0000 -0.0000 -0.0062
vn -0.0000 0.9990 -0.0450
vn -1.0000 -0.0000 -0.0062
vt 0.684104 0.717655
vt 0.584591 0.715982
vt 0.585351 0.685482
vt 0.684542 0.684961
vt 0.585216 0.672435
vt 0.684830 0.670842
vt 0.896082 0.685256
vt 0.996235 0.688860
vt 0.996139 0.719382
vt 0.895977 0.718392
vt 0.684032 0.731819
vt 0.584299 0.729073
vt 0.783765 0.689340
vt 0.795899 0.689378
vt 0.795810 0.717596
vt 0.783676 0.717557
vt 0.572236 0.685154
vt 0.571475 0.715655
vt 0.783811 0.729646
vt 0.784421 0.677130
s 0
usemtl cabin_details
f 289/191/269 282/192/269 284/193/269 290/194/269
f 290/194/270 284/193/270 288/195/270 291/196/270
f 291/197/271 288/198/271 286/199/271 292/200/271
f 292/201/272 286/202/272 282/192/272 289/191/272
f 283/203/273 287/204/273 285/205/273 281/206/273
f 288/207/274 284/193/274 282/192/274 286/208/274
f 285/209/275 292/201/275 289/191/275 281/206/275
f 287/204/276 291/197/276 292/200/276 285/205/276
f 283/203/277 290/194/277 291/196/277 287/210/277
f 281/206/278 289/191/278 290/194/278 283/203/278
f 301/191/271 302/194/271 296/193/271 294/192/271
f 302/194/270 303/196/270 300/195/270 296/193/270
f 303/197/269 304/200/269 298/199/269 300/198/269
f 304/201/272 301/191/272 294/192/272 298/202/272
f 295/203/273 293/206/273 297/205/273 299/204/273
f 300/207/274 298/208/274 294/192/274 296/193/274
f 297/209/275 293/206/275 301/191/275 304/201/275
f 299/204/278 297/205/278 304/200/278 303/197/278
f 295/203/277 299/210/277 303/196/277 302/194/277
f 293/206/276 295/203/276 302/194/276 301/191/276
o Cube.019
v -0.128089 0.399892 1.607900
v -0.131990 0.408964 0.057191
v -0.128089 0.177771 1.607900
v -0.131990 0.168699 0.057191
v -0.032572 0.399892 1.607900
v -0.028671 0.408964 0.057191
v -0.032572 0.177771 1.607900
v -0.028671 0.168699 0.057191
v -0.136415 0.403666 0.832546
v -0.136415 0.142820 0.832546
v -0.024246 0.142820 0.832546
v -0.024246 0.403666 0.832546
v 0.128089 0.399892 1.607900
v 0.131990 0.408964 0.057191
v 0.128089 0.177771 1.607900
v 0.131990 0.168699 0.057191
v 0.032572 0.399892 1.607900
v 0.028671 0.408964 0.057191
v 0.032572 0.177771 1.607900
v 0.028671 0.168699 0.057191
v 0.136415 0.403666 0.832546
v 0.136415 0.142820 0.832546
v 0.024246 0.142820 0.832546
v 0.024246 0.403666 0.832546
vn -1.0000 -0.0000 -0.0057
vn -0.0000 -0.9994 -0.0334
vn 1.0000 -0.0000 -0.0057
vn -0.0000 1.0000 0.0068
vn -0.0000 -0.0000 1.0000
vn -0.0000 -0.0000 -1.0000
vn -0.0000 1.0000 0.0049
vn 0.9999 -0.0000 0.0107
vn -0.0000 -0.9990 0.0450
vn -0.9999 -0.0000 0.0107
vt 0.684104 0.575037
vt 0.584591 0.573364
vt 0.585351 0.542864
vt 0.684542 0.542343
vt 0.585216 0.529817
vt 0.684830 0.528224
vt 0.896082 0.542637
vt 0.996235 0.546242
vt 0.996139 0.576764
vt 0.895977 0.575774
vt 0.684032 0.589201
vt 0.584299 0.586455
vt 0.783765 0.546722
vt 0.795899 0.546760
vt 0.795810 0.574978
vt 0.783676 0.574939
vt 0.572236 0.542536
vt 0.571475 0.573037
vt 0.783811 0.587028
vt 0.784421 0.534512
s 0
usemtl cabin_details
f 313/211/279 306/212/279 308/213/279 314/214/279
f 314/214/280 308/213/280 312/215/280 315/216/280
f 315/217/281 312/218/281 310/219/281 316/220/281
f 316/221/282 310/222/282 306/212/282 313/211/282
f 307/223/283 311/224/283 309/225/283 305/226/283
f 312/227/284 308/213/284 306/212/284 310/228/284
f 309/229/285 316/221/285 313/211/285 305/226/285
f 311/224/286 315/217/286 316/220/286 309/225/286
f 307/223/287 314/214/287 315/216/287 311/230/287
f 305/226/288 313/211/288 314/214/288 307/223/288
f 325/211/281 326/214/281 320/213/281 318/212/281
f 326/214/280 327/216/280 324/215/280 320/213/280
f 327/217/279 328/220/279 322/219/279 324/218/279
f 328/221/282 325/211/282 318/212/282 322/222/282
f 319/223/283 317/226/283 321/225/283 323/224/283
f 324/227/284 322/228/284 318/212/284 320/213/284
f 321/229/285 317/226/285 325/211/285 328/221/285
f 323/224/288 321/225/288 328/220/288 327/217/288
f 319/223/287 323/230/287 327/216/287 326/214/287
f 317/226/286 319/223/286 326/214/286 325/211/286
