# Blender 5.2.0 LTS
# www.blender.org
mtllib doorframe_horizontal.mtl
o Cube.010
v -0.084162 0.006650 -1.286956
v -0.091037 -0.009337 1.286956
v -0.084162 0.398082 -1.286956
v -0.091037 0.414069 1.286956
v 0.084162 0.006650 -1.286956
v 0.091036 -0.009337 1.286956
v 0.084162 0.398082 -1.286956
v 0.091036 0.414069 1.286956
v -0.098835 0.000000 0.000000
v -0.098835 0.459674 0.000000
v 0.098835 0.459674 0.000000
v 0.098835 0.000000 0.000000
vn -1.0000 -0.0000 0.0061
vn -0.0000 0.9994 0.0354
vn 1.0000 -0.0000 0.0061
vn -0.0000 -1.0000 -0.0073
vn -0.0000 -0.0000 -1.0000
vn -0.0000 -0.0000 1.0000
vn -0.0000 -1.0000 -0.0052
vn 0.9999 -0.0000 -0.0114
vn -0.0000 0.9989 -0.0478
vn -0.9999 -0.0000 -0.0114
vt 0.318741 0.149461
vt 0.317667 0.017408
vt 0.358148 0.017408
vt 0.362122 0.148960
vt 0.375450 0.016797
vt 0.380858 0.148874
vt 0.368731 0.429560
vt 0.367265 0.562526
vt 0.326776 0.563408
vt 0.324775 0.430518
vt 0.299950 0.149833
vt 0.300293 0.017454
vt 0.359597 0.280716
vt 0.359947 0.296812
vt 0.322516 0.297628
vt 0.322165 0.281532
vt 0.358148 -0.000000
vt 0.317667 -0.000000
vt 0.306135 0.282112
vt 0.375813 0.281183
s 0
usemtl cabin_details
f 9/1/1 2/2/1 4/3/1 10/4/1
f 10/4/2 4/3/2 8/5/2 11/6/2
f 11/7/3 8/8/3 6/9/3 12/10/3
f 12/11/4 6/12/4 2/2/4 9/1/4
f 3/13/5 7/14/5 5/15/5 1/16/5
f 8/17/6 4/3/6 2/2/6 6/18/6
f 5/19/7 12/11/7 9/1/7 1/16/7
f 7/14/8 11/7/8 12/10/8 5/15/8
f 3/13/9 10/4/9 11/6/9 7/20/9
f 1/16/10 9/1/10 10/4/10 3/13/10
