# Blender 5.2.0 LTS
# www.blender.org
mtllib doorframe_vertical.mtl
o Cube.009
v -0.080510 0.000000 0.187222
v -0.087086 3.525066 0.202515
v -0.080510 0.000000 -0.187222
v -0.087086 3.525066 -0.202515
v 0.080510 0.000000 0.187222
v 0.087086 3.525066 0.202515
v 0.080510 0.000000 -0.187222
v 0.087086 3.525066 -0.202515
vn -1.0000 -0.0019 -0.0000
vn -0.0000 -0.0043 -1.0000
vn 1.0000 -0.0019 -0.0000
vn -0.0000 -0.0043 1.0000
vn -0.0000 -1.0000 -0.0000
vn -0.0000 1.0000 -0.0000
vt 0.248821 0.335413
vt 0.247434 0.015792
vt 0.284158 0.015792
vt 0.282772 0.335413
vt 0.299950 0.015890
vt 0.297371 0.335504
vt 0.282772 0.350013
vt 0.284158 0.669634
vt 0.247434 0.669634
vt 0.248821 0.350013
vt 0.234221 0.335504
vt 0.231642 0.015890
vt 0.284158 0.000000
vt 0.247434 0.000000
s 0
usemtl cabin_details
f 1/1/1 2/2/1 4/3/1 3/4/1
f 3/4/2 4/3/2 8/5/2 7/6/2
f 7/7/3 8/8/3 6/9/3 5/10/3
f 5/11/4 6/12/4 2/2/4 1/1/4
f 3/4/5 7/7/5 5/10/5 1/1/5
f 8/13/6 4/3/6 2/2/6 6/14/6
