# Blender 5.2.0 LTS
# www.blender.org
mtllib wall_beam.mtl
o Cube.011
v -0.046616 0.000000 0.101145
v -0.050424 5.249139 0.109407
v -0.046616 0.000000 -0.101145
v -0.050424 5.249139 -0.109407
v 0.046616 0.000000 0.101145
v 0.050424 5.249139 0.109407
v 0.046616 0.000000 -0.101145
v 0.050424 5.249139 -0.109407
vn -1.0000 -0.0007 -0.0000
vn -0.0000 -0.0016 -1.0000
vn 1.0000 -0.0007 -0.0000
vn -0.0000 -0.0016 1.0000
vn -0.0000 -1.0000 -0.0000
vn -0.0000 1.0000 -0.0000
vt 0.010204 0.500356
vt 0.009432 0.009432
vt 0.029896 0.009432
vt 0.029123 0.500356
vt 0.039328 0.009453
vt 0.037843 0.500376
vt 0.029123 0.509076
vt 0.029896 1.000000
vt 0.009431 1.000000
vt 0.010204 0.509076
vt 0.001485 0.500376
vt 0.000000 0.009453
vt 0.029896 0.000000
vt 0.009432 0.000000
s 0
usemtl cabin_details
f 1/1/1 2/2/1 4/3/1 3/4/1
f 3/4/2 4/3/2 8/5/2 7/6/2
f 7/7/3 8/8/3 6/9/3 5/10/3
f 5/11/4 6/12/4 2/2/4 1/1/4
f 3/4/5 7/7/5 5/10/5 1/1/5
f 8/13/6 4/3/6 2/2/6 6/14/6
