# Blender 5.2.0 LTS
# www.blender.org
mtllib wood_beam_thick.mtl
o Cylinder.002
v -3.916581 0.000000 -0.285258
v 3.916581 -0.000000 -0.285258
v -3.916581 -0.142629 -0.247041
v 3.916581 -0.142629 -0.247041
v -3.916581 -0.247041 -0.142629
v 3.916581 -0.247041 -0.142629
v -3.916581 -0.285258 0.000000
v 3.916581 -0.285258 0.000000
v -3.916581 -0.247041 0.142629
v 3.916581 -0.247041 0.142629
v -3.916581 -0.142629 0.247041
v 3.916581 -0.142629 0.247041
v -3.916581 0.000000 0.285258
v 3.916581 -0.000000 0.285258
v -3.916581 0.142629 0.247041
v 3.916581 0.142629 0.247041
v -3.916581 0.247041 0.142629
v 3.916581 0.247041 0.142629
v -3.916581 0.285258 0.000000
v 3.916581 0.285258 0.000000
v -3.916581 0.247041 -0.142629
v 3.916581 0.247041 -0.142629
v -3.916581 0.142629 -0.247041
v 3.916581 0.142629 -0.247041
v 3.893461 -0.000000 -0.325201
v -3.893461 0.000000 -0.325201
v -3.893461 -0.162600 -0.281632
v 3.893461 -0.162601 -0.281632
v -3.893461 -0.281632 -0.162601
v 3.893461 -0.281633 -0.162601
v -3.893461 -0.325201 0.000000
v 3.893461 -0.325201 0.000000
v -3.893461 -0.281632 0.162601
v 3.893461 -0.281633 0.162601
v -3.893461 -0.162600 0.281632
v 3.893461 -0.162601 0.281632
v -3.893461 0.000000 0.325201
v 3.893461 -0.000000 0.325201
v -3.893461 0.162601 0.281632
v 3.893461 0.162600 0.281632
v -3.893461 0.281633 0.162601
v 3.893461 0.281632 0.162601
v -3.893461 0.325201 0.000000
v 3.893461 0.325201 0.000000
v -3.893461 0.281633 -0.162601
v 3.893461 0.281632 -0.162601
v -3.893461 0.162601 -0.281632
v 3.893461 0.162600 -0.281632
vn -0.9543 0.2587 -0.1493
vn -0.9543 -0.2587 -0.1494
vn -0.9543 -0.2987 -0.0000
vn -0.9543 0.2987 -0.0000
vn -0.9543 -0.2587 0.1493
vn -0.9543 0.2587 0.1493
vn 0.9543 -0.1494 -0.2587
vn 0.9543 -0.0000 -0.2987
vn 0.9543 0.1494 -0.2587
vn 0.9543 0.2587 -0.1494
vn 0.9543 -0.2587 -0.1493
vn -0.9543 -0.0000 -0.2987
vn -0.9543 -0.1494 -0.2587
vn -0.9543 0.1494 -0.2587
vn 0.9543 -0.2587 0.1493
vn 0.9543 0.2587 0.1493
vn 0.9543 0.1494 0.2587
vn 0.9543 -0.0000 0.2987
vn 0.9543 -0.1494 0.2587
vn 0.9543 0.2987 -0.0000
vn 0.9543 -0.2987 -0.0000
vn -0.9543 -0.1494 0.2587
vn -0.9543 -0.0000 0.2987
vn -0.9543 0.1494 0.2587
vn -0.0000 0.5000 -0.8660
vn -0.0000 -0.0000 -1.0000
vn -0.0000 0.8660 -0.5000
vn -0.0000 1.0000 -0.0000
vn -0.0000 0.8660 0.5000
vn -0.0000 0.5000 0.8660
vn -0.0000 -0.0000 1.0000
vn -0.0000 -0.5000 0.8660
vn -0.0000 -0.8660 0.5000
vn -0.0000 -1.0000 -0.0000
vn -0.0000 -0.8660 -0.5000
vn -0.0000 -0.5000 -0.8660
vn 0.8655 0.2505 -0.4338
vn 0.8655 -0.0000 -0.5010
vn -0.8655 -0.0000 -0.5010
vn -0.8655 -0.2505 -0.4338
vn 0.8655 -0.2505 -0.4338
vn -0.8655 0.2505 -0.4338
vn 0.8655 -0.4338 -0.2505
vn -0.8655 -0.4338 -0.2505
vn 0.8655 -0.5010 -0.0000
vn -0.8655 -0.5010 -0.0000
vn 0.8655 -0.4338 0.2505
vn -0.8655 -0.4338 0.2505
vn 0.8655 -0.2505 0.4338
vn -0.8655 -0.2505 0.4338
vn 0.8655 -0.0000 0.5010
vn -0.8655 -0.0000 0.5010
vn 0.8655 0.2505 0.4338
vn -0.8655 0.2505 0.4338
vn 0.8655 0.4338 0.2505
vn -0.8655 0.4338 0.2505
vn 0.8655 0.5010 -0.0000
vn -0.8655 0.5010 -0.0000
vn 0.8655 0.4338 -0.2505
vn -0.8655 0.4338 -0.2505
vt 0.392132 0.011494
vt 0.437255 0.023543
vt 0.437197 0.037623
vt 0.385243 0.023714
vt 0.430187 0.049846
vt 0.385177 0.037771
vt 0.418398 0.118013
vt 0.404414 0.118091
vt 0.392229 0.111078
vt 0.385222 0.098864
vt 0.430421 0.110900
vt 0.418211 0.004375
vt 0.430334 0.011384
vt 0.404191 0.004419
vt 0.437293 0.084750
vt 0.392221 0.072612
vt 0.404310 0.065560
vt 0.418282 0.065549
vt 0.430356 0.072589
vt 0.385239 0.084796
vt 0.437334 0.098748
vt 0.418072 0.056906
vt 0.404107 0.056918
vt 0.392066 0.049908
vt 0.199590 0.741339
vt 0.183563 0.741339
vt 0.183564 0.000000
vt 0.199590 0.000000
vt 0.215616 0.741339
vt 0.215616 -0.000000
vt 0.231642 0.741339
vt 0.231642 -0.000000
vt 0.055354 0.741339
vt 0.039328 0.741339
vt 0.039328 0.000000
vt 0.055354 0.000000
vt 0.071380 0.741339
vt 0.071380 0.000000
vt 0.087406 0.741339
vt 0.087407 0.000000
vt 0.103433 0.741339
vt 0.103433 0.000000
vt 0.119459 0.741339
vt 0.119459 0.000000
vt 0.135485 0.741339
vt 0.135485 0.000000
vt 0.151511 0.741339
vt 0.151511 0.000000
vt 0.167537 0.741339
vt 0.167537 0.000000
vt 0.389008 0.114294
vt 0.403298 0.122445
vt 0.419378 0.000000
vt 0.433488 0.008253
vt 0.419623 0.122313
vt 0.402976 0.000106
vt 0.433624 0.114004
vt 0.441586 0.022373
vt 0.441615 0.099874
vt 0.441586 0.038801
vt 0.441615 0.083630
vt 0.433356 0.053037
vt 0.433555 0.069465
vt 0.419210 0.061234
vt 0.419478 0.061241
vt 0.402915 0.061213
vt 0.403171 0.061234
vt 0.388924 0.053017
vt 0.389062 0.069436
vt 0.380858 0.038934
vt 0.380909 0.083609
vt 0.380874 0.022556
vt 0.380858 0.099990
vt 0.388966 0.008379
s 1
usemtl cabin_details
f 21/1/1 5/2/2 7/3/3 19/4/4
f 19/4/4 7/3/3 9/5/5 17/6/6
f 4/7/7 2/8/8 24/9/9 22/10/10 6/11/11
f 1/12/12 3/13/13 5/2/2 21/1/1 23/14/14
f 10/15/15 18/16/16 16/17/17 14/18/18 12/19/19
f 6/11/11 22/10/10 20/20/20 8/21/21
f 8/21/21 20/20/20 18/16/16 10/15/15
f 17/6/6 9/5/5 11/22/22 13/23/23 15/24/24
f 48/25/25 25/26/26 26/27/26 47/28/25
f 46/29/27 48/25/25 47/28/25 45/30/27
f 44/31/28 46/29/27 45/30/27 43/32/28
f 42/33/29 44/34/28 43/35/28 41/36/29
f 40/37/30 42/33/29 41/36/29 39/38/30
f 38/39/31 40/37/30 39/38/30 37/40/31
f 36/41/32 38/39/31 37/40/31 35/42/32
f 34/43/33 36/41/32 35/42/32 33/44/33
f 32/45/34 34/43/33 33/44/33 31/46/34
f 30/47/35 32/45/34 31/46/34 29/48/35
f 28/49/36 30/47/35 29/48/35 27/50/36
f 25/26/26 28/49/36 27/50/36 26/27/26
f 48/51/37 24/9/9 2/8/8 25/52/38
f 1/12/12 26/53/39 27/54/40 3/13/13
f 25/52/38 2/8/8 4/7/7 28/55/41
f 23/14/14 47/56/42 26/53/39 1/12/12
f 28/55/41 4/7/7 6/11/11 30/57/43
f 3/13/13 27/54/40 29/58/44 5/2/2
f 30/57/43 6/11/11 8/21/21 32/59/45
f 5/2/2 29/58/44 31/60/46 7/3/3
f 32/59/45 8/21/21 10/15/15 34/61/47
f 7/3/3 31/60/46 33/62/48 9/5/5
f 34/61/47 10/15/15 12/19/19 36/63/49
f 9/5/5 33/62/48 35/64/50 11/22/22
f 36/63/49 12/19/19 14/18/18 38/65/51
f 11/22/22 35/64/50 37/66/52 13/23/23
f 38/65/51 14/18/18 16/17/17 40/67/53
f 13/23/23 37/66/52 39/68/54 15/24/24
f 40/67/53 16/17/17 18/16/16 42/69/55
f 15/24/24 39/68/54 41/70/56 17/6/6
f 42/69/55 18/16/16 20/20/20 44/71/57
f 17/6/6 41/70/56 43/72/58 19/4/4
f 44/71/57 20/20/20 22/10/10 46/73/59
f 19/4/4 43/72/58 45/74/60 21/1/1
f 46/73/59 22/10/10 24/9/9 48/51/37
f 21/1/1 45/74/60 47/56/42 23/14/14
