# Blender 5.2.0 LTS
# www.blender.org
mtllib wood_beam_thin.mtl
o Cylinder.004
v -3.916581 0.000000 -0.129401
v 3.916581 -0.000000 -0.129401
v -3.916581 -0.064700 -0.112064
v 3.916581 -0.064700 -0.112064
v -3.916581 -0.112064 -0.064700
v 3.916581 -0.112064 -0.064700
v -3.916581 -0.129400 -0.000000
v 3.916581 -0.129401 -0.000000
v -3.916581 -0.112064 0.064700
v 3.916581 -0.112064 0.064700
v -3.916581 -0.064700 0.112064
v 3.916581 -0.064700 0.112064
v -3.916581 0.000000 0.129400
v 3.916581 -0.000000 0.129400
v -3.916581 0.064700 0.112064
v 3.916581 0.064700 0.112064
v -3.916581 0.112064 0.064700
v 3.916581 0.112064 0.064700
v -3.916581 0.129401 -0.000000
v 3.916581 0.129400 -0.000000
v -3.916581 0.112064 -0.064700
v 3.916581 0.112064 -0.064700
v -3.916581 0.064700 -0.112064
v 3.916581 0.064700 -0.112064
v 3.893461 -0.000000 -0.147520
v -3.893461 0.000000 -0.147520
v -3.893461 -0.073760 -0.127756
v 3.893461 -0.073760 -0.127756
v -3.893461 -0.127756 -0.073760
v 3.893461 -0.127756 -0.073760
v -3.893461 -0.147520 -0.000000
v 3.893461 -0.147520 -0.000000
v -3.893461 -0.127756 0.073760
v 3.893461 -0.127756 0.073760
v -3.893461 -0.073760 0.127756
v 3.893461 -0.073760 0.127756
v -3.893461 0.000000 0.147519
v 3.893461 -0.000000 0.147519
v -3.893461 0.073760 0.127756
v 3.893461 0.073760 0.127756
v -3.893461 0.127756 0.073760
v 3.893461 0.127756 0.073760
v -3.893461 0.147520 -0.000000
v 3.893461 0.147520 -0.000000
v -3.893461 0.127756 -0.073760
v 3.893461 0.127756 -0.073760
v -3.893461 0.073760 -0.127756
v 3.893461 0.073760 -0.127756
vn -0.8701 0.4268 -0.2464
vn -0.8701 -0.4268 -0.2464
vn -0.8701 -0.4928 -0.0000
vn -0.8701 0.4928 -0.0000
vn -0.8701 -0.4268 0.2464
vn -0.8701 0.4268 0.2464
vn 0.8701 -0.2464 -0.4268
vn 0.8701 -0.0000 -0.4928
vn 0.8701 0.2464 -0.4268
vn 0.8701 0.4268 -0.2464
vn 0.8701 -0.4268 -0.2464
vn -0.8701 -0.0000 -0.4928
vn -0.8701 -0.2464 -0.4268
vn -0.8701 0.2464 -0.4268
vn 0.8701 -0.4268 0.2464
vn 0.8701 0.4268 0.2464
vn 0.8701 0.2464 0.4268
vn 0.8701 -0.0000 0.4928
vn 0.8701 -0.2464 0.4268
vn 0.8701 0.4928 -0.0000
vn 0.8701 -0.4928 -0.0000
vn -0.8701 -0.2464 0.4268
vn -0.8701 -0.0000 0.4928
vn -0.8701 0.2464 0.4268
vn -0.0000 0.5000 -0.8660
vn -0.0000 -0.0000 -1.0000
vn -0.0000 0.8660 -0.5000
vn -0.0000 1.0000 -0.0000
vn -0.0000 0.8660 0.5000
vn -0.0000 0.5000 0.8660
vn -0.0000 -0.0000 1.0000
vn -0.0000 -0.5000 0.8660
vn -0.0000 -0.8660 0.5000
vn -0.0000 -1.0000 -0.0000
vn -0.0000 -0.8660 -0.5000
vn -0.0000 -0.5000 -0.8660
vn 0.6168 0.3935 -0.6816
vn 0.6168 -0.0000 -0.7871
vn -0.6168 -0.0000 -0.7871
vn -0.6168 -0.3935 -0.6816
vn 0.6168 -0.3935 -0.6816
vn -0.6168 0.3935 -0.6816
vn 0.6168 -0.6816 -0.3935
vn -0.6168 -0.6816 -0.3935
vn 0.6168 -0.7871 -0.0000
vn -0.6168 -0.7871 -0.0000
vn 0.6168 -0.6816 0.3935
vn -0.6168 -0.6816 0.3935
vn 0.6168 -0.3935 0.6816
vn -0.6168 -0.3935 0.6816
vn 0.6168 -0.0000 0.7871
vn -0.6168 -0.0000 0.7871
vn 0.6168 0.3935 0.6816
vn -0.6168 0.3935 0.6816
vn 0.6168 0.6816 0.3935
vn -0.6168 0.6816 0.3935
vn 0.6168 0.7871 -0.0000
vn -0.6168 0.7871 -0.0000
vn 0.6168 0.6816 -0.3935
vn -0.6168 0.6816 -0.3935
vt 0.906710 0.921517
vt 0.900800 0.943870
vt 0.893625 0.943961
vt 0.900545 0.917960
vt 0.887410 0.940485
vt 0.893424 0.918103
vt 0.885156 0.986312
vt 0.881674 0.980354
vt 0.881660 0.973344
vt 0.885299 0.967239
vt 0.891220 0.989637
vt 0.910457 0.934419
vt 0.906969 0.940399
vt 0.910366 0.927511
vt 0.904467 0.986022
vt 0.898600 0.963508
vt 0.904704 0.966904
vt 0.908191 0.972906
vt 0.908067 0.979881
vt 0.891487 0.963584
vt 0.898282 0.989561
vt 0.883789 0.934475
vt 0.883762 0.927511
vt 0.887266 0.921486
vt 0.040336 0.975247
vt 0.040336 0.967091
vt 0.872069 0.967091
vt 0.872069 0.975247
vt 0.040336 0.983403
vt 0.872069 0.983403
vt 0.040336 0.991560
vt 0.872069 0.991560
vt 0.040336 0.901840
vt 0.040336 0.893684
vt 0.872069 0.893684
vt 0.872069 0.901840
vt 0.040336 0.909997
vt 0.872069 0.909997
vt 0.040336 0.918153
vt 0.872069 0.918153
vt 0.040336 0.926309
vt 0.872069 0.926309
vt 0.040336 0.934465
vt 0.872069 0.934466
vt 0.040336 0.942622
vt 0.872069 0.942622
vt 0.040336 0.950778
vt 0.872069 0.950778
vt 0.040336 0.958934
vt 0.872069 0.958934
vt 0.878412 0.972550
vt 0.878548 0.981289
vt 0.913526 0.935225
vt 0.909346 0.942686
vt 0.882951 0.988576
vt 0.913544 0.926687
vt 0.890351 0.992783
vt 0.901699 0.947211
vt 0.899078 0.992789
vt 0.892715 0.947211
vt 0.906775 0.988465
vt 0.885037 0.942823
vt 0.911353 0.980805
vt 0.880593 0.935282
vt 0.911295 0.972087
vt 0.880627 0.926588
vt 0.907052 0.964632
vt 0.885013 0.919196
vt 0.899493 0.960310
vt 0.892549 0.914827
vt 0.890661 0.960310
vt 0.901359 0.914785
vt 0.882846 0.964775
vt 0.909095 0.919068
s 1
usemtl cabin_details
f 21/1/1 5/2/2 7/3/3 19/4/4
f 19/4/4 7/3/3 9/5/5 17/6/6
f 4/7/7 2/8/8 24/9/9 22/10/10 6/11/11
f 1/12/12 3/13/13 5/2/2 21/1/1 23/14/14
f 10/15/15 18/16/16 16/17/17 14/18/18 12/19/19
f 6/11/11 22/10/10 20/20/20 8/21/21
f 8/21/21 20/20/20 18/16/16 10/15/15
f 17/6/6 9/5/5 11/22/22 13/23/23 15/24/24
f 48/25/25 25/26/26 26/27/26 47/28/25
f 46/29/27 48/25/25 47/28/25 45/30/27
f 44/31/28 46/29/27 45/30/27 43/32/28
f 42/33/29 44/34/28 43/35/28 41/36/29
f 40/37/30 42/33/29 41/36/29 39/38/30
f 38/39/31 40/37/30 39/38/30 37/40/31
f 36/41/32 38/39/31 37/40/31 35/42/32
f 34/43/33 36/41/32 35/42/32 33/44/33
f 32/45/34 34/43/33 33/44/33 31/46/34
f 30/47/35 32/45/34 31/46/34 29/48/35
f 28/49/36 30/47/35 29/48/35 27/50/36
f 25/26/26 28/49/36 27/50/36 26/27/26
f 48/51/37 24/9/9 2/8/8 25/52/38
f 1/12/12 26/53/39 27/54/40 3/13/13
f 25/52/38 2/8/8 4/7/7 28/55/41
f 23/14/14 47/56/42 26/53/39 1/12/12
f 28/55/41 4/7/7 6/11/11 30/57/43
f 3/13/13 27/54/40 29/58/44 5/2/2
f 30/57/43 6/11/11 8/21/21 32/59/45
f 5/2/2 29/58/44 31/60/46 7/3/3
f 32/59/45 8/21/21 10/15/15 34/61/47
f 7/3/3 31/60/46 33/62/48 9/5/5
f 34/61/47 10/15/15 12/19/19 36/63/49
f 9/5/5 33/62/48 35/64/50 11/22/22
f 36/63/49 12/19/19 14/18/18 38/65/51
f 11/22/22 35/64/50 37/66/52 13/23/23
f 38/65/51 14/18/18 16/17/17 40/67/53
f 13/23/23 37/66/52 39/68/54 15/24/24
f 40/67/53 16/17/17 18/16/16 42/69/55
f 15/24/24 39/68/54 41/70/56 17/6/6
f 42/69/55 18/16/16 20/20/20 44/71/57
f 17/6/6 41/70/56 43/72/58 19/4/4
f 44/71/57 20/20/20 22/10/10 46/73/59
f 19/4/4 43/72/58 45/74/60 21/1/1
f 46/73/59 22/10/10 24/9/9 48/51/37
f 21/1/1 45/74/60 47/56/42 23/14/14
