# Blender 5.2.0 LTS
# www.blender.org
mtllib rock_big1.mtl
o big_rock1_low
v -0.528365 0.043508 -0.482614
v -0.530892 0.015781 -0.351615
v -0.526722 0.014071 -0.196716
v -0.537750 0.318401 -0.514145
v -0.564930 0.319946 -0.351742
v -0.564936 0.320014 -0.197046
v -0.395710 -0.015643 -0.537096
v -0.393596 -0.058776 -0.351746
v -0.393572 -0.058776 -0.197046
v -0.392508 0.158107 -0.585788
v -0.450861 0.319743 -0.587481
v -0.238408 -0.013470 -0.538243
v -0.238876 -0.058777 -0.351742
v -0.238876 -0.058777 -0.197046
v -0.238876 0.111740 -0.581698
v -0.238876 0.320014 -0.599920
v -0.088337 -0.016388 -0.542743
v -0.084180 -0.058777 -0.351742
v -0.084180 -0.058777 -0.197046
v -0.084180 0.111764 -0.581700
v -0.084180 0.320014 -0.599920
v -0.525750 0.014289 -0.042628
v -0.529575 0.014013 0.112485
v -0.516403 0.030801 0.272386
v -0.564936 0.320014 -0.042351
v -0.564936 0.320014 0.112345
v -0.561671 0.319292 0.269200
v -0.393572 -0.058776 -0.042351
v -0.393572 -0.058777 0.112345
v -0.398593 -0.052570 0.272210
v -0.310979 0.310859 0.489751
v -0.238876 -0.058777 -0.042351
v -0.238875 -0.058679 0.112346
v -0.238793 -0.058924 0.267017
v -0.259750 -0.006291 0.448251
v -0.195798 0.049258 0.528106
v -0.244068 0.315175 0.544074
v -0.084180 -0.058734 -0.042350
v -0.084182 -0.057534 0.112343
v -0.084180 -0.057053 0.267041
v -0.084180 -0.056405 0.421738
v -0.108708 -0.001367 0.600116
v -0.038840 0.046087 0.684099
v -0.145376 0.320228 0.638531
v -0.070885 0.319592 0.712945
v -0.478323 0.629323 -0.590269
v -0.549551 0.628822 -0.515797
v -0.591982 0.629088 -0.351742
v -0.592004 0.629405 -0.197046
v -0.472348 0.953530 -0.592115
v -0.544230 0.946622 -0.534304
v -0.616980 0.938384 -0.352631
v -0.620379 0.953743 -0.204905
v -0.522069 1.125680 -0.326590
v -0.393572 1.149175 -0.390282
v -0.393553 1.240465 -0.199502
v -0.238876 0.629405 -0.626988
v -0.238992 0.947445 -0.645867
v -0.238876 1.148871 -0.390810
v -0.238959 1.240648 -0.199291
v -0.084180 0.629405 -0.626988
v -0.084142 0.947249 -0.644654
v -0.084180 1.150125 -0.388635
v -0.081881 1.235489 -0.201303
v -0.592004 0.629405 -0.042351
v -0.592004 0.629404 0.112345
v -0.580229 0.628557 0.270450
v -0.618956 0.937474 -0.042351
v -0.620354 0.953399 0.097449
v -0.562827 0.956523 0.298228
v -0.349683 0.629320 0.516343
v -0.389107 0.962416 0.403301
v -0.388563 1.081581 0.284257
v -0.393571 1.255168 -0.042793
v -0.393815 1.232487 0.123682
v -0.215960 0.610020 0.578513
v -0.155097 0.590533 0.649388
v -0.238876 0.940797 0.425042
v -0.238876 1.096206 0.269633
v -0.238876 1.255187 -0.042567
v -0.238600 1.232439 0.120455
v -0.090822 0.596485 0.694370
v -0.095113 0.925452 0.440383
v -0.085985 1.111533 0.254306
v -0.081750 1.242874 -0.042319
v -0.083523 1.210635 0.130888
v 0.069808 -0.011701 -0.545537
v 0.070515 -0.058777 -0.351742
v 0.070515 -0.058777 -0.197046
v 0.070515 0.111775 -0.581701
v 0.070515 0.320014 -0.599920
v 0.231778 -0.013611 -0.547390
v 0.225211 -0.058777 -0.351742
v 0.225211 -0.058777 -0.197046
v 0.225211 0.122292 -0.582621
v 0.225211 0.319751 -0.599897
v 0.405240 0.019320 -0.504931
v 0.379907 -0.058777 -0.351742
v 0.379906 -0.058777 -0.197046
v 0.374104 0.167013 -0.552182
v 0.400226 0.320001 -0.535920
v 0.474173 0.066773 -0.447351
v 0.514021 0.026502 -0.361775
v 0.526737 0.002669 -0.198657
v 0.473338 0.320014 -0.448787
v 0.534635 0.319418 -0.356304
v 0.547617 0.320014 -0.197046
v 0.070515 -0.058374 -0.042350
v 0.070515 -0.057146 0.112345
v 0.070515 -0.057020 0.267041
v 0.070515 -0.056411 0.421736
v 0.070515 -0.056402 0.576432
v 0.064920 0.009015 0.736437
v 0.073686 0.317011 0.792876
v 0.225211 -0.058777 -0.042351
v 0.225211 -0.057991 0.112345
v 0.225211 -0.057097 0.267041
v 0.225212 -0.056412 0.421738
v 0.263641 -0.016176 0.616696
v 0.195228 0.042336 0.699061
v 0.271570 0.320014 0.623472
v 0.194993 0.320014 0.699982
v 0.379906 -0.058777 -0.042351
v 0.379906 -0.058777 0.112345
v 0.378302 -0.059878 0.267203
v 0.416564 0.001904 0.438238
v 0.427582 0.320216 0.469120
v 0.533038 0.003290 -0.042943
v 0.530193 0.003511 0.114498
v 0.506389 0.025461 0.273808
v 0.475513 0.063299 0.367944
v 0.547617 0.320014 -0.042351
v 0.547617 0.320014 0.112345
v 0.547617 0.320014 0.267041
v 0.501812 0.319192 0.399080
v 0.070515 0.629405 -0.626988
v 0.069983 0.947470 -0.646795
v 0.076296 1.161363 -0.353821
v 0.120849 1.161397 -0.197046
v 0.225367 0.628849 -0.626688
v 0.233888 0.951319 -0.628542
v 0.228185 1.110895 -0.352042
v 0.225210 1.112733 -0.197046
v 0.404938 0.629405 -0.530304
v 0.399548 0.946504 -0.529487
v 0.445691 1.005301 -0.353394
v 0.445580 1.009980 -0.197046
v 0.473277 0.629405 -0.448861
v 0.534380 0.629484 -0.358150
v 0.547617 0.629405 -0.197046
v 0.474296 0.884983 -0.447646
v 0.515598 0.933069 -0.363010
v 0.524958 0.949674 -0.197001
v 0.037717 0.669381 0.734874
v 0.070596 0.945856 0.421171
v 0.123846 1.159999 -0.042351
v 0.079927 1.171307 0.129636
v 0.070508 1.091545 0.274336
v 0.270590 0.629406 0.624471
v 0.197301 0.629406 0.697675
v 0.225191 0.949739 0.419466
v 0.225210 1.112732 -0.042351
v 0.227067 1.111867 0.112345
v 0.227694 1.071599 0.272394
v 0.447616 0.629254 0.491351
v 0.445673 1.009929 -0.042351
v 0.445678 1.009928 0.112345
v 0.419658 1.019075 0.271562
v 0.365765 0.942505 0.422797
v 0.547617 0.629405 -0.042351
v 0.547617 0.629405 0.112345
v 0.547617 0.629405 0.267040
v 0.517043 0.628486 0.424216
v 0.527530 0.948077 -0.042021
v 0.525663 0.947803 0.112055
v 0.525291 0.942737 0.267782
v 0.499666 0.908273 0.397490
v -0.506966 1.097104 -0.202203
v -0.506263 1.096321 -0.042572
v -0.507084 1.092943 0.110565
v -0.492051 1.030598 0.263052
vn -0.9962 -0.0872 -0.0000
vn -0.9935 -0.0690 -0.0909
vn -0.8132 -0.5769 -0.0765
vn -0.8158 -0.5783 0.0054
vn -0.9880 -0.0807 -0.1318
vn -0.8727 -0.0537 -0.4853
vn -0.8564 -0.0875 -0.5088
vn -0.9963 -0.0864 -0.0017
vn -0.4092 -0.0988 -0.9071
vn -0.2607 -0.1725 -0.9499
vn -0.2668 -0.6990 -0.6635
vn -0.7714 -0.4492 -0.4508
vn -0.2387 -0.9650 -0.1084
vn -0.2478 -0.9688 0.0010
vn -0.5492 -0.0394 -0.8348
vn -0.0043 -0.0837 -0.9965
vn -0.0140 -0.2051 -0.9786
vn -0.0116 0.3892 -0.9211
vn -0.0941 0.4211 -0.9021
vn -0.0207 -0.0841 -0.9962
vn -0.0017 -0.9933 -0.1152
vn -0.0163 -0.7327 -0.6803
vn -0.0000 -1.0000 -0.0000
vn -0.0000 -0.0872 -0.9962
vn -0.0053 -0.1933 -0.9811
vn 0.0001 -0.9935 -0.1139
vn -0.0062 -0.7354 -0.6776
vn 0.0003 -1.0000 0.0004
vn -0.8153 -0.5790 -0.0038
vn -0.9966 -0.0810 0.0128
vn -0.8175 -0.5752 0.0296
vn -0.9588 -0.1276 0.2538
vn -0.8501 -0.3198 0.4184
vn -0.9961 -0.0779 0.0413
vn -0.9594 -0.0324 0.2802
vn -0.0887 -0.9683 0.2334
vn -0.1109 -0.9670 0.2295
vn -0.4699 -0.5967 0.6505
vn -0.2475 -0.9689 -0.0011
vn -0.2605 -0.9652 0.0220
vn -0.5196 -0.1491 0.8413
vn 0.0011 -1.0000 0.0012
vn -0.0014 -1.0000 0.0060
vn -0.6169 -0.1547 0.7716
vn -0.6106 -0.4417 0.6573
vn -0.4727 0.2522 0.8443
vn -0.5069 -0.0921 0.8570
vn -0.6914 -0.1438 0.7080
vn -0.4977 -0.6793 0.5393
vn 0.0019 -1.0000 0.0034
vn 0.0043 -1.0000 0.0037
vn -0.0302 -0.9988 0.0387
vn -0.1570 -0.9733 0.1675
vn -0.6004 -0.1073 0.7925
vn -0.5479 -0.4529 0.7033
vn -0.6281 0.3097 0.7139
vn -0.5120 0.3897 0.7655
vn -0.3613 0.3561 -0.8618
vn -0.9023 0.1911 -0.3864
vn -0.9952 -0.0864 -0.0461
vn 0.0002 -0.0871 -0.9962
vn -0.0014 -0.1842 -0.9829
vn -0.6714 0.6942 0.2595
vn -0.9314 0.2469 -0.2673
vn -0.9187 0.2116 -0.3336
vn -0.8859 0.4086 0.2198
vn -0.3247 0.9321 0.1602
vn 0.0170 0.9732 -0.2293
vn -0.0231 0.8442 -0.5355
vn -0.4117 0.7303 -0.5451
vn -0.0021 0.2514 -0.9679
vn 0.0197 0.8744 -0.4848
vn 0.0784 0.4310 -0.8989
vn 0.1997 0.9092 -0.3654
vn 0.1476 0.9729 -0.1783
vn -0.8210 0.4450 0.3577
vn -0.0872 0.9077 0.4106
vn -0.1048 0.9941 0.0293
vn -0.9596 0.2230 -0.1718
vn -0.6473 0.6123 0.4540
vn -0.6102 0.7529 0.2464
vn -0.8259 0.3955 0.4018
vn -0.4671 0.4234 0.7762
vn 0.0073 0.7531 0.6579
vn 0.0279 0.9200 0.3908
vn -0.3251 0.4355 0.8394
vn -0.0123 0.6837 0.7297
vn 0.0411 0.7372 0.6744
vn 0.0396 0.9986 0.0340
vn 0.0006 -0.0870 -0.9962
vn -0.0275 0.7323 0.6804
vn -0.1874 0.4261 0.8850
vn 0.5347 0.1190 0.8366
vn 0.6844 0.0135 0.7290
vn 0.0193 0.7506 0.6605
vn 0.1849 0.9818 0.0426
vn 0.0672 0.8519 0.5194
vn 0.0013 -0.9934 -0.1151
vn -0.0001 -0.7205 -0.6935
vn -0.0000 -1.0000 0.0007
vn 0.0564 -0.0788 -0.9953
vn 0.1175 -0.1968 -0.9734
vn 0.1274 -0.0724 -0.9892
vn 0.0317 -0.9898 -0.1386
vn 0.1127 -0.6934 -0.7117
vn -0.0003 -1.0000 0.0003
vn 0.6170 0.4373 -0.6543
vn 0.6493 0.1781 -0.7393
vn 0.7138 -0.0082 -0.7003
vn 0.2803 -0.9398 -0.1955
vn 0.4696 -0.5659 -0.6777
vn 0.2149 -0.9764 -0.0231
vn 0.6553 -0.0201 -0.7551
vn 0.5040 -0.1117 -0.8565
vn 0.7937 -0.0115 -0.6081
vn 0.7593 -0.3092 -0.5725
vn 0.8104 -0.5120 -0.2848
vn 0.7991 -0.5984 -0.0571
vn 0.9447 -0.0086 -0.3278
vn 0.9992 -0.0038 -0.0394
vn 0.7989 0.0052 -0.6015
vn 0.9435 0.0102 -0.3312
vn 0.9992 0.0047 -0.0404
vn 0.0676 -0.0700 0.9953
vn -0.0664 -0.5896 0.8049
vn -0.0004 -1.0000 0.0043
vn -0.0008 -1.0000 0.0049
vn -0.0004 -1.0000 0.0034
vn -0.0121 -0.9978 0.0657
vn -0.0399 -0.9563 0.2897
vn 0.7039 -0.0036 0.7103
vn 0.6541 -0.0217 0.7561
vn 0.4990 -0.4068 0.7652
vn 0.4930 -0.6888 0.5316
vn -0.0020 -1.0000 0.0026
vn -0.0053 -1.0000 0.0029
vn 0.0337 -0.9985 0.0442
vn 0.1554 -0.9790 0.1320
vn 0.6116 -0.0316 0.7906
vn 0.6928 -0.0661 0.7181
vn 0.1930 -0.9812 0.0002
vn 0.2135 -0.9766 0.0261
vn 0.2973 -0.9463 0.1271
vn 0.6267 -0.6531 0.4250
vn 0.2876 0.7082 0.6448
vn 1.0000 -0.0000 -0.0000
vn 0.8043 -0.5942 -0.0037
vn 0.7990 -0.5989 0.0547
vn 0.8030 -0.5547 0.2179
vn 0.8089 -0.3932 0.4372
vn 1.0000 -0.0001 -0.0000
vn 0.9858 -0.0230 0.1662
vn 0.8435 -0.0694 0.5326
vn 1.0000 -0.0000 -0.0005
vn 0.9949 -0.0070 0.1005
vn 0.8709 -0.0284 0.4907
vn 0.3986 0.9162 -0.0423
vn 0.4151 0.9097 0.0131
vn 0.3396 0.8526 -0.3971
vn 0.5639 0.7795 -0.2727
vn 0.4069 0.9134 -0.0139
vn 0.8059 0.2061 -0.5550
vn 0.5360 0.8440 -0.0208
vn 0.1196 0.7963 0.5930
vn 0.8684 0.4022 -0.2899
vn 0.8699 0.4915 -0.0421
vn 0.2965 0.9080 0.2960
vn 0.2082 0.8806 0.4256
vn 0.4159 0.9094 0.0055
vn 0.3609 0.9230 0.1336
vn 0.5173 0.8558 0.0009
vn 0.8672 0.4980 0.0005
vn 0.5065 0.8619 0.0221
vn 0.4238 0.8689 0.2557
vn 0.8620 0.5067 0.0146
vn 0.8227 0.5373 0.1855
vn 0.6839 0.5067 0.5249
vt 0.721000 0.602684
vt 0.724038 0.625732
vt 0.678090 0.632159
vt 0.674615 0.608697
vt 0.770199 0.619890
vt 0.772632 0.645148
vt 0.726770 0.650113
vt 0.767389 0.596777
vt 0.728489 0.666824
vt 0.704816 0.675542
vt 0.677523 0.674346
vt 0.685061 0.651451
vt 0.554738 0.814402
vt 0.530656 0.811820
vt 0.531527 0.790464
vt 0.555707 0.784772
vt 0.553045 0.838089
vt 0.529197 0.836459
vt 0.773867 0.660489
vt 0.729212 0.698040
vt 0.697871 0.698512
vt 0.822805 0.658308
vt 0.823875 0.695088
vt 0.775657 0.696710
vt 0.578478 0.815864
vt 0.580552 0.785966
vt 0.576847 0.839589
vt 0.729763 0.721115
vt 0.698257 0.721920
vt 0.677693 0.698613
vt 0.776277 0.719899
vt 0.602227 0.817611
vt 0.604216 0.787222
vt 0.600377 0.841167
vt 0.677759 0.721753
vt 0.718085 0.579602
vt 0.671635 0.585302
vt 0.715301 0.556554
vt 0.668855 0.561672
vt 0.712560 0.533361
vt 0.668541 0.536849
vt 0.764394 0.573668
vt 0.761344 0.550672
vt 0.757863 0.527364
vt 0.527914 0.911424
vt 0.549549 0.909415
vt 0.573172 0.910296
vt 0.566852 0.939139
vt 0.551719 0.862059
vt 0.527860 0.860988
vt 0.550891 0.885801
vt 0.526723 0.885730
vt 0.654243 0.490326
vt 0.702750 0.485594
vt 0.575426 0.863240
vt 0.574289 0.886824
vt 0.701538 0.473033
vt 0.661007 0.473843
vt 0.741929 0.459301
vt 0.748707 0.479479
vt 0.699669 0.453671
vt 0.651724 0.457155
vt 0.598884 0.864550
vt 0.597736 0.887921
vt 0.596776 0.911462
vt 0.595988 0.935646
vt 0.591466 0.965210
vt 0.574282 0.955933
vt 0.698280 0.439182
vt 0.658078 0.439965
vt 0.735586 0.447962
vt 0.733880 0.437906
vt 0.820818 0.644293
vt 0.817012 0.614480
vt 0.816578 0.591755
vt 0.730446 0.744229
vt 0.698997 0.745361
vt 0.993176 0.837565
vt 0.966870 0.842170
vt 0.962367 0.826134
vt 0.989497 0.814291
vt 0.996914 0.862924
vt 0.968831 0.863401
vt 0.944342 0.845282
vt 0.925557 0.845525
vt 0.924853 0.818778
vt 0.944977 0.819023
vt 0.824553 0.718806
vt 0.900922 0.773485
vt 0.924478 0.772574
vt 0.904512 0.820079
vt 0.877302 0.775603
vt 0.883974 0.827098
vt 0.906254 0.846296
vt 0.810907 0.567405
vt 0.967872 0.884199
vt 0.945939 0.882433
vt 0.944230 0.863599
vt 0.994589 0.884867
vt 0.983676 0.915721
vt 0.969170 0.907732
vt 0.810335 0.545913
vt 0.805543 0.514274
vt 0.800653 0.483649
vt 0.952358 0.909195
vt 0.931134 0.910137
vt 0.927961 0.884086
vt 0.795476 0.460794
vt 0.791651 0.439800
vt 0.934989 0.942117
vt 0.913002 0.947550
vt 0.909755 0.908748
vt 0.926478 0.864563
vt 0.776797 0.743037
vt 0.795840 0.412789
vt 0.739487 0.420231
vt 0.736306 0.400112
vt 0.739895 0.386895
vt 0.795315 0.390053
vt 0.907430 0.865852
vt 0.908978 0.887590
vt 0.625741 0.819816
vt 0.629186 0.788976
vt 0.623550 0.842929
vt 0.731217 0.767274
vt 0.701743 0.768509
vt 0.679355 0.746113
vt 0.777092 0.766005
vt 0.648689 0.822472
vt 0.654706 0.792339
vt 0.646234 0.844896
vt 0.680540 0.771087
vt 0.825460 0.767748
vt 0.823945 0.797374
vt 0.776507 0.795873
vt 0.670563 0.825733
vt 0.681524 0.802905
vt 0.667838 0.846938
vt 0.731502 0.794551
vt 0.709233 0.790697
vt 0.686580 0.798613
vt 0.731639 0.810876
vt 0.694032 0.812760
vt 0.691784 0.827445
vt 0.688936 0.848755
vt 0.731874 0.826585
vt 0.731946 0.849242
vt 0.776018 0.811307
vt 0.775404 0.826732
vt 0.774931 0.849707
vt 0.696448 0.417940
vt 0.652271 0.421517
vt 0.621990 0.865880
vt 0.620982 0.888856
vt 0.620455 0.912039
vt 0.620268 0.935809
vt 0.620495 0.959707
vt 0.619811 0.986744
vt 0.601313 0.981268
vt 0.696874 0.382277
vt 0.696552 0.397748
vt 0.655871 0.399508
vt 0.646608 0.383208
vt 0.644530 0.867133
vt 0.643726 0.889505
vt 0.643619 0.912218
vt 0.644128 0.935567
vt 0.651325 0.966337
vt 0.641589 0.983031
vt 0.744964 0.355603
vt 0.698893 0.350499
vt 0.666333 0.868264
vt 0.665776 0.889848
vt 0.665856 0.911824
vt 0.675307 0.937840
vt 0.792941 0.369357
vt 0.731553 0.870720
vt 0.688760 0.869148
vt 0.687680 0.889714
vt 0.687404 0.911545
vt 0.688894 0.927203
vt 0.730903 0.892454
vt 0.729819 0.914796
vt 0.728076 0.935740
vt 0.699959 0.335041
vt 0.649858 0.346507
vt 0.659818 0.332554
vt 0.774818 0.871292
vt 0.774919 0.893136
vt 0.775261 0.915758
vt 0.775897 0.939738
vt 0.746988 0.341183
vt 0.824968 0.742427
vt 0.878919 0.847752
vt 0.879538 0.867910
vt 0.862555 0.827562
vt 0.852876 0.782552
vt 0.830219 0.828836
vt 0.829109 0.801069
vt 0.863768 0.848327
vt 0.813797 0.813879
vt 0.831700 0.849700
vt 0.886704 0.943652
vt 0.887691 0.912481
vt 0.816869 0.828649
vt 0.818602 0.850259
vt 0.887422 0.889844
vt 0.862454 0.941037
vt 0.865250 0.912807
vt 0.864823 0.868856
vt 0.865930 0.889810
vt 0.832403 0.870349
vt 0.818620 0.870791
vt 0.833130 0.891221
vt 0.837538 0.912905
vt 0.840506 0.939050
vt 0.819304 0.891609
vt 0.819691 0.912692
vt 0.818896 0.932945
vt 0.789422 0.348156
vt 0.957628 0.933814
vt 0.972350 0.788633
vt 0.960668 0.781129
s 1
usemtl rock2
f 6/1/1 5/2/2 2/3/3 3/4/4
f 48/5/5 47/6/6 4/7/7 5/2/2
f 49/8/8 48/5/5 5/2/2 6/1/1
f 4/7/7 11/9/9 10/10/10 7/11/11 1/12/12
f 8/13/13 2/14/3 1/15/12 7/16/11
f 9/17/14 3/18/4 2/14/3 8/13/13
f 47/6/6 46/19/15 11/9/9 4/7/7
f 11/9/9 16/20/16 15/21/17 10/10/10
f 50/22/18 58/23/19 57/24/20 46/19/15
f 13/25/21 8/13/13 7/16/11 12/26/22
f 14/27/23 9/17/14 8/13/13 13/25/21
f 16/20/16 21/28/24 20/29/25 15/21/17
f 10/10/10 15/21/17 12/30/22 7/11/11
f 57/24/20 61/31/24 21/28/24 16/20/16
f 18/32/26 13/25/21 12/26/22 17/33/27
f 19/34/28 14/27/23 13/25/21 18/32/26
f 46/19/15 57/24/20 16/20/16 11/9/9
f 15/21/17 20/29/25 17/35/27 12/30/22
f 25/36/1 6/1/1 3/4/4 22/37/29
f 26/38/30 25/36/1 22/37/29 23/39/31
f 27/40/32 26/38/30 23/39/31 24/41/33
f 65/42/1 49/8/8 6/1/1 25/36/1
f 66/43/34 65/42/1 25/36/1 26/38/30
f 67/44/35 66/43/34 26/38/30 27/40/32
f 24/45/33 30/46/36 34/47/37 35/48/38
f 28/49/39 22/50/29 3/18/4 9/17/14
f 29/51/40 23/52/31 22/50/29 28/49/39
f 30/46/36 24/45/33 23/52/31 29/51/40
f 27/40/32 24/41/33 35/53/38 31/54/41
f 32/55/42 28/49/39 9/17/14 14/27/23
f 33/56/43 29/51/40 28/49/39 32/55/42
f 34/47/37 30/46/36 29/51/40 33/56/43
f 37/57/44 31/54/41 35/53/38 36/58/45
f 76/59/46 71/60/47 31/54/41 37/57/44
f 44/61/48 37/57/44 36/58/45 42/62/49
f 38/63/50 32/55/42 14/27/23 19/34/28
f 39/64/51 33/56/43 32/55/42 38/63/50
f 40/65/52 34/47/37 33/56/43 39/64/51
f 41/66/53 35/48/38 34/47/37 40/65/52
f 42/67/49 36/68/45 35/48/38 41/66/53
f 45/69/54 44/61/48 42/62/49 43/70/55
f 77/71/56 76/59/46 37/57/44 44/61/48
f 82/72/57 77/71/56 44/61/48 45/69/54
f 51/73/58 50/22/18 46/19/15 47/6/6
f 52/74/59 51/73/58 47/6/6 48/5/5
f 53/75/60 52/74/59 48/5/5 49/8/8
f 21/28/24 91/76/61 90/77/62 20/29/25
f 53/78/60 178/79/63 54/80/64 52/81/59
f 68/82/65 179/83/66 178/79/63 53/78/60
f 56/84/67 60/85/68 59/86/69 55/87/70
f 58/23/19 62/88/71 61/31/24 57/24/20
f 62/89/71 58/90/19 59/86/69 63/91/72
f 137/92/73 62/89/71 63/91/72 138/93/74
f 60/85/68 64/94/75 63/91/72 59/86/69
f 68/95/65 53/75/60 49/8/8 65/42/1
f 180/96/76 75/97/77 74/98/78 179/83/66
f 179/83/66 74/98/78 56/84/67 178/79/63
f 180/96/76 69/99/79 70/100/80 181/101/81
f 69/102/79 68/95/65 65/42/1 66/43/34
f 70/103/80 69/102/79 66/43/34 67/44/35
f 67/44/35 27/40/32 31/54/41 71/60/47
f 70/103/80 67/44/35 71/60/47 72/104/82
f 75/97/77 73/105/83 79/106/84 81/107/85
f 78/108/86 76/59/46 77/71/56 82/72/57 83/109/87
f 79/106/84 78/110/86 83/111/87 84/112/88
f 74/98/78 80/113/89 60/85/68 56/84/67
f 75/97/77 81/107/85 80/113/89 74/98/78
f 61/31/24 136/114/90 91/76/61 21/28/24
f 155/115/91 154/116/92 160/117/93 159/118/94 161/119/95
f 80/113/89 85/120/96 64/94/75 60/85/68
f 81/107/85 86/121/97 85/120/96 80/113/89
f 84/112/88 86/121/97 81/107/85 79/106/84
f 88/122/98 18/32/26 17/33/27 87/123/99
f 89/124/100 19/34/28 18/32/26 88/122/98
f 91/76/61 96/125/101 95/126/102 90/77/62
f 20/29/25 90/77/62 87/127/99 17/35/27
f 136/114/90 140/128/103 96/125/101 91/76/61
f 93/129/104 88/122/98 87/123/99 92/130/105
f 94/131/106 89/124/100 88/122/98 93/129/104
f 90/77/62 95/126/102 92/132/105 87/127/99
f 141/133/107 145/134/108 144/135/109 140/128/103
f 98/136/110 93/129/104 92/130/105 97/137/111
f 99/138/112 94/131/106 93/129/104 98/136/110
f 96/125/101 101/139/113 100/140/114 95/126/102
f 95/126/102 100/140/114 97/141/111 92/132/105
f 140/128/103 144/135/109 101/139/113 96/125/101
f 101/139/113 105/142/115 102/143/116 97/141/111 100/140/114
f 103/144/117 98/136/110 97/137/111 102/143/116
f 104/145/118 99/138/112 98/136/110 103/144/117
f 105/142/115 106/146/119 103/144/117 102/143/116
f 106/146/119 107/147/120 104/145/118 103/144/117
f 144/135/109 148/148/121 105/142/115 101/139/113
f 148/148/121 149/149/122 106/146/119 105/142/115
f 149/149/122 150/150/123 107/147/120 106/146/119
f 114/151/124 45/69/54 43/70/55 113/152/125
f 108/153/126 38/63/50 19/34/28 89/124/100
f 109/154/127 39/64/51 38/63/50 108/153/126
f 110/155/128 40/65/52 39/64/51 109/154/127
f 111/156/129 41/66/53 40/65/52 110/155/128
f 112/157/130 42/67/49 41/66/53 111/156/129
f 113/158/125 43/159/55 42/67/49 112/157/130
f 154/116/92 82/72/57 45/69/54 114/151/124
f 121/160/131 122/161/132 120/162/133 119/163/134
f 115/164/135 108/153/126 89/124/100 94/131/106
f 116/165/136 109/154/127 108/153/126 115/164/135
f 117/166/137 110/155/128 109/154/127 116/165/136
f 118/167/138 111/156/129 110/155/128 117/166/137
f 119/168/134 112/157/130 111/156/129 118/167/138
f 120/169/133 113/158/125 112/157/130 119/168/134
f 122/161/132 114/151/124 113/152/125 120/162/133
f 159/118/94 160/117/93 122/161/132 121/160/131
f 160/117/93 154/116/92 114/151/124 122/161/132
f 165/170/139 159/118/94 121/160/131 127/171/140
f 123/172/141 115/164/135 94/131/106 99/138/112
f 124/173/142 116/165/136 115/164/135 123/172/141
f 125/174/143 117/166/137 116/165/136 124/173/142
f 126/175/144 118/167/138 117/166/137 125/174/143
f 126/175/144 119/168/134 118/167/138
f 161/119/95 159/118/94 165/170/139 169/176/145
f 107/147/120 132/177/146 128/178/147 104/145/118
f 128/178/147 123/172/141 99/138/112 104/145/118
f 129/179/148 124/173/142 123/172/141 128/178/147
f 130/180/149 125/174/143 124/173/142 129/179/148
f 131/181/150 126/175/144 125/174/143 130/180/149
f 132/177/146 133/182/151 129/179/148 128/178/147
f 133/182/151 134/183/152 130/180/149 129/179/148
f 134/183/152 135/184/153 131/181/150 130/180/149
f 135/185/153 127/171/140 126/186/144 131/187/150
f 150/150/123 170/188/154 132/177/146 107/147/120
f 170/188/154 171/189/146 133/182/151 132/177/146
f 171/189/146 172/190/155 134/183/152 133/182/151
f 172/190/155 173/191/156 135/184/153 134/183/152
f 173/192/156 165/170/139 127/171/140 135/185/153
f 62/88/71 137/193/73 136/114/90 61/31/24
f 137/193/73 141/133/107 140/128/103 136/114/90
f 64/94/75 139/194/157 138/93/74 63/91/72
f 85/120/96 156/195/158 139/194/157 64/94/75
f 138/93/74 142/196/159 141/197/107 137/92/73
f 142/196/159 146/198/160 145/199/108 141/197/107
f 139/194/157 143/200/161 142/196/159 138/93/74
f 145/134/108 151/201/162 148/148/121 144/135/109
f 143/200/161 147/202/163 146/198/160 142/196/159
f 84/112/88 83/111/87 155/203/91 158/204/164
f 151/201/162 152/205/165 149/149/122 148/148/121
f 152/205/165 153/206/166 150/150/123 149/149/122
f 146/198/160 152/205/165 151/201/162 145/199/108
f 147/202/163 153/206/166 152/205/165 146/198/160
f 84/112/88 158/204/164 157/207/167 86/121/97
f 158/204/164 155/203/91 161/208/95 164/209/168
f 157/207/167 156/195/158 85/120/96 86/121/97
f 83/109/87 82/72/57 154/116/92 155/115/91
f 156/195/158 162/210/169 143/200/161 139/194/157
f 157/207/167 163/211/170 162/210/169 156/195/158
f 158/204/164 164/209/168 163/211/170 157/207/167
f 162/210/169 166/212/171 147/202/163 143/200/161
f 153/206/166 174/213/172 170/188/154 150/150/123
f 127/171/140 121/160/131 119/163/134 126/186/144
f 163/211/170 167/214/173 166/212/171 162/210/169
f 164/209/168 168/215/174 167/214/173 163/211/170
f 169/216/145 168/215/174 164/209/168 161/208/95
f 174/213/172 175/217/175 171/189/146 170/188/154
f 175/217/175 176/218/176 172/190/155 171/189/146
f 176/218/176 177/219/177 173/191/156 172/190/155
f 177/220/177 169/176/145 165/170/139 173/192/156
f 166/212/171 174/213/172 153/206/166 147/202/163
f 167/214/173 175/217/175 174/213/172 166/212/171
f 168/215/174 176/218/176 175/217/175 167/214/173
f 169/216/145 177/219/177 176/218/176 168/215/174
f 5/2/2 4/7/7 1/12/12 2/3/3
f 78/110/86 79/106/84 73/105/83 72/221/82
f 75/97/77 180/96/76 181/101/81 73/105/83
f 69/99/79 180/96/76 179/83/66 68/82/65
f 54/80/64 178/79/63 56/84/67 55/87/70
f 51/222/58 52/81/59 54/80/64 55/87/70
f 70/100/80 72/221/82 73/105/83 181/101/81
f 72/104/82 71/60/47 76/59/46 78/108/86
f 58/90/19 50/223/18 55/87/70 59/86/69
f 51/222/58 55/87/70 50/223/18
