# Blender 5.2.0 LTS
# www.blender.org
mtllib rock_big3.mtl
o big_rock3_low
v -0.436108 0.598621 -0.277866
v -0.473295 0.597987 -0.071476
v -0.320666 -0.037881 -0.167814
v -0.321057 -0.041179 -0.071538
v -0.339667 0.045044 -0.215861
v -0.343593 0.048571 -0.071512
v -0.391727 0.313597 -0.297038
v -0.409747 0.323604 -0.071512
v -0.229295 -0.084370 -0.197356
v -0.229745 -0.085535 -0.071512
v -0.229745 0.007732 -0.275261
v -0.229745 0.323598 -0.325257
v -0.229745 0.598620 -0.368788
v -0.472605 0.597961 0.066016
v -0.466683 0.596848 0.206359
v -0.320806 -0.041543 0.065984
v -0.318304 -0.038102 0.205613
v -0.305379 -0.026748 0.278675
v -0.343597 0.048589 0.065996
v -0.343379 0.047683 0.203503
v -0.331353 0.043971 0.299800
v -0.409747 0.323605 0.065996
v -0.409716 0.323476 0.203503
v -0.375700 0.318567 0.349991
v -0.384831 0.598621 0.351748
v -0.229745 -0.085535 0.065996
v -0.230109 -0.085505 0.203724
v -0.235996 -0.058501 0.300308
v -0.229745 0.046776 0.337549
v -0.229745 0.323536 0.381355
v -0.229745 0.597545 0.424764
v -0.407213 0.861290 -0.284913
v -0.454691 0.873635 -0.071512
v -0.434862 1.122057 -0.071502
v -0.388092 1.135126 -0.263620
v -0.229745 0.851716 -0.408849
v -0.229745 1.185496 -0.413955
v -0.207412 1.417952 -0.350687
v -0.290950 1.491279 -0.212316
v -0.298468 1.492319 -0.071512
v -0.145675 1.506685 -0.293096
v -0.181298 1.577170 -0.211466
v -0.226773 1.590796 -0.077058
v -0.454691 0.873635 0.065995
v -0.454542 0.874265 0.203640
v -0.434494 1.122100 0.066024
v -0.387627 0.858059 0.342838
v -0.433237 1.139466 0.199518
v -0.366445 1.158590 0.338918
v -0.229745 0.864813 0.406137
v -0.229745 1.148648 0.351389
v -0.298476 1.492299 0.065995
v -0.248895 1.449908 0.223195
v -0.178971 1.546214 0.155763
v -0.217026 1.585275 0.045167
v 0.045135 -0.080401 -0.213433
v 0.045270 -0.085535 -0.071512
v 0.045270 0.001308 -0.274244
v 0.045270 0.323605 -0.325258
v 0.045270 0.598620 -0.368788
v 0.182867 -0.085498 -0.179760
v 0.182821 -0.085531 -0.071514
v 0.183158 0.013325 -0.276058
v 0.182777 0.323605 -0.325258
v 0.182777 0.598620 -0.368788
v 0.291741 0.047182 -0.181046
v 0.286256 0.048284 -0.071512
v 0.333035 0.326881 -0.316329
v 0.371612 0.309532 -0.209019
v 0.371394 0.308864 -0.071512
v 0.320284 0.597014 -0.368534
v 0.437004 0.598620 -0.209019
v 0.437004 0.598621 -0.071512
v 0.045270 -0.085535 0.065996
v 0.045270 -0.085535 0.203503
v 0.045211 -0.053177 0.321906
v 0.045270 0.048571 0.337833
v 0.045270 0.322762 0.381232
v 0.034722 0.598092 0.410650
v 0.182784 -0.085533 0.065996
v 0.189478 -0.085611 0.199873
v 0.156162 -0.054457 0.304985
v 0.201769 0.056722 0.316061
v 0.187934 0.323606 0.329366
v 0.183254 0.598621 0.333294
v 0.286274 0.048339 0.065996
v 0.283912 0.054743 0.206759
v 0.378345 0.330143 0.074578
v 0.323310 0.323575 0.215736
v 0.323138 0.598621 0.215917
v 0.436758 0.597553 0.066557
v 0.045270 0.848620 -0.408359
v 0.045270 1.198624 -0.410797
v 0.045270 1.423921 -0.356607
v 0.043229 1.540795 -0.320403
v 0.044483 1.653395 -0.171706
v 0.043020 1.713652 -0.075689
v 0.182777 0.848618 -0.408359
v 0.182777 1.198649 -0.410791
v 0.182777 1.423671 -0.356667
v 0.182942 1.544754 -0.324127
v 0.182777 1.663597 -0.186180
v 0.189462 1.726090 -0.076999
v 0.320284 0.853494 -0.409130
v 0.320284 1.194491 -0.411791
v 0.330459 1.431109 -0.354332
v 0.378797 1.451352 -0.209020
v 0.379183 1.449745 -0.071512
v 0.288408 1.537584 -0.322443
v 0.339767 1.588225 -0.216116
v 0.278123 1.658096 -0.170415
v 0.282544 1.659733 -0.071512
v 0.458602 0.873635 -0.209019
v 0.458602 0.873635 -0.071512
v 0.451589 1.148719 -0.209019
v 0.451577 1.148766 -0.071512
v 0.035478 0.868519 0.407773
v 0.045270 1.149904 0.350863
v 0.045270 1.423817 0.236206
v 0.055353 1.736402 0.093374
v 0.019635 1.583995 0.180608
v 0.184961 0.873635 0.331860
v 0.205046 1.152997 0.307221
v 0.265632 1.442651 0.146424
v 0.180347 1.441567 0.217135
v 0.181512 1.671556 0.073225
v 0.170093 1.562709 0.161164
v 0.322517 0.873635 0.216437
v 0.323515 1.148649 0.215600
v 0.259681 0.069258 -0.257175
v 0.358467 1.449798 0.037682
v 0.267160 1.645967 0.012799
v 0.453240 0.872846 0.071724
v 0.447977 1.152379 0.068613
vn -0.9723 -0.2339 -0.0004
vn -0.4883 -0.1943 -0.8507
vn -0.8222 -0.3704 -0.4322
vn -0.9708 -0.2399 -0.0069
vn -0.2403 -0.4575 -0.8561
vn -0.0234 -0.1413 -0.9897
vn -0.7445 -0.6125 -0.2655
vn -0.7768 -0.6297 -0.0102
vn 0.0001 -0.1564 -0.9877
vn 0.0211 -0.1616 -0.9866
vn 0.1490 -0.4759 -0.8668
vn 0.0283 -0.4117 -0.9109
vn -0.6666 0.0674 0.7423
vn -0.9892 0.0653 0.1313
vn -0.9821 -0.0578 0.1792
vn -0.7323 -0.0073 0.6809
vn -0.9970 -0.0760 -0.0110
vn -0.9713 -0.2377 -0.0047
vn -0.9972 -0.0739 0.0097
vn -0.2243 -0.9744 -0.0108
vn -0.2624 -0.8708 -0.4158
vn -0.1028 -0.1343 -0.9856
vn -0.0000 -0.1563 -0.9877
vn -0.8470 -0.0256 -0.5310
vn -0.1597 -0.1936 -0.9680
vn -0.8718 0.0209 -0.4893
vn 0.0287 -0.8821 -0.4703
vn -0.0001 -1.0000 -0.0000
vn -0.2284 -0.9736 0.0036
vn -0.0035 -0.9999 -0.0137
vn -0.9717 -0.2058 0.1160
vn -0.9970 0.0772 0.0013
vn -0.9970 0.0768 -0.0054
vn -0.1207 -0.1401 0.9828
vn -0.6880 -0.1668 0.7063
vn -0.7373 -0.3057 0.6025
vn -0.1725 -0.2331 0.9570
vn -0.9699 -0.2436 0.0031
vn -0.7748 -0.6321 0.0072
vn -0.9629 -0.2603 0.0715
vn -0.7648 -0.6356 0.1051
vn -0.6563 -0.5694 0.4950
vn -0.9948 0.1015 0.0051
vn -0.9703 0.1688 -0.1733
vn -0.0238 -0.0517 0.9984
vn -0.1550 0.1261 0.9798
vn -0.2280 -0.9654 0.1263
vn -0.2464 -0.7196 0.6492
vn 0.4975 -0.0380 0.8666
vn 0.1752 -0.1164 0.9776
vn 0.0814 -0.1451 0.9861
vn 0.4105 -0.2442 0.8786
vn 0.0042 -0.9905 0.1374
vn 0.0495 -0.6509 0.7576
vn 0.3051 -0.0202 0.9521
vn 0.2341 0.0424 0.9713
vn -0.8524 0.5221 -0.0305
vn -0.7138 0.6414 -0.2813
vn -0.3288 0.5408 -0.7742
vn -0.1775 0.2410 -0.9542
vn -0.9936 0.1126 0.0074
vn -0.9544 0.2260 0.1953
vn -0.4610 0.4702 0.7526
vn -0.8335 0.5484 0.0679
vn -0.0245 0.2822 -0.9590
vn -0.0000 0.2338 -0.9723
vn -0.4693 0.7494 -0.4671
vn -0.2848 0.7153 -0.6381
vn -0.5579 0.7569 -0.3404
vn 0.0002 -0.1561 -0.9877
vn -0.0976 0.5720 -0.8144
vn -0.1814 0.8278 -0.5308
vn -0.4525 0.6209 0.6401
vn -0.4609 0.6427 0.6119
vn 0.0806 0.4076 0.9096
vn -0.4055 0.8023 0.4380
vn -0.5479 0.2890 0.7850
vn -0.0740 0.3056 0.9493
vn 0.0688 0.4101 0.9094
vn 0.1101 0.3021 0.9469
vn -0.1632 0.9584 -0.2342
vn 0.4059 0.1747 0.8971
vn 0.5464 0.0048 0.8375
vn 0.0717 -0.9974 0.0008
vn 0.4193 -0.9078 0.0035
vn 0.5161 -0.3017 -0.8016
vn 0.6918 -0.4333 -0.5776
vn 0.8021 -0.5536 -0.2239
vn 0.9160 -0.3599 -0.1774
vn 0.2108 -0.1584 -0.9646
vn 0.9506 -0.3106 -0.0000
vn 0.8843 -0.4669 -0.0045
vn 0.1625 -0.2050 -0.9652
vn 0.9939 -0.1083 -0.0229
vn 0.9965 -0.0656 -0.0517
vn 0.9764 -0.0804 0.2003
vn 0.6518 -0.0049 0.7584
vn 0.8101 -0.1210 0.5737
vn 0.9474 -0.2767 0.1607
vn 0.9950 -0.0994 0.0049
vn 0.9973 -0.0689 0.0235
vn 0.0901 -0.9959 0.0002
vn 0.0025 -0.9694 0.2453
vn 0.1385 -0.6544 0.7433
vn 0.5499 -0.0011 0.8352
vn 0.8787 -0.4768 0.0221
vn 0.8130 -0.4832 0.3249
vn 0.6430 -0.0002 0.7659
vn 0.9527 -0.0418 0.3009
vn -0.0002 0.2555 -0.9668
vn 0.0970 0.8402 -0.5335
vn 0.0333 0.5557 -0.8307
vn 0.5054 0.3274 -0.7984
vn 0.2170 0.3083 -0.9262
vn 0.4925 0.7958 -0.3522
vn 0.7306 0.5884 -0.3464
vn 0.3986 0.5300 -0.7485
vn 0.2561 0.9594 -0.1183
vn 0.9854 0.1664 -0.0358
vn 0.9316 0.3208 -0.1707
vn 0.6570 0.7490 0.0862
vn 0.9452 0.3065 0.1124
vn 0.9851 0.1708 0.0185
vn 0.6500 0.0523 0.7581
vn 0.4208 0.7149 0.5584
vn 0.3981 0.4220 0.8145
vn 0.4019 0.4141 0.8167
vn 0.5860 0.4163 0.6952
vn 0.9528 0.1388 0.2700
vn 0.6494 0.6296 0.4265
vn 0.7621 0.4050 0.5052
vt 0.933875 0.055379
vt 0.932367 0.028236
vt 0.966523 0.033469
vt 0.968182 0.051151
vt 0.976002 0.019246
vt 0.934750 0.007195
vt 0.977390 0.038155
vt 0.979687 0.049614
vt 0.846644 0.465454
vt 0.827743 0.469949
vt 0.817542 0.426723
vt 0.836131 0.420855
vt 0.873869 0.114886
vt 0.870552 0.095566
vt 0.903984 0.092228
vt 0.906779 0.112722
vt 0.900273 0.059116
vt 0.935711 0.071945
vt 0.901999 0.075473
vt 0.993005 0.047157
vt 0.988491 0.030342
vt 0.893594 0.494577
vt 0.855844 0.503676
vt 0.884386 0.456354
vt 0.898094 0.033957
vt 0.896298 0.003735
vt 0.860497 0.006277
vt 0.865053 0.034929
vt 0.873794 0.412457
vt 0.832900 0.407095
vt 0.869589 0.395855
vt 0.902073 0.529744
vt 0.864219 0.538424
vt 0.823274 0.369324
vt 0.860680 0.359868
vt 0.865385 0.378650
vt 0.827965 0.387984
vt 0.937470 0.088661
vt 0.868856 0.078926
vt 0.866997 0.062229
vt 0.946089 0.125251
vt 0.941046 0.106810
vt 0.973575 0.096546
vt 0.980262 0.109244
vt 0.970248 0.068118
vt 0.981952 0.066941
vt 0.971813 0.084954
vt 0.982683 0.084355
vt 0.982525 0.093469
vt 0.837186 0.066033
vt 0.831269 0.042500
vt 0.910023 0.134728
vt 0.873750 0.137127
vt 0.995247 0.065911
vt 0.995910 0.084870
vt 0.991661 0.098334
vt 0.781022 0.289508
vt 0.801430 0.283317
vt 0.811095 0.320808
vt 0.789661 0.326255
vt 0.818703 0.350733
vt 0.855899 0.341076
vt 0.814901 0.334376
vt 0.853142 0.327250
vt 0.848546 0.311923
vt 0.793240 0.245532
vt 0.828851 0.235596
vt 0.838901 0.273516
vt 0.782682 0.209673
vt 0.818177 0.199381
vt 0.790768 0.072668
vt 0.787969 0.056205
vt 0.786448 0.033466
vt 0.815948 0.017658
vt 0.839253 0.082192
vt 0.839211 0.098004
vt 0.795854 0.110853
vt 0.792481 0.089092
vt 0.918067 0.609323
vt 0.883485 0.618443
vt 0.875811 0.586515
vt 0.913133 0.575550
vt 0.771846 0.057554
vt 0.771426 0.042640
vt 0.776576 0.073453
vt 0.856903 0.591053
vt 0.845340 0.542971
vt 0.913358 0.625911
vt 0.887670 0.635255
vt 0.743530 0.063412
vt 0.743938 0.037973
vt 0.777546 0.087867
vt 0.778019 0.103768
vt 0.752164 0.111300
vt 0.744248 0.093598
vt 0.837583 0.115690
vt 0.834747 0.133191
vt 0.755807 0.133516
vt 0.792878 0.115836
vt 0.805680 0.160418
vt 0.768978 0.172486
vt 0.743091 0.076483
vt 0.746407 0.177581
vt 0.759876 0.214799
vt 0.836965 0.508226
vt 0.809238 0.392813
vt 0.813089 0.407624
vt 0.807120 0.475246
vt 0.808064 0.436522
vt 0.471672 0.066029
vt 0.482571 0.048942
vt 0.495957 0.053140
vt 0.495896 0.065076
vt 0.533552 0.042278
vt 0.533465 0.058638
vt 0.818051 0.512555
vt 0.534434 0.077908
vt 0.496385 0.080249
vt 0.826628 0.548186
vt 0.571199 0.029448
vt 0.574454 0.056946
vt 0.608215 0.021689
vt 0.611834 0.056103
vt 0.575898 0.094465
vt 0.575316 0.120180
vt 0.536987 0.118792
vt 0.538742 0.097873
vt 0.575126 0.075789
vt 0.612217 0.074574
vt 0.804464 0.373972
vt 0.799132 0.355776
vt 0.800283 0.339567
vt 0.770576 0.252100
vt 0.497710 0.099356
vt 0.472428 0.081591
vt 0.473705 0.101416
vt 0.476147 0.120814
vt 0.499836 0.118602
vt 0.497470 0.137737
vt 0.479633 0.137391
vt 0.535509 0.143726
vt 0.574946 0.145950
vt 0.613532 0.120160
vt 0.614505 0.145454
vt 0.612671 0.093671
vt 0.864513 0.622887
vt 0.727128 0.062895
vt 0.723467 0.039782
vt 0.844454 0.628770
vt 0.837874 0.594997
vt 0.868548 0.640146
vt 0.716759 0.066387
vt 0.707445 0.059722
vt 0.708519 0.042346
vt 0.727397 0.076941
vt 0.658079 0.023045
vt 0.648592 0.055782
vt 0.853838 0.642676
vt 0.689918 0.057550
vt 0.691723 0.035679
vt 0.715221 0.076955
vt 0.688071 0.075434
vt 0.648384 0.074004
vt 0.650919 0.117286
vt 0.654451 0.138003
vt 0.726453 0.097646
vt 0.713099 0.113213
vt 0.696179 0.123660
vt 0.691825 0.108589
vt 0.736640 0.135886
vt 0.648840 0.092157
vt 0.732488 0.117214
vt 0.715067 0.087230
vt 0.688340 0.089513
s 1
usemtl rock2
f 8/1/1 7/2/2 5/3/3 6/4/4
f 11/5/5 5/3/3 7/2/2 12/6/6
f 6/4/4 5/3/3 3/7/7 4/8/8
f 59/9/9 64/10/10 63/11/11 58/12/12
f 47/13/13 45/14/14 15/15/15 25/16/16
f 2/17/17 8/1/1 22/18/18 14/19/19
f 10/20/20 4/8/8 3/7/7 9/21/21
f 13/22/22 60/23/23 59/9/9 12/24/6
f 5/3/3 11/5/5 9/21/21 3/7/7
f 1/25/24 13/26/22 12/6/6 7/2/2
f 36/27/25 13/26/22 1/25/24 32/28/26
f 11/29/5 58/12/12 56/30/27 9/31/21
f 36/32/25 92/33/23 60/23/23 13/22/22
f 2/17/17 1/25/24 7/2/2 8/1/1
f 74/34/28 26/35/29 10/36/20 57/37/30
f 14/19/19 22/18/18 23/38/31 15/15/15
f 44/39/32 33/40/33 2/17/17 14/19/19
f 30/41/34 24/42/35 21/43/36 29/44/37
f 45/14/14 44/39/32 14/19/19 15/15/15
f 22/18/18 8/1/1 6/4/4 19/45/38
f 19/45/38 6/4/4 4/8/8 16/46/39
f 20/47/40 19/45/38 16/46/39 17/48/41
f 21/43/36 20/47/40 17/48/41 18/49/42
f 23/38/31 22/18/18 19/45/38 20/47/40
f 24/42/35 23/38/31 20/47/40 21/43/36
f 15/15/15 23/38/31 24/42/35 25/16/16
f 34/50/43 35/51/44 32/28/26 33/40/33
f 47/13/13 25/16/16 31/52/45 50/53/46
f 26/54/29 16/46/39 4/8/8 10/20/20
f 27/55/47 17/48/41 16/46/39 26/54/29
f 28/56/48 18/49/42 17/48/41 27/55/47
f 29/44/37 21/43/36 18/49/42 28/56/48
f 24/42/35 30/41/34 31/52/45 25/16/16
f 84/57/49 78/58/50 77/59/51 83/60/52
f 75/61/53 27/62/47 26/35/29 74/34/28
f 76/63/54 28/64/48 27/62/47 75/61/53
f 77/59/51 29/65/37 28/64/48 76/63/54
f 79/66/55 31/67/45 30/68/34 78/58/50
f 79/66/55 117/69/56 50/70/46 31/67/45
f 40/71/57 39/72/58 35/51/44 34/50/43
f 35/51/44 39/72/58 38/73/59 37/74/60
f 46/75/61 34/50/43 33/40/33 44/39/32
f 32/28/26 35/51/44 37/74/60 36/27/25
f 48/76/62 53/77/63 52/78/64 46/75/61
f 38/79/59 94/80/65 93/81/66 37/82/60
f 42/83/67 41/84/68 38/73/59 39/72/58
f 43/85/69 42/83/67 39/72/58 40/71/57
f 93/81/66 99/86/66 98/87/70 92/33/23
f 41/88/68 95/89/71 94/80/65 38/79/59
f 42/83/67 96/90/72 95/91/71 41/84/68
f 55/92/73 54/93/74 121/94/75 120/95/76
f 49/96/77 48/76/62 45/14/14 47/13/13
f 40/71/57 34/50/43 46/75/61 52/78/64
f 48/76/62 46/75/61 44/39/32 45/14/14
f 51/97/78 49/96/77 47/13/13 50/53/46
f 119/98/79 53/99/63 51/100/78 118/101/80
f 53/77/63 48/76/62 49/96/77 51/97/78
f 43/85/69 40/71/57 52/78/64 55/92/73
f 58/12/12 11/29/5 12/24/6 59/9/9
f 43/85/69 97/102/81 96/90/72 42/83/67
f 123/103/82 118/101/80 117/69/56 122/104/83
f 60/23/23 65/105/23 64/10/10 59/9/9
f 62/106/84 57/37/30 56/30/27 61/107/85
f 58/12/12 63/11/11 61/107/85 56/30/27
f 92/33/23 98/87/70 65/105/23 60/23/23
f 64/10/10 68/108/86 130/109/87 63/11/11
f 61/110/85 63/111/11 130/112/87 66/113/88
f 66/113/88 130/112/87 68/114/86 69/115/89
f 65/105/23 71/116/90 68/108/86 64/10/10
f 69/115/89 70/117/91 67/118/92 66/113/88
f 98/87/70 104/119/93 71/116/90 65/105/23
f 69/115/89 68/114/86 71/120/90 72/121/94
f 104/122/93 113/123/95 72/121/94 71/120/90
f 91/124/96 90/125/97 89/126/98 88/127/99
f 72/121/94 73/128/100 70/117/91 69/115/89
f 113/123/95 114/129/101 73/128/100 72/121/94
f 78/58/50 30/68/34 29/65/37 77/59/51
f 80/130/102 74/34/28 57/37/30 62/106/84
f 81/131/103 75/61/53 74/34/28 80/130/102
f 82/132/104 76/63/54 75/61/53 81/131/103
f 83/60/52 77/59/51 76/63/54 82/132/104
f 85/133/105 79/66/55 78/58/50 84/57/49
f 122/104/83 117/69/56 79/66/55 85/133/105
f 70/117/91 88/127/99 86/134/106 67/118/92
f 62/135/84 61/110/85 66/113/88 67/118/92
f 80/136/102 62/135/84 67/118/92 86/134/106
f 81/137/103 80/136/102 86/134/106 87/138/107
f 81/137/103 87/138/107 83/139/52 82/140/104
f 88/127/99 89/126/98 87/138/107 86/134/106
f 83/139/52 87/138/107 89/126/98 84/141/49
f 90/125/97 85/142/105 84/141/49 89/126/98
f 128/143/108 122/144/83 85/142/105 90/125/97
f 114/129/101 133/145/109 91/124/96 73/128/100
f 73/128/100 91/124/96 88/127/99 70/117/91
f 92/33/23 36/32/25 37/82/60 93/81/66
f 133/145/109 128/143/108 90/125/97 91/124/96
f 94/80/65 100/146/110 99/86/66 93/81/66
f 96/90/72 102/147/111 101/148/112 95/91/71
f 100/146/110 106/149/113 105/150/114 99/86/66
f 99/86/66 105/150/114 104/119/93 98/87/70
f 95/89/71 101/151/112 100/146/110 94/80/65
f 102/147/111 111/152/115 110/153/116 109/154/117 101/148/112
f 97/102/81 103/155/118 102/147/111 96/90/72
f 113/123/95 104/122/93 105/156/114 115/157/119
f 101/151/112 109/158/117 106/149/113 100/146/110
f 109/154/117 110/153/116 107/159/120 106/160/113
f 111/152/115 112/161/121 108/162/122 107/159/120 110/153/116
f 103/155/118 112/161/121 111/152/115 102/147/111
f 115/157/119 116/163/123 114/129/101 113/123/95
f 105/156/114 106/160/113 107/159/120 115/157/119
f 108/162/122 116/163/123 115/157/119 107/159/120
f 118/101/80 51/100/78 50/70/46 117/69/56
f 129/164/124 123/165/82 122/144/83 128/143/108
f 126/166/125 127/167/126 125/168/127 124/169/128
f 53/77/63 54/93/74 55/92/73 52/78/64
f 121/94/75 54/93/74 53/99/63 119/98/79
f 118/101/80 123/103/82 125/170/127 119/98/79
f 116/163/123 134/171/129 133/145/109 114/129/101
f 127/172/126 121/94/75 119/98/79 125/170/127
f 112/161/121 132/173/130 131/174/131 108/162/122
f 120/95/76 126/166/125 103/155/118 97/102/81
f 121/94/75 127/172/126 126/166/125 120/95/76
f 123/165/82 129/164/124 124/169/128 125/168/127
f 132/173/130 126/166/125 124/169/128 131/174/131
f 126/166/125 132/173/130 112/161/121 103/155/118
f 116/163/123 108/162/122 131/174/131 134/171/129
f 134/171/129 129/164/124 128/143/108 133/145/109
f 129/164/124 134/171/129 131/174/131 124/169/128
f 55/92/73 120/95/76 97/102/81 43/85/69
f 57/37/30 10/36/20 9/31/21 56/30/27
f 33/40/33 32/28/26 1/25/24 2/17/17
