# Blender 5.2.0 LTS
# www.blender.org
mtllib rock_big2.mtl
o big_rock2_low
v -0.715289 -0.005235 -0.290725
v -0.734421 -0.031259 -0.195235
v -0.726936 0.122473 -0.467059
v -0.714644 0.050303 -0.364903
v -0.812839 0.073282 -0.206028
v -0.780739 0.230357 -0.516754
v -0.813351 0.235234 -0.350047
v -0.836357 0.236368 -0.211223
v -0.793412 0.390534 -0.507617
v -0.819678 0.390662 -0.349726
v -0.845243 0.379612 -0.182520
v -0.619724 -0.014772 -0.294598
v -0.619823 -0.027219 -0.194746
v -0.619834 0.121419 -0.475481
v -0.619763 0.039472 -0.373044
v -0.621982 0.251398 -0.643623
v -0.619814 0.181455 -0.557313
v -0.577301 0.421339 -0.766481
v -0.630490 0.377433 -0.709480
v -0.292842 0.019260 -0.418754
v -0.297665 0.005560 -0.332729
v -0.310529 -0.030451 -0.194853
v -0.265088 0.115424 -0.658424
v -0.286891 0.077270 -0.508579
v -0.262034 0.291422 -0.768493
v -0.346811 0.250536 -0.653344
v -0.374898 0.181392 -0.557642
v -0.320288 0.395616 -0.801116
v -0.384892 0.317769 -0.732027
v -0.159489 0.220536 -0.875008
v -0.171224 0.392923 -0.944520
v -0.001173 -0.036697 -0.645337
v -0.001046 -0.038253 -0.504140
v -0.001059 -0.041413 -0.349468
v -0.001069 -0.037723 -0.194768
v -0.001032 0.007786 -0.725040
v -0.000938 0.208629 -0.859410
v -0.000817 0.389729 -0.955391
v -0.873424 0.094148 0.116451
v -0.882428 0.079906 0.380621
v -0.881275 0.235300 0.114435
v -0.877348 0.235186 0.385089
v -0.878772 0.391633 0.113931
v -0.877625 0.392600 0.373129
v -0.765481 -0.037023 0.116730
v -0.771901 -0.028070 0.420404
v -0.712126 -0.006563 0.512875
v -0.813447 0.080257 0.470041
v -0.720664 0.081228 0.516176
v -0.807625 0.235697 0.476051
v -0.723513 0.235882 0.513273
v -0.810135 0.391579 0.476552
v -0.721368 0.390678 0.514923
v -0.619825 -0.035345 0.114625
v -0.619812 -0.038655 0.424004
v -0.621409 -0.025863 0.526507
v -0.623081 0.080541 0.555342
v -0.622873 0.236104 0.556125
v -0.622196 0.391095 0.551441
v -0.310442 -0.036778 0.114621
v -0.310435 -0.037212 0.424045
v -0.309716 -0.023331 0.530272
v -0.310321 0.081901 0.557723
v -0.310544 0.235890 0.553844
v -0.310219 0.390669 0.554639
v -0.001061 -0.031618 0.114636
v -0.001010 -0.031854 0.424017
v -0.002274 -0.019496 0.525925
v -0.001783 0.081217 0.559437
v -0.001044 0.235893 0.560564
v -0.001011 0.390551 0.563505
v -0.787502 0.546121 -0.507434
v -0.805115 0.548453 -0.351746
v -0.800320 0.587691 -0.186550
v -0.583673 0.546167 -0.771482
v -0.657188 0.544841 -0.698476
v -0.565777 0.639910 -0.762247
v -0.616718 0.696385 -0.650779
v -0.619843 0.675257 -0.503909
v -0.619835 0.655600 -0.349508
v -0.608980 0.633025 -0.183045
v -0.322230 0.524842 -0.796391
v -0.316166 0.648551 -0.761294
v -0.310050 0.699323 -0.658145
v -0.310528 0.677832 -0.504954
v -0.310810 0.650669 -0.350402
v -0.310440 0.634950 -0.199885
v -0.164784 0.542488 -0.929298
v -0.193525 0.706556 -0.843231
v -0.001039 0.545307 -0.938365
v 0.000673 0.736286 -0.826459
v -0.001089 0.745993 -0.658674
v -0.001057 0.736983 -0.504074
v -0.001923 0.719152 -0.345359
v -0.005966 0.630559 -0.182433
v -0.774151 0.577707 0.122061
v -0.766501 0.526766 0.420874
v -0.710461 0.476161 0.511034
v -0.619831 0.580353 0.114627
v -0.619859 0.524746 0.424995
v -0.622119 0.488662 0.525514
v -0.311259 0.575691 0.113898
v -0.309663 0.524113 0.423577
v -0.313156 0.494681 0.528805
v -0.001093 0.596340 0.114840
v -0.001022 0.540769 0.423708
v -0.000595 0.505511 0.542730
v 0.308486 -0.040569 -0.641998
v 0.308337 -0.040328 -0.504138
v 0.308348 -0.037833 -0.349446
v 0.308337 -0.037225 -0.194752
v 0.308403 0.010450 -0.726590
v 0.308447 0.243361 -0.856490
v 0.314719 0.393763 -0.927111
v 0.567521 -0.015134 -0.606342
v 0.620179 -0.026079 -0.502407
v 0.618535 -0.035061 -0.349476
v 0.618026 -0.035796 -0.194759
v 0.543523 0.052690 -0.652114
v 0.640661 0.261509 -0.697166
v 0.634801 0.388398 -0.728494
v 0.742562 0.402379 -0.760013
v 0.865319 -0.023245 -0.435029
v 0.879417 -0.024480 -0.349553
v 0.882391 -0.027603 -0.195000
v 0.964809 0.069776 -0.503083
v 0.989749 0.079221 -0.344687
v 0.963583 0.079992 -0.190971
v 1.014885 0.180659 -0.503004
v 1.002283 0.220967 -0.351815
v 0.973526 0.235857 -0.194315
v 0.965012 0.401573 -0.647264
v 0.999312 0.390640 -0.321795
v 0.972548 0.390571 -0.194899
v 1.022524 0.390830 -0.503223
v 0.308347 -0.031295 0.114639
v 0.308237 -0.033159 0.424059
v 0.309571 -0.020039 0.525355
v 0.308250 0.079049 0.572771
v 0.308671 0.236143 0.574615
v 0.308427 0.390876 0.566779
v 0.617734 -0.034873 0.114650
v 0.617707 -0.041068 0.404037
v 0.600168 0.034898 0.484970
v 0.613982 0.171902 0.492061
v 0.607401 0.453152 0.484873
v 0.875311 0.258481 0.364115
v 0.857208 0.439219 0.356149
v 0.881375 -0.025143 0.115157
v 0.793428 -0.025931 0.355757
v 0.923235 0.082433 0.116783
v 0.876342 0.080697 0.372994
v 0.915883 0.235818 0.114180
v 0.917541 0.390614 0.114285
v 0.312081 0.547217 -0.925666
v 0.314527 0.736734 -0.832319
v 0.308421 0.742898 -0.658843
v 0.308291 0.736521 -0.504038
v 0.309130 0.723473 -0.348024
v 0.309023 0.650998 -0.196724
v 0.626961 0.528701 -0.717635
v 0.707462 0.523499 -0.720408
v 0.618572 0.700514 -0.503396
v 0.616920 0.678559 -0.352248
v 0.606106 0.648627 -0.202323
v 0.955314 0.531129 -0.646676
v 1.010651 0.564586 -0.494906
v 0.997399 0.538225 -0.352774
v 0.972380 0.545097 -0.191604
v 0.317808 0.606896 0.110494
v 0.308481 0.543102 0.423341
v 0.309489 0.505123 0.540963
v 0.612486 0.577355 0.420325
v 0.617559 0.630838 0.219992
v 0.912620 0.586499 0.131938
v 0.862206 0.541756 0.351826
v 0.715656 -0.015134 -0.606342
v 0.691658 0.052690 -0.652114
v 0.777584 0.274006 -0.738166
v 0.957379 0.269211 -0.651437
v 1.000798 0.305804 -0.336805
v 0.973037 0.313214 -0.194607
v 1.018704 0.285744 -0.503114
v 0.613525 0.367284 0.476335
v 0.866260 0.348850 0.360132
v 0.916712 0.313216 0.114233
v 0.474115 0.537689 -0.818615
v 0.510194 0.254382 -0.759736
v 0.492673 0.391963 -0.788329
v 0.648619 0.711205 -0.780017
v 0.642513 0.742898 -0.658843
v 0.463431 0.718518 -0.503717
v 0.463025 0.701016 -0.350136
v 0.457564 0.649813 -0.199524
v 0.467683 0.618867 0.165243
v 0.460483 0.560228 0.421833
v 0.458445 0.479137 0.512918
v 0.461409 0.392181 0.520296
v 0.472925 0.251474 0.519635
v 0.481573 0.723970 -0.806168
v 0.475467 0.742898 -0.658843
vn -0.8240 -0.3832 -0.4173
vn -0.5230 -0.6945 -0.4940
vn -0.4143 -0.8162 -0.4027
vn -0.3733 -0.9011 -0.2207
vn -0.9511 -0.2142 -0.2225
vn -0.7900 -0.3973 -0.4669
vn -0.5222 -0.6797 -0.5152
vn -0.9463 -0.0251 -0.3222
vn -0.9494 0.1961 -0.2451
vn -0.6992 0.1206 -0.7047
vn -0.5417 -0.3320 -0.7722
vn -0.9417 -0.0088 -0.3363
vn -0.9900 0.0361 -0.1367
vn -0.9797 0.1234 -0.1580
vn 0.0077 -0.9951 -0.0985
vn -0.0259 -0.9245 -0.3804
vn -0.0426 -0.8047 -0.5921
vn -0.0796 -0.7663 -0.6376
vn -0.1598 -0.7496 -0.6423
vn -0.2886 -0.6284 -0.7223
vn -0.5620 -0.7743 -0.2907
vn -0.6018 -0.7005 -0.3837
vn -0.2404 -0.9352 -0.2601
vn -0.3500 -0.7211 -0.5979
vn -0.4206 -0.6669 -0.6151
vn -0.1100 -0.7190 -0.6862
vn -0.4765 -0.2613 -0.8394
vn -0.4054 -0.3014 -0.8630
vn -0.0075 -1.0000 0.0020
vn -0.0194 -0.9997 -0.0140
vn -0.6464 -0.4450 -0.6198
vn -0.6534 -0.4045 -0.6399
vn -0.7761 -0.4553 -0.4362
vn 0.0008 -0.9999 0.0172
vn -0.0546 -0.9938 -0.0972
vn -0.0304 -0.7525 -0.6579
vn 0.0347 -0.5628 -0.8258
vn -0.0353 -0.9626 -0.2685
vn -0.2831 0.7124 -0.6421
vn -0.3739 0.7580 -0.5345
vn -0.3762 0.1766 -0.9095
vn -0.3360 0.1468 -0.9303
vn -0.1255 0.9883 -0.0868
vn -0.0847 0.9964 0.0073
vn -0.0544 0.9135 -0.4032
vn -0.0050 -0.1459 -0.9893
vn 0.3166 -0.1823 -0.9309
vn 0.1296 -0.4912 -0.8613
vn -0.9987 0.0065 -0.0514
vn -0.8271 -0.5593 0.0548
vn -0.9329 0.0089 0.3601
vn -0.7435 -0.4989 0.4453
vn -0.9634 0.2112 -0.1653
vn -0.8653 0.2545 0.4318
vn -0.2611 -0.9648 -0.0310
vn -0.3732 -0.8376 0.3989
vn -0.6399 -0.1890 0.7449
vn -0.4361 -0.1343 0.8898
vn -0.3745 -0.6128 0.6959
vn -0.6258 0.0023 0.7800
vn -0.3950 0.0008 0.9187
vn 0.0123 -0.9997 -0.0195
vn -0.6490 0.1847 0.7381
vn -0.4099 0.1341 0.9022
vn -0.0381 -0.9954 0.0880
vn -0.0025 -1.0000 -0.0068
vn -0.1339 -0.7329 0.6670
vn -0.1871 -0.1060 0.9766
vn -0.2071 0.0101 0.9783
vn -0.1829 0.1105 0.9769
vn 0.0170 -0.9976 0.0670
vn 0.0193 -0.9997 0.0128
vn 0.0351 -0.7520 0.6582
vn 0.0255 -0.1269 0.9916
vn 0.0110 0.0036 0.9999
vn -0.0049 0.1069 0.9943
vn 0.0076 -0.9983 0.0572
vn -0.0230 -0.7764 0.6298
vn -0.0329 -0.1636 0.9860
vn -0.0269 -0.0090 0.9996
vn -0.0228 0.0751 0.9969
vn -0.5095 0.1181 -0.8523
vn -0.0848 0.9928 0.0843
vn -0.3471 0.8744 -0.3390
vn -0.9340 0.3529 -0.0562
vn -0.6923 0.7128 -0.1127
vn -0.0176 0.9922 0.1233
vn -0.2046 0.9775 0.0514
vn -0.3723 0.5459 -0.7506
vn -0.0228 0.9857 0.1669
vn -0.0409 0.9900 0.1350
vn -0.0633 0.9591 0.2758
vn -0.0157 0.9852 0.1708
vn -0.0937 0.9866 0.1336
vn -0.0733 0.9836 0.1648
vn -0.3894 -0.1101 -0.9145
vn -0.0922 0.9881 0.1231
vn 0.0505 0.9446 0.3242
vn -0.0868 0.9926 0.0845
vn -0.0804 0.9570 0.2786
vn 0.0301 0.9872 0.1564
vn -0.0269 0.9638 0.2653
vn -0.0353 0.9768 0.2111
vn -0.0116 0.1708 -0.9852
vn 0.1388 0.7310 -0.6681
vn 0.1561 0.1998 -0.9673
vn -0.3986 0.8043 0.4408
vn -0.5431 0.8349 0.0892
vn -0.3258 0.5418 0.7748
vn -0.1229 0.6457 0.7537
vn -0.0251 0.6925 0.7210
vn -0.0319 0.9705 0.2391
vn -0.0201 -0.9998 0.0054
vn 0.0004 -0.9999 0.0139
vn -0.0288 0.6640 0.7471
vn 0.0107 -0.9999 0.0016
vn 0.0331 -0.9583 -0.2839
vn 0.0053 -0.9999 0.0086
vn 0.0561 -0.6916 -0.7201
vn -0.1600 -0.9795 0.1226
vn 0.1651 -0.9342 -0.3162
vn 0.0526 -0.9981 -0.0305
vn 0.0297 -0.9996 0.0005
vn 0.2907 -0.6390 -0.7121
vn 0.2779 -0.5064 -0.8163
vn 0.1398 -0.0500 -0.9889
vn 0.2127 -0.0477 -0.9759
vn 0.3858 -0.1441 -0.9113
vn -0.0273 -0.9890 0.1451
vn 0.4453 -0.8951 0.0212
vn 0.3877 -0.9212 -0.0316
vn 0.1736 -0.8525 -0.4931
vn 0.8984 -0.4370 0.0433
vn 0.5877 -0.7192 -0.3707
vn 0.9289 -0.3505 0.1196
vn 0.9688 -0.2278 -0.0975
vn 0.9883 -0.0870 0.1256
vn 0.9839 -0.0272 0.1769
vn 0.4980 -0.7318 0.4653
vn 0.1527 -0.9408 0.3026
vn -0.0038 -0.9997 -0.0226
vn 0.5753 -0.8143 0.0767
vn 0.9862 -0.0056 0.1658
vn 0.9820 0.0033 0.1887
vn 0.9976 -0.0047 0.0694
vn 0.0167 -0.7164 0.6975
vn 0.0003 -0.1593 0.9872
vn 0.0161 0.0209 0.9997
vn 0.0405 0.1040 0.9938
vn 0.3113 -0.3872 0.8679
vn 0.2756 -0.0383 0.9605
vn 0.9642 -0.2324 0.1274
vn 0.7776 -0.1999 0.5962
vn 0.8033 0.0645 0.5920
vn 0.8048 0.0446 0.5918
vn 0.3360 -0.1353 0.9321
vn 0.1315 0.2619 -0.9561
vn 0.7731 0.2283 -0.5918
vn 0.7103 0.1903 -0.6777
vn 0.1192 -0.0440 -0.9919
vn 0.9895 0.0193 0.1432
vn 0.9869 0.0203 0.1601
vn 0.0302 0.9962 -0.0822
vn 0.0321 0.9967 0.0751
vn 0.0530 0.9448 0.3233
vn 0.0415 0.9937 0.1042
vn 0.0569 0.9974 0.0441
vn 0.0810 0.9884 0.1284
vn 0.1287 0.9689 0.2115
vn -0.0300 0.9981 0.0533
vn -0.1009 0.9947 0.0200
vn -0.0671 0.9726 0.2225
vn 0.4306 -0.0971 -0.8973
vn 0.9221 0.3513 0.1621
vn 0.9042 0.3965 0.1586
vn 0.9839 0.0104 0.1782
vn 0.9881 0.0301 0.1509
vn 0.7440 0.6679 -0.0198
vn 0.9882 -0.0800 -0.1309
vn -0.0577 0.9194 0.3890
vn 0.1537 0.7253 0.6711
vn -0.0268 0.9951 0.0953
vn -0.1075 0.9911 0.0788
vn 0.0912 0.6866 0.7213
vn 0.1879 0.5661 0.8027
vn 0.8231 0.5419 0.1698
vn 0.9813 0.0361 0.1890
vn 0.7421 0.4062 0.5332
vn 0.4701 0.2146 0.8561
vn 0.7435 0.0755 0.6645
vn 0.3093 -0.7389 -0.5986
vn 0.0332 -0.8622 -0.5055
vn 0.7107 0.0988 -0.6965
vn 0.0168 -0.3239 -0.9459
vn 0.2547 0.1916 0.9478
vn 0.3457 -0.0000 0.9383
vn 0.4849 -0.1462 -0.8623
vn 0.2939 0.7815 -0.5503
vn 0.1441 0.9894 0.0166
vn 0.3107 0.8996 -0.3070
vn 0.1832 0.4748 -0.8608
vt 0.415827 0.862582
vt 0.419056 0.830554
vt 0.430874 0.841685
vt 0.437624 0.857981
vt 0.385099 0.843121
vt 0.380870 0.816046
vt 0.402220 0.816437
vt 0.388525 0.866626
vt 0.329066 0.823328
vt 0.325697 0.783196
vt 0.354249 0.778005
vt 0.355343 0.820750
vt 0.359113 0.847316
vt 0.365456 0.875438
vt 0.060425 0.547017
vt 0.041512 0.546132
vt 0.045569 0.529903
vt 0.061387 0.530524
vt 0.061844 0.514780
vt 0.045944 0.514548
vt 0.044265 0.493810
vt 0.062036 0.493075
vt 0.393662 0.791476
vt 0.376582 0.783999
vt 0.409545 0.798934
vt 0.117218 0.511564
vt 0.118240 0.493617
vt 0.115174 0.526094
vt 0.410003 0.753247
vt 0.393234 0.740903
vt 0.433970 0.745558
vt 0.374024 0.739688
vt 0.346675 0.765393
vt 0.359886 0.721989
vt 0.165419 0.529482
vt 0.169098 0.503978
vt 0.381759 0.718138
vt 0.390757 0.693179
vt 0.415445 0.726684
vt 0.161898 0.554675
vt 0.111283 0.549646
vt 0.437008 0.684065
vt 0.401081 0.671069
vt 0.451263 0.690252
vt 0.173172 0.480597
vt 0.084169 0.946562
vt 0.107994 0.955003
vt 0.104945 0.984177
vt 0.073862 0.966704
vt 0.087933 0.926962
vt 0.137739 0.927766
vt 0.137280 0.953912
vt 0.370419 0.661511
vt 0.386723 0.614333
vt 0.411875 0.623084
vt 0.397654 0.920281
vt 0.420194 0.916750
vt 0.405336 0.962804
vt 0.428662 0.956780
vt 0.372447 0.924844
vt 0.380717 0.964754
vt 0.449003 0.911079
vt 0.453769 0.963146
vt 0.434174 0.974115
vt 0.043597 0.672101
vt 0.027591 0.667788
vt 0.035574 0.647806
vt 0.047671 0.660074
vt 0.408642 0.981196
vt 0.039530 0.695491
vt 0.024403 0.693958
vt 0.058564 0.597391
vt 0.034782 0.597663
vt 0.382597 0.984749
vt 0.038848 0.719557
vt 0.023204 0.720251
vt 0.059343 0.645260
vt 0.107624 0.599200
vt 0.060413 0.659808
vt 0.058591 0.674776
vt 0.055921 0.697061
vt 0.054674 0.719682
vt 0.104729 0.646332
vt 0.155851 0.603653
vt 0.103889 0.662248
vt 0.102848 0.678139
vt 0.101342 0.700400
vt 0.099986 0.723018
vt 0.150505 0.650480
vt 0.148734 0.665590
vt 0.147514 0.680984
vt 0.145876 0.703133
vt 0.144646 0.725094
vt 0.325548 0.764630
vt 0.336287 0.719260
vt 0.007324 0.899079
vt 0.040743 0.899418
vt 0.044996 0.919917
vt 0.024493 0.932660
vt 0.331918 0.850521
vt 0.329039 0.880111
vt 0.006088 0.873463
vt 0.040793 0.874893
vt 0.011505 0.845933
vt 0.043559 0.847954
vt 0.047113 0.936607
vt 0.036563 0.946577
vt 0.093282 0.802979
vt 0.140916 0.805753
vt 0.138481 0.851419
vt 0.091029 0.852650
vt 0.089268 0.901221
vt 0.090162 0.876502
vt 0.338761 0.682179
vt 0.363350 0.687430
vt 0.189280 0.807744
vt 0.187251 0.855402
vt 0.138441 0.904060
vt 0.139130 0.879663
vt 0.044826 0.799118
vt 0.050979 0.749831
vt 0.097531 0.755092
vt 0.345301 0.654085
vt 0.185787 0.956035
vt 0.186679 0.991048
vt 0.132675 0.989846
vt 0.356504 0.981498
vt 0.337317 0.933466
vt 0.027558 0.745688
vt 0.019970 0.795282
vt 0.040724 0.732406
vt 0.053710 0.734161
vt 0.098605 0.738840
vt 0.142900 0.759283
vt 0.203372 0.610838
vt 0.211731 0.562319
vt 0.143911 0.741656
vt 0.220232 0.512168
vt 0.224096 0.489598
vt 0.215951 0.537412
vt 0.452674 0.636807
vt 0.468402 0.640982
vt 0.271237 0.521695
vt 0.265850 0.502965
vt 0.266238 0.546599
vt 0.261373 0.571602
vt 0.467619 0.597739
vt 0.428745 0.590139
vt 0.482243 0.598284
vt 0.419792 0.559618
vt 0.440119 0.568897
vt 0.405965 0.582504
vt 0.195071 0.656435
vt 0.304226 0.580295
vt 0.308825 0.554900
vt 0.495853 0.530383
vt 0.513369 0.514604
vt 0.526658 0.535216
vt 0.515010 0.544668
vt 0.534251 0.500842
vt 0.547919 0.519079
vt 0.486105 0.516097
vt 0.499567 0.497583
vt 0.518394 0.480344
vt 0.268579 0.666491
vt 0.239649 0.663715
vt 0.251166 0.620771
vt 0.293214 0.630981
vt 0.492978 0.485832
vt 0.510568 0.470258
vt 0.475815 0.504998
vt 0.192104 0.670444
vt 0.190329 0.685218
vt 0.188937 0.706301
vt 0.187419 0.727306
vt 0.233254 0.678992
vt 0.234565 0.699480
vt 0.363810 0.604159
vt 0.576186 0.469678
vt 0.588624 0.484970
vt 0.280372 0.685850
vt 0.279831 0.716120
vt 0.277121 0.730823
vt 0.233109 0.728572
vt 0.406392 0.536279
vt 0.429546 0.498229
vt 0.447442 0.510809
vt 0.427034 0.542388
vt 0.612085 0.443444
vt 0.626023 0.462113
vt 0.560470 0.448809
vt 0.592736 0.419899
vt 0.552570 0.438303
vt 0.583115 0.407707
vt 0.185258 0.928991
vt 0.185846 0.905238
vt 0.186523 0.881301
vt 0.210596 0.881473
vt 0.235207 0.881975
vt 0.234629 0.906344
vt 0.209988 0.905568
vt 0.210574 0.856400
vt 0.234338 0.857307
vt 0.187486 0.760498
vt 0.398234 0.547602
vt 0.296856 0.854988
vt 0.301259 0.881856
vt 0.465253 0.458667
vt 0.486219 0.439328
vt 0.502528 0.460188
vt 0.485880 0.473857
vt 0.301681 0.905917
vt 0.464432 0.493715
vt 0.444358 0.473152
vt 0.209942 0.760544
vt 0.232179 0.760982
vt 0.234951 0.791139
vt 0.212201 0.799716
vt 0.186568 0.743107
vt 0.208091 0.742664
vt 0.284177 0.800481
vt 0.526745 0.399285
vt 0.544601 0.427819
vt 0.309247 0.540460
vt 0.272487 0.762819
vt 0.230309 0.741090
vt 0.274178 0.745504
vt 0.562159 0.382048
vt 0.573501 0.395500
vt 0.475897 0.574265
vt 0.490040 0.574182
vt 0.290141 0.507593
vt 0.462260 0.523254
vt 0.446636 0.547577
vt 0.209633 0.730042
vt 0.213037 0.710115
vt 0.380847 0.574864
vt 0.211134 0.951796
vt 0.210686 0.929450
vt 0.235281 0.931508
vt 0.232183 0.947520
vt 0.294313 0.931966
vt 0.259720 0.957695
vt 0.219751 0.981300
vt 0.250019 0.968394
s 1
usemtl rock2
f 5/1/1 4/2/2 1/3/3 2/4/4
f 7/5/5 6/6/6 3/7/7 4/2/2
f 8/8/8 7/5/5 4/2/2 5/1/1
f 72/9/9 76/10/10 19/11/11 9/12/12
f 10/13/13 9/12/12 6/6/6 7/5/5
f 11/14/14 10/13/13 7/5/5 8/8/8
f 13/15/15 2/16/4 1/17/3 12/18/16
f 15/19/17 4/20/2 3/21/7 14/22/18
f 4/20/2 15/19/17 12/18/16 1/17/3
f 17/23/19 6/6/6 16/24/20
f 6/6/6 17/23/19 14/25/18 3/7/7
f 20/26/21 15/19/17 14/22/18 24/27/22
f 15/19/17 20/26/21 21/28/23 12/18/16
f 27/29/24 17/23/19 16/24/20 26/30/25
f 17/23/19 27/29/24 24/31/22 14/25/18
f 29/32/26 19/11/11 18/33/27 28/34/28
f 19/11/11 29/32/26 26/30/25 16/24/20
f 34/35/29 21/28/23 20/26/21 33/36/30
f 26/30/25 25/37/31 30/38/32 23/39/33
f 27/29/24 26/30/25 23/39/33 24/31/22
f 29/32/26 28/34/28 25/37/31 26/30/25
f 35/40/34 22/41/35 21/28/23 34/35/29
f 36/42/36 23/39/33 30/38/32 37/43/37
f 23/39/33 36/42/36 32/44/38 24/31/22
f 33/36/30 20/26/21 24/27/22 32/45/38
f 83/46/39 89/47/40 88/48/41 82/49/42
f 84/50/43 92/51/44 91/52/45 89/47/40 83/46/39
f 38/53/46 114/54/47 113/55/48 37/43/37
f 41/56/49 8/8/8 5/1/1 39/57/50
f 42/58/51 41/56/49 39/57/50 40/59/52
f 43/60/53 11/14/14 8/8/8 41/56/49
f 44/61/54 43/60/53 41/56/49 42/58/51
f 40/59/52 39/57/50 45/62/55 46/63/56
f 39/57/50 5/1/1 2/4/4 45/62/55
f 48/64/57 40/59/52 46/63/56
f 49/65/58 48/66/57 46/67/56 47/68/59
f 50/69/60 42/58/51 40/59/52 48/64/57
f 51/70/61 50/71/60 48/66/57 49/65/58
f 54/72/62 45/73/55 2/16/4 13/15/15
f 52/74/63 44/61/54 42/58/51 50/69/60
f 53/75/64 52/76/63 50/71/60 51/70/61
f 55/77/65 46/67/56 45/73/55 54/72/62
f 13/15/15 22/41/35 60/78/66 54/72/62
f 56/79/67 47/68/59 46/67/56 55/77/65
f 57/80/68 49/65/58 47/68/59 56/79/67
f 58/81/69 51/70/61 49/65/58 57/80/68
f 59/82/70 53/75/64 51/70/61 58/81/69
f 61/83/71 55/77/65 54/72/62 60/78/66
f 66/84/72 60/78/66 22/41/35 35/40/34
f 62/85/73 56/79/67 55/77/65 61/83/71
f 63/86/74 57/80/68 56/79/67 62/85/73
f 64/87/75 58/81/69 57/80/68 63/86/74
f 65/88/76 59/82/70 58/81/69 64/87/75
f 67/89/77 61/83/71 60/78/66 66/84/72
f 68/90/78 62/85/73 61/83/71 67/89/77
f 69/91/79 63/86/74 62/85/73 68/90/78
f 70/92/80 64/87/75 63/86/74 69/91/79
f 71/93/81 65/88/76 64/87/75 70/92/80
f 75/94/82 82/95/42 28/34/28 18/33/27
f 72/96/9 79/97/83 78/98/84 76/99/10
f 73/100/85 72/9/9 9/12/12 10/13/13
f 74/101/86 73/100/85 10/13/13 11/14/14
f 73/102/85 80/103/87 79/97/83 72/96/9
f 74/104/86 81/105/88 80/103/87 73/102/85
f 9/12/12 19/11/11 16/24/20 6/6/6
f 76/10/10 75/94/82 18/33/27 19/11/11
f 78/98/84 77/106/89 75/107/82 76/99/10
f 102/108/90 105/109/91 95/110/92 87/111/93
f 77/106/89 83/46/39 82/49/42 75/107/82
f 78/98/84 84/50/43 83/46/39 77/106/89
f 79/97/83 85/112/94 84/50/43 78/98/84
f 80/103/87 86/113/95 85/112/94 79/97/83
f 81/105/88 87/111/93 86/113/95 80/103/87
f 82/95/42 88/114/41 31/115/96 28/34/28
f 95/110/92 105/109/91 170/116/97 160/117/98
f 28/34/28 31/115/96 30/38/32 25/37/31
f 85/112/94 93/118/99 92/51/44 84/50/43
f 86/113/95 94/119/100 93/118/99 85/112/94
f 87/111/93 95/110/92 94/119/100 86/113/95
f 81/105/88 99/120/101 102/108/90 87/111/93
f 100/121/102 103/122/103 102/108/90 99/120/101
f 88/114/41 90/123/104 38/53/46 31/115/96
f 91/52/45 156/124/105 155/125/106 90/126/104
f 44/61/54 97/127/107 96/128/108 43/60/53
f 97/129/107 100/121/102 99/120/101 96/130/108
f 97/127/107 44/61/54 52/74/63
f 98/131/109 97/129/107 52/76/63 53/75/64
f 98/131/109 101/132/110 100/121/102 97/129/107
f 101/132/110 98/131/109 53/75/64 59/82/70
f 101/132/110 104/133/111 103/122/103 100/121/102
f 104/133/111 101/132/110 59/82/70 65/88/76
f 103/122/103 106/134/112 105/109/91 102/108/90
f 136/135/113 66/84/72 35/40/34 111/136/114
f 104/133/111 107/137/115 106/134/112 103/122/103
f 107/137/115 104/133/111 65/88/76 71/93/81
f 109/138/116 33/36/30 32/45/38 108/139/117
f 110/140/118 34/35/29 33/36/30 109/138/116
f 111/136/114 35/40/34 34/35/29 110/140/118
f 112/141/119 36/42/36 37/43/37 113/55/48
f 36/42/36 112/141/119 108/142/117 32/44/38
f 116/143/120 109/138/116 108/139/117 115/144/121
f 117/145/122 110/140/118 109/138/116 116/143/120
f 118/146/123 111/136/114 110/140/118 117/145/122
f 119/147/124 112/141/119 113/55/48 188/148/125
f 112/141/119 119/147/124 115/149/121 108/142/117
f 121/150/126 120/151/127 188/148/125 189/152/128
f 137/153/129 67/89/77 66/84/72 136/135/113
f 125/154/130 118/146/123 117/145/122 124/155/131
f 126/156/132 127/157/133 124/158/131 123/159/134
f 127/157/133 128/160/135 125/161/130 124/158/131
f 129/162/136 130/163/137 127/157/133 126/156/132
f 130/163/137 131/164/138 128/160/135 127/157/133
f 150/165/139 143/166/140 142/167/141 149/168/142
f 181/169/143 182/170/144 131/164/138 130/163/137
f 183/171/145 181/169/143 130/163/137 129/162/136
f 142/167/141 136/135/113 111/136/114 118/146/123
f 138/172/146 68/90/78 67/89/77 137/153/129
f 139/173/147 69/91/79 68/90/78 138/172/146
f 140/174/148 70/92/80 69/91/79 139/173/147
f 141/175/149 71/93/81 70/92/80 140/174/148
f 143/166/140 137/153/129 136/135/113 142/167/141
f 149/168/142 142/167/141 118/146/123 125/154/130
f 139/173/147 138/172/146 144/176/150 145/177/151
f 138/172/146 137/153/129 143/166/140 144/176/150
f 90/123/104 155/178/106 114/54/47 38/53/46
f 128/160/135 151/179/152 149/180/142 125/161/130
f 152/181/153 144/176/150 143/166/140 150/165/139
f 147/182/154 145/177/151 144/176/150 152/181/153
f 185/183/155 184/184/156 145/177/151 147/182/154
f 162/185/157 166/186/158 132/187/159 122/188/160
f 151/179/152 152/189/153 150/190/139 149/180/142
f 131/164/138 153/191/161 151/179/152 128/160/135
f 153/191/161 147/192/154 152/189/153 151/179/152
f 182/170/144 186/193/162 153/191/161 131/164/138
f 186/193/162 185/194/155 147/192/154 153/191/161
f 92/51/44 157/195/163 156/124/105 91/52/45
f 93/118/99 158/196/164 157/195/163 92/51/44
f 94/119/100 159/197/165 158/196/164 93/118/99
f 95/110/92 160/117/98 159/197/165 94/119/100
f 193/198/166 164/199/167 163/200/168 192/201/169
f 194/202/170 165/203/171 164/199/167 193/198/166
f 106/134/112 171/204/172 170/116/97 105/109/91
f 161/205/173 162/185/157 122/188/160 121/150/126
f 169/206/174 168/207/175 164/199/167 165/203/171
f 168/208/175 169/209/174 134/210/176 133/211/177
f 168/207/175 167/212/178 163/200/168 164/199/167
f 135/213/179 132/187/159 166/186/158 167/214/178
f 135/213/179 167/214/178 168/208/175 133/211/177
f 196/215/180 173/216/181 174/217/182 195/218/183
f 107/137/115 172/219/184 171/204/172 106/134/112
f 172/219/184 107/137/115 71/93/81 141/175/149
f 195/218/183 174/217/182 165/203/171 194/202/170
f 196/215/180 171/204/172 172/219/184 197/220/185
f 175/221/186 169/206/174 165/203/171 174/217/182
f 169/209/174 175/222/186 154/223/187 134/210/176
f 124/155/131 117/145/122 116/143/120 123/224/134
f 176/225/188 173/216/181 146/226/189 148/227/190
f 81/105/88 74/104/86 96/130/108 99/120/101
f 74/101/86 11/14/14 43/60/53 96/128/108
f 175/222/186 176/228/188 148/229/190 154/223/187
f 175/221/186 174/217/182 173/216/181 176/225/188
f 22/41/35 13/15/15 12/18/16 21/28/23
f 115/149/121 119/147/124 178/230/191 177/231/192
f 119/147/124 188/148/125 120/151/127 178/230/191
f 115/144/121 177/232/192 123/224/134 116/143/120
f 126/156/132 123/159/134 177/231/192 178/230/191
f 154/223/187 148/229/190 185/194/155 186/193/162
f 134/210/176 154/223/187 186/193/162 182/170/144
f 148/227/190 146/226/189 184/184/156 185/183/155
f 135/213/179 133/211/177 181/169/143 183/171/145
f 132/187/159 135/213/179 183/171/145 180/233/193
f 133/211/177 134/210/176 182/170/144 181/169/143
f 121/150/126 122/188/160 179/234/194 120/151/127
f 122/188/160 132/187/159 180/233/193 179/234/194
f 197/220/185 172/219/184 141/175/149 198/235/195
f 198/235/195 199/236/196 145/177/151 184/184/156
f 140/174/148 139/173/147 145/177/151 199/236/196
f 187/237/197 189/152/128 114/54/47 155/178/106
f 114/54/47 189/152/128 188/148/125 113/55/48
f 189/152/128 187/237/197 161/205/173 121/150/126
f 120/151/127 179/234/194 126/156/132 178/230/191
f 126/156/132 179/234/194 180/233/193 129/162/136
f 183/171/145 129/162/136 180/233/193
f 31/115/96 38/53/46 37/43/37 30/38/32
f 200/238/198 201/239/199 191/240/200 190/241/201
f 201/239/199 192/201/169 163/200/168 191/240/200
f 166/242/158 191/240/200 163/200/168 167/212/178
f 166/242/158 162/243/157 190/241/201 191/240/200
f 89/47/40 91/52/45 90/126/104 88/48/41
f 157/195/163 158/196/164 192/201/169 201/239/199
f 156/124/105 157/195/163 201/239/199 200/238/198
f 141/175/149 140/174/148 199/236/196 198/235/195
f 146/226/189 197/220/185 198/235/195 184/184/156
f 173/216/181 196/215/180 197/220/185 146/226/189
f 170/116/97 195/218/183 194/202/170 160/117/98
f 171/204/172 196/215/180 195/218/183 170/116/97
f 160/117/98 194/202/170 193/198/166 159/197/165
f 159/197/165 193/198/166 192/201/169 158/196/164
f 156/124/105 200/238/198 187/244/197 155/125/106
f 187/244/197 200/238/198 190/241/201 161/245/173
f 162/243/157 161/245/173 190/241/201
