# Blender 5.2.0 LTS
# www.blender.org
mtllib rock_big4.mtl
o big_rock5_low
v -0.700498 0.096803 -0.225010
v -0.722792 0.096328 -0.000616
v -0.695367 0.208101 -0.224098
v -0.720111 0.207938 -0.000024
v -0.618620 0.013518 -0.335754
v -0.613988 -0.008720 -0.223089
v -0.614270 -0.007008 0.000061
v -0.641029 0.096218 -0.351413
v -0.640340 0.208134 -0.348902
v -0.502170 0.014060 -0.446620
v -0.502854 -0.011523 -0.334675
v -0.502755 -0.006009 -0.223419
v -0.502756 -0.002710 0.000038
v -0.523255 0.096391 -0.467660
v -0.522701 0.207920 -0.466031
v -0.400011 0.009481 -0.543791
v -0.400719 0.088087 -0.593384
v -0.169500 0.010451 -0.670838
v -0.167454 -0.018814 -0.558558
v -0.162975 0.003355 -0.384521
v -0.167579 -0.003649 -0.223425
v -0.167618 0.010409 -0.000227
v -0.188500 0.097298 -0.688423
v -0.185222 0.207875 -0.692354
v -0.707349 0.093576 0.238102
v -0.711515 0.207924 0.224240
v -0.623655 0.007346 0.232139
v -0.623951 0.006745 0.551849
v -0.654917 0.096097 0.567624
v -0.655865 0.207914 0.570000
v -0.502750 -0.000566 0.223488
v -0.502716 -0.007622 0.558628
v -0.506659 -0.000190 0.677634
v -0.467453 0.027391 0.741310
v -0.539330 0.096102 0.714355
v -0.470075 0.092573 0.765415
v -0.541469 0.207918 0.714428
v -0.467205 0.204423 0.769821
v -0.388065 0.013619 0.786305
v -0.338780 0.037400 0.840882
v -0.346171 0.096157 0.846653
v -0.348881 0.207914 0.846761
v -0.399496 0.001332 -0.000044
v -0.399097 -0.007336 0.558636
v -0.405971 -0.007282 -0.348884
v -0.167581 0.008480 0.223520
v -0.167570 -0.006697 0.558652
v -0.167577 -0.008113 0.670387
v -0.167428 -0.010209 0.781756
v -0.167224 0.023072 0.854202
v -0.167389 0.096243 0.865507
v -0.167622 0.207942 0.866270
v -0.680491 0.380836 -0.211671
v -0.704355 0.365065 0.002816
v -0.609748 0.408447 -0.356774
v -0.627071 0.584677 -0.205814
v -0.589272 0.626864 0.000040
v -0.508989 0.368885 -0.470487
v -0.473618 0.719127 -0.213209
v -0.444271 0.579418 -0.357362
v -0.415886 0.774571 0.007096
v -0.343781 0.411839 -0.570178
v -0.342696 0.316829 -0.576723
v -0.160973 0.314019 -0.686777
v -0.168033 0.436124 -0.666085
v -0.167567 0.582488 -0.475350
v -0.167575 0.667153 -0.334996
v -0.167579 0.740188 -0.216108
v -0.161929 0.819484 0.001946
v -0.710539 0.319739 0.225537
v -0.659929 0.319481 0.554744
v -0.586146 0.624962 0.226867
v -0.542828 0.319624 0.714678
v -0.467686 0.316213 0.771359
v -0.472525 0.502001 0.558626
v -0.460139 0.496965 0.670812
v -0.423398 0.470680 0.759943
v -0.411321 0.778887 0.228791
v -0.349475 0.319632 0.847454
v -0.347062 0.393668 0.847705
v -0.365258 0.690459 0.406140
v -0.322180 0.585337 0.542111
v -0.353961 0.207897 -0.579193
v -0.295158 0.514722 0.764662
v -0.396184 -0.002771 0.675273
v -0.404144 -0.005315 -0.223421
v -0.314420 0.570453 0.660449
v -0.397377 0.002278 0.223498
v -0.167591 0.319645 0.868742
v -0.166276 0.425326 0.865769
v -0.167351 0.589805 0.710528
v -0.167501 0.532736 0.777318
v -0.165773 0.665586 0.551618
v -0.168974 0.628407 0.656569
v -0.172808 0.762361 0.463629
v -0.177979 0.839233 0.231235
v 0.168156 -0.004739 -0.728399
v 0.167600 -0.010946 -0.558587
v 0.161035 -0.014530 -0.377885
v 0.167550 -0.015555 -0.223375
v 0.167639 -0.000884 0.000016
v 0.202449 0.096176 -0.829630
v 0.178712 0.222199 -0.835181
v 0.397312 0.006803 -0.681275
v 0.391072 -0.004975 -0.558592
v 0.391112 -0.003917 -0.392411
v 0.391024 -0.018463 -0.223430
v 0.390897 -0.014157 0.000260
v 0.401034 0.096158 -0.696453
v 0.393187 0.226270 -0.696760
v 0.573893 0.229750 -0.632032
v 0.582768 0.025936 -0.635378
v 0.613224 -0.001122 -0.559118
v 0.614247 -0.007026 -0.379328
v 0.626804 -0.011691 -0.213072
v 0.614552 -0.011898 -0.000052
v 0.584053 0.096431 -0.637101
v 0.635810 0.096238 -0.579358
v 0.632438 0.222070 -0.569290
v 0.694059 0.096958 -0.373493
v 0.690255 0.099097 -0.221781
v 0.757400 0.092050 -0.008279
v 0.690444 0.220960 -0.368849
v 0.702532 0.207944 -0.223599
v 0.769645 0.202824 0.005766
v 0.062366 -0.006127 0.793242
v 0.108513 0.094347 0.841263
v 0.167589 0.001200 0.223492
v 0.167687 -0.003272 0.558777
v 0.173944 0.009972 0.673303
v 0.145763 0.007862 0.764051
v 0.199289 0.104722 0.712555
v 0.172918 0.099591 0.789103
v 0.172580 0.207907 0.789484
v 0.117199 0.207873 0.843144
v 0.197818 0.208568 0.719075
v 0.391045 -0.003040 0.223494
v 0.396350 0.005523 0.545661
v 0.411833 0.079641 0.604793
v 0.422881 0.208040 0.588913
v 0.502767 -0.003199 0.223474
v 0.504259 0.018503 0.441244
v 0.525997 0.095682 0.455483
v 0.525433 0.207908 0.457749
v 0.661283 0.094907 0.262497
v 0.662333 0.207917 0.267736
v 0.156949 0.309295 -0.724552
v 0.161967 0.360134 -0.616184
v 0.167496 0.579265 -0.472742
v 0.167598 0.658675 -0.334697
v 0.167573 0.733824 -0.207067
v 0.168144 0.824019 -0.003446
v 0.397547 0.554565 -0.467924
v 0.391115 0.660284 -0.336245
v 0.391064 0.730638 -0.204827
v 0.391182 0.822841 0.003915
v 0.531295 0.288081 -0.558318
v 0.482296 0.545883 -0.418562
v 0.502568 0.646300 -0.344388
v 0.502746 0.734298 -0.206218
v 0.522125 0.810478 -0.013283
v 0.621233 0.313608 -0.546959
v 0.667487 0.319904 -0.336549
v 0.627999 0.541755 -0.281070
v 0.673128 0.658525 -0.170213
v 0.593633 0.734182 -0.199115
v 0.629388 0.760090 -0.126074
v 0.615126 0.779571 0.000070
v 0.661841 0.315166 -0.207605
v 0.766690 0.319273 -0.012573
v 0.675410 0.543097 -0.174972
v 0.771004 0.542943 -0.018606
v 0.767602 0.655168 0.003172
v 0.174147 0.319740 0.793360
v 0.119713 0.319551 0.843932
v 0.176430 0.437385 0.785012
v 0.120853 0.386749 0.846972
v 0.177392 0.543896 0.697848
v 0.147665 0.508506 0.750818
v 0.167598 0.675807 0.578043
v 0.167292 0.618324 0.634206
v 0.167555 0.790017 0.460463
v 0.168269 0.841755 0.223573
v 0.198997 0.321854 0.719969
v 0.423609 0.319459 0.588143
v 0.425432 0.542888 0.591982
v 0.394737 0.657104 0.584487
v 0.390964 0.788104 0.464933
v 0.391549 0.856061 0.223218
v 0.524314 0.319648 0.457397
v 0.524278 0.543142 0.456323
v 0.526859 0.654738 0.462073
v 0.550750 0.823775 0.223287
v 0.507829 0.771055 0.453725
v 0.661488 0.319646 0.267837
v 0.663533 0.543131 0.269531
v 0.660654 0.654855 0.262485
v 0.629182 0.776422 0.226800
v 0.768760 0.426583 -0.015468
v 0.424560 0.436056 0.590146
v 0.187803 0.436904 0.708507
v 0.662514 0.431757 0.268686
v 0.524297 0.426461 0.456884
v 0.491702 0.366967 -0.531559
v 0.657662 0.403527 -0.314780
v 0.667161 0.404532 -0.194810
v 0.576834 0.387833 -0.505929
v 0.282522 0.566915 -0.470333
v 0.279357 0.659479 -0.335471
v 0.279319 0.732231 -0.205947
v 0.279663 0.823430 0.000235
v 0.285727 0.706639 0.563114
v 0.279260 0.789061 0.462698
v 0.279909 0.848908 0.223396
v 0.326835 0.363551 -0.573871
v 0.352228 0.326147 -0.634772
v -0.623803 0.007045 0.391994
v -0.681133 0.094837 0.402863
v -0.683690 0.207919 0.397120
v -0.502733 -0.004094 0.391058
v -0.398242 -0.002540 0.391067
v -0.167575 0.000891 0.391086
v -0.685234 0.319610 0.390140
v -0.529336 0.563481 0.392747
v 0.167638 -0.001036 0.391134
v 0.503513 0.007652 0.332359
v 0.593031 0.739719 0.355017
v 0.393698 0.001242 0.384577
v 0.593640 0.095294 0.358990
v 0.593883 0.207912 0.362742
v 0.593905 0.543137 0.362927
v 0.592901 0.319647 0.362617
v 0.593757 0.654796 0.362279
v 0.593405 0.429109 0.362785
v -0.400270 0.521295 -0.463823
v 0.641264 0.658330 -0.230433
vn -0.9755 0.0761 -0.2066
vn -0.7922 0.0564 -0.6077
vn -0.7736 -0.1263 -0.6209
vn -0.9761 -0.0897 -0.1982
vn 0.0352 -0.9992 0.0178
vn -0.1099 -0.9939 -0.0057
vn -0.2344 -0.9695 -0.0709
vn -0.0111 -0.9999 0.0109
vn -0.5313 -0.7372 -0.4173
vn -0.0001 0.9279 -0.3729
vn -0.0737 0.9206 -0.3836
vn -0.1826 0.9785 0.0963
vn 0.0745 0.9972 -0.0117
vn -0.9863 -0.1422 -0.0831
vn 0.0144 -0.9998 -0.0100
vn -0.2749 -0.9491 0.1540
vn -0.7377 0.0125 -0.6750
vn -0.7172 -0.1443 -0.6817
vn -0.7365 0.1383 -0.6621
vn -0.7892 0.2305 -0.5692
vn -0.1179 -0.9845 -0.1298
vn -0.4676 -0.8613 -0.1989
vn -0.6367 -0.2447 -0.7313
vn -0.5291 -0.1468 -0.8358
vn -0.3626 -0.7868 -0.4995
vn -0.6416 0.1960 -0.7416
vn -0.2655 0.2662 -0.9266
vn -0.4720 0.0750 -0.8784
vn -0.6042 0.0458 -0.7956
vn 0.0132 -0.9998 0.0148
vn 0.0421 -0.9988 0.0237
vn -0.0664 -0.9976 -0.0196
vn 0.0258 -0.9990 0.0368
vn 0.0021 -0.9987 0.0503
vn 0.0158 -0.9993 0.0344
vn 0.0025 -0.9985 -0.0554
vn 0.0125 -0.9996 -0.0266
vn 0.0052 -0.9995 0.0297
vn 0.0112 -0.9999 -0.0108
vn 0.0086 0.3700 -0.9290
vn -0.4422 0.0561 -0.8951
vn -0.7543 0.5014 -0.4238
vn 0.0241 0.8560 -0.5165
vn -0.0410 -0.9967 -0.0707
vn -0.0640 -0.8410 -0.5372
vn 0.0406 -0.9986 -0.0351
vn 0.0240 -0.9996 -0.0133
vn -0.0084 -1.0000 -0.0009
vn 0.2814 -0.1427 -0.9489
vn 0.0958 -0.9846 -0.1461
vn -0.0306 -0.9995 0.0040
vn 0.0265 -0.9995 -0.0172
vn -0.0342 -0.9986 0.0415
vn 0.1273 0.7628 -0.6339
vn 0.3667 0.6806 -0.6343
vn -0.0262 -0.9953 -0.0930
vn 0.0043 -0.9992 -0.0391
vn 0.0390 -0.9980 -0.0492
vn -0.0363 -0.9993 0.0087
vn -0.9905 0.0979 -0.0964
vn -0.9816 0.0611 -0.1807
vn -0.9933 0.0593 -0.0995
vn -0.4390 -0.8848 0.1564
vn -0.0552 -0.9981 -0.0264
vn -0.9745 -0.0994 0.2010
vn -0.5430 -0.8295 0.1311
vn -0.9005 -0.1458 0.4097
vn -0.7821 -0.5943 0.1875
vn 0.3292 -0.8970 0.2949
vn 0.0101 -0.9995 -0.0297
vn -0.1133 -0.9847 0.1323
vn -0.5991 -0.0129 0.8006
vn -0.9399 0.0182 0.3411
vn -0.5948 -0.2098 0.7760
vn -0.5660 0.2946 0.7700
vn -0.9473 0.2473 0.2038
vn -0.0060 -0.9966 0.0816
vn -0.3241 -0.8604 0.3933
vn -0.0282 -0.9996 0.0017
vn -0.5785 -0.1848 0.7945
vn -0.4413 -0.6074 0.6605
vn -0.5705 -0.0134 0.8212
vn 0.0159 -0.9782 0.2072
vn -0.3783 -0.7731 0.5092
vn 0.0346 -0.6010 0.7985
vn -0.3858 -0.5121 0.7674
vn -0.4559 -0.1238 0.8814
vn -0.4505 -0.0155 0.8927
vn 0.0510 -0.0911 0.9945
vn 0.0573 -0.0166 0.9982
vn 0.0458 0.0080 0.9989
vn -0.4569 0.0941 0.8845
vn -0.9566 0.0195 0.2908
vn -0.9579 0.0345 0.2851
vn -0.9185 0.3869 0.0821
vn -0.5137 0.8453 0.1468
vn -0.6916 0.6871 0.2228
vn 0.5367 -0.7669 0.3518
vn 0.1924 -0.8846 0.4249
vn 0.4403 -0.0792 0.8944
vn 0.4339 -0.0246 0.9006
vn 0.1757 0.2568 -0.9504
vn -0.9539 0.2747 -0.1206
vn -0.6614 0.7489 -0.0414
vn -0.5482 0.8362 -0.0152
vn -0.5295 0.7938 -0.2991
vn -0.5172 0.4425 -0.7326
vn 0.0302 0.8703 -0.4916
vn -0.6325 0.7638 0.1290
vn -0.8152 0.5663 0.1213
vn -0.4912 0.4740 0.7308
vn -0.2363 0.6858 0.6883
vn 0.0007 0.8603 -0.5097
vn 0.0163 0.8647 -0.5020
vn 0.0266 0.8555 -0.5171
vn 0.4558 -0.0230 0.8898
vn -0.9970 -0.0565 0.0530
vn 0.5759 0.2985 -0.7611
vn -0.0165 0.8735 -0.4866
vn 0.0393 0.8685 -0.4941
vn -0.0796 0.5728 -0.8158
vn 0.0906 0.7508 -0.6543
vn -0.0504 0.8906 -0.4521
vn -0.0018 0.8667 -0.4987
vn -0.0156 0.7816 0.6236
vn -0.5723 0.7221 0.3887
vn -0.6853 0.1346 0.7157
vn -0.5514 0.3413 0.7612
vn -0.6725 0.3866 0.6311
vn -0.3318 0.8937 0.3021
vn -0.4750 0.8442 0.2486
vn 0.0482 0.7652 0.6419
vn -0.3967 0.7236 0.5649
vn 0.0486 0.2513 0.9667
vn -0.2530 0.8147 0.5218
vn -0.0396 0.8199 0.5711
vn -0.1635 0.8731 0.4593
vn 0.0697 0.6704 0.7387
vn -0.0078 0.7053 0.7089
vn 0.4513 0.1731 0.8754
vn 0.3556 0.6570 0.6648
vn 0.2594 0.5821 0.7706
vn 0.6702 0.2928 0.6820
vn 0.0939 0.9359 -0.3395
vn -0.0783 0.9968 -0.0184
vn -0.0218 -0.9981 0.0569
vn -0.0040 -0.9995 -0.0323
vn 0.0203 -0.9992 0.0331
vn 0.2880 -0.7722 -0.5663
vn 0.0120 -0.9986 -0.0514
vn 0.1692 -0.9850 -0.0334
vn 0.4432 -0.0608 -0.8943
vn 0.5740 -0.0547 -0.8170
vn 0.4765 -0.5370 -0.6961
vn 0.4526 0.0557 -0.8900
vn 0.4628 -0.7920 -0.3982
vn 0.1171 -0.9906 0.0711
vn 0.4866 0.5167 -0.7044
vn 0.1874 -0.9732 0.1335
vn 0.7494 0.1348 -0.6483
vn 0.9885 0.1506 -0.0166
vn 0.9891 -0.1438 0.0316
vn 0.7991 -0.0066 -0.6012
vn 0.6410 0.5104 -0.5732
vn 0.9256 0.1170 -0.3599
vn 0.8393 0.4586 -0.2921
vn 0.3548 0.7190 -0.5977
vn 0.9948 -0.1017 0.0020
vn 0.8605 -0.4668 -0.2042
vn 0.9917 0.1032 -0.0767
vn 0.9546 -0.1022 -0.2798
vn 0.4226 0.5029 -0.7540
vn 0.8443 0.3351 -0.4182
vn 0.7295 0.0040 0.6840
vn 0.7517 -0.2090 0.6255
vn 0.8384 -0.0161 0.5448
vn 0.6276 -0.2196 0.7469
vn 0.4569 -0.5579 0.6928
vn 0.7939 -0.2774 0.5411
vn 0.7734 -0.4548 0.4416
vn 0.7292 0.0105 0.6843
vn 0.7769 -0.0163 0.6294
vn 0.7567 -0.0170 0.6535
vn 0.7809 -0.0608 0.6217
vn 0.8073 0.0053 0.5901
vn 0.4717 -0.8116 0.3447
vn 0.3713 -0.9263 -0.0646
vn 0.6742 -0.5996 0.4312
vn 0.8209 -0.0649 0.5673
vn 0.8750 -0.1288 0.4668
vn 0.9012 -0.0486 -0.4306
vn 0.8096 -0.0083 0.5869
vn 0.1715 0.9610 -0.2170
vn 0.1637 0.9851 0.0537
vn 0.4752 0.8796 0.0228
vn 0.2434 0.9542 -0.1738
vn 0.2554 0.2315 -0.9387
vn 0.1101 0.7386 -0.6651
vn 0.7147 0.0859 0.6942
vn 0.7702 0.0272 0.6372
vn 0.6128 -0.1218 0.7808
vn 0.1041 0.5642 -0.8190
vn 0.3391 0.5560 -0.7589
vn 0.3490 0.9345 -0.0704
vn 0.4496 0.7982 -0.4009
vn 0.0958 0.8376 -0.5378
vn 0.9151 -0.0496 -0.4003
vn 0.9202 0.1450 -0.3637
vn 0.9830 -0.0009 -0.1837
vn 0.8924 0.0371 -0.4498
vn 0.9456 0.2589 0.1970
vn 0.9344 0.3302 -0.1338
vn 0.9093 0.3601 -0.2087
vn 0.6798 0.7034 0.2074
vn 0.8328 0.1628 0.5291
vn 0.1602 0.8553 0.4927
vn 0.0053 0.6772 0.7358
vn 0.3874 0.4681 0.7942
vn 0.0938 0.7363 0.6701
vn 0.8656 0.0490 0.4984
vn 0.7830 0.0092 0.6219
vn 0.8054 -0.0330 0.5918
vn 0.0453 -0.9870 -0.1543
vn 0.7937 0.0166 0.6081
vn 0.6735 0.3761 0.6363
vn 0.8238 -0.0136 0.5668
vn 0.9017 0.0342 0.4310
vn 0.7734 -0.0713 0.6299
vn 0.7903 0.0689 0.6089
vn 0.8325 -0.0700 0.5496
vn 0.7976 0.4827 0.3616
vn 0.9346 -0.0137 0.3555
vn 0.8089 -0.0058 0.5879
vn 0.1854 0.7670 -0.6143
vn 0.0868 0.9795 -0.1819
vn 0.7011 0.4179 -0.5778
vt 0.074843 0.308979
vt 0.081346 0.332930
vt 0.060946 0.338495
vt 0.055551 0.313263
vt 0.630438 0.281113
vt 0.648653 0.281482
vt 0.647837 0.317923
vt 0.629687 0.317547
vt 0.043766 0.342075
vt 0.030729 0.321581
vt 0.262787 0.261061
vt 0.211510 0.259721
vt 0.208775 0.224640
vt 0.263025 0.224800
vt 0.019676 0.278047
vt 0.047787 0.272856
vt 0.631115 0.244627
vt 0.650934 0.243540
vt 0.091972 0.363266
vt 0.069869 0.370277
vt 0.116779 0.325088
vt 0.123102 0.353283
vt 0.629313 0.335618
vt 0.648546 0.336697
vt 0.629020 0.354290
vt 0.154419 0.435324
vt 0.195697 0.437493
vt 0.196126 0.452405
vt 0.168940 0.393854
vt 0.204108 0.402804
vt 0.198650 0.419520
vt 0.163583 0.413240
vt 0.575045 0.316423
vt 0.613617 0.317232
vt 0.613523 0.337717
vt 0.573667 0.342736
vt 0.575848 0.280076
vt 0.613590 0.280792
vt 0.576809 0.216394
vt 0.577166 0.188963
vt 0.615074 0.189546
vt 0.614486 0.216959
vt 0.203898 0.383862
vt 0.172163 0.376527
vt 0.160820 0.347443
vt 0.204573 0.345314
vt 0.187718 0.470298
vt 0.146578 0.451066
vt 0.613897 0.244334
vt 0.573480 0.371444
vt 0.518655 0.369538
vt 0.520844 0.340043
vt 0.253473 0.443289
vt 0.247503 0.460116
vt 0.522029 0.243076
vt 0.576435 0.243735
vt 0.521670 0.279019
vt 0.260291 0.349258
vt 0.256254 0.392984
vt 0.522131 0.215816
vt 0.483416 0.340775
vt 0.481788 0.368013
vt 0.520686 0.314979
vt 0.094133 0.265410
vt 0.103130 0.300561
vt 0.067417 0.269629
vt 0.651408 0.217435
vt 0.631553 0.217238
vt 0.038364 0.195852
vt 0.016824 0.198178
vt 0.017356 0.164800
vt 0.037129 0.161545
vt 0.017407 0.231373
vt 0.041102 0.228693
vt 0.521356 0.169470
vt 0.577395 0.170643
vt 0.522302 0.188376
vt 0.109759 0.087905
vt 0.074660 0.108175
vt 0.062045 0.085349
vt 0.099836 0.066064
vt 0.120361 0.107873
vt 0.085721 0.131671
vt 0.614961 0.170374
vt 0.633087 0.170468
vt 0.651886 0.191341
vt 0.631992 0.189887
vt 0.116816 0.057237
vt 0.088332 0.043974
vt 0.108046 0.043416
vt 0.126558 0.078887
vt 0.577555 0.152394
vt 0.613841 0.151958
vt 0.178447 0.026204
vt 0.145227 0.037611
vt 0.128858 0.032907
vt 0.175098 0.009740
vt 0.147158 0.048726
vt 0.152665 0.069604
vt 0.181395 0.040247
vt 0.185316 0.060667
vt 0.189088 0.079366
vt 0.158904 0.088612
vt 0.611820 0.369666
vt 0.083181 0.227560
vt 0.062869 0.229219
vt 0.082756 0.196629
vt 0.083744 0.163496
vt 0.136622 0.158318
vt 0.136337 0.195138
vt 0.526099 0.154650
vt 0.539988 0.150000
vt 0.226477 0.011285
vt 0.235043 0.034509
vt 0.237924 0.055543
vt 0.252229 0.410942
vt 0.134426 0.292971
vt 0.139562 0.261628
vt 0.173271 0.259068
vt 0.163110 0.291575
vt 0.157773 0.323225
vt 0.206532 0.318222
vt 0.173255 0.226418
vt 0.138486 0.226387
vt 0.172619 0.194775
vt 0.206192 0.186202
vt 0.134343 0.374715
vt 0.124972 0.405963
vt 0.261933 0.321807
vt 0.208690 0.295629
vt 0.262375 0.296892
vt 0.239101 0.075334
vt 0.061023 0.195761
vt 0.060443 0.160278
vt 0.252323 0.429546
vt 0.281490 0.322188
vt 0.302141 0.321820
vt 0.301982 0.354420
vt 0.280645 0.351744
vt 0.280754 0.296690
vt 0.299057 0.295687
vt 0.262401 0.184792
vt 0.145288 0.136546
vt 0.135599 0.098641
vt 0.163319 0.099887
vt 0.153142 0.120644
vt 0.173335 0.142689
vt 0.170848 0.163798
vt 0.196462 0.120004
vt 0.175343 0.122417
vt 0.192828 0.097195
vt 0.202470 0.164516
vt 0.198638 0.134478
vt 0.199924 0.145464
vt 0.243774 0.486140
vt 0.258936 0.140328
vt 0.260354 0.155710
vt 0.627129 0.158962
vt 0.239184 0.086104
vt 0.249502 0.110825
vt 0.258423 0.121284
vt 0.250698 0.096223
vt 0.280025 0.260578
vt 0.280675 0.225279
vt 0.486235 0.278405
vt 0.484990 0.313591
vt 0.486015 0.243195
vt 0.283523 0.486140
vt 0.282323 0.465131
vt 0.448444 0.309654
vt 0.447689 0.335846
vt 0.284489 0.450005
vt 0.317286 0.455109
vt 0.314336 0.466254
vt 0.286366 0.427961
vt 0.444783 0.365501
vt 0.452496 0.278210
vt 0.319433 0.431698
vt 0.468196 0.243798
vt 0.405273 0.367062
vt 0.407060 0.331583
vt 0.426960 0.333096
vt 0.427301 0.368601
vt 0.331562 0.458628
vt 0.324266 0.477730
vt 0.335619 0.432558
vt 0.338118 0.341912
vt 0.354524 0.310297
vt 0.376782 0.320299
vt 0.372255 0.356702
vt 0.428529 0.308934
vt 0.428185 0.276976
vt 0.410787 0.308003
vt 0.414202 0.273016
vt 0.388614 0.363163
vt 0.390421 0.325642
vt 0.268515 0.032133
vt 0.251017 0.033618
vt 0.247393 0.012480
vt 0.269723 0.007706
vt 0.252547 0.054954
vt 0.320780 0.032417
vt 0.328211 0.012806
vt 0.361602 0.038170
vt 0.362332 0.019406
vt 0.322375 0.060182
vt 0.267448 0.054813
vt 0.319858 0.084029
vt 0.266398 0.077956
vt 0.359183 0.063802
vt 0.439445 0.238139
vt 0.467103 0.225974
vt 0.446241 0.221060
vt 0.428343 0.214551
vt 0.434251 0.194874
vt 0.453163 0.202005
vt 0.423073 0.232752
vt 0.397865 0.272980
vt 0.405942 0.228838
vt 0.296950 0.259956
vt 0.297998 0.226211
vt 0.322771 0.228714
vt 0.316159 0.262501
vt 0.324863 0.321644
vt 0.321527 0.350500
vt 0.316657 0.293426
vt 0.311553 0.130021
vt 0.263282 0.100460
vt 0.315928 0.108444
vt 0.320562 0.412713
vt 0.316320 0.394621
vt 0.335299 0.392018
vt 0.340048 0.412481
vt 0.329688 0.261040
vt 0.332209 0.278012
vt 0.329702 0.288759
vt 0.360526 0.292832
vt 0.379933 0.301043
vt 0.392981 0.305244
vt 0.367522 0.268242
vt 0.383008 0.270643
vt 0.345276 0.286652
vt 0.354392 0.263205
vt 0.335481 0.229971
vt 0.353823 0.225007
vt 0.281801 0.184351
vt 0.282344 0.160965
vt 0.302773 0.151448
vt 0.301981 0.184730
vt 0.252119 0.076041
vt 0.337400 0.163609
vt 0.346042 0.139630
vt 0.485132 0.216925
vt 0.356040 0.089297
vt 0.325059 0.187103
vt 0.466425 0.207500
vt 0.484667 0.190286
vt 0.352020 0.113561
vt 0.351974 0.205627
vt 0.349086 0.183049
vt 0.371781 0.183216
vt 0.371371 0.204969
vt 0.409852 0.209814
vt 0.414371 0.189298
vt 0.394439 0.185459
vt 0.391181 0.206612
vt 0.338007 0.208798
vt 0.370983 0.224335
vt 0.388389 0.225948
vt 0.121146 0.428242
vt 0.118542 0.445760
vt 0.284448 0.393166
vt 0.285006 0.406473
vt 0.053416 0.064489
vt 0.052033 0.374878
vt 0.341408 0.295391
s 1
usemtl rock2
f 3/1/1 9/2/2 8/3/3 1/4/4
f 13/5/5 7/6/6 6/7/7 12/8/8
f 1/4/4 8/3/3 5/9/9 6/10/7
f 152/11/10 69/12/11 96/13/12 183/14/13
f 1/4/4 6/10/7 7/15/6 2/16/14
f 31/17/15 27/18/16 7/6/6 13/5/5
f 9/2/2 15/19/17 14/20/18 8/3/3
f 55/21/19 58/22/20 15/19/17 9/2/2
f 11/23/21 5/24/9 10/25/22
f 12/8/8 6/7/7 5/24/9 11/23/21
f 17/26/23 23/27/24 18/28/25
f 63/29/26 64/30/27 24/31/28 83/32/29
f 21/33/30 86/34/31 45/35/32 20/36/33
f 22/37/34 43/38/35 86/34/31 21/33/30
f 222/39/36 47/40/37 44/41/38 221/42/39
f 65/43/40 62/44/41 235/45/42 66/46/43
f 19/47/44 16/48/45 17/26/23 18/28/25
f 31/17/15 13/5/5 43/38/35 88/49/46
f 19/50/44 98/51/47 99/52/48 20/36/33
f 23/27/24 102/53/49 97/54/50 18/28/25
f 128/55/51 46/56/52 22/37/34 101/57/53
f 65/43/40 66/46/43 149/58/54 148/59/55
f 63/29/26 62/44/41 65/43/40 64/30/27
f 46/56/52 128/55/51 225/60/56 222/39/36
f 106/61/57 99/52/48 98/51/47 105/62/58
f 100/63/59 21/33/30 20/36/33 99/52/48
f 101/57/53 22/37/34 21/33/30 100/63/59
f 54/64/60 53/65/61 3/1/1 4/66/62
f 217/67/63 27/18/16 31/17/15 220/68/64
f 218/69/65 217/70/63 28/71/66 29/72/67
f 27/73/16 25/74/68 2/16/14 7/15/6
f 130/75/69 48/76/70 47/40/37 129/77/71
f 37/78/72 30/79/73 29/80/67 35/81/74
f 73/82/75 71/83/76 30/79/73 37/78/72
f 48/76/70 85/84/77 44/41/38 47/40/37
f 33/85/78 28/86/66 32/87/79
f 36/88/80 35/81/74 33/89/78 34/90/81
f 38/91/82 37/78/72 35/81/74 36/88/80
f 49/92/83 39/93/84 85/84/77 48/76/70
f 50/94/85 40/95/86 39/96/84 49/97/83
f 41/98/87 36/88/80 34/90/81 39/96/84 40/95/86
f 42/99/88 38/91/82 36/88/80 41/98/87
f 51/100/89 41/98/87 40/95/86 50/94/85
f 52/101/90 42/99/88 41/98/87 51/100/89
f 89/102/91 79/103/92 42/99/88 52/101/90
f 222/39/36 225/60/56 129/77/71 47/40/37
f 221/42/39 44/41/38 32/87/79 220/68/64
f 45/35/32 16/104/45 19/50/44 20/36/33
f 88/49/46 43/38/35 22/37/34 46/56/52
f 70/105/93 54/64/60 4/66/62 26/106/94
f 223/107/95 71/108/76 75/109/96 224/110/97
f 131/111/98 126/112/99 49/92/83 48/76/70 130/75/69
f 126/113/99 50/94/85 49/97/83
f 127/114/100 51/100/89 50/94/85 126/113/99
f 135/115/101 52/101/90 51/100/89 127/114/100
f 65/43/40 148/59/55 147/116/102 64/30/27
f 56/117/103 53/65/61 54/64/60 57/118/104
f 61/119/105 59/120/106 56/117/103 57/118/104
f 235/45/42 58/22/20 55/21/19 60/121/107
f 56/117/103 55/21/19 53/65/61
f 67/122/108 66/46/43 235/45/42 60/121/107
f 78/123/109 61/119/105 57/118/104 72/124/110
f 69/12/11 61/119/105 78/123/109 96/13/12
f 81/125/111 95/126/112 96/13/12 78/123/109
f 58/127/20 63/29/26 83/32/29 15/128/17
f 149/58/54 66/46/43 67/122/108 150/129/113
f 68/130/114 151/131/115 150/129/113 67/122/108
f 175/132/116 89/102/91 52/101/90 135/115/101
f 223/107/95 219/133/117 30/134/73 71/108/76
f 64/30/27 147/116/102 103/135/118 24/31/28
f 209/136/119 154/137/120 153/138/121 208/139/122
f 210/140/123 155/141/124 154/137/120 209/136/119
f 152/11/10 151/131/115 68/130/114 69/12/11
f 95/126/112 182/142/125 183/14/13 96/13/12
f 54/64/60 70/105/93 72/124/110 57/118/104
f 53/65/61 55/21/19 9/2/2 3/1/1
f 76/143/126 75/109/96 71/83/76 73/82/75
f 74/144/127 73/82/75 37/78/72 38/91/82
f 80/145/128 77/146/129 74/144/127 79/103/92
f 58/127/20 235/45/42 62/44/41 63/29/26
f 79/103/92 74/144/127 38/91/82 42/99/88
f 31/17/15 88/49/46 221/42/39 220/68/64
f 76/143/126 87/147/130 82/148/131 75/109/96
f 92/149/132 84/150/133 80/145/128 90/151/134
f 95/126/112 81/125/111 82/148/131 93/152/135
f 80/145/128 84/150/133 77/146/129
f 87/147/130 84/150/133 92/149/132 91/153/136
f 90/151/134 80/145/128 79/103/92 89/102/91
f 45/35/32 86/34/31 12/8/8 11/23/21
f 77/146/129 84/150/133 87/147/130 76/143/126
f 87/147/130 94/154/137 93/152/135 82/148/131
f 98/155/47 19/47/44 18/28/25 97/54/50
f 221/42/39 88/49/46 46/56/52 222/39/36
f 94/154/137 181/156/138 180/157/139 93/152/135
f 86/34/31 43/38/35 13/5/5 12/8/8
f 85/84/77 39/93/84 34/158/81 33/85/78
f 94/154/137 87/147/130 91/153/136
f 177/159/140 90/151/134 89/102/91 175/132/116
f 92/149/132 179/160/141 178/161/142 91/153/136
f 179/160/141 92/149/132 90/151/134 177/159/140 176/162/143
f 181/156/138 94/154/137 91/153/136 178/161/142
f 93/152/135 180/157/139 182/142/125 95/126/112
f 81/125/111 78/123/109 72/124/110 224/110/97
f 211/163/144 152/11/10 183/14/13 214/164/145
f 108/165/146 101/57/53 100/63/59 107/166/147
f 137/167/148 128/55/51 101/57/53 108/165/146
f 105/168/58 98/155/47 97/54/50 104/169/149
f 115/170/150 107/166/147 106/61/57 114/171/151
f 107/166/147 100/63/59 99/52/48 106/61/57
f 109/172/152 117/173/153 112/174/154 104/169/149
f 103/135/118 110/175/155 109/172/152 102/53/49
f 114/171/151 106/61/57 105/62/58 113/176/156
f 116/177/157 108/165/146 107/166/147 115/170/150
f 110/175/155 111/178/158 117/173/153 109/172/152
f 116/177/157 141/179/159 137/167/148 108/165/146
f 119/180/160 123/181/161 120/182/162 118/183/163
f 117/173/153 118/184/163 113/185/156 112/174/154
f 111/178/158 119/186/160 118/184/163 117/173/153
f 158/187/164 164/188/165 205/189/166 207/190/167
f 120/182/162 121/191/168 115/170/150 114/171/151
f 121/191/168 122/192/169 116/177/157 115/170/150
f 124/193/170 125/194/171 122/192/169 121/191/168
f 162/195/172 163/196/173 123/181/161 119/180/160
f 123/181/161 124/193/170 121/191/168 120/182/162
f 132/197/174 133/198/175 131/199/98 130/200/69
f 133/198/175 127/114/100 126/113/99 131/199/98
f 134/201/176 135/115/101 127/114/100 133/198/175
f 139/202/177 132/197/174 130/200/69 138/203/178
f 143/204/179 139/202/177 138/203/178 142/205/180
f 140/206/181 136/207/182 132/197/174 139/202/177
f 185/208/183 184/209/184 136/207/182 140/206/181
f 136/207/182 134/201/176 133/198/175 132/197/174
f 144/210/185 140/206/181 139/202/177 143/204/179
f 122/192/169 145/211/186 141/179/159 116/177/157
f 226/212/187 141/179/159 145/211/186 229/213/188
f 230/214/189 144/215/185 143/216/179 229/213/188
f 122/192/169 125/194/171 146/217/190 145/211/186
f 146/217/190 125/194/171 170/218/191 195/219/192
f 74/144/127 77/146/129 76/143/126 73/82/75
f 211/163/144 156/220/193 155/141/124 210/140/123
f 189/221/194 193/222/195 161/223/196 156/220/193
f 154/137/120 159/224/197 158/225/164 153/138/121
f 155/141/124 160/226/198 159/224/197 154/137/120
f 156/220/193 161/223/196 160/226/198 155/141/124
f 186/227/199 178/161/142 201/228/200 200/229/201
f 157/230/202 204/231/203 207/232/167 162/233/172
f 207/190/167 205/189/166 163/196/173 162/195/172
f 209/136/119 208/139/122 149/58/54 150/129/113
f 161/223/196 168/234/204 167/235/205 166/236/206 160/226/198
f 157/230/202 162/233/172 119/186/160 111/178/158
f 164/188/165 171/237/207 206/238/208 205/189/166
f 210/140/123 209/136/119 150/129/113 151/131/115
f 169/239/209 170/218/191 125/194/171 124/193/170
f 163/196/173 169/239/209 124/193/170 123/181/161
f 171/237/207 172/240/210 199/241/211 206/238/208
f 165/242/212 173/243/213 172/240/210 171/237/207
f 168/234/204 173/243/213 165/242/212 167/235/205
f 26/106/94 4/66/62 2/16/14 25/74/68
f 173/243/213 168/234/204 198/244/214 197/245/215
f 176/162/143 201/228/200 178/161/142 179/160/141
f 213/246/216 212/247/217 187/248/218 188/249/219
f 213/246/216 188/249/219 189/221/194 214/164/145
f 174/250/220 175/132/116 135/115/101 134/201/176
f 176/162/143 177/159/140 175/132/116 174/250/220
f 187/248/218 181/156/138 178/161/142 186/227/199
f 192/251/221 187/248/218 186/227/199 191/252/222
f 184/209/184 174/250/220 134/201/176 136/207/182
f 181/156/138 187/248/218 212/247/217 180/157/139
f 225/60/56 128/55/51 137/167/148 228/253/223
f 190/254/224 185/208/183 140/206/181 144/210/185
f 194/255/225 193/222/195 189/221/194 188/249/219
f 226/212/187 142/256/180 138/257/178 228/253/223
f 193/222/195 198/244/214 168/234/204 161/223/196
f 191/252/222 186/227/199 200/229/201 203/258/226
f 233/259/227 192/260/221 191/261/222 231/262/228
f 188/249/219 187/248/218 192/251/221 194/255/225
f 232/263/229 190/264/224 144/215/185 230/214/189
f 231/262/228 191/261/222 203/265/226 234/266/230
f 227/267/231 194/255/225 192/260/221 233/259/227
f 194/255/225 227/267/231 198/244/214 193/222/195
f 219/133/117 218/69/65 29/72/67 30/134/73
f 172/240/210 196/268/232 202/269/233 199/241/211
f 173/243/213 197/245/215 196/268/232 172/240/210
f 24/31/28 103/135/118 102/53/49 23/27/24
f 14/270/18 17/26/23 16/48/45 10/271/22
f 4/66/62 3/1/1 1/4/4 2/16/14
f 102/53/49 109/172/152 104/169/149 97/54/50
f 199/241/211 202/269/233 195/219/192 170/218/191
f 234/266/230 203/265/226 190/264/224 232/263/229
f 201/228/200 176/162/143 174/250/220 184/209/184
f 203/258/226 200/229/201 185/208/183 190/254/224
f 200/229/201 201/228/200 184/209/184 185/208/183
f 205/189/166 206/238/208 169/239/209 163/196/173
f 206/238/208 199/241/211 170/218/191 169/239/209
f 207/232/167 204/231/203 153/138/121 158/225/164
f 215/272/234 208/139/122 153/138/121 204/231/203
f 216/273/235 215/272/234 204/231/203 157/230/202
f 216/273/235 157/230/202 111/178/158 110/175/155
f 147/116/102 216/273/235 110/175/155 103/135/118
f 147/116/102 148/59/55 215/272/234 216/273/235
f 148/59/55 149/58/54 208/139/122 215/272/234
f 182/142/125 213/246/216 214/164/145 183/14/13
f 182/142/125 180/157/139 212/247/217 213/246/216
f 61/119/105 69/12/11 68/130/114 59/120/106
f 68/130/114 67/122/108 60/121/107 59/120/106
f 152/11/10 211/163/144 210/140/123 151/131/115
f 156/220/193 211/163/144 214/164/145 189/221/194
f 17/26/23 83/32/29 24/31/28 23/27/24
f 202/269/233 234/266/230 232/263/229 195/219/192
f 26/106/94 25/74/68 218/69/65 219/133/117
f 198/244/214 227/267/231 233/259/227 197/245/215
f 196/268/232 231/262/228 234/266/230 202/269/233
f 195/219/192 232/263/229 230/214/189 146/217/190
f 197/245/215 233/259/227 231/262/228 196/268/232
f 141/179/159 226/212/187 228/253/223 137/167/148
f 129/77/71 225/60/56 228/253/223 138/257/178
f 146/217/190 230/214/189 229/213/188 145/211/186
f 142/256/180 226/212/187 229/213/188 143/216/179
f 70/105/93 26/106/94 219/133/117 223/107/95
f 70/105/93 223/107/95 224/110/97 72/124/110
f 44/41/38 85/84/77 33/85/78 32/87/79
f 25/74/68 27/73/16 217/70/63 218/69/65
f 28/86/66 217/67/63 220/68/64 32/87/79
f 224/110/97 75/109/96 82/148/131 81/125/111
f 35/81/74 29/80/67 28/274/66 33/89/78
f 59/120/106 60/121/107 55/21/19 56/117/103
f 8/3/3 14/20/18 10/275/22 5/9/9
f 113/185/156 105/168/58 104/169/149 112/174/154
f 165/242/212 171/237/207 164/188/165 236/276/236
f 166/236/206 167/235/205 165/242/212 236/276/236
f 159/224/197 160/226/198 166/236/206 236/276/236
f 159/224/197 236/276/236 164/188/165 158/187/164
f 118/183/163 120/182/162 114/171/151 113/176/156
f 10/25/22 16/104/45 45/35/32 11/23/21
f 15/128/17 83/32/29 17/26/23 14/270/18
f 138/257/178 130/75/69 129/77/71
