# Blender 5.2.0 LTS
# www.blender.org
mtllib bush_dark.mtl
o Plane.078
v -0.014021 0.266258 0.965834
v 0.329947 0.266258 0.022141
v -0.659706 0.998770 0.730487
v -0.315738 0.998770 -0.213206
vn 0.6852 0.6842 0.2497
vt 0.036725 0.742721
vt 0.267993 0.742721
vt 0.267993 0.973990
vt 0.036725 0.973990
s 0
usemtl Grass
f 1/1/1 2/2/1 4/3/1 3/4/1
o Plane.169
v -0.466360 -0.008682 -0.001230
v 0.466539 -0.008682 -0.001230
v -0.466360 2.730381 -0.001230
v 0.466539 2.730381 -0.001230
vn -0.0000 -0.0000 1.0000
vt 0.560449 0.506451
vt 0.689222 0.506451
vt 0.689222 0.794231
vt 0.560449 0.794231
s 0
usemtl Grass
f 5/5/2 6/6/2 8/7/2 7/8/2
o Plane.080
v -0.233150 0.431700 0.944736
v -0.272736 0.429658 -0.058907
v -0.125336 1.430303 0.938452
v -0.164922 1.428261 -0.065191
vn 0.9934 -0.1075 -0.0390
vt 0.036725 0.742721
vt 0.267993 0.742721
vt 0.267993 0.973990
vt 0.036725 0.973990
s 0
usemtl Grass
f 9/9/3 10/10/3 12/11/3 11/12/3
o Plane.081
v -0.273505 1.155518 -0.002649
v 0.374383 0.399641 0.130621
v -0.251214 0.999722 -0.994668
v 0.396675 0.243844 -0.861398
vn 0.7638 0.6400 -0.0833
vt 0.036725 0.742721
vt 0.267993 0.742721
vt 0.267993 0.973990
vt 0.036725 0.973990
s 0
usemtl Grass
f 13/13/4 14/14/4 16/15/4 15/16/4
o Plane.082
v -0.460659 1.107680 -0.176615
v -0.360828 0.130527 -0.386562
v 0.483998 1.268835 -0.477486
v 0.583829 0.291683 -0.687433
vn 0.3249 -0.1668 0.9309
vt 0.036725 0.742721
vt 0.267993 0.742721
vt 0.267993 0.973990
vt 0.036725 0.973990
s 0
usemtl Grass
f 17/17/5 18/18/5 20/19/5 19/20/5
o Plane.083
v -0.940850 0.679410 0.461820
v 0.035109 0.444263 0.428923
v -0.853473 1.164499 -0.413351
v 0.122485 0.929352 -0.446249
vn 0.2198 0.8438 0.4896
vt 0.036725 0.742721
vt 0.267993 0.742721
vt 0.267993 0.973990
vt 0.036725 0.973990
s 0
usemtl Grass
f 21/21/6 22/22/6 24/23/6 23/24/6
o Plane.084
v -0.973870 0.495157 0.307692
v -0.109632 0.167157 -0.085219
v -0.708733 1.441606 0.100789
v 0.155505 1.113605 -0.292121
vn 0.4359 0.0740 0.8970
vt 0.036725 0.742721
vt 0.267993 0.742721
vt 0.267993 0.973990
vt 0.036725 0.973990
s 0
usemtl Grass
f 25/25/7 26/26/7 28/27/7 27/28/7
o Plane.085
v -0.029253 1.113220 -0.410476
v -0.252933 0.314527 0.156029
v 0.945361 0.875437 -0.360898
v 0.721681 0.076743 0.205606
vn 0.0943 0.5583 0.8243
vt 0.036725 0.742721
vt 0.267993 0.742721
vt 0.267993 0.973990
vt 0.036725 0.973990
s 0
usemtl Grass
f 29/29/8 30/30/8 32/31/8 31/32/8
o Plane.086
v 0.537076 0.290160 0.201324
v 0.315198 1.266679 0.123524
v 0.311805 0.161666 -0.769044
v 0.089927 1.138185 -0.846844
vn -0.9492 -0.1960 0.2463
vt 0.036725 0.742721
vt 0.267993 0.742721
vt 0.267993 0.973990
vt 0.036725 0.973990
s 0
usemtl Grass
f 33/33/9 34/34/9 36/35/9 35/36/9
o Plane.087
v -1.010951 0.256876 -0.257610
v -0.188139 0.263522 0.318416
v -0.624570 0.995446 -0.818051
v 0.198243 1.002092 -0.242025
vn -0.4254 0.6777 0.5998
vt 0.036725 0.742721
vt 0.267993 0.742721
vt 0.267993 0.973990
vt 0.036725 0.973990
s 0
usemtl Grass
f 37/37/10 38/38/10 40/39/10 39/40/10
o Plane.088
v -0.935725 0.423835 -0.463278
v 0.044066 0.431326 -0.242314
v -0.967994 1.421780 -0.354023
v 0.011797 1.429271 -0.133060
vn -0.2178 -0.1132 0.9694
vt 0.036725 0.742721
vt 0.267993 0.742721
vt 0.267993 0.973990
vt 0.036725 0.973990
s 0
usemtl Grass
f 41/41/11 42/42/11 44/43/11 43/44/11
o Plane.089
v -0.017715 1.156625 -0.255061
v -0.305810 0.395622 0.333791
v 0.936485 1.009887 0.022143
v 0.648389 0.248884 0.610995
vn -0.1235 0.6361 0.7617
vt 0.036725 0.742721
vt 0.267993 0.742721
vt 0.267993 0.973990
vt 0.036725 0.973990
s 0
usemtl Grass
f 45/45/12 46/46/12 48/47/12 47/48/12
o Plane.090
v 0.199172 1.111538 -0.391100
v 0.386481 0.135782 -0.243834
v 0.244194 1.269727 0.599768
v 0.431504 0.293972 0.747034
vn -0.9814 -0.1774 0.0729
vt 0.036725 0.742721
vt 0.267993 0.742721
vt 0.267993 0.973990
vt 0.036725 0.973990
s 0
usemtl Grass
f 49/49/13 50/50/13 52/51/13 51/52/13
o Plane.091
v -0.289074 0.680302 -1.021376
v -0.506838 0.439543 -0.070858
v 0.528703 1.172933 -0.709244
v 0.310939 0.932173 0.241274
vn -0.5386 0.8379 0.0888
vt 0.036725 0.742721
vt 0.267993 0.742721
vt 0.267993 0.973990
vt 0.036725 0.973990
s 0
usemtl Grass
f 53/53/14 54/54/14 56/55/14 55/56/14
o Plane.092
v -0.129718 0.497688 -1.014111
v 0.030125 0.168093 -0.078863
v -0.008260 1.444383 -0.701239
v 0.151583 1.114787 0.234008
vn -0.9798 0.0630 0.1897
vt 0.036725 0.742721
vt 0.267993 0.742721
vt 0.267993 0.973990
vt 0.036725 0.973990
s 0
usemtl Grass
f 57/57/15 58/58/15 60/59/15 59/60/15
o Plane.093
v 0.313630 1.116621 0.086086
v -0.167471 0.314091 -0.279096
v 0.016568 0.872470 1.013995
v -0.464534 0.069940 0.648813
vn -0.8265 0.5500 -0.1199
vt 0.036725 0.742721
vt 0.267993 0.742721
vt 0.267993 0.973990
vt 0.036725 0.973990
s 0
usemtl Grass
f 61/61/16 62/62/16 64/63/16 63/64/16
o Plane.094
v 0.506126 0.999743 0.398934
v 0.325996 0.012750 0.446566
v -0.476900 1.173811 0.288334
v -0.657030 0.186818 0.335966
vn 0.1000 -0.0662 -0.9928
vt 0.036725 0.742721
vt 0.267993 0.742721
vt 0.267993 0.973990
vt 0.036725 0.973990
s 0
usemtl Grass
f 65/65/17 66/66/17 68/67/17 67/68/17
o Plane.095
v -0.498078 0.815406 0.789399
v -0.154110 0.815406 -0.154294
v -1.143763 1.547918 0.554053
v -0.799795 1.547918 -0.389641
vn 0.6852 0.6842 0.2497
vt 0.036725 0.742721
vt 0.267993 0.742721
vt 0.267993 0.973990
vt 0.036725 0.973990
s 0
usemtl Grass
f 69/69/18 70/70/18 72/71/18 71/72/18
o Plane.096
v -0.152324 1.180332 0.940025
v -0.191911 1.178290 -0.063618
v -0.044510 2.178935 0.933741
v -0.084096 2.176893 -0.069902
vn 0.9934 -0.1075 -0.0390
vt 0.036725 0.742721
vt 0.267993 0.742721
vt 0.267993 0.973990
vt 0.036725 0.973990
s 0
usemtl Grass
f 73/73/19 74/74/19 76/75/19 75/76/19
o Plane.097
v -0.256794 1.038721 -0.746344
v 0.391095 0.282843 -0.613075
v -0.234502 0.882925 -1.738363
v 0.413386 0.127047 -1.605094
vn 0.7638 0.6400 -0.0833
vt 0.036725 0.742721
vt 0.267993 0.742721
vt 0.267993 0.973990
vt 0.036725 0.973990
s 0
usemtl Grass
f 77/77/20 78/78/20 80/79/20 79/80/20
o Plane.098
v 0.247530 1.228495 -0.402172
v 0.347361 0.251342 -0.612119
v 1.192187 1.389650 -0.703042
v 1.292019 0.412497 -0.912989
vn 0.3249 -0.1668 0.9309
vt 0.036725 0.742721
vt 0.267993 0.742721
vt 0.267993 0.973990
vt 0.036725 0.973990
s 0
usemtl Grass
f 81/81/21 82/82/21 84/83/21 83/84/21
o Plane.099
v -0.965752 1.047603 -0.202917
v 0.110489 0.788294 -0.239195
v -0.869398 1.582536 -1.168016
v 0.206844 1.323227 -1.204294
vn 0.2198 0.8438 0.4896
vt 0.036725 0.742721
vt 0.267993 0.742721
vt 0.267993 0.973990
vt 0.036725 0.973990
s 0
usemtl Grass
f 85/85/22 86/86/22 88/87/22 87/88/22
o Plane.100
v -0.775103 1.204690 0.152582
v 0.089136 0.876689 -0.240329
v -0.509965 2.151139 -0.054321
v 0.354273 1.823138 -0.447231
vn 0.4359 0.0740 0.8970
vt 0.036725 0.742721
vt 0.267993 0.742721
vt 0.267993 0.973990
vt 0.036725 0.973990
s 0
usemtl Grass
f 89/89/23 90/90/23 92/91/23 91/92/23
o Plane.101
v 0.701395 0.934959 -0.373308
v 0.477715 0.136265 0.193196
v 1.676009 0.697176 -0.323731
v 1.452329 -0.101518 0.242773
vn 0.0943 0.5583 0.8243
vt 0.036725 0.742721
vt 0.267993 0.742721
vt 0.267993 0.973990
vt 0.036725 0.973990
s 0
usemtl Grass
f 93/93/24 94/94/24 96/95/24 95/96/24
o Plane.102
v 0.368195 0.193831 -0.526141
v 0.146317 1.170349 -0.603940
v 0.142924 0.065337 -1.496508
v -0.078953 1.041855 -1.574308
vn -0.9492 -0.1960 0.2463
vt 0.036725 0.742721
vt 0.267993 0.742721
vt 0.267993 0.973990
vt 0.036725 0.973990
s 0
usemtl Grass
f 97/97/25 98/98/25 100/99/25 99/100/25
o Plane.103
v -0.721289 0.810566 -0.677761
v 0.101524 0.817213 -0.101735
v -0.334907 1.549136 -1.238202
v 0.487905 1.555783 -0.662176
vn -0.4254 0.6777 0.5998
vt 0.036725 0.742721
vt 0.267993 0.742721
vt 0.267993 0.973990
vt 0.036725 0.973990
s 0
usemtl Grass
f 101/101/26 102/102/26 104/103/26 103/104/26
o Plane.104
v -0.959917 1.171973 -0.381372
v 0.019874 1.179464 -0.160409
v -0.992186 2.169918 -0.272118
v -0.012395 2.177409 -0.051155
vn -0.2178 -0.1132 0.9694
vt 0.036725 0.742721
vt 0.267993 0.742721
vt 0.267993 0.973990
vt 0.036725 0.973990
s 0
usemtl Grass
f 105/105/27 106/106/27 108/107/27 107/108/27
o Plane.105
v 0.844911 1.170068 0.000736
v 0.161582 0.562932 0.417054
v 1.580163 0.635420 0.427850
v 0.896835 0.028285 0.844168
vn -0.0364 0.5927 0.8046
vt 0.036725 0.742721
vt 0.267993 0.742721
vt 0.267993 0.973990
vt 0.036725 0.973990
s 0
usemtl Grass
f 109/109/28 110/110/28 112/111/28 111/112/28
o Plane.106
v 0.348385 1.318194 0.324123
v 0.564124 0.194338 0.493741
v 0.400240 1.500393 1.465386
v 0.615980 0.376537 1.635004
vn -0.9814 -0.1774 0.0729
vt 0.036725 0.742721
vt 0.267993 0.742721
vt 0.267993 0.973990
vt 0.036725 0.973990
s 0
usemtl Grass
f 113/113/29 114/114/29 116/115/29 115/116/29
o Plane.107
v 0.323996 1.049617 -0.787377
v 0.106232 0.808857 0.163141
v 1.141773 1.542248 -0.475244
v 0.924009 1.301488 0.475274
vn -0.5386 0.8379 0.0888
vt 0.036725 0.742721
vt 0.267993 0.742721
vt 0.267993 0.973990
vt 0.036725 0.973990
s 0
usemtl Grass
f 117/117/30 118/118/30 120/119/30 119/120/30
o Plane.108
v -0.038664 1.207405 -0.779558
v 0.121180 0.877810 0.155690
v 0.082794 2.154100 -0.466686
v 0.242638 1.824504 0.468561
vn -0.9798 0.0630 0.1897
vt 0.036725 0.742721
vt 0.267993 0.742721
vt 0.267993 0.973990
vt 0.036725 0.973990
s 0
usemtl Grass
f 121/121/31 122/122/31 124/123/31 123/124/31
o Plane.109
v 0.090929 0.933586 0.781720
v -0.390173 0.131056 0.416538
v -0.206134 0.689435 1.709629
v -0.687235 -0.113095 1.344447
vn -0.8265 0.5500 -0.1199
vt 0.036725 0.742721
vt 0.267993 0.742721
vt 0.267993 0.973990
vt 0.036725 0.973990
s 0
usemtl Grass
f 125/125/32 126/126/32 128/127/32 127/128/32
o Plane.110
v -0.213606 1.218677 0.333431
v -0.442394 -0.034933 0.393929
v -1.462177 1.439766 0.192954
v -1.690965 0.186156 0.253453
vn 0.1000 -0.0662 -0.9928
vt 0.036725 0.742721
vt 0.267993 0.742721
vt 0.267993 0.973990
vt 0.036725 0.973990
s 0
usemtl Grass
f 129/129/33 130/130/33 132/131/33 131/132/33
o Plane.111
v -0.862595 0.815406 -0.602296
v 0.104770 0.815406 -0.331972
v -0.677637 1.547918 -1.264178
v 0.289729 1.547918 -0.993854
vn -0.1963 0.6842 0.7024
vt 0.036725 0.742721
vt 0.267993 0.742721
vt 0.267993 0.973990
vt 0.036725 0.973990
s 0
usemtl Grass
f 133/133/34 134/134/34 136/135/34 135/136/34
o Plane.112
v -0.986166 1.180332 -0.245976
v 0.011454 1.178290 -0.362683
v -0.971603 2.178935 -0.138965
v 0.026017 2.176893 -0.255672
vn 0.1153 -0.1075 0.9875
vt 0.036725 0.742721
vt 0.267993 0.742721
vt 0.267993 0.973990
vt 0.036725 0.973990
s 0
usemtl Grass
f 137/137/35 138/138/35 140/139/35 139/140/35
o Plane.113
v 0.687163 1.038721 -0.479915
v 0.604149 0.282843 0.176308
v 1.677955 0.882925 -0.534033
v 1.594941 0.127047 0.122190
vn 0.1419 0.6400 0.7552
vt 0.036725 0.742721
vt 0.267993 0.742721
vt 0.267993 0.973990
vt 0.036725 0.973990
s 0
usemtl Grass
f 141/141/36 142/142/36 144/143/36 143/144/36
o Plane.114
v 0.382822 1.228495 0.049400
v 0.599830 0.251342 0.132778
v 0.755500 1.389650 0.968101
v 0.972507 0.412497 1.051479
vn -0.9031 -0.1668 0.3956
vt 0.036725 0.742721
vt 0.267993 0.742721
vt 0.267993 0.973990
vt 0.036725 0.973990
s 0
usemtl Grass
f 145/145/37 146/146/37 148/147/37 147/148/37
o Plane.115
v -0.031526 1.342393 -0.869996
v 0.240154 0.707780 -0.140389
v 0.925316 1.628304 -0.977606
v 1.196996 0.993691 -0.247998
vn -0.1391 0.7210 0.6789
vt 0.036725 0.742721
vt 0.267993 0.742721
vt 0.267993 0.973990
vt 0.036725 0.973990
s 0
usemtl Grass
f 149/149/38 150/150/38 152/151/38 151/152/38
o Plane.116
v -0.248985 1.204690 -0.927507
v 0.209270 0.876689 -0.096069
v -0.022292 2.151139 -0.679079
v 0.435963 1.823138 0.152359
vn -0.8608 0.0740 0.5036
vt 0.036725 0.742721
vt 0.267993 0.742721
vt 0.267993 0.973990
vt 0.036725 0.973990
s 0
usemtl Grass
f 153/153/39 154/154/39 156/155/39 155/156/39
o Plane.117
v 0.388973 0.934959 0.504140
v -0.193064 0.136265 0.324720
v 0.414547 0.697176 1.479679
v -0.167491 -0.101518 1.300259
vn -0.8146 0.5583 0.1574
vt 0.036725 0.742721
vt 0.267993 0.742721
vt 0.267993 0.973990
vt 0.036725 0.973990
s 0
usemtl Grass
f 157/157/40 158/158/40 160/159/40 159/160/40
o Plane.118
v 0.515710 -0.028859 0.160167
v 0.576204 0.947660 -0.067040
v 1.465864 -0.157353 -0.139113
v 1.526357 0.819166 -0.366321
vn -0.3186 -0.1960 -0.9274
vt 0.036725 0.742721
vt 0.267993 0.742721
vt 0.267993 0.973990
vt 0.036725 0.973990
s 0
usemtl Grass
f 161/161/41 162/162/41 164/163/41 163/164/41
o Plane.119
v 0.583036 0.810566 -0.937755
v 0.072041 0.817213 -0.073052
v 1.171551 1.549136 -0.595649
v 0.660555 1.555783 0.269053
vn -0.6308 0.6777 -0.3780
vt 0.036725 0.742721
vt 0.267993 0.742721
vt 0.267993 0.973990
vt 0.036725 0.973990
s 0
usemtl Grass
f 165/165/42 166/166/42 168/167/42 167/168/42
o Plane.120
v 0.296357 1.189750 -1.260003
v 0.136563 1.198011 -0.163987
v 0.173496 2.290237 -1.286211
v 0.013701 2.298498 -0.190194
vn -0.9833 -0.1132 -0.1425
vt 0.036725 0.742721
vt 0.267993 0.742721
vt 0.267993 0.973990
vt 0.036725 0.973990
s 0
usemtl Grass
f 169/169/43 170/170/43 172/171/43 171/172/43
o Plane.121
v 0.153348 1.106830 0.524239
v -0.548405 0.230322 0.245595
v -0.080404 0.937820 1.644579
v -0.782158 0.061312 1.365936
vn -0.7689 0.6361 -0.0645
vt 0.036725 0.742721
vt 0.267993 0.742721
vt 0.267993 0.973990
vt 0.036725 0.973990
s 0
usemtl Grass
f 173/173/44 174/174/44 176/175/44 175/176/44
o Plane.122
v -0.369971 1.230129 0.092856
v -0.502385 0.254374 0.290943
v -1.354436 1.388319 0.214000
v -1.486850 0.412563 0.412087
vn -0.1482 -0.1774 -0.9729
vt 0.036725 0.742721
vt 0.267993 0.742721
vt 0.267993 0.973990
vt 0.036725 0.973990
s 0
usemtl Grass
f 177/177/45 178/178/45 180/179/45 179/180/45
o Plane.123
v 0.772771 1.049617 0.095995
v -0.191687 0.808858 -0.047973
v 0.524498 1.542248 0.935368
v -0.439960 1.301488 0.791399
vn -0.1300 0.8379 -0.5302
vt 0.036725 0.742721
vt 0.267993 0.742721
vt 0.267993 0.973990
vt 0.036725 0.973990
s 0
usemtl Grass
f 181/181/46 182/182/46 184/183/46 183/184/46
o Plane.124
v 0.684374 1.190714 0.217405
v -0.174735 0.885040 -0.203744
v 0.426095 2.146870 0.050288
v -0.433015 1.841196 -0.370861
vn 0.4498 -0.0345 -0.8925
vt 0.036725 0.742721
vt 0.267993 0.742721
vt 0.267993 0.973990
vt 0.036725 0.973990
s 0
usemtl Grass
f 185/185/47 186/186/47 188/187/47 187/188/47
o Plane.125
v -0.884843 1.131280 -0.071326
v -0.107699 0.652765 -0.490779
v -1.516213 0.468916 -0.485471
v -0.739068 -0.009600 -0.904924
vn -0.0790 0.5815 -0.8097
vt 0.036725 0.742721
vt 0.267993 0.742721
vt 0.267993 0.973990
vt 0.036725 0.973990
s 0
usemtl Grass
f 189/189/48 190/190/48 192/191/48 191/192/48
o Plane.126
v -0.408539 1.143727 -0.399197
v -0.476196 0.055316 -0.593205
v -0.370360 1.335681 -1.489404
v -0.438017 0.247270 -1.683411
vn 0.9975 -0.0662 0.0233
vt 0.036725 0.742721
vt 0.267993 0.742721
vt 0.267993 0.973990
vt 0.036725 0.973990
s 0
usemtl Grass
f 193/193/49 194/194/49 196/195/49 195/196/49
o Plane.127
v -0.710211 1.432040 0.257210
v 0.148064 1.443992 -0.442844
v -0.664006 2.536132 0.332709
v 0.194269 2.548084 -0.367345
vn 0.6307 -0.0792 0.7719
vt 0.036725 0.742721
vt 0.267993 0.742721
vt 0.267993 0.973990
vt 0.036725 0.973990
s 0
usemtl Grass
f 197/197/50 198/198/50 200/199/50 199/200/50
o Plane.128
v -0.764606 1.181473 -0.512216
v 0.077537 0.883225 -0.053178
v -0.466456 2.137743 -0.437885
v 0.375686 1.839496 0.021153
vn -0.4571 0.0736 0.8864
vt 0.036725 0.742721
vt 0.267993 0.742721
vt 0.267993 0.973990
vt 0.036725 0.973990
s 0
usemtl Grass
f 201/201/51 202/202/51 204/203/51 203/204/51
o Plane.129
v -0.447995 1.151054 -0.980368
v -0.036372 1.182806 -0.064710
v -0.582530 2.146090 -0.954394
v -0.170907 2.177842 -0.038737
vn -0.9023 -0.1327 0.4102
vt 0.036725 0.742721
vt 0.267993 0.742721
vt 0.267993 0.973990
vt 0.036725 0.973990
s 0
usemtl Grass
f 205/205/52 206/206/52 208/207/52 207/208/52
o Plane.130
v 0.789736 0.953992 -0.903691
v -0.410231 0.322392 0.393936
v 0.409480 2.720321 -0.395595
v -0.790487 2.088721 0.902031
vn -0.7418 0.0330 -0.6699
vt 0.036725 0.742721
vt 0.267993 0.742721
vt 0.267993 0.973990
vt 0.036725 0.973990
s 0
usemtl Grass
f 209/209/53 210/210/53 212/211/53 211/212/53
o Plane.131
v -0.572188 1.156789 -0.920083
v 0.120242 1.184216 -0.192994
v -0.676825 2.153822 -0.858044
v 0.015606 2.181248 -0.130955
vn -0.7169 -0.1180 0.6871
vt 0.036725 0.742721
vt 0.267993 0.742721
vt 0.267993 0.973990
vt 0.036725 0.973990
s 0
usemtl Grass
f 213/213/54 214/214/54 216/215/54 215/216/54
o Plane.132
v 0.414456 1.211205 -0.740956
v 0.034403 0.884568 0.129526
v 0.325661 2.160058 -0.423680
v -0.054391 1.833421 0.446803
vn -0.9214 0.0429 -0.3862
vt 0.036725 0.742721
vt 0.267993 0.742721
vt 0.267993 0.973990
vt 0.036725 0.973990
s 0
usemtl Grass
f 217/217/55 218/218/55 220/219/55 219/220/55
o Plane.133
v 1.094329 1.449641 -0.220390
v 0.261201 1.375603 0.335747
v 0.594822 2.000882 -0.895295
v -0.238306 1.926844 -0.339158
vn -0.2543 -0.8327 -0.4919
vt 0.036725 0.742721
vt 0.267993 0.742721
vt 0.267993 0.973990
vt 0.036725 0.973990
s 0
usemtl Grass
f 221/221/56 222/222/56 224/223/56 223/224/56
o Plane.134
v 0.477120 1.232206 0.445157
v -0.251152 0.873868 -0.146522
v 0.152968 2.167973 0.277414
v -0.575305 1.809634 -0.314265
vn 0.6084 0.0690 -0.7906
vt 0.036725 0.742721
vt 0.267993 0.742721
vt 0.267993 0.973990
vt 0.036725 0.973990
s 0
usemtl Grass
f 225/225/57 226/226/57 228/227/57 227/228/57
o Plane.135
v -0.309211 0.373863 -0.895415
v 0.066975 0.373863 0.035904
v 0.328008 1.106375 -1.152806
v 0.704194 1.106375 -0.221487
vn -0.6762 0.6842 0.2731
vt 0.036725 0.742721
vt 0.267993 0.742721
vt 0.267993 0.973990
vt 0.036725 0.973990
s 0
usemtl Grass
f 229/229/58 230/230/58 232/231/58 231/232/58
o Plane.136
v -0.366113 0.626552 -0.916841
v 0.335145 0.624510 -0.197741
v -0.442000 1.625155 -0.840001
v 0.259257 1.623113 -0.120901
vn -0.7119 -0.1075 0.6940
vt 0.036725 0.742721
vt 0.267993 0.742721
vt 0.267993 0.973990
vt 0.036725 0.973990
s 0
usemtl Grass
f 233/233/59 234/234/59 236/235/59 235/236/59
o Plane.137
v 0.535243 0.971865 -0.018715
v -0.035280 0.215987 0.315983
v 1.182750 0.816068 0.733171
v 0.612226 0.060191 1.067870
vn -0.5117 0.6400 0.5732
vt 0.036725 0.742721
vt 0.267993 0.742721
vt 0.267993 0.973990
vt 0.036725 0.973990
s 0
usemtl Grass
f 237/237/60 238/238/60 240/239/60 239/240/60
o Plane.138
v 0.414365 1.027949 0.019337
v 0.480742 0.050796 0.242133
v -0.086008 1.189104 0.875215
v -0.019631 0.211951 1.098011
vn -0.8646 -0.1668 -0.4740
vt 0.036725 0.742721
vt 0.267993 0.742721
vt 0.267993 0.973990
vt 0.036725 0.973990
s 0
usemtl Grass
f 241/241/61 242/242/61 244/243/61 243/244/61
o Plane.139
v 0.678589 0.705891 -0.824669
v -0.024422 0.470744 -0.146913
v 1.199526 1.190979 -0.116019
v 0.496515 0.955832 0.561737
vn -0.4911 0.8438 -0.2166
vt 0.036725 0.742721
vt 0.267993 0.742721
vt 0.267993 0.973990
vt 0.036725 0.973990
s 0
usemtl Grass
f 245/245/62 246/246/62 248/247/62 247/248/62
o Plane.140
v 0.616320 0.672909 -0.856034
v 0.237301 0.344908 0.014387
v 0.557854 1.619357 -0.524842
v 0.178835 1.291357 0.345579
vn -0.9242 0.0740 -0.3746
vt 0.036725 0.742721
vt 0.267993 0.742721
vt 0.267993 0.973990
vt 0.036725 0.973990
s 0
usemtl Grass
f 249/249/63 250/250/63 252/251/63 251/252/63
o Plane.141
v 0.166210 1.125374 0.403071
v -0.046843 0.326680 -0.167514
v -0.591012 0.887591 1.018657
v -0.804065 0.088897 0.448071
vn -0.6218 0.5583 -0.5493
vt 0.036725 0.742721
vt 0.267993 0.742721
vt 0.267993 0.973990
vt 0.036725 0.973990
s 0
usemtl Grass
f 253/253/64 254/254/64 256/255/64 255/256/64
o Plane.142
v -0.147924 0.115458 0.312756
v 0.068987 1.091977 0.222026
v 0.669002 -0.013036 0.882837
v 0.885913 0.963483 0.792107
vn 0.5402 -0.1960 -0.8184
vt 0.036725 0.742721
vt 0.267993 0.742721
vt 0.267993 0.973990
vt 0.036725 0.973990
s 0
usemtl Grass
f 257/257/65 258/258/65 260/259/65 259/260/65
o Plane.143
v 1.070350 0.366468 -0.348171
v 0.073490 0.373114 -0.225298
v 1.158474 1.105038 0.326825
v 0.161615 1.111684 0.449698
vn -0.0855 0.6777 -0.7304
vt 0.036725 0.742721
vt 0.267993 0.742721
vt 0.267993 0.973990
vt 0.036725 0.973990
s 0
usemtl Grass
f 261/261/66 262/262/66 264/263/66 263/264/66
o Plane.144
v 1.107127 0.618471 -0.400037
v 0.231332 0.625962 0.091693
v 1.057963 1.616415 -0.502803
v 0.182168 1.623906 -0.011073
vn -0.4872 -0.1132 -0.8659
vt 0.036725 0.742721
vt 0.267993 0.742721
vt 0.267993 0.973990
vt 0.036725 0.973990
s 0
usemtl Grass
f 265/265/67 266/266/67 268/267/67 267/268/67
o Plane.145
v 0.008614 0.975942 0.235413
v -0.171546 0.214939 -0.394895
v -0.885818 0.829204 0.668230
v -1.065977 0.068201 0.037922
vn -0.4182 0.6361 -0.6485
vt 0.036725 0.742721
vt 0.267993 0.742721
vt 0.267993 0.973990
vt 0.036725 0.973990
s 0
usemtl Grass
f 269/269/68 270/270/68 272/271/68 271/272/68
o Plane.146
v 0.003374 1.030834 0.108275
v -0.234358 0.055079 0.124259
v -0.693370 1.189024 -0.597696
v -0.931102 0.213268 -0.581712
vn 0.6803 -0.1774 -0.7111
vt 0.036725 0.742721
vt 0.267993 0.742721
vt 0.267993 0.973990
vt 0.036725 0.973990
s 0
usemtl Grass
f 273/273/69 274/274/69 276/275/69 275/276/69
o Plane.147
v 0.748748 0.709256 0.584602
v 0.274237 0.468496 -0.267305
v -0.067718 1.201886 0.900148
v -0.542229 0.961126 0.048242
vn 0.3407 0.8379 -0.4265
vt 0.036725 0.742721
vt 0.267993 0.742721
vt 0.267993 0.973990
vt 0.036725 0.973990
s 0
usemtl Grass
f 277/277/70 278/278/70 280/279/70 279/280/70
o Plane.148
v 0.794947 0.675520 0.532866
v 0.050136 0.345925 -0.054922
v 0.495277 1.622215 0.381741
v -0.249534 1.292619 -0.206047
vn 0.6009 0.0630 -0.7968
vt 0.036725 0.742721
vt 0.267993 0.742721
vt 0.267993 0.973990
vt 0.036725 0.973990
s 0
usemtl Grass
f 281/281/71 282/282/71 284/283/71 283/284/71
o Plane.149
v -0.335639 1.139811 -0.241595
v 0.328068 0.254817 -0.297574
v -0.777255 0.870572 -1.221054
v -0.113547 -0.014421 -1.277033
vn 0.6942 0.5500 -0.4642
vt 0.036725 0.742721
vt 0.267993 0.742721
vt 0.267993 0.973990
vt 0.036725 0.973990
s 0
usemtl Grass
f 285/285/72 286/286/72 288/287/72 287/288/72
o Plane.150
v -0.261347 1.146935 -0.230505
v -0.159415 0.159942 -0.386471
v 0.542973 1.321003 -0.806388
v 0.644905 0.334010 -0.962354
vn 0.5903 -0.0662 0.8045
vt 0.036725 0.742721
vt 0.267993 0.742721
vt 0.267993 0.973990
vt 0.036725 0.973990
s 0
usemtl Grass
f 289/289/73 290/290/73 292/291/73 291/292/73
o Plane.151
v 0.566021 0.936386 0.612278
v -0.063126 0.102839 0.981368
v 1.280062 0.764581 1.441424
v 0.650915 -0.068966 1.810514
vn -0.5117 0.6400 0.5732
vt 0.036725 0.742721
vt 0.267993 0.742721
vt 0.267993 0.973990
vt 0.036725 0.973990
s 0
usemtl Grass
f 293/293/74 294/294/74 296/295/74 295/296/74
o Plane.152
v 0.042817 1.164155 0.740211
v 0.116014 0.086597 0.985901
v -0.508972 1.341870 1.684034
v -0.435774 0.264311 1.929723
vn -0.8646 -0.1668 -0.4740
vt 0.036725 0.742721
vt 0.267993 0.742721
vt 0.267993 0.973990
vt 0.036725 0.973990
s 0
usemtl Grass
f 297/297/75 298/298/75 300/299/75 299/300/75
o Plane.153
v -0.401463 0.947113 0.864563
v -0.614516 0.148419 0.293977
v -1.158685 0.709329 1.480149
v -1.371738 -0.089364 0.909563
vn -0.6218 0.5583 -0.5493
vt 0.036725 0.742721
vt 0.267993 0.742721
vt 0.267993 0.973990
vt 0.036725 0.973990
s 0
usemtl Grass
f 301/301/76 302/302/76 304/303/76 303/304/76
o Plane.154
v 0.676906 0.153238 0.080357
v 0.893818 1.129756 -0.010373
v 1.493832 0.024744 0.650438
v 1.710744 1.001262 0.559708
vn 0.5402 -0.1960 -0.8184
vt 0.036725 0.742721
vt 0.267993 0.742721
vt 0.267993 0.973990
vt 0.036725 0.973990
s 0
usemtl Grass
f 305/305/77 306/306/77 308/307/77 307/308/77
o Plane.155
v -0.665077 1.719548 0.164405
v -1.177078 1.020216 -0.415905
v -1.535310 1.904999 0.708713
v -2.047311 1.205668 0.128403
vn -0.2510 0.7203 -0.6466
vt 0.036725 0.742721
vt 0.267993 0.742721
vt 0.267993 0.973990
vt 0.036725 0.973990
s 0
usemtl Grass
f 309/309/78 310/310/78 312/311/78 311/312/78
o Plane.156
v -0.518960 1.149426 -0.420977
v -0.756692 0.173670 -0.404993
v -1.215704 1.307615 -1.126948
v -1.453436 0.331859 -1.110964
vn 0.6803 -0.1774 -0.7111
vt 0.036725 0.742721
vt 0.267993 0.742721
vt 0.267993 0.973990
vt 0.036725 0.973990
s 0
usemtl Grass
f 313/313/79 314/314/79 316/315/79 315/316/79
o Plane.157
v -0.604167 0.943652 -0.895212
v -0.002303 0.141122 -0.945975
v -1.004633 0.699501 -1.783406
v -0.402769 -0.103029 -1.834168
vn 0.6942 0.5500 -0.4642
vt 0.036725 0.742721
vt 0.267993 0.742721
vt 0.267993 0.973990
vt 0.036725 0.973990
s 0
usemtl Grass
f 317/317/80 318/318/80 320/319/80 319/320/80
o Plane.158
v 0.376277 1.060472 -0.718956
v 0.488683 -0.027939 -0.890948
v 1.263244 1.252426 -1.354013
v 1.375649 0.164015 -1.526005
vn 0.5903 -0.0662 0.8045
vt 0.036725 0.742721
vt 0.267993 0.742721
vt 0.267993 0.973990
vt 0.036725 0.973990
s 0
usemtl Grass
f 321/321/81 322/322/81 324/323/81 323/324/81
o Plane.159
v -0.106175 -0.104627 0.992729
v -0.312769 0.550734 0.062037
v -1.145952 0.171630 1.418068
v -1.352547 0.826990 0.487375
vn 0.4004 0.7887 0.4665
vt 0.036725 0.742721
vt 0.267993 0.742721
vt 0.267993 0.973990
vt 0.036725 0.973990
s 0
usemtl Grass
f 325/325/82 326/326/82 328/327/82 327/328/82
o Plane.160
v -0.486459 1.224478 -0.088528
v -0.736426 0.099013 0.007446
v -1.513671 1.410094 -0.587275
v -1.763639 0.284628 -0.491301
vn 0.4061 -0.1668 -0.8985
vt 0.036725 0.742721
vt 0.267993 0.742721
vt 0.267993 0.973990
vt 0.036725 0.973990
s 0
usemtl Grass
f 329/329/83 330/330/83 332/331/83 331/332/83
o Plane.161
v 0.514336 1.303567 0.777312
v -0.175900 0.668954 0.417156
v -0.124461 1.589477 1.497773
v -0.814697 0.954864 1.137618
vn -0.3511 0.7210 -0.5974
vt 0.036725 0.742721
vt 0.267993 0.742721
vt 0.267993 0.973990
vt 0.036725 0.973990
s 0
usemtl Grass
f 333/333/84 334/334/84 336/335/84 335/336/84
o Plane.162
v -0.728809 0.947113 -0.430273
v -0.176311 0.148419 -0.686605
v -1.400843 0.709329 -1.137875
v -0.848345 -0.089364 -1.394207
vn 0.4998 0.5583 -0.6622
vt 0.036725 0.742721
vt 0.267993 0.742721
vt 0.267993 0.973990
vt 0.036725 0.973990
s 0
usemtl Grass
f 337/337/85 338/338/85 340/339/85 339/340/85
o Plane.163
v -0.538105 0.019129 0.423555
v -0.430951 0.995648 0.632841
v -1.043627 -0.109365 1.281931
v -0.936472 0.867154 1.491216
vn 0.8575 -0.1960 0.4757
vt 0.036725 0.742721
vt 0.267993 0.742721
vt 0.267993 0.973990
vt 0.036725 0.973990
s 0
usemtl Grass
f 341/341/86 342/342/86 344/343/86 343/344/86
o Plane.164
v -0.614834 0.894425 -0.635788
v 0.273573 0.600276 -1.000589
v -1.049528 0.669233 -1.512829
v -0.161121 0.375084 -1.877630
vn 0.1743 0.9295 -0.3250
vt 0.036725 0.742721
vt 0.267993 0.742721
vt 0.267993 0.973990
vt 0.036725 0.973990
s 0
usemtl Grass
f 345/345/87 346/346/87 348/347/87 347/348/87
o Plane.165
v 1.108970 0.796025 -0.479000
v 0.305096 0.359340 -0.893683
v 1.398682 1.121946 -1.383829
v 0.594808 0.685260 -1.798512
vn 0.5256 -0.8401 -0.1343
vt 0.036725 0.742721
vt 0.267993 0.742721
vt 0.267993 0.973990
vt 0.036725 0.973990
s 0
usemtl Grass
f 349/349/88 350/350/88 352/351/88 351/352/88
o Plane.166
v 0.676494 1.994643 -0.221616
v -0.224995 0.938606 -0.206529
v 1.066518 1.680199 1.073424
v 0.165030 0.624162 1.088511
vn -0.7068 0.6085 0.3606
vt 0.036725 0.742721
vt 0.267993 0.742721
vt 0.267993 0.973990
vt 0.036725 0.973990
s 0
usemtl Grass
f 353/353/89 354/354/89 356/355/89 355/356/89
o Plane.167
v 0.850646 1.054741 0.193122
v 1.013994 0.067748 0.282749
v 1.486719 1.228809 0.950738
v 1.650067 0.241816 1.040365
vn -0.7567 -0.0662 0.6505
vt 0.036725 0.742721
vt 0.267993 0.742721
vt 0.267993 0.973990
vt 0.036725 0.973990
s 0
usemtl Grass
f 357/357/90 358/358/90 360/359/90 359/360/90
o Plane.170
v 0.971489 0.780897 -0.779558
v 1.131333 0.451301 0.155690
v 1.092947 1.727591 -0.466686
v 1.252790 1.397996 0.468561
vn -0.9798 0.0630 0.1897
vt 0.036725 0.742721
vt 0.267993 0.742721
vt 0.267993 0.973990
vt 0.036725 0.973990
s 0
usemtl Grass
f 361/361/91 362/362/91 364/363/91 363/364/91
o Plane.171
v -0.118798 0.780897 -1.350196
v 0.716500 0.451301 -0.900180
v 0.202504 1.727591 -1.253215
v 1.037802 1.397996 -0.803198
vn -0.4540 0.0630 0.8888
vt 0.036725 0.742721
vt 0.267993 0.742721
vt 0.267993 0.973990
vt 0.036725 0.973990
s 0
usemtl Grass
f 365/365/92 366/366/92 368/367/92 367/368/92
o Plane.172
v -0.366791 0.780897 -1.519967
v -0.899966 0.451301 -0.735135
v -0.496160 1.727591 -1.210284
v -1.029335 1.397996 -0.425451
vn -0.8376 0.0630 -0.5426
vt 0.036725 0.742721
vt 0.267993 0.742721
vt 0.267993 0.973990
vt 0.036725 0.973990
s 0
usemtl Grass
f 369/369/93 370/370/93 372/371/93 371/372/93
o Plane.173
v -1.172950 0.780897 0.258319
v -0.481400 0.451301 0.907931
v -0.887375 1.727591 0.434634
v -0.195824 1.397996 1.084246
vn -0.6672 0.0630 0.7422
vt 0.036725 0.742721
vt 0.267993 0.742721
vt 0.267993 0.973990
vt 0.036725 0.973990
s 0
usemtl Grass
f 373/373/94 374/374/94 376/375/94 375/376/94
o Plane.174
v 0.943290 0.999784 -0.403439
v 0.663184 0.670188 0.503081
v 0.910231 1.946478 -0.069452
v 0.630125 1.616882 0.837068
vn -0.9598 0.0630 -0.2736
vt 0.036725 0.742721
vt 0.267993 0.742721
vt 0.267993 0.973990
vt 0.036725 0.973990
s 0
usemtl Grass
f 377/377/95 378/378/95 380/379/95 379/380/95
o Plane.175
v 0.874662 1.232206 0.379239
v 0.130891 0.873868 0.951313
v 0.636643 2.167973 0.655932
v -0.107129 1.809634 1.228006
vn -0.6289 0.0690 -0.7744
vt 0.036725 0.742721
vt 0.267993 0.742721
vt 0.267993 0.973990
vt 0.036725 0.973990
s 0
usemtl Grass
f 381/381/96 382/382/96 384/383/96 383/384/96
o Plane.176
v -0.691869 1.232206 0.922639
v -1.110439 0.873868 0.082839
v -0.917696 2.167973 0.635907
v -1.336265 1.809634 -0.203893
vn 0.8808 0.0690 -0.4684
vt 0.036725 0.742721
vt 0.267993 0.742721
vt 0.267993 0.973990
vt 0.036725 0.973990
s 0
usemtl Grass
f 385/385/97 386/386/97 388/387/97 387/388/97
o Plane.180
v 0.851751 1.661219 -0.637694
v 0.606902 1.784855 0.328553
v 0.249122 2.424767 -0.888101
v 0.004273 2.548403 0.078146
vn -0.7620 -0.6379 -0.1115
vt 0.036725 0.742721
vt 0.267993 0.742721
vt 0.267993 0.973990
vt 0.036725 0.973990
s 0
usemtl Grass
f 389/389/98 390/390/98 392/391/98 391/392/98
o Plane.181
v 0.676494 2.411212 -0.221616
v -0.224995 1.355175 -0.206529
v 1.066518 2.096768 1.073424
v 0.165030 1.040731 1.088511
vn -0.7068 0.6085 0.3606
vt 0.036725 0.742721
vt 0.267993 0.742721
vt 0.267993 0.973990
vt 0.036725 0.973990
s 0
usemtl Grass
f 393/393/99 394/394/99 396/395/99 395/396/99
o Plane.182
v 0.971489 1.197465 -0.779558
v 1.131333 0.867870 0.155690
v 1.092947 2.144160 -0.466686
v 1.252790 1.814564 0.468561
vn -0.9798 0.0630 0.1897
vt 0.036725 0.742721
vt 0.267993 0.742721
vt 0.267993 0.973990
vt 0.036725 0.973990
s 0
usemtl Grass
f 397/397/100 398/398/100 400/399/100 399/400/100
o Plane.183
v 0.943290 1.416352 -0.403439
v 0.663184 1.086757 0.503081
v 0.910231 2.363047 -0.069452
v 0.630125 2.033451 0.837068
vn -0.9598 0.0630 -0.2736
vt 0.036725 0.742721
vt 0.267993 0.742721
vt 0.267993 0.973990
vt 0.036725 0.973990
s 0
usemtl Grass
f 401/401/101 402/402/101 404/403/101 403/404/101
o Plane.184
v 0.238012 1.612673 0.800543
v 0.159041 1.602268 -0.200719
v 0.375966 2.607354 0.779326
v 0.296994 2.596949 -0.221936
vn 0.9874 -0.1386 -0.0764
vt 0.036725 0.742721
vt 0.267993 0.742721
vt 0.267993 0.973990
vt 0.036725 0.973990
s 0
usemtl Grass
f 405/405/102 406/406/102 408/407/102 407/408/102
o Plane.185
v 0.112831 2.411212 0.492288
v 0.467657 1.355175 -0.336572
v -1.228482 2.096768 0.318715
v -0.873657 1.040731 -0.510145
vn -0.0401 0.6085 -0.7925
vt 0.036725 0.742721
vt 0.267993 0.742721
vt 0.267993 0.973990
vt 0.036725 0.973990
s 0
usemtl Grass
f 409/409/103 410/410/103 412/411/103 411/412/103
o Plane.186
v 0.508337 1.197465 1.199826
v -0.410518 0.867870 0.963302
v 0.173153 2.144160 1.182743
v -0.745702 1.814564 0.946219
vn 0.2275 0.0630 -0.9717
vt 0.036725 0.742721
vt 0.267993 0.742721
vt 0.267993 0.973990
vt 0.036725 0.973990
s 0
usemtl Grass
f 413/413/104 414/414/104 416/415/104 415/416/104
o Plane.187
v 0.169676 1.416352 0.810106
v -0.543079 1.086757 0.183833
v -0.121601 2.363047 0.643378
v -0.834356 2.033451 0.017105
vn 0.6421 0.0630 -0.7640
vt 0.036725 0.742721
vt 0.267993 0.742721
vt 0.267993 0.973990
vt 0.036725 0.973990
s 0
usemtl Grass
f 417/417/105 418/418/105 420/419/105 419/420/105
o Plane.188
v -0.805662 1.776732 0.407491
v -0.921628 0.523122 0.201200
v -0.982944 1.997821 -0.836387
v -1.098910 0.744211 -1.042678
vn 0.9861 -0.0662 -0.1523
vt 0.036725 0.742721
vt 0.267993 0.742721
vt 0.267993 0.973990
vt 0.036725 0.973990
s 0
usemtl Grass
f 421/421/106 422/422/106 424/423/106 423/424/106
o Plane.189
v 0.850922 0.611329 -1.417887
v 0.936610 -0.127934 -0.597520
v 1.403564 1.352421 -0.807785
v 1.489252 0.613158 0.012581
vn -0.8632 0.3269 0.3848
vt 0.036725 0.742721
vt 0.267993 0.742721
vt 0.267993 0.973990
vt 0.036725 0.973990
s 0
usemtl Grass
f 425/425/107 426/426/107 428/427/107 427/428/107
o Plane.279
v -0.114053 0.210327 -0.030151
v 0.688191 -0.332033 -0.144662
v 1.022230 1.856763 0.132395
v 1.824473 1.314403 0.017883
vn 0.0513 -0.1331 0.9898
vt 0.690949 0.498050
vt 0.864222 0.498050
vt 0.864222 0.849632
vt 0.690949 0.849632
s 0
usemtl Grass
f 429/429/108 430/430/108 432/431/108 431/432/108
o Plane.288
v 0.185687 0.497055 -0.450603
v 0.464168 0.010058 0.221653
v 0.297667 1.975426 0.573975
v 0.576148 1.488430 1.246230
vn -0.9460 -0.1331 0.2955
vt 0.690949 0.498050
vt 0.864222 0.498050
vt 0.864222 0.849632
vt 0.690949 0.849632
s 0
usemtl Grass
f 433/433/109 434/434/109 436/435/109 435/436/109
o Plane.289
v 0.854547 0.423036 0.370277
v -0.111089 -0.276543 -0.029936
v -0.299715 2.546741 -0.556987
v -1.265351 1.847162 -0.957200
vn 0.4602 -0.1331 -0.8778
vt 0.690949 0.498050
vt 0.864222 0.498050
vt 0.864222 0.849632
vt 0.690949 0.849632
s 0
usemtl Grass
f 437/437/110 438/438/110 440/439/110 439/440/110
o Plane.290
v 0.457636 0.836570 -0.359393
v 0.275641 0.045975 0.113281
v -0.558896 1.846061 0.937685
v -0.740891 1.055465 1.410358
vn -0.8281 -0.1347 -0.5442
vt 0.690949 0.498050
vt 0.864222 0.498050
vt 0.864222 0.849632
vt 0.690949 0.849632
s 0
usemtl Grass
f 441/441/111 442/442/111 444/443/111 443/444/111
