# Blender 5.2.0 LTS
# www.blender.org
mtllib bush.mtl
o Plane.034
v 3.111845 -0.103224 2.818937
v 4.866442 -0.103224 2.818937
v 3.111845 2.237869 2.818937
v 4.866442 2.237869 2.818937
vn -0.0000 -0.0000 1.0000
vt 0.638725 0.006012
vt 0.990946 0.006012
vt 0.990946 0.413670
vt 0.638725 0.413670
s 0
usemtl Grass
f 1/1/1 2/2/1 4/3/1 3/4/1
o Plane.035
v 3.625289 -0.103224 2.157846
v 4.352997 -0.103224 3.480028
v 3.625289 1.910462 2.157846
v 4.352997 1.910462 3.480028
vn -0.8761 -0.0000 0.4822
vt 0.638725 0.006012
vt 0.990946 0.006012
vt 0.990946 0.413670
vt 0.638725 0.413670
s 0
usemtl Grass
f 5/5/2 6/6/2 8/7/2 7/8/2
o Plane.036
v 3.446407 -0.103224 3.608449
v 4.531879 -0.103224 2.029425
v 3.446407 2.453400 3.608449
v 4.531879 2.453400 2.029425
vn 0.8241 -0.0000 0.5665
vt 0.638725 0.006012
vt 0.990946 0.006012
vt 0.990946 0.413670
vt 0.638725 0.413670
s 0
usemtl Grass
f 9/9/3 10/10/3 12/11/3 11/12/3
o Plane.037
v 3.421032 -0.103224 2.558805
v 4.557254 -0.103224 3.079069
v 3.421032 1.564163 2.558805
v 4.557254 1.564163 3.079069
vn -0.4163 -0.0000 0.9092
vt 0.638725 0.006012
vt 0.990946 0.006012
vt 0.990946 0.413670
vt 0.638725 0.413670
s 0
usemtl Grass
f 13/13/4 14/14/4 16/15/4 15/16/4
o Plane.038
v 3.004301 0.072335 2.322529
v 3.426586 0.181886 2.607201
v 2.737593 1.567611 2.142735
v 3.159878 1.677163 2.427407
vn -0.5590 -0.0000 0.8292
vt 0.560449 0.506451
vt 0.689222 0.506451
vt 0.689222 0.794231
vt 0.560449 0.794231
s 0
usemtl Grass
f 17/17/5 18/18/5 20/19/5 19/20/5
o Plane.039
v 4.682430 0.072335 2.328655
v 4.331097 0.181886 2.697339
v 4.904326 1.567611 2.095800
v 4.552993 1.677163 2.464484
vn -0.7239 -0.0000 -0.6899
vt 0.560449 0.506451
vt 0.689222 0.506451
vt 0.689222 0.794231
vt 0.560449 0.794231
s 0
usemtl Grass
f 21/21/6 22/22/6 24/23/6 23/24/6
o Plane.040
v 4.780632 0.072335 3.530579
v 4.421154 0.181886 3.169831
v 5.007671 1.567611 3.758421
v 4.648194 1.677163 3.397673
vn 0.7084 -0.0000 -0.7059
vt 0.560449 0.506451
vt 0.689222 0.506451
vt 0.689222 0.794231
vt 0.560449 0.794231
s 0
usemtl Grass
f 25/25/7 26/26/7 28/27/7 27/28/7
o Plane.041
v 3.771729 0.072335 3.811873
v 3.937497 0.181886 3.330330
v 3.667032 1.567611 4.116008
v 3.832801 1.677163 3.634465
vn 0.9455 -0.0000 0.3255
vt 0.560449 0.506451
vt 0.689222 0.506451
vt 0.689222 0.794231
vt 0.560449 0.794231
s 0
usemtl Grass
f 29/29/8 30/30/8 32/31/8 31/32/8
