# Blender 5.2.0 LTS
# www.blender.org
mtllib bush_tall.mtl
o Plane.301
v 0.648073 0.277491 -0.812119
v -0.267205 0.277491 -0.235490
v 1.042609 1.066412 -0.185876
v 0.127331 1.066412 0.390754
vn -0.3887 0.6842 -0.6170
vt 0.043868 0.484769
vt 0.275137 0.484769
vt 0.275137 0.716037
vt 0.043868 0.716037
s 0
usemtl Grass
f 1/1/1 2/2/1 4/3/1 3/4/1
o Plane.390
v 0.390352 0.000000 0.302379
v -0.390352 0.000000 -0.302379
v 0.390352 2.899485 0.302379
v -0.390351 2.899485 -0.302379
vn 0.6124 -0.0000 -0.7906
vt 0.560449 0.506451
vt 0.689222 0.506451
vt 0.689222 0.794231
vt 0.560449 0.794231
s 0
usemtl Grass
f 5/5/2 6/6/2 8/7/2 7/8/2
o Plane.302
v 0.820732 0.455674 -0.649629
v 0.192486 0.453475 0.231017
v 0.724791 1.531177 -0.715388
v 0.096545 1.528978 0.165258
vn -0.8092 -0.1075 -0.5776
vt 0.043868 0.484769
vt 0.275137 0.484769
vt 0.275137 0.716037
vt 0.043868 0.716037
s 0
usemtl Grass
f 9/9/3 10/10/3 12/11/3 11/12/3
o Plane.303
v 0.230246 1.235232 0.183623
v -0.233492 0.421145 -0.357161
v -0.443019 1.067438 1.013560
v -0.906756 0.253352 0.472776
vn -0.6549 0.6400 -0.4019
vt 0.043868 0.484769
vt 0.275137 0.484769
vt 0.275137 0.716037
vt 0.043868 0.716037
s 0
usemtl Grass
f 13/13/4 14/14/4 16/15/4 15/16/4
o Plane.304
v 0.274856 1.183710 0.455182
v 0.051386 0.131308 0.568094
v -0.727897 1.357275 0.088306
v -0.951367 0.304874 0.201219
vn 0.3132 -0.1668 -0.9349
vt 0.043868 0.484769
vt 0.275137 0.484769
vt 0.275137 0.716037
vt 0.043868 0.716037
s 0
usemtl Grass
f 17/17/5 18/18/5 20/19/5 19/20/5
o Plane.305
v 1.104786 0.722460 0.228304
v 0.252123 0.469205 -0.387377
v 0.453172 1.244904 0.915827
v -0.399491 0.991649 0.300145
vn 0.1261 0.8438 -0.5217
vt 0.043868 0.484769
vt 0.275137 0.484769
vt 0.275137 0.716037
vt 0.043868 0.716037
s 0
usemtl Grass
f 21/21/6 22/22/6 24/23/6 23/24/6
o Plane.306
v 1.031245 0.524018 0.381313
v 0.036259 0.170759 0.145844
v 0.669036 1.543350 0.382606
v -0.325950 1.190091 0.147137
vn 0.2047 0.0740 -0.9760
vt 0.043868 0.484769
vt 0.275137 0.484769
vt 0.275137 0.716037
vt 0.043868 0.716037
s 0
usemtl Grass
f 25/25/7 26/26/7 28/27/7 27/28/7
o Plane.307
v -0.246701 1.189676 0.369766
v 0.317385 0.329477 0.034952
v -1.043823 0.933582 -0.315251
v -0.479737 0.073382 -0.650065
vn 0.4303 0.5583 -0.7094
vt 0.043868 0.484769
vt 0.275137 0.484769
vt 0.275137 0.716037
vt 0.043868 0.716037
s 0
usemtl Grass
f 29/29/8 30/30/8 32/31/8 31/32/8
o Plane.308
v -0.325382 0.303234 -0.524664
v -0.187780 1.354952 -0.312083
v -0.773583 0.164845 0.450118
v -0.635981 1.216563 0.662699
vn 0.9012 -0.1960 0.3865
vt 0.043868 0.484769
vt 0.275137 0.484769
vt 0.275137 0.716037
vt 0.043868 0.716037
s 0
usemtl Grass
f 33/33/9 34/34/9 36/35/9 35/36/9
o Plane.309
v 0.689974 0.267387 0.887087
v 0.369319 0.274545 -0.146046
v -0.008643 1.062832 1.109429
v -0.329297 1.069991 0.076295
vn 0.7036 0.6777 -0.2137
vt 0.043868 0.484769
vt 0.275137 0.484769
vt 0.275137 0.716037
vt 0.043868 0.716037
s 0
usemtl Grass
f 37/37/10 38/38/10 40/39/10 39/40/10
o Plane.310
v 0.490276 0.447203 1.012585
v -0.198216 0.455271 0.178230
v 0.589809 1.521997 0.940845
v -0.098683 1.530065 0.106490
vn 0.7658 -0.1132 -0.6330
vt 0.043868 0.484769
vt 0.275137 0.484769
vt 0.275137 0.716037
vt 0.043868 0.716037
s 0
usemtl Grass
f 41/41/11 42/42/11 44/43/11 43/44/11
o Plane.311
v -0.154022 1.236424 0.229830
v 0.479649 0.416818 -0.081527
v -0.783631 1.078386 -0.635532
v -0.149960 0.258780 -0.946889
vn 0.5640 0.6361 -0.5265
vt 0.043868 0.484769
vt 0.275137 0.484769
vt 0.275137 0.716037
vt 0.043868 0.716037
s 0
usemtl Grass
f 45/45/12 46/46/12 48/47/12 47/48/12
o Plane.312
v -0.428411 1.187865 0.202611
v -0.490764 0.136968 -0.046316
v 0.186781 1.358236 -0.670743
v 0.124428 0.307339 -0.919670
vn 0.8205 -0.1774 0.5434
vt 0.043868 0.484769
vt 0.275137 0.484769
vt 0.275137 0.716037
vt 0.043868 0.716037
s 0
usemtl Grass
f 49/49/13 50/50/13 52/51/13 51/52/13
o Plane.313
v -0.428399 0.723421 1.061272
v 0.383925 0.464120 0.395593
v -0.918816 1.253987 0.256148
v -0.106492 0.994687 -0.409531
vn 0.4802 0.8379 0.2596
vt 0.043868 0.484769
vt 0.275137 0.484769
vt 0.275137 0.716037
vt 0.043868 0.716037
s 0
usemtl Grass
f 53/53/14 54/54/14 56/55/14 55/56/14
o Plane.314
v -0.559288 0.526744 0.949983
v -0.078544 0.171767 0.048255
v -0.456348 1.546341 0.603486
v 0.024397 1.191364 -0.298241
vn 0.8908 0.0630 0.4501
vt 0.043868 0.484769
vt 0.275137 0.484769
vt 0.275137 0.716037
vt 0.043868 0.716037
s 0
usemtl Grass
f 57/57/15 58/58/15 60/59/15 59/60/15
o Plane.315
v -0.211137 1.193339 -0.279173
v -0.042366 0.329008 0.349066
v 0.653793 0.930386 -0.873300
v 0.822565 0.066055 -0.245062
vn 0.5800 0.5500 0.6009
vt 0.043868 0.484769
vt 0.275137 0.484769
vt 0.275137 0.716037
vt 0.043868 0.716037
s 0
usemtl Grass
f 61/61/16 62/62/16 64/63/16 63/64/16
o Plane.316
v -0.168696 1.067460 -0.672503
v 0.016088 0.004461 -0.594254
v 0.595340 1.254933 0.070019
v 0.780124 0.191934 0.148268
vn -0.6870 -0.0662 0.7236
vt 0.043868 0.484769
vt 0.275137 0.484769
vt 0.275137 0.716037
vt 0.043868 0.716037
s 0
usemtl Grass
f 65/65/17 66/66/17 68/67/17 67/68/17
o Plane.317
v 0.943848 0.868929 -0.342637
v 0.028570 0.868929 0.233992
v 1.338385 1.657849 0.283606
v 0.423107 1.657849 0.860235
vn -0.3887 0.6842 -0.6170
vt 0.043868 0.484769
vt 0.275137 0.484769
vt 0.275137 0.716037
vt 0.043868 0.716037
s 0
usemtl Grass
f 69/69/18 70/70/18 72/71/18 71/72/18
o Plane.318
v 0.748807 1.261956 -0.698927
v 0.120561 1.259757 0.181719
v 0.652866 2.337459 -0.764685
v 0.024619 2.335260 0.115961
vn -0.8092 -0.1075 -0.5776
vt 0.043868 0.484769
vt 0.275137 0.484769
vt 0.275137 0.716037
vt 0.043868 0.716037
s 0
usemtl Grass
f 73/73/19 74/74/19 76/75/19 75/76/19
o Plane.319
v -0.270875 1.109009 0.796593
v -0.729843 0.303296 0.261372
v -0.937215 0.942941 1.617993
v -1.396182 0.137228 1.082772
vn -0.6549 0.6400 -0.4019
vt 0.043868 0.484769
vt 0.275137 0.484769
vt 0.275137 0.716037
vt 0.043868 0.716037
s 0
usemtl Grass
f 77/77/20 78/78/20 80/79/20 79/80/20
o Plane.320
v -0.471193 1.311294 0.177362
v -0.692365 0.269718 0.289113
v -1.463632 1.483074 -0.185740
v -1.684803 0.441498 -0.073988
vn 0.3132 -0.1668 -0.9349
vt 0.043868 0.484769
vt 0.275137 0.484769
vt 0.275137 0.716037
vt 0.043868 0.716037
s 0
usemtl Grass
f 81/81/21 82/82/21 84/83/21 83/84/21
o Plane.321
v 0.687562 1.119006 0.810710
v -0.252715 0.839728 0.131765
v -0.031007 1.695134 1.568878
v -0.971284 1.415855 0.889933
vn 0.1261 0.8438 -0.5217
vt 0.043868 0.484769
vt 0.275137 0.484769
vt 0.275137 0.716037
vt 0.043868 0.716037
s 0
usemtl Grass
f 85/85/22 86/86/22 88/87/22 87/88/22
o Plane.322
v 0.759705 1.288190 0.382283
v -0.235282 0.934931 0.146813
v 0.397496 2.307522 0.383576
v -0.597491 1.954263 0.148107
vn 0.2047 0.0740 -0.9760
vt 0.043868 0.484769
vt 0.275137 0.484769
vt 0.275137 0.716037
vt 0.043868 0.716037
s 0
usemtl Grass
f 89/89/23 90/90/23 92/91/23 91/92/23
o Plane.323
v -0.844286 0.997687 -0.143778
v -0.280200 0.137488 -0.478592
v -1.641408 0.741593 -0.828795
v -1.077322 -0.118606 -1.163609
vn 0.4303 0.5583 -0.7094
vt 0.043868 0.484769
vt 0.275137 0.484769
vt 0.275137 0.716037
vt 0.043868 0.716037
s 0
usemtl Grass
f 93/93/24 94/94/24 96/95/24 95/96/24
o Plane.324
v -0.653798 0.208415 0.203062
v -0.517611 1.249315 0.413456
v -1.097389 0.071450 1.167817
v -0.961202 1.112350 1.378211
vn 0.9012 -0.1960 0.3865
vt 0.043868 0.484769
vt 0.275137 0.484769
vt 0.275137 0.716037
vt 0.043868 0.716037
s 0
usemtl Grass
f 97/97/25 98/98/25 100/99/25 99/100/25
o Plane.325
v 0.166235 0.863716 1.053773
v -0.154420 0.870874 0.020639
v -0.532382 1.659161 1.276114
v -0.853036 1.666319 0.242981
vn 0.7036 0.6777 -0.2137
vt 0.043868 0.484769
vt 0.275137 0.484769
vt 0.275137 0.716037
vt 0.043868 0.716037
s 0
usemtl Grass
f 101/101/26 102/102/26 104/103/26 103/104/26
o Plane.326
v 0.564894 1.252953 0.958803
v -0.123598 1.261021 0.124448
v 0.664427 2.327747 0.887063
v -0.024065 2.335815 0.052708
vn 0.7658 -0.1132 -0.6330
vt 0.043868 0.484769
vt 0.275137 0.484769
vt 0.275137 0.716037
vt 0.043868 0.716037
s 0
usemtl Grass
f 105/105/27 106/106/27 108/107/27 107/108/27
o Plane.327
v -0.719781 1.250901 -0.556908
v 0.136611 0.597012 -0.460687
v -1.064098 0.675082 -1.405502
v -0.207707 0.021192 -1.309282
vn 0.5215 0.5927 -0.6138
vt 0.043868 0.484769
vt 0.275137 0.484769
vt 0.275137 0.716037
vt 0.043868 0.716037
s 0
usemtl Grass
f 109/109/28 110/110/28 112/111/28 111/112/28
o Plane.328
v -0.083732 1.410435 -0.504768
v -0.155549 0.200033 -0.791477
v 0.624835 1.606665 -1.510681
v 0.553018 0.396263 -1.797390
vn 0.8205 -0.1774 0.5434
vt 0.043868 0.484769
vt 0.275137 0.484769
vt 0.275137 0.716037
vt 0.043868 0.716037
s 0
usemtl Grass
f 113/113/29 114/114/29 116/115/29 115/116/29
o Plane.329
v -0.796054 1.121175 0.457687
v 0.016270 0.861875 -0.207991
v -1.286471 1.651742 -0.347437
v -0.474147 1.392442 -1.013115
vn 0.4802 0.8379 0.2596
vt 0.043868 0.484769
vt 0.275137 0.484769
vt 0.275137 0.716037
vt 0.043868 0.716037
s 0
usemtl Grass
f 117/117/30 118/118/30 120/119/30 119/120/30
o Plane.330
v -0.482116 1.291115 0.690222
v -0.001371 0.936137 -0.211505
v -0.379175 2.310712 0.343725
v 0.101569 1.955735 -0.558002
vn 0.8908 0.0630 0.4501
vt 0.043868 0.484769
vt 0.275137 0.484769
vt 0.275137 0.716037
vt 0.043868 0.716037
s 0
usemtl Grass
f 121/121/31 122/122/31 124/123/31 123/124/31
o Plane.331
v 0.437282 0.996209 -0.724578
v 0.606054 0.131878 -0.096339
v 1.302213 0.733256 -1.318705
v 1.470984 -0.131075 -0.690466
vn 0.5800 0.5500 0.6009
vt 0.043868 0.484769
vt 0.275137 0.484769
vt 0.275137 0.716037
vt 0.043868 0.716037
s 0
usemtl Grass
f 125/125/32 126/126/32 128/127/32 127/128/32
o Plane.332
v 0.400906 1.303254 -0.142033
v 0.635606 -0.046894 -0.042647
v 1.371331 1.541369 0.801067
v 1.606031 0.191221 0.900453
vn -0.6870 -0.0662 0.7236
vt 0.043868 0.484769
vt 0.275137 0.484769
vt 0.275137 0.716037
vt 0.043868 0.716037
s 0
usemtl Grass
f 129/129/33 130/130/33 132/131/33 131/132/33
o Plane.333
v 0.333650 0.870971 1.070652
v -0.305069 0.870971 0.211395
v -0.254263 1.651777 1.507671
v -0.892983 1.651777 0.648414
vn 0.5853 0.6842 -0.4351
vt 0.043868 0.484769
vt 0.275137 0.484769
vt 0.275137 0.716037
vt 0.043868 0.716037
s 0
usemtl Grass
f 133/133/34 134/134/34 136/135/34 135/136/34
o Plane.334
v 0.676544 1.261956 0.860835
v -0.249839 1.259757 0.302225
v 0.734723 2.337459 0.760118
v -0.191659 2.335260 0.201507
vn 0.5136 -0.1075 -0.8513
vt 0.043868 0.484769
vt 0.275137 0.484769
vt 0.275137 0.716037
vt 0.043868 0.716037
s 0
usemtl Grass
f 137/137/35 138/138/35 140/139/35 139/140/35
o Plane.335
v -0.902481 1.109440 -0.043622
v -0.398989 0.295354 -0.547602
v -1.781770 0.941646 -0.651020
v -1.278278 0.127560 -1.154999
vn 0.3503 0.6400 -0.6839
vt 0.043868 0.484769
vt 0.275137 0.484769
vt 0.275137 0.716037
vt 0.043868 0.716037
s 0
usemtl Grass
f 141/141/36 142/142/36 144/143/36 143/144/36
o Plane.336
v -0.294246 1.313828 -0.293573
v -0.424021 0.261427 -0.507691
v -0.005628 1.487393 -1.321586
v -0.135404 0.434992 -1.535704
vn 0.9563 -0.1668 0.2403
vt 0.043868 0.484769
vt 0.275137 0.484769
vt 0.275137 0.716037
vt 0.043868 0.716037
s 0
usemtl Grass
f 145/145/37 146/146/37 148/147/37 147/148/37
o Plane.337
v -0.541419 1.432702 0.753745
v -0.294095 0.756249 -0.038422
v -1.417971 1.737462 0.219832
v -1.170648 1.061010 -0.572335
vn 0.5257 0.7210 -0.4515
vt 0.043868 0.484769
vt 0.275137 0.484769
vt 0.275137 0.716037
vt 0.043868 0.716037
s 0
usemtl Grass
f 149/149/38 150/150/38 152/151/38 151/152/38
o Plane.338
v -0.400621 1.288190 0.954908
v -0.242422 0.934931 -0.055249
v -0.429785 2.307522 0.593873
v -0.271586 1.954263 -0.416284
vn 0.9889 0.0740 0.1290
vt 0.043868 0.484769
vt 0.275137 0.484769
vt 0.275137 0.716037
vt 0.043868 0.716037
s 0
usemtl Grass
f 153/153/39 154/154/39 156/155/39 155/156/39
o Plane.339
v 0.000440 0.997688 -0.684811
v 0.377672 0.137488 -0.148164
v 0.622081 0.741593 -1.532286
v 0.999312 -0.118606 -0.995639
vn 0.7404 0.5583 0.3744
vt 0.043868 0.484769
vt 0.275137 0.484769
vt 0.275137 0.716037
vt 0.043868 0.716037
s 0
usemtl Grass
f 157/157/40 158/158/40 160/159/40 159/160/40
o Plane.340
v -0.334335 -0.040351 -0.475529
v -0.535695 1.011367 -0.321976
v -1.340718 -0.178740 -0.847384
v -1.542079 0.872978 -0.693831
vn -0.3160 -0.1960 0.9283
vt 0.043868 0.484769
vt 0.275137 0.484769
vt 0.275137 0.716037
vt 0.043868 0.716037
s 0
usemtl Grass
f 161/161/41 162/162/41 164/163/41 163/164/41
o Plane.341
v -1.115792 0.863715 0.414875
v -0.110399 0.870874 0.015663
v -1.391238 1.659161 -0.264559
v -0.385846 1.666320 -0.663771
vn 0.2672 0.6777 0.6851
vt 0.043868 0.484769
vt 0.275137 0.484769
vt 0.275137 0.716037
vt 0.043868 0.716037
s 0
usemtl Grass
f 165/165/42 166/166/42 168/167/42 167/168/42
o Plane.342
v -1.072301 1.269995 0.868364
v -0.222206 1.278800 0.049085
v -0.985875 2.443037 0.970648
v -0.135780 2.451842 0.151369
vn 0.6901 -0.1132 0.7148
vt 0.043868 0.484769
vt 0.275137 0.484769
vt 0.275137 0.716037
vt 0.043868 0.716037
s 0
usemtl Grass
f 169/169/43 170/170/43 172/171/43 171/172/43
o Plane.343
v 0.214315 1.182794 -0.546517
v 0.628034 0.238788 0.153570
v 1.152259 1.000769 -1.346243
v 1.565978 0.056763 -0.646156
vn 0.5684 0.6361 0.5218
vt 0.043868 0.484769
vt 0.275137 0.484769
vt 0.275137 0.716037
vt 0.043868 0.716037
s 0
usemtl Grass
f 173/173/44 174/174/44 176/175/44 175/176/44
o Plane.344
v 0.375369 1.315588 0.165931
v 0.618759 0.264692 0.084606
v 1.293476 1.485959 0.712087
v 1.536866 0.435063 0.630762
vn -0.4786 -0.1774 0.8599
vt 0.043868 0.484769
vt 0.275137 0.484769
vt 0.275137 0.716037
vt 0.043868 0.716037
s 0
usemtl Grass
f 177/177/45 178/178/45 180/179/45 179/180/45
o Plane.345
v -0.595530 1.121175 -0.590435
v 0.130689 0.861875 0.168251
v 0.169465 1.651742 -1.141358
v 0.895684 1.392442 -0.382672
vn -0.2219 0.8379 0.4988
vt 0.043868 0.484769
vt 0.275137 0.484769
vt 0.275137 0.716037
vt 0.043868 0.716037
s 0
usemtl Grass
f 181/181/46 182/182/46 184/183/46 183/184/46
o Plane.346
v -0.440190 1.273137 -0.635506
v 0.013517 0.943924 0.289699
v -0.330504 2.302925 -0.322868
v 0.123204 1.973712 0.602336
vn -0.9021 -0.0345 0.4301
vt 0.043868 0.484769
vt 0.275137 0.484769
vt 0.275137 0.716037
vt 0.043868 0.716037
s 0
usemtl Grass
f 185/185/47 186/186/47 188/187/47 187/188/47
o Plane.347
v 0.705464 1.209127 0.645305
v -0.232873 0.693763 0.489877
v 0.969886 0.495755 1.414342
v 0.031548 -0.019609 1.258914
vn -0.4334 0.5815 0.6885
vt 0.043868 0.484769
vt 0.275137 0.484769
vt 0.275137 0.716037
vt 0.043868 0.716037
s 0
usemtl Grass
f 189/189/48 190/190/48 192/191/48 191/192/48
o Plane.348
v 0.083602 1.220937 0.603114
v 0.013974 0.060768 0.810763
v -0.660218 1.425547 1.496884
v -0.729846 0.265378 1.704534
vn -0.7743 -0.0662 -0.6293
vt 0.043868 0.484769
vt 0.275137 0.484769
vt 0.275137 0.716037
vt 0.043868 0.716037
s 0
usemtl Grass
f 193/193/49 194/194/49 196/195/49 195/196/49
o Plane.349
v 0.773462 1.533047 0.250400
v -0.419023 1.545920 0.280376
v 0.783916 2.722163 0.155643
v -0.408568 2.735036 0.185619
vn -0.0259 -0.0792 -0.9965
vt 0.043868 0.484769
vt 0.275137 0.484769
vt 0.275137 0.716037
vt 0.043868 0.716037
s 0
usemtl Grass
f 197/197/50 198/198/50 200/199/50 199/200/50
o Plane.350
v 0.312301 1.263185 0.941392
v -0.101970 0.941970 -0.004883
v 0.107471 2.293095 0.681460
v -0.306800 1.971880 -0.264815
vn 0.9042 0.0736 -0.4208
vt 0.043868 0.484769
vt 0.275137 0.484769
vt 0.275137 0.716037
vt 0.043868 0.716037
s 0
usemtl Grass
f 201/201/51 202/202/51 204/203/51 203/204/51
o Plane.351
v -0.266041 1.230423 1.131172
v -0.012590 1.264621 0.080064
v -0.134362 2.302085 1.197790
v 0.119088 2.336282 0.146681
vn 0.9645 -0.1327 0.2283
vt 0.043868 0.484769
vt 0.275137 0.484769
vt 0.275137 0.716037
vt 0.043868 0.716037
s 0
usemtl Grass
f 205/205/52 206/206/52 208/207/52 207/208/52
o Plane.352
v -1.269316 1.018186 0.249542
v 0.608224 0.337948 -0.063866
v -0.610439 2.920536 0.067730
v 1.267102 2.240298 -0.245679
vn 0.1762 0.0330 0.9838
vt 0.043868 0.484769
vt 0.275137 0.484769
vt 0.275137 0.716037
vt 0.043868 0.716037
s 0
usemtl Grass
f 209/209/53 210/210/53 212/211/53 211/212/53
o Plane.353
v -0.118510 1.234861 1.148877
v -0.227388 1.264096 0.084182
v 0.010162 2.297627 1.164901
v -0.098716 2.326863 0.100206
vn 0.9875 -0.1180 -0.1042
vt 0.043868 0.484769
vt 0.275137 0.484769
vt 0.275137 0.716037
vt 0.043868 0.716037
s 0
usemtl Grass
f 213/213/54 214/214/54 216/215/54 215/216/54
o Plane.354
v -0.842458 1.295207 0.358500
v 0.055257 0.943416 -0.131996
v -0.557596 2.317129 0.146924
v 0.340119 1.965338 -0.343572
vn 0.4919 0.0429 0.8696
vt 0.043868 0.484769
vt 0.275137 0.484769
vt 0.275137 0.716037
vt 0.043868 0.716037
s 0
usemtl Grass
f 217/217/55 218/218/55 220/219/55 219/220/55
o Plane.355
v -1.077987 1.552004 -0.533137
v -0.001834 1.472264 -0.457164
v -1.097822 2.145695 0.370950
v -0.021669 2.065955 0.446923
vn -0.1001 -0.8327 0.5446
vt 0.043868 0.484769
vt 0.275137 0.484769
vt 0.275137 0.716037
vt 0.043868 0.716037
s 0
usemtl Grass
f 221/221/56 222/222/56 224/223/56 223/224/56
o Plane.356
v -0.113514 1.317825 -0.692728
v 0.116322 0.931892 0.291379
v 0.051846 2.325653 -0.336111
v 0.281682 1.939719 0.647996
vn -0.9651 0.0690 0.2525
vt 0.043868 0.484769
vt 0.275137 0.484769
vt 0.275137 0.716037
vt 0.043868 0.716037
s 0
usemtl Grass
f 225/225/57 226/226/57 228/227/57 227/228/57
o Plane.357
v -0.328176 0.393383 0.967306
v -0.034224 0.393383 -0.073765
v -1.040488 1.182304 0.766181
v -0.746536 1.182304 -0.274890
vn 0.7018 0.6842 0.1982
vt 0.043868 0.484769
vt 0.275137 0.484769
vt 0.275137 0.716037
vt 0.043868 0.716037
s 0
usemtl Grass
f 229/229/58 230/230/58 232/231/58 231/232/58
o Plane.358
v -0.290049 0.669665 1.011626
v -0.411579 0.667489 -0.052099
v -0.175941 1.734106 0.996411
v -0.297472 1.731929 -0.067314
vn 0.9878 -0.1075 -0.1126
vt 0.043868 0.484769
vt 0.275137 0.484769
vt 0.275137 0.716037
vt 0.043868 0.716037
s 0
usemtl Grass
f 233/233/59 234/234/59 236/235/59 235/236/59
o Plane.359
v -0.468948 1.037435 -0.336106
v 0.237566 0.223349 -0.244792
v -0.524352 0.869641 -1.403351
v 0.182161 0.055555 -1.312036
vn 0.7555 0.6400 -0.1398
vt 0.043868 0.484769
vt 0.275137 0.484769
vt 0.275137 0.716037
vt 0.043868 0.716037
s 0
usemtl Grass
f 237/237/60 238/238/60 240/239/60 239/240/60
o Plane.360
v -0.340931 1.097838 -0.288781
v -0.250502 0.045437 -0.522256
v 0.649597 1.271404 -0.687485
v 0.740026 0.219003 -0.920960
vn 0.3932 -0.1668 0.9042
vt 0.043868 0.484769
vt 0.275137 0.484769
vt 0.275137 0.716037
vt 0.043868 0.716037
s 0
usemtl Grass
f 241/241/61 242/242/61 244/243/61 243/244/61
o Plane.361
v -1.122563 0.750979 0.255568
v -0.076982 0.497724 0.142173
v -1.098718 1.273424 -0.691384
v -0.053137 1.020168 -0.804780
vn 0.2556 0.8438 0.4720
vt 0.043868 0.484769
vt 0.275137 0.484769
vt 0.275137 0.716037
vt 0.043868 0.716037
s 0
usemtl Grass
f 245/245/62 246/246/62 248/247/62 247/248/62
o Plane.362
v -1.090231 0.715457 0.323343
v -0.193437 0.362198 -0.167783
v -0.822014 1.734790 0.079916
v 0.074780 1.381531 -0.411210
vn 0.5013 0.0740 0.8621
vt 0.043868 0.484769
vt 0.275137 0.484769
vt 0.275137 0.716037
vt 0.043868 0.716037
s 0
usemtl Grass
f 249/249/63 250/250/63 252/251/63 251/252/63
o Plane.363
v 0.123449 1.202766 -0.451834
v -0.071479 0.342567 0.174501
v 1.174183 0.946671 -0.476540
v 0.979255 0.086472 0.149795
vn 0.1552 0.5583 0.8150
vt 0.043868 0.484769
vt 0.275137 0.484769
vt 0.275137 0.716037
vt 0.043868 0.716037
s 0
usemtl Grass
f 253/253/64 254/254/64 256/255/64 255/256/64
o Plane.364
v 0.331346 0.115079 -0.167750
v 0.086819 1.166797 -0.233563
v 0.011783 -0.023310 -1.191939
v -0.232744 1.028408 -1.257752
vn -0.9282 -0.1960 0.3161
vt 0.043868 0.484769
vt 0.275137 0.484769
vt 0.275137 0.716037
vt 0.043868 0.716037
s 0
usemtl Grass
f 257/257/65 258/258/65 260/259/65 259/260/65
o Plane.365
v -1.141848 0.385418 -0.408525
v -0.212046 0.392576 0.144334
v -0.771688 1.180864 -1.041362
v 0.158114 1.188022 -0.488504
vn -0.3797 0.6777 0.6298
vt 0.043868 0.484769
vt 0.275137 0.484769
vt 0.275137 0.716037
vt 0.043868 0.716037
s 0
usemtl Grass
f 261/261/66 262/262/66 264/263/66 263/264/66
o Plane.366
v -1.207370 0.656827 -0.388620
v -0.137368 0.664895 -0.229667
v -1.233289 1.731621 -0.268696
v -0.163287 1.739689 -0.109743
vn -0.1452 -0.1132 0.9829
vt 0.043868 0.484769
vt 0.275137 0.484769
vt 0.275137 0.716037
vt 0.043868 0.716037
s 0
usemtl Grass
f 265/265/67 266/266/67 268/267/67 267/268/67
o Plane.367
v 0.147053 1.041826 -0.205141
v -0.115272 0.222220 0.450349
v 1.194067 0.883789 0.016264
v 0.931743 0.064182 0.671754
vn -0.0665 0.6361 0.7687
vt 0.043868 0.484769
vt 0.275137 0.484769
vt 0.275137 0.716037
vt 0.043868 0.716037
s 0
usemtl Grass
f 269/269/68 270/270/68 272/271/68 271/272/68
o Plane.368
v 0.067661 1.100946 -0.093436
v 0.280616 0.050050 0.049750
v 0.195270 1.271317 0.967189
v 0.408226 0.220421 1.110375
vn -0.9733 -0.1774 0.1456
vt 0.043868 0.484769
vt 0.275137 0.484769
vt 0.275137 0.716037
vt 0.043868 0.716037
s 0
usemtl Grass
f 273/273/69 274/274/69 276/275/69 275/276/69
o Plane.369
v -0.252816 0.754603 -0.990608
v -0.410674 0.495303 0.047698
v 0.650470 1.285170 -0.720776
v 0.492611 1.025870 0.317530
vn -0.5305 0.8379 0.1286
vt 0.043868 0.484769
vt 0.275137 0.484769
vt 0.275137 0.716037
vt 0.043868 0.716037
s 0
usemtl Grass
f 277/277/70 278/278/70 280/279/70 279/280/70
o Plane.370
v -0.326274 0.718270 -0.977029
v -0.079791 0.363293 0.014674
v -0.170799 1.737868 -0.650709
v 0.075684 1.382890 0.340993
vn -0.9630 0.0630 0.2619
vt 0.043868 0.484769
vt 0.275137 0.484769
vt 0.275137 0.716037
vt 0.043868 0.716037
s 0
usemtl Grass
f 281/281/71 282/282/71 284/283/71 283/284/71
o Plane.371
v 0.125552 1.218314 0.428052
v -0.476472 0.265170 0.037967
v -0.144442 0.928342 1.553264
v -0.746466 -0.024802 1.163179
vn -0.8331 0.5500 -0.0582
vt 0.043868 0.484769
vt 0.275137 0.484769
vt 0.275137 0.716037
vt 0.043868 0.716037
s 0
usemtl Grass
f 285/285/72 286/286/72 288/287/72 287/288/72
o Plane.372
v 0.069611 1.225987 0.369609
v -0.120045 0.162988 0.435175
v -0.995038 1.413460 0.329448
v -1.184693 0.350461 0.395014
vn 0.0260 -0.0662 -0.9975
vt 0.043868 0.484769
vt 0.275137 0.484769
vt 0.275137 0.716037
vt 0.043868 0.716037
s 0
usemtl Grass
f 289/289/73 290/290/73 292/291/73 291/292/73
o Plane.373
v -0.078982 0.999225 -0.893656
v 0.700128 0.101488 -0.792959
v -0.140080 0.814189 -2.070564
v 0.639030 -0.083547 -1.969866
vn 0.7555 0.6400 -0.1398
vt 0.043868 0.484769
vt 0.275137 0.484769
vt 0.275137 0.716037
vt 0.043868 0.716037
s 0
usemtl Grass
f 293/293/74 294/294/74 296/295/74 295/296/74
o Plane.374
v 0.450870 1.244534 -0.657503
v 0.550591 0.083995 -0.914969
v 1.543178 1.435934 -1.097176
v 1.642900 0.275395 -1.354642
vn 0.3932 -0.1668 0.9042
vt 0.043868 0.484769
vt 0.275137 0.484769
vt 0.275137 0.716037
vt 0.043868 0.716037
s 0
usemtl Grass
f 297/297/75 298/298/75 300/299/75 299/300/75
o Plane.375
v 0.911161 1.010777 -0.470356
v 0.716233 0.150578 0.155979
v 1.961895 0.754683 -0.495063
v 1.766967 -0.105516 0.131272
vn 0.1552 0.5583 0.8150
vt 0.043868 0.484769
vt 0.275137 0.484769
vt 0.275137 0.716037
vt 0.043868 0.716037
s 0
usemtl Grass
f 301/301/76 302/302/76 304/303/76 303/304/76
o Plane.376
v -0.524221 0.155768 -0.513894
v -0.768748 1.207486 -0.579706
v -0.843784 0.017379 -1.538082
v -1.088311 1.069097 -1.603895
vn -0.9282 -0.1960 0.3161
vt 0.043868 0.484769
vt 0.275137 0.484769
vt 0.275137 0.716037
vt 0.043868 0.716037
s 0
usemtl Grass
f 305/305/77 306/306/77 308/307/77 307/308/77
o Plane.377
v 0.623663 1.634394 0.130988
v 0.674886 0.909105 0.931967
v 1.682869 1.826729 0.237412
v 1.734092 1.101440 1.038391
vn -0.1976 0.7203 0.6649
vt 0.043868 0.484769
vt 0.275137 0.484769
vt 0.275137 0.716037
vt 0.043868 0.716037
s 0
usemtl Grass
f 309/309/78 310/310/78 312/311/78 311/312/78
o Plane.378
v 0.163327 1.228670 0.701693
v 0.376282 0.177773 0.844879
v 0.290936 1.399041 1.762318
v 0.503892 0.348145 1.905504
vn -0.9733 -0.1774 0.1456
vt 0.043868 0.484769
vt 0.275137 0.484769
vt 0.275137 0.716037
vt 0.043868 0.716037
s 0
usemtl Grass
f 313/313/79 314/314/79 316/315/79 315/316/79
o Plane.379
v -0.075327 1.007672 1.148793
v -0.615640 0.152231 0.798695
v -0.317645 0.747424 2.158664
v -0.857958 -0.108017 1.808565
vn -0.8331 0.5500 -0.0582
vt 0.043868 0.484769
vt 0.275137 0.484769
vt 0.275137 0.716037
vt 0.043868 0.716037
s 0
usemtl Grass
f 317/317/80 318/318/80 320/319/80 319/320/80
o Plane.380
v -0.786471 1.132194 0.360268
v -0.993463 -0.027975 0.431827
v -1.948440 1.336803 0.316435
v -2.155432 0.176634 0.387994
vn 0.0260 -0.0662 -0.9975
vt 0.043868 0.484769
vt 0.275137 0.484769
vt 0.275137 0.716037
vt 0.043868 0.716037
s 0
usemtl Grass
f 321/321/81 322/322/81 324/323/81 323/324/81
o Plane.381
v 0.744275 -0.121955 -0.774239
v 0.306339 0.583874 0.154445
v 1.910109 0.175576 -0.450603
v 1.472173 0.881404 0.478080
vn -0.0308 0.7887 -0.6140
vt 0.043868 0.484769
vt 0.275137 0.484769
vt 0.275137 0.716037
vt 0.043868 0.716037
s 0
usemtl Grass
f 325/325/82 326/326/82 328/327/82 327/328/82
o Plane.382
v 0.354921 1.309502 0.397197
v 0.631051 0.097367 0.480348
v 0.900578 1.509411 1.499344
v 1.176708 0.297276 1.582495
vn -0.8713 -0.1668 0.4616
vt 0.043868 0.484769
vt 0.275137 0.484769
vt 0.275137 0.716037
vt 0.043868 0.716037
s 0
usemtl Grass
f 329/329/83 330/330/83 332/331/83 331/332/83
o Plane.383
v 0.073872 1.394681 -1.000082
v 0.424023 0.711198 -0.238189
v 1.092945 1.702608 -1.192190
v 1.443096 1.019125 -0.430297
vn -0.0883 0.7210 0.6873
vt 0.043868 0.484769
vt 0.275137 0.484769
vt 0.275137 0.716037
vt 0.043868 0.716037
s 0
usemtl Grass
f 333/333/84 334/334/84 336/335/84 335/336/84
o Plane.384
v 0.333201 1.011361 0.838361
v -0.299700 0.160010 0.693716
v 0.437611 0.757901 1.873321
v -0.195290 -0.093451 1.728675
vn -0.8007 0.5583 0.2175
vt 0.043868 0.484769
vt 0.275137 0.484769
vt 0.275137 0.716037
vt 0.043868 0.716037
s 0
usemtl Grass
f 337/337/85 338/338/85 340/339/85 339/340/85
o Plane.385
v 0.736637 0.011332 -0.004744
v 0.783436 1.063050 -0.253611
v 1.733196 -0.127058 -0.402180
v 1.779995 0.924661 -0.651047
vn -0.3866 -0.1960 -0.9012
vt 0.043868 0.484769
vt 0.275137 0.484769
vt 0.275137 0.716037
vt 0.043868 0.716037
s 0
usemtl Grass
f 341/341/86 342/342/86 344/343/86 343/344/86
o Plane.386
v 0.103005 0.955199 0.937146
v -0.883765 0.641657 0.664635
v -0.103189 0.715160 1.959961
v -1.089959 0.401619 1.687450
vn -0.3368 0.9295 0.1502
vt 0.043868 0.484769
vt 0.275137 0.484769
vt 0.275137 0.716037
vt 0.043868 0.716037
s 0
usemtl Grass
f 345/345/87 346/346/87 348/347/87 347/348/87
o Plane.387
v -1.247261 0.850312 -0.320214
v -0.840544 0.384836 0.553971
v -2.082034 1.197721 0.253151
v -1.675317 0.732245 1.127335
vn -0.4978 -0.8401 -0.2157
vt 0.043868 0.484769
vt 0.275137 0.484769
vt 0.275137 0.716037
vt 0.043868 0.716037
s 0
usemtl Grass
f 349/349/88 350/350/88 352/351/88 351/352/88
o Plane.388
v -0.723036 2.138975 -0.256510
v 0.054473 1.001615 0.325219
v -0.200975 1.800317 -1.616393
v 0.576534 0.662957 -1.034663
vn 0.7796 0.6085 0.1478
vt 0.043868 0.484769
vt 0.275137 0.484769
vt 0.275137 0.716037
vt 0.043868 0.716037
s 0
usemtl Grass
f 353/353/89 354/354/89 356/355/89 355/356/89
o Plane.389
v -0.597776 1.126693 -0.724496
v -0.677742 0.063695 -0.908543
v -0.639667 1.314166 -1.789077
v -0.719633 0.251167 -1.973125
vn 0.9965 -0.0662 -0.0509
vt 0.043868 0.484769
vt 0.275137 0.484769
vt 0.275137 0.716037
vt 0.043868 0.716037
s 0
usemtl Grass
f 357/357/90 358/358/90 360/359/90 359/360/90
o Plane.391
v -1.342195 0.831761 0.023977
v -0.861450 0.476784 -0.877750
v -1.239254 1.851359 -0.322520
v -0.758510 1.496382 -1.224247
vn 0.8908 0.0630 0.4501
vt 0.043868 0.484769
vt 0.275137 0.484769
vt 0.275137 0.716037
vt 0.043868 0.716037
s 0
usemtl Grass
f 361/361/91 362/362/91 364/363/91 363/364/91
o Plane.392
v -0.781334 0.834186 1.215367
v -1.191466 0.482861 0.290895
v -0.988782 1.843296 0.923908
v -1.398914 1.491971 -0.000563
vn 0.9032 0.0630 -0.4246
vt 0.043868 0.484769
vt 0.275137 0.484769
vt 0.275137 0.716037
vt 0.043868 0.716037
s 0
usemtl Grass
f 365/365/92 366/366/92 368/367/92 367/368/92
o Plane.393
v -0.691073 0.831761 1.537048
v 0.280526 0.476784 1.220469
v -0.376672 1.851359 1.358698
v 0.594927 1.496382 1.042119
vn 0.3299 0.0630 0.9419
vt 0.043868 0.484769
vt 0.275137 0.484769
vt 0.275137 0.716037
vt 0.043868 0.716037
s 0
usemtl Grass
f 369/369/93 370/370/93 372/371/93 371/372/93
o Plane.394
v 1.168185 0.831761 0.554653
v 1.007826 0.476784 -0.454560
v 1.041324 1.851359 0.216181
v 0.880965 1.496382 -0.793032
vn 0.9820 0.0630 -0.1782
vt 0.043868 0.484769
vt 0.275137 0.484769
vt 0.275137 0.716037
vt 0.043868 0.716037
s 0
usemtl Grass
f 373/373/94 374/374/94 376/375/94 375/376/94
o Plane.395
v -1.070117 1.067504 -0.277666
v -0.233732 0.712527 -0.864765
v -0.821689 2.087101 -0.540230
v 0.014697 1.732124 -1.127329
vn 0.5912 0.0630 0.8041
vt 0.043868 0.484769
vt 0.275137 0.484769
vt 0.275137 0.716037
vt 0.043868 0.716037
s 0
usemtl Grass
f 377/377/95 378/378/95 380/379/95 379/380/95
o Plane.396
v -0.495471 1.317825 -0.898801
v 0.515113 0.931892 -0.895332
v -0.110320 2.325653 -0.977402
v 0.900264 1.939719 -0.973933
vn 0.0229 0.0690 0.9974
vt 0.043868 0.484769
vt 0.275137 0.484769
vt 0.275137 0.716037
vt 0.043868 0.716037
s 0
usemtl Grass
f 381/381/96 382/382/96 384/383/96 383/384/96
o Plane.397
v 1.196728 1.317825 -0.328267
v 0.999224 0.931892 0.662835
v 1.199891 2.325653 0.064810
v 1.002387 1.939719 1.055912
vn -0.9832 0.0690 -0.1691
vt 0.043868 0.484769
vt 0.275137 0.484769
vt 0.275137 0.716037
vt 0.043868 0.716037
s 0
usemtl Grass
f 385/385/97 386/386/97 388/387/97 387/388/97
o Plane.398
v -1.134098 1.772548 -0.018583
v -0.297036 1.904335 -0.672988
v -0.789733 2.586437 0.585804
v 0.047329 2.718224 -0.068601
vn 0.5341 -0.6379 0.5547
vt 0.043868 0.484769
vt 0.275137 0.484769
vt 0.275137 0.716037
vt 0.043868 0.716037
s 0
usemtl Grass
f 389/389/98 390/390/98 392/391/98 391/392/98
o Plane.399
v -0.883050 2.158270 -0.056674
v 0.153413 1.105632 0.069518
v -0.296911 2.580173 -1.351535
v 0.739552 1.527535 -1.225343
vn 0.5958 0.6442 0.4796
vt 0.043868 0.484769
vt 0.275137 0.484769
vt 0.275137 0.716037
vt 0.043868 0.716037
s 0
usemtl Grass
f 393/393/99 394/394/99 396/395/99 395/396/99
o Plane.400
v -1.342195 1.280409 0.023977
v -0.861450 0.925432 -0.877750
v -1.239254 2.300007 -0.322520
v -0.758510 1.945029 -1.224247
vn 0.8908 0.0630 0.4501
vt 0.043868 0.484769
vt 0.275137 0.484769
vt 0.275137 0.716037
vt 0.043868 0.716037
s 0
usemtl Grass
f 397/397/100 398/398/100 400/399/100 399/400/100
o Plane.401
v -1.070117 1.516152 -0.277666
v -0.233732 1.161175 -0.864765
v -0.821689 2.535749 -0.540230
v 0.014697 2.180772 -1.127329
vn 0.5912 0.0630 0.8041
vt 0.043868 0.484769
vt 0.275137 0.484769
vt 0.275137 0.716037
vt 0.043868 0.716037
s 0
usemtl Grass
f 401/401/101 402/402/101 404/403/101 403/404/101
o Plane.402
v 0.324466 1.727591 -0.837613
v -0.268676 1.716385 0.066983
v 0.193013 2.798870 -0.910535
v -0.400128 2.787664 -0.005939
vn -0.8274 -0.1386 -0.5442
vt 0.043868 0.484769
vt 0.275137 0.484769
vt 0.275137 0.716037
vt 0.043868 0.716037
s 0
usemtl Grass
f 405/405/102 406/406/102 408/407/102 407/408/102
o Plane.403
v 0.227740 2.587623 -0.492591
v -0.621044 1.450263 -0.020895
v 1.255301 2.248965 0.539856
v 0.406518 1.111605 1.011552
vn -0.4536 0.6085 0.6511
vt 0.043868 0.484769
vt 0.275137 0.484769
vt 0.275137 0.716037
vt 0.043868 0.716037
s 0
usemtl Grass
f 409/409/103 410/410/103 412/411/103 411/412/103
o Plane.404
v 0.357648 1.280409 -1.355869
v 0.983994 0.925432 -0.548455
v 0.631769 2.300006 -1.120253
v 1.258115 1.945029 -0.312839
vn -0.7750 0.0630 0.6289
vt 0.043868 0.484769
vt 0.275137 0.484769
vt 0.275137 0.716037
vt 0.043868 0.716037
s 0
usemtl Grass
f 413/413/104 414/414/104 416/415/104 415/416/104
o Plane.405
v 0.388957 1.516152 -0.800685
v 0.582765 1.161175 0.202643
v 0.526995 2.535749 -0.466615
v 0.720803 2.180772 0.536712
vn -0.9755 0.0630 0.2107
vt 0.043868 0.484769
vt 0.275137 0.484769
vt 0.275137 0.716037
vt 0.043868 0.716037
s 0
usemtl Grass
f 417/417/105 418/418/105 420/419/105 419/420/105
o Plane.406
v 0.953849 1.904284 0.185400
v 0.916528 0.554137 0.437528
v 0.284395 2.142398 1.361407
v 0.247074 0.792251 1.613535
vn -0.8729 -0.0662 -0.4835
vt 0.043868 0.484769
vt 0.275137 0.484769
vt 0.275137 0.716037
vt 0.043868 0.716037
s 0
usemtl Grass
f 421/421/106 422/422/106 424/423/106 423/424/106
o Plane.407
v -1.642680 0.653440 0.639409
v -1.179382 -0.134563 -0.107829
v -1.710127 1.443391 -0.235455
v -1.246828 0.655388 -0.982693
vn 0.9180 0.3269 0.2244
vt 0.043868 0.484769
vt 0.275137 0.484769
vt 0.275137 0.716037
vt 0.043868 0.716037
s 0
usemtl Grass
f 425/425/107 426/426/107 428/427/107 427/428/107
o Plane.408
v 0.137075 0.279882 0.202664
v -0.545832 -0.245971 -0.185896
v -0.637368 1.876208 -0.596596
v -1.320275 1.350355 -0.985156
vn 0.5656 -0.1331 -0.8139
vt 0.690949 0.498050
vt 0.864222 0.498050
vt 0.864222 0.849632
vt 0.690949 0.849632
s 0
usemtl Grass
f 429/429/108 430/430/108 432/431/108 431/432/108
o Plane.409
v -0.484815 0.546275 0.321378
v -0.264546 -0.013801 -0.485959
v 0.134971 2.246494 -0.689022
v 0.355239 1.686417 -1.496359
vn 0.9288 -0.1331 0.3458
vt 0.690949 0.498050
vt 0.864222 0.498050
vt 0.864222 0.849632
vt 0.690949 0.849632
s 0
usemtl Grass
f 433/433/109 434/434/109 436/435/109 435/436/109
o Plane.410
v -0.488132 0.340677 -0.701478
v -0.030357 -0.277205 0.100252
v -0.183720 2.216374 0.570281
v 0.274055 1.598493 1.372010
vn -0.9014 -0.1331 0.4121
vt 0.690949 0.498050
vt 0.864222 0.498050
vt 0.864222 0.849632
vt 0.690949 0.849632
s 0
usemtl Grass
f 437/437/110 438/438/110 440/439/110 439/440/110
o Plane.411
v -0.617880 0.857767 0.020531
v -0.198132 0.091965 -0.233469
v 0.929949 1.835598 -0.369733
v 1.349697 1.069797 -0.623733
vn 0.3214 -0.1347 0.9373
vt 0.690949 0.498050
vt 0.864222 0.498050
vt 0.864222 0.849632
vt 0.690949 0.849632
s 0
usemtl Grass
f 441/441/111 442/442/111 444/443/111 443/444/111
o Plane.412
v -0.013880 1.911565 0.948637
v 0.333072 1.911565 -0.003239
v -0.665164 2.650429 0.711250
v -0.318213 2.650429 -0.240627
vn 0.6852 0.6842 0.2497
vt 0.043868 0.484769
vt 0.275137 0.484769
vt 0.275137 0.716037
vt 0.043868 0.716037
s 0
usemtl Grass
f 445/445/112 446/446/112 448/447/112 447/448/112
o Plane.413
v -0.234908 2.078442 0.927357
v -0.274838 2.076383 -0.084990
v -0.126159 3.085705 0.921018
v -0.166089 3.083645 -0.091329
vn 0.9934 -0.1075 -0.0390
vt 0.043868 0.484769
vt 0.275137 0.484769
vt 0.275137 0.716037
vt 0.043868 0.716037
s 0
usemtl Grass
f 449/449/113 450/450/113 452/451/113 451/452/113
o Plane.414
v -0.275614 2.808537 -0.028244
v 0.377893 2.046104 0.106181
v -0.253129 2.651390 -1.028866
v 0.400378 1.888957 -0.894441
vn 0.7638 0.6400 -0.0833
vt 0.043868 0.484769
vt 0.275137 0.484769
vt 0.275137 0.716037
vt 0.043868 0.716037
s 0
usemtl Grass
f 453/453/114 454/454/114 456/455/114 455/456/114
o Plane.415
v -0.464391 2.760284 -0.203719
v -0.363694 1.774657 -0.415487
v 0.488458 2.922837 -0.507199
v 0.589155 1.937210 -0.718967
vn 0.3249 -0.1668 0.9309
vt 0.043868 0.484769
vt 0.275137 0.484769
vt 0.275137 0.716037
vt 0.043868 0.716037
s 0
usemtl Grass
f 457/457/115 458/458/115 460/459/115 459/460/115
o Plane.416
v -0.948745 2.328301 0.440253
v 0.035677 2.091115 0.407070
v -0.860611 2.817596 -0.442509
v 0.123811 2.580410 -0.475692
vn 0.2198 0.8438 0.4896
vt 0.043868 0.484769
vt 0.275137 0.484769
vt 0.275137 0.716037
vt 0.043868 0.716037
s 0
usemtl Grass
f 461/461/116 462/462/116 464/463/116 463/464/116
o Plane.417
v -0.982052 2.142450 0.284788
v -0.110319 1.811605 -0.111530
v -0.714616 3.097106 0.076091
v 0.157117 2.766261 -0.320227
vn 0.4359 0.0740 0.8970
vt 0.043868 0.484769
vt 0.275137 0.484769
vt 0.275137 0.716037
vt 0.043868 0.716037
s 0
usemtl Grass
f 465/465/117 466/466/117 468/467/117 467/468/117
o Plane.418
v -0.029243 2.765872 -0.439607
v -0.254863 1.960253 0.131810
v 0.953823 2.526027 -0.389600
v 0.728203 1.720407 0.181817
vn 0.0943 0.5583 0.8243
vt 0.043868 0.484769
vt 0.275137 0.484769
vt 0.275137 0.716037
vt 0.043868 0.716037
s 0
usemtl Grass
f 469/469/118 470/470/118 472/471/118 471/472/118
o Plane.419
v 0.541996 1.935674 0.177497
v 0.318195 2.920662 0.099023
v 0.314772 1.806066 -0.801286
v 0.090970 2.791053 -0.879760
vn -0.9492 -0.1960 0.2463
vt 0.043868 0.484769
vt 0.275137 0.484769
vt 0.275137 0.716037
vt 0.043868 0.716037
s 0
usemtl Grass
f 473/473/119 474/474/119 476/475/119 475/476/119
o Plane.420
v -1.019455 1.902102 -0.285416
v -0.189507 1.908806 0.295605
v -0.629723 2.647077 -0.850717
v 0.200225 2.653781 -0.269696
vn -0.4254 0.6777 0.5998
vt 0.043868 0.484769
vt 0.275137 0.484769
vt 0.275137 0.716037
vt 0.043868 0.716037
s 0
usemtl Grass
f 477/477/120 478/478/120 480/479/120 479/480/120
o Plane.421
v -0.943576 2.070509 -0.492867
v 0.044711 2.078065 -0.269988
v -0.976125 3.077107 -0.382666
v 0.012163 3.084663 -0.159786
vn -0.2178 -0.1132 0.9694
vt 0.043868 0.484769
vt 0.275137 0.484769
vt 0.275137 0.716037
vt 0.043868 0.716037
s 0
usemtl Grass
f 481/481/121 482/482/121 484/483/121 483/484/121
o Plane.422
v -0.017605 2.809654 -0.282846
v -0.308199 2.042052 0.311113
v 0.944869 2.661644 -0.003238
v 0.654275 1.894041 0.590721
vn -0.1235 0.6361 0.7617
vt 0.043868 0.484769
vt 0.275137 0.484769
vt 0.275137 0.716037
vt 0.043868 0.716037
s 0
usemtl Grass
f 485/485/122 486/486/122 488/487/122 487/488/122
o Plane.423
v 0.201162 2.764176 -0.420064
v 0.390096 1.779958 -0.271521
v 0.246575 2.923737 0.579397
v 0.435509 1.939520 0.727940
vn -0.9814 -0.1774 0.0729
vt 0.043868 0.484769
vt 0.275137 0.484769
vt 0.275137 0.716037
vt 0.043868 0.716037
s 0
usemtl Grass
f 489/489/123 490/490/123 492/491/123 491/492/123
o Plane.424
v -0.291318 2.329200 -1.055806
v -0.510970 2.086353 -0.097045
v 0.533551 2.826103 -0.740967
v 0.313898 2.583256 0.217795
vn -0.5386 0.8379 0.0888
vt 0.043868 0.484769
vt 0.275137 0.484769
vt 0.275137 0.716037
vt 0.043868 0.716037
s 0
usemtl Grass
f 493/493/124 494/494/124 496/495/124 495/496/124
o Plane.425
v -0.130580 2.145003 -1.048477
v 0.030650 1.812549 -0.105119
v -0.008069 3.099907 -0.732893
v 0.153161 2.767453 0.210466
vn -0.9798 0.0630 0.1897
vt 0.043868 0.484769
vt 0.275137 0.484769
vt 0.275137 0.716037
vt 0.043868 0.716037
s 0
usemtl Grass
f 497/497/125 498/498/125 500/499/125 499/500/125
o Plane.426
v 0.316613 2.769303 0.061261
v -0.168660 1.959813 -0.307088
v 0.016975 2.523034 0.997217
v -0.468299 1.713545 0.628868
vn -0.8265 0.5500 -0.1199
vt 0.043868 0.484769
vt 0.275137 0.484769
vt 0.275137 0.716037
vt 0.043868 0.716037
s 0
usemtl Grass
f 501/501/126 502/502/126 504/503/126 503/504/126
o Plane.427
v 0.510778 2.651411 0.376822
v 0.329086 1.655859 0.424867
v -0.480772 2.826989 0.265263
v -0.662464 1.831437 0.313307
vn 0.1000 -0.0662 -0.9928
vt 0.043868 0.484769
vt 0.275137 0.484769
vt 0.275137 0.716037
vt 0.043868 0.716037
s 0
usemtl Grass
f 505/505/127 506/506/127 508/507/127 507/508/127
o Plane.428
v -0.502134 2.465476 0.770673
v -0.155183 2.465476 -0.181204
v -1.153418 3.204340 0.533285
v -0.806467 3.204340 -0.418592
vn 0.6852 0.6842 0.2497
vt 0.043868 0.484769
vt 0.275137 0.484769
vt 0.275137 0.716037
vt 0.043868 0.716037
s 0
usemtl Grass
f 509/509/128 510/510/128 512/511/128 511/512/128
o Plane.429
v -0.153382 2.833566 0.922605
v -0.193311 2.831506 -0.089742
v -0.044633 3.840828 0.916266
v -0.084562 3.838769 -0.096080
vn 0.9934 -0.1075 -0.0390
vt 0.043868 0.484769
vt 0.275137 0.484769
vt 0.275137 0.716037
vt 0.043868 0.716037
s 0
usemtl Grass
f 513/513/129 514/514/129 516/515/129 515/516/129
o Plane.430
v -0.256145 2.690323 -0.769493
v 0.390640 1.935733 -0.636451
v -0.233891 2.534792 -1.759822
v 0.412894 1.780202 -1.626780
vn 0.7638 0.6400 -0.0833
vt 0.043868 0.484769
vt 0.275137 0.484769
vt 0.275137 0.716037
vt 0.043868 0.716037
s 0
usemtl Grass
f 517/517/130 518/518/130 520/519/130 519/520/130
o Plane.431
v 0.247320 2.879774 -0.425907
v 0.346981 1.904285 -0.635496
v 1.190368 3.040654 -0.726265
v 1.290030 2.065166 -0.935855
vn 0.3249 -0.1668 0.9309
vt 0.043868 0.484769
vt 0.275137 0.484769
vt 0.275137 0.716037
vt 0.043868 0.716037
s 0
usemtl Grass
f 521/521/131 522/522/131 524/523/131 523/524/131
o Plane.432
v -0.973864 2.699686 -0.230249
v 0.111711 2.438128 -0.266841
v -0.876674 3.239259 -1.203717
v 0.208901 2.977701 -1.240310
vn 0.2198 0.8438 0.4896
vt 0.043868 0.484769
vt 0.275137 0.484769
vt 0.275137 0.716037
vt 0.043868 0.716037
s 0
usemtl Grass
f 525/525/132 526/526/132 528/527/132 527/528/132
o Plane.433
v -0.781561 2.858135 0.128333
v 0.090172 2.527290 -0.267985
v -0.514124 3.812792 -0.080364
v 0.357609 3.481946 -0.476682
vn 0.4359 0.0740 0.8970
vt 0.043868 0.484769
vt 0.275137 0.484769
vt 0.275137 0.716037
vt 0.043868 0.716037
s 0
usemtl Grass
f 529/529/133 530/530/133 532/531/133 531/532/133
o Plane.434
v 0.707740 2.586065 -0.402118
v 0.482120 1.780445 0.169299
v 1.690806 2.346220 -0.352111
v 1.465186 1.540600 0.219306
vn 0.0943 0.5583 0.8243
vt 0.043868 0.484769
vt 0.275137 0.484769
vt 0.275137 0.716037
vt 0.043868 0.716037
s 0
usemtl Grass
f 533/533/134 534/534/134 536/535/134 535/536/134
o Plane.435
v 0.367780 1.846872 -0.549665
v 0.146280 2.821728 -0.627332
v 0.142893 1.718597 -1.518379
v -0.078607 2.693452 -1.596047
vn -0.9492 -0.1960 0.2463
vt 0.043868 0.484769
vt 0.275137 0.484769
vt 0.275137 0.716037
vt 0.043868 0.716037
s 0
usemtl Grass
f 537/537/135 538/538/135 540/539/135 539/540/135
o Plane.436
v -0.727281 2.460594 -0.709210
v 0.102667 2.467298 -0.128189
v -0.337549 3.205569 -1.274511
v 0.492399 3.212273 -0.693490
vn -0.4254 0.6777 0.5998
vt 0.043868 0.484769
vt 0.275137 0.484769
vt 0.275137 0.716037
vt 0.043868 0.716037
s 0
usemtl Grass
f 541/541/136 542/542/136 544/543/136 543/544/136
o Plane.437
v -0.967978 2.825135 -0.410251
v 0.020310 2.832691 -0.187372
v -1.000527 3.831733 -0.300050
v -0.012239 3.839289 -0.077171
vn -0.2178 -0.1132 0.9694
vt 0.043868 0.484769
vt 0.275137 0.484769
vt 0.275137 0.716037
vt 0.043868 0.716037
s 0
usemtl Grass
f 545/545/137 546/546/137 548/547/137 547/548/137
o Plane.438
v 0.852500 2.823213 -0.024830
v 0.163246 2.210812 0.395098
v 1.594129 2.283929 0.405988
v 0.904875 1.671528 0.825916
vn -0.0364 0.5927 0.8046
vt 0.043868 0.484769
vt 0.275137 0.484769
vt 0.275137 0.716037
vt 0.043868 0.716037
s 0
usemtl Grass
f 549/549/138 550/550/138 552/551/138 551/552/138
o Plane.439
v 0.351669 2.972624 0.301362
v 0.569280 1.839021 0.472450
v 0.403974 3.156403 1.452522
v 0.621584 2.022801 1.623611
vn -0.9814 -0.1774 0.0729
vt 0.043868 0.484769
vt 0.275137 0.484769
vt 0.275137 0.716037
vt 0.043868 0.716037
s 0
usemtl Grass
f 553/553/139 554/554/139 556/555/139 555/556/139
o Plane.440
v 0.327069 2.701718 -0.819777
v 0.107417 2.458870 0.138984
v 1.151938 3.198621 -0.504938
v 0.932285 2.955773 0.453823
vn -0.5386 0.8379 0.0888
vt 0.043868 0.484769
vt 0.275137 0.484769
vt 0.275137 0.716037
vt 0.043868 0.716037
s 0
usemtl Grass
f 557/557/140 558/558/140 560/559/140 559/560/140
o Plane.441
v -0.038736 2.860874 -0.811891
v 0.122494 2.528420 0.131467
v 0.083775 3.815779 -0.496306
v 0.245005 3.483325 0.447052
vn -0.9798 0.0630 0.1897
vt 0.043868 0.484769
vt 0.275137 0.484769
vt 0.275137 0.716037
vt 0.043868 0.716037
s 0
usemtl Grass
f 561/561/141 562/562/141 564/563/141 563/564/141
o Plane.442
v 0.091981 2.584680 0.762927
v -0.393293 1.775191 0.394578
v -0.207658 2.338412 1.698883
v -0.692932 1.528922 1.330534
vn -0.8265 0.5500 -0.1199
vt 0.043868 0.484769
vt 0.275137 0.484769
vt 0.275137 0.716037
vt 0.043868 0.716037
s 0
usemtl Grass
f 565/565/142 566/566/142 568/567/142 567/568/142
o Plane.443
v -0.215196 2.872244 0.310750
v -0.445968 1.607762 0.371773
v -1.474594 3.095250 0.169055
v -1.705366 1.830769 0.230078
vn 0.1000 -0.0662 -0.9928
vt 0.043868 0.484769
vt 0.275137 0.484769
vt 0.275137 0.716037
vt 0.043868 0.716037
s 0
usemtl Grass
f 569/569/143 570/570/143 572/571/143 571/572/143
o Plane.444
v -0.860915 2.467389 -0.625691
v 0.104803 2.467389 -0.355827
v -0.676271 3.198654 -1.286445
v 0.289447 3.198654 -1.016582
vn -0.1963 0.6842 0.7024
vt 0.043868 0.484769
vt 0.275137 0.484769
vt 0.275137 0.716037
vt 0.043868 0.716037
s 0
usemtl Grass
f 573/573/144 574/574/144 576/575/144 575/576/144
o Plane.445
v -0.994454 2.833566 -0.273681
v 0.011817 2.831506 -0.391400
v -0.979766 3.840829 -0.165742
v 0.026506 3.838769 -0.283461
vn 0.1153 -0.1075 0.9875
vt 0.043868 0.484769
vt 0.275137 0.484769
vt 0.275137 0.716037
vt 0.043868 0.716037
s 0
usemtl Grass
f 577/577/145 578/578/145 580/579/145 579/580/145
o Plane.446
v 0.693385 2.690727 -0.509649
v 0.609651 1.928295 0.152265
v 1.692769 2.533580 -0.564236
v 1.609036 1.771147 0.097678
vn 0.1419 0.6400 0.7552
vt 0.043868 0.484769
vt 0.275137 0.484769
vt 0.275137 0.716037
vt 0.043868 0.716037
s 0
usemtl Grass
f 581/581/146 582/582/146 584/583/146 583/584/146
o Plane.447
v 0.386406 2.882147 0.024256
v 0.605295 1.896520 0.108357
v 0.762314 3.044699 0.950924
v 0.981204 2.059072 1.035025
vn -0.9031 -0.1668 0.3956
vt 0.043868 0.484769
vt 0.275137 0.484769
vt 0.275137 0.716037
vt 0.043868 0.716037
s 0
usemtl Grass
f 585/585/147 586/586/147 588/587/147 587/588/147
o Plane.448
v -0.031261 2.993478 -0.892935
v 0.239957 2.359946 -0.164570
v 0.923952 3.278902 -1.000361
v 1.195169 2.645370 -0.271996
vn -0.1391 0.7210 0.6789
vt 0.043868 0.484769
vt 0.275137 0.484769
vt 0.275137 0.716037
vt 0.043868 0.716037
s 0
usemtl Grass
f 589/589/148 590/590/148 592/591/148 591/592/148
o Plane.449
v -0.250881 2.858135 -0.961123
v 0.211348 2.527290 -0.122475
v -0.022222 3.812792 -0.710540
v 0.440007 3.481946 0.128108
vn -0.8608 0.0740 0.5036
vt 0.043868 0.484769
vt 0.275137 0.484769
vt 0.275137 0.716037
vt 0.043868 0.716037
s 0
usemtl Grass
f 593/593/149 594/594/149 596/595/149 595/596/149
o Plane.450
v 0.392610 2.586065 0.482940
v -0.194475 1.780445 0.301964
v 0.418406 2.346220 1.466939
v -0.168680 1.540600 1.285963
vn -0.8146 0.5583 0.1574
vt 0.043868 0.484769
vt 0.275137 0.484769
vt 0.275137 0.716037
vt 0.043868 0.716037
s 0
usemtl Grass
f 597/597/150 598/598/150 600/599/150 599/600/150
o Plane.451
v 0.520445 1.613890 0.135983
v 0.581463 2.598876 -0.093194
v 1.478838 1.484281 -0.165893
v 1.539856 2.469268 -0.395070
vn -0.3186 -0.1960 -0.9274
vt 0.043868 0.484769
vt 0.275137 0.484769
vt 0.275137 0.716037
vt 0.043868 0.716037
s 0
usemtl Grass
f 601/601/151 602/602/151 604/603/151 603/604/151
o Plane.452
v 0.588356 2.460594 -0.971459
v 0.072929 2.467298 -0.099258
v 1.181973 3.205569 -0.626387
v 0.666547 3.212273 0.245814
vn -0.6308 0.6777 -0.3780
vt 0.043868 0.484769
vt 0.275137 0.484769
vt 0.275137 0.716037
vt 0.043868 0.716037
s 0
usemtl Grass
f 605/605/152 606/606/152 608/607/152 607/608/152
o Plane.453
v 0.296064 2.841095 -1.282277
v 0.136542 2.849342 -0.188128
v 0.173412 3.939708 -1.308440
v 0.013889 3.947955 -0.214291
vn -0.9833 -0.1132 -0.1425
vt 0.043868 0.484769
vt 0.275137 0.484769
vt 0.275137 0.716037
vt 0.043868 0.716037
s 0
usemtl Grass
f 609/609/153 610/610/153 612/611/153 611/612/153
o Plane.454
v 0.154942 2.759427 0.503212
v -0.552898 1.875318 0.222153
v -0.080838 2.588952 1.633269
v -0.788677 1.704842 1.352209
vn -0.7689 0.6361 -0.0645
vt 0.043868 0.484769
vt 0.275137 0.484769
vt 0.275137 0.716037
vt 0.043868 0.716037
s 0
usemtl Grass
f 613/613/154 614/614/154 616/615/154 615/616/154
o Plane.455
v -0.372916 2.883795 0.068089
v -0.506478 1.899578 0.267894
v -1.365917 3.043356 0.190284
v -1.499480 2.059139 0.390089
vn -0.1482 -0.1774 -0.9729
vt 0.043868 0.484769
vt 0.275137 0.484769
vt 0.275137 0.716037
vt 0.043868 0.716037
s 0
usemtl Grass
f 617/617/155 618/618/155 620/619/155 619/620/155
o Plane.456
v 0.779735 2.701718 0.071254
v -0.193086 2.458870 -0.073962
v 0.529309 3.198621 0.917906
v -0.443512 2.955773 0.772690
vn -0.1300 0.8379 -0.5302
vt 0.043868 0.484769
vt 0.275137 0.484769
vt 0.275137 0.716037
vt 0.043868 0.716037
s 0
usemtl Grass
f 621/621/156 622/622/156 624/623/156 623/624/156
o Plane.457
v 0.690573 3.195300 0.193718
v -0.175987 2.886976 -0.231083
v 0.430053 4.159748 0.025152
v -0.436506 3.851424 -0.399650
vn 0.4498 -0.0345 -0.8925
vt 0.043868 0.484769
vt 0.275137 0.484769
vt 0.275137 0.716037
vt 0.043868 0.716037
s 0
usemtl Grass
f 625/625/157 626/626/157 628/627/157 627/628/157
o Plane.458
v -0.892254 2.784089 -0.097517
v -0.108369 2.301424 -0.520607
v -1.529099 2.115980 -0.515254
v -0.745215 1.633315 -0.938344
vn -0.0790 0.5815 -0.8097
vt 0.043868 0.484769
vt 0.275137 0.484769
vt 0.275137 0.716037
vt 0.043868 0.716037
s 0
usemtl Grass
f 629/629/158 630/630/158 632/631/158 631/632/158
o Plane.459
v -0.407632 2.795150 -0.422938
v -0.475174 1.708593 -0.616615
v -0.369518 2.986777 -1.511287
v -0.437060 1.900221 -1.704964
vn 0.9975 -0.0662 0.0233
vt 0.043868 0.484769
vt 0.275137 0.484769
vt 0.275137 0.716037
vt 0.043868 0.716037
s 0
usemtl Grass
f 633/633/159 634/634/159 636/635/159 635/636/159
o Plane.460
v -0.716107 2.688985 0.233868
v 0.149610 2.701041 -0.472257
v -0.669501 3.802652 0.310021
v 0.196216 3.814708 -0.396103
vn 0.6307 -0.0792 0.7719
vt 0.043868 0.484769
vt 0.275137 0.484769
vt 0.275137 0.716037
vt 0.043868 0.716037
s 0
usemtl Grass
f 637/637/160 638/638/160 640/639/160 639/640/160
o Plane.461
v -0.770973 2.834717 -0.542230
v 0.078472 2.533883 -0.079211
v -0.470237 3.799280 -0.467255
v 0.379208 3.498446 -0.004236
vn -0.4571 0.0736 0.8864
vt 0.043868 0.484769
vt 0.275137 0.484769
vt 0.275137 0.716037
vt 0.043868 0.716037
s 0
usemtl Grass
f 641/641/161 642/642/161 644/643/161 643/644/161
o Plane.462
v -0.451617 2.804034 -1.014442
v -0.036424 2.836062 -0.090843
v -0.587319 3.807699 -0.988243
v -0.172126 3.839727 -0.064645
vn -0.9023 -0.1327 0.4102
vt 0.043868 0.484769
vt 0.275137 0.484769
vt 0.275137 0.716037
vt 0.043868 0.716037
s 0
usemtl Grass
f 645/645/162 646/646/162 648/647/162 647/648/162
o Plane.463
v 0.796848 2.206792 -0.937099
v -0.413524 1.569714 0.371780
v 0.413294 3.988438 -0.424598
v -0.797078 3.351361 0.884282
vn -0.7418 0.0330 -0.6699
vt 0.043868 0.484769
vt 0.275137 0.484769
vt 0.275137 0.716037
vt 0.043868 0.716037
s 0
usemtl Grass
f 649/649/163 650/650/163 652/651/163 651/652/163
o Plane.464
v -0.571003 2.808191 -0.942936
v 0.120249 2.835571 -0.217085
v -0.675461 3.803524 -0.881002
v 0.015791 3.830905 -0.155152
vn -0.7169 -0.1180 0.6872
vt 0.043868 0.484769
vt 0.275137 0.484769
vt 0.275137 0.716037
vt 0.043868 0.716037
s 0
usemtl Grass
f 653/653/164 654/654/164 656/655/164 655/656/164
o Plane.465
v 0.418313 2.864707 -0.772954
v 0.034965 2.535237 0.105077
v 0.328748 3.821789 -0.452926
v -0.054600 3.492319 0.425106
vn -0.9214 0.0429 -0.3862
vt 0.043868 0.484769
vt 0.275137 0.484769
vt 0.275137 0.716037
vt 0.043868 0.716037
s 0
usemtl Grass
f 657/657/165 658/658/165 660/659/165 659/660/165
o Plane.466
v 1.104082 3.105210 -0.247873
v 0.263730 3.030530 0.313087
v 0.600243 3.661232 -0.928631
v -0.240109 3.586552 -0.367671
vn -0.2543 -0.8327 -0.4919
vt 0.043868 0.484769
vt 0.275137 0.484769
vt 0.275137 0.716037
vt 0.043868 0.716037
s 0
usemtl Grass
f 661/661/166 662/662/166 664/663/166 663/664/166
o Plane.467
v 0.481521 2.885890 0.423445
v -0.253067 2.524444 -0.173364
v 0.154558 3.829772 0.254248
v -0.580030 3.468325 -0.342562
vn 0.6084 0.0690 -0.7906
vt 0.043868 0.484769
vt 0.275137 0.484769
vt 0.275137 0.716037
vt 0.043868 0.716037
s 0
usemtl Grass
f 665/665/167 666/666/167 668/667/167 667/668/167
o Plane.468
v -0.311629 2.020104 -0.928753
v 0.067819 2.020104 0.010643
v 0.331116 2.758968 -1.188375
v 0.710564 2.758968 -0.248979
vn -0.6762 0.6842 0.2731
vt 0.043868 0.484769
vt 0.275137 0.484769
vt 0.275137 0.716037
vt 0.043868 0.716037
s 0
usemtl Grass
f 669/669/168 670/670/168 672/671/168 671/672/168
o Plane.469
v -0.365278 2.278856 -0.939700
v 0.334785 2.276818 -0.221824
v -0.441036 3.275758 -0.862990
v 0.259026 3.273720 -0.145115
vn -0.7119 -0.1075 0.6940
vt 0.043868 0.484769
vt 0.275137 0.484769
vt 0.275137 0.716037
vt 0.043868 0.716037
s 0
usemtl Grass
f 673/673/169 674/674/169 676/675/169 675/676/169
o Plane.470
v 0.540148 2.623291 -0.044449
v -0.035323 1.860859 0.293152
v 1.193271 2.466144 0.713958
v 0.617799 1.703711 1.051558
vn -0.5117 0.6400 0.5732
vt 0.043868 0.484769
vt 0.275137 0.484769
vt 0.275137 0.716037
vt 0.043868 0.716037
s 0
usemtl Grass
f 677/677/170 678/678/170 680/679/170 679/680/170
o Plane.471
v 0.418223 2.679862 -0.006068
v 0.485175 1.694235 0.218660
v -0.086490 2.842414 0.857232
v -0.019538 1.856787 1.081960
vn -0.8646 -0.1668 -0.4740
vt 0.043868 0.484769
vt 0.275137 0.484769
vt 0.275137 0.716037
vt 0.043868 0.716037
s 0
usemtl Grass
f 681/681/171 682/682/171 684/683/171 683/684/171
o Plane.472
v 0.684737 2.355011 -0.857393
v -0.024370 2.117824 -0.173759
v 1.210191 2.844306 -0.142597
v 0.501084 2.607120 0.541036
vn -0.4911 0.8438 -0.2166
vt 0.043868 0.484769
vt 0.275137 0.484769
vt 0.275137 0.716037
vt 0.043868 0.716037
s 0
usemtl Grass
f 685/685/172 686/686/172 688/687/172 687/688/172
o Plane.473
v 0.621928 2.321743 -0.889030
v 0.239622 1.990897 -0.011061
v 0.562955 3.276399 -0.554966
v 0.180649 2.945554 0.323003
vn -0.9242 0.0740 -0.3746
vt 0.043868 0.484769
vt 0.275137 0.484769
vt 0.275137 0.716037
vt 0.043868 0.716037
s 0
usemtl Grass
f 689/689/173 690/690/173 692/691/173 691/692/173
o Plane.474
v 0.167914 2.778131 0.380994
v -0.046986 1.972512 -0.194540
v -0.595874 2.538286 1.001918
v -0.810775 1.732666 0.426384
vn -0.6218 0.5583 -0.5493
vt 0.043868 0.484769
vt 0.275137 0.484769
vt 0.275137 0.716037
vt 0.043868 0.716037
s 0
usemtl Grass
f 693/693/174 694/694/174 696/695/174 695/696/174
o Plane.475
v -0.148943 1.759458 0.289896
v 0.069849 2.744445 0.198379
v 0.675067 1.629850 0.864921
v 0.893859 2.614836 0.773404
vn 0.5402 -0.1960 -0.8184
vt 0.043868 0.484769
vt 0.275137 0.484769
vt 0.275137 0.716037
vt 0.043868 0.716037
s 0
usemtl Grass
f 697/697/175 698/698/175 700/699/175 699/700/175
o Plane.476
v 1.079895 2.012644 -0.376762
v 0.074391 2.019348 -0.252823
v 1.168784 2.757619 0.304087
v 0.163280 2.764323 0.428026
vn -0.0855 0.6777 -0.7304
vt 0.043868 0.484769
vt 0.275137 0.484769
vt 0.275137 0.716037
vt 0.043868 0.716037
s 0
usemtl Grass
f 701/701/176 702/702/176 704/703/176 703/704/176
o Plane.477
v 1.116991 2.266833 -0.429079
v 0.233602 2.274389 0.066915
v 1.067401 3.273431 -0.532735
v 0.184012 3.280987 -0.036741
vn -0.4872 -0.1132 -0.8659
vt 0.043868 0.484769
vt 0.275137 0.484769
vt 0.275137 0.716037
vt 0.043868 0.716037
s 0
usemtl Grass
f 705/705/177 706/706/177 708/707/177 707/708/177
o Plane.478
v 0.008952 2.627404 0.211882
v -0.172770 1.859801 -0.423892
v -0.893236 2.479393 0.648453
v -1.074958 1.711791 0.012679
vn -0.4182 0.6361 -0.6485
vt 0.043868 0.484769
vt 0.275137 0.484769
vt 0.275137 0.716037
vt 0.043868 0.716037
s 0
usemtl Grass
f 709/709/178 710/710/178 712/711/178 711/712/178
o Plane.479
v 0.003667 2.682772 0.083642
v -0.236127 1.698555 0.099764
v -0.699119 2.842333 -0.628452
v -0.938913 1.858116 -0.612329
vn 0.6803 -0.1774 -0.7111
vt 0.043868 0.484769
vt 0.275137 0.484769
vt 0.275137 0.716037
vt 0.043868 0.716037
s 0
usemtl Grass
f 713/713/179 714/714/179 716/715/179 715/716/179
o Plane.480
v 0.755504 2.358405 0.564099
v 0.276878 2.115557 -0.295195
v -0.068042 2.855308 0.882382
v -0.546668 2.612460 0.023088
vn 0.3407 0.8379 -0.4265
vt 0.043868 0.484769
vt 0.275137 0.484769
vt 0.275137 0.716037
vt 0.043868 0.716037
s 0
usemtl Grass
f 717/717/180 718/718/180 720/719/180 719/720/180
o Plane.481
v 0.802104 2.324377 0.511915
v 0.050834 1.991923 -0.080970
v 0.499836 3.279281 0.359479
v -0.251434 2.946827 -0.233406
vn 0.6009 0.0630 -0.7968
vt 0.043868 0.484769
vt 0.275137 0.484769
vt 0.275137 0.716037
vt 0.043868 0.716037
s 0
usemtl Grass
f 721/721/181 722/722/181 724/723/181 723/724/181
o Plane.482
v -0.338286 2.792693 -0.269262
v 0.331177 1.900026 -0.325727
v -0.783731 2.521120 -1.257215
v -0.114268 1.628452 -1.313680
vn 0.6942 0.5500 -0.4642
vt 0.043868 0.484769
vt 0.275137 0.484769
vt 0.275137 0.716037
vt 0.043868 0.716037
s 0
usemtl Grass
f 725/725/182 726/726/182 728/727/182 727/728/182
o Plane.483
v -0.263350 2.799879 -0.258077
v -0.160534 1.804327 -0.415395
v 0.547945 2.975457 -0.838953
v 0.650761 1.979905 -0.996272
vn 0.5903 -0.0662 0.8045
vt 0.043868 0.484769
vt 0.275137 0.484769
vt 0.275137 0.716037
vt 0.043868 0.716037
s 0
usemtl Grass
f 729/729/183 730/730/183 732/731/183 731/732/183
o Plane.484
v 0.571193 2.587505 0.592016
v -0.063410 1.746730 0.964306
v 1.291426 2.414210 1.428351
v 0.656823 1.573435 1.800642
vn -0.5117 0.6400 0.5732
vt 0.043868 0.484769
vt 0.275137 0.484769
vt 0.275137 0.716037
vt 0.043868 0.716037
s 0
usemtl Grass
f 733/733/184 734/734/184 736/735/184 735/736/184
o Plane.485
v 0.043452 2.817249 0.721059
v 0.117284 1.730346 0.968879
v -0.513122 2.996505 1.673066
v -0.439290 1.909602 1.920885
vn -0.8646 -0.1668 -0.4740
vt 0.043868 0.484769
vt 0.275137 0.484769
vt 0.275137 0.716037
vt 0.043868 0.716037
s 0
usemtl Grass
f 737/737/185 738/738/185 740/739/185 739/740/185
o Plane.486
v -0.404682 2.598325 0.846489
v -0.619582 1.792705 0.270955
v -1.168470 2.358479 1.467413
v -1.383370 1.552859 0.891879
vn -0.6218 0.5583 -0.5493
vt 0.043868 0.484769
vt 0.275137 0.484769
vt 0.275137 0.716037
vt 0.043868 0.716037
s 0
usemtl Grass
f 741/741/186 742/742/186 744/743/186 743/744/186
o Plane.487
v 0.683039 1.797565 0.055482
v 0.901832 2.782552 -0.036035
v 1.507049 1.667957 0.630507
v 1.725842 2.652944 0.538990
vn 0.5402 -0.1960 -0.8184
vt 0.043868 0.484769
vt 0.275137 0.484769
vt 0.275137 0.716037
vt 0.043868 0.716037
s 0
usemtl Grass
f 745/745/187 746/746/187 748/747/187 747/748/187
o Plane.488
v -0.536711 3.182373 0.236365
v -1.034024 2.503103 -0.327298
v -1.381980 3.362505 0.765059
v -1.879293 2.683235 0.201396
vn -0.2510 0.7203 -0.6466
vt 0.043868 0.484769
vt 0.275137 0.484769
vt 0.275137 0.716037
vt 0.043868 0.716037
s 0
usemtl Grass
f 749/749/188 750/750/188 752/751/188 751/752/188
o Plane.489
v -0.523197 2.802392 -0.450200
v -0.762991 1.818174 -0.434077
v -1.225983 2.961953 -1.162293
v -1.465777 1.977736 -1.146171
vn 0.6803 -0.1774 -0.7111
vt 0.043868 0.484769
vt 0.275137 0.484769
vt 0.275137 0.716037
vt 0.043868 0.716037
s 0
usemtl Grass
f 753/753/189 754/754/189 756/755/189 755/756/189
o Plane.490
v -0.643959 2.675888 -0.611212
v -0.002415 1.820447 -0.665322
v -1.070827 2.415639 -1.557965
v -0.429283 1.560199 -1.612074
vn 0.6942 0.5500 -0.4642
vt 0.043868 0.484769
vt 0.275137 0.484769
vt 0.275137 0.716037
vt 0.043868 0.716037
s 0
usemtl Grass
f 757/757/190 758/758/190 760/759/190 759/760/190
o Plane.491
v 0.375847 2.712037 -0.742153
v 0.488061 1.625480 -0.913852
v 1.261303 2.903664 -1.376128
v 1.373517 1.817108 -1.547827
vn 0.5903 -0.0662 0.8045
vt 0.043868 0.484769
vt 0.275137 0.484769
vt 0.275137 0.716037
vt 0.043868 0.716037
s 0
usemtl Grass
f 761/761/191 762/762/191 764/763/191 763/764/191
o Plane.492
v -0.106832 1.537464 0.975766
v -0.315219 2.198508 0.037002
v -1.155627 1.816116 1.404793
v -1.364013 2.477160 0.466029
vn 0.4004 0.7887 0.4665
vt 0.043868 0.484769
vt 0.275137 0.484769
vt 0.275137 0.716037
vt 0.043868 0.716037
s 0
usemtl Grass
f 765/765/192 766/766/192 768/767/192 767/768/192
o Plane.493
v -0.490414 2.878096 -0.114867
v -0.742550 1.742870 -0.018062
v -1.526535 3.065320 -0.617940
v -1.778670 1.930095 -0.521134
vn 0.4061 -0.1668 -0.8985
vt 0.043868 0.484769
vt 0.275137 0.484769
vt 0.275137 0.716037
vt 0.043868 0.716037
s 0
usemtl Grass
f 769/769/193 770/770/193 772/771/193 771/772/193
o Plane.494
v 0.519060 2.957870 0.758480
v -0.177162 2.317753 0.395202
v -0.125277 3.246259 1.485190
v -0.821498 2.606143 1.121911
vn -0.3511 0.7210 -0.5974
vt 0.043868 0.484769
vt 0.275137 0.484769
vt 0.275137 0.716037
vt 0.043868 0.716037
s 0
usemtl Grass
f 773/773/194 774/774/194 776/775/194 775/776/194
o Plane.495
v -0.727356 2.598871 -0.453960
v -0.175800 1.801538 -0.709855
v -1.398245 2.361493 -1.160357
v -0.846689 1.564160 -1.416252
vn 0.4998 0.5583 -0.6622
vt 0.043868 0.484769
vt 0.275137 0.484769
vt 0.275137 0.716037
vt 0.043868 0.716037
s 0
usemtl Grass
f 777/777/195 778/778/195 780/779/195 779/780/195
o Plane.496
v -0.542509 1.662293 0.401656
v -0.434425 2.647280 0.612757
v -1.052414 1.532685 1.267476
v -0.944330 2.517672 1.478576
vn 0.8575 -0.1960 0.4757
vt 0.043868 0.484769
vt 0.275137 0.484769
vt 0.275137 0.716037
vt 0.043868 0.716037
s 0
usemtl Grass
f 781/781/196 782/782/196 784/783/196 783/784/196
o Plane.497
v -0.613576 2.546273 -0.659125
v 0.273318 2.252625 -1.023305
v -1.047530 2.321465 -1.534672
v -0.160635 2.027817 -1.898852
vn 0.1743 0.9295 -0.3250
vt 0.043868 0.484769
vt 0.275137 0.484769
vt 0.275137 0.716037
vt 0.043868 0.716037
s 0
usemtl Grass
f 785/785/197 786/786/197 788/787/197 787/788/197
o Plane.498
v 1.107293 2.448041 -0.502605
v 0.304787 2.012099 -0.916582
v 1.396511 2.773407 -1.405892
v 0.594006 2.337465 -1.819869
vn 0.5256 -0.8401 -0.1343
vt 0.043868 0.484769
vt 0.275137 0.484769
vt 0.275137 0.716037
vt 0.043868 0.716037
s 0
usemtl Grass
f 789/789/198 790/790/198 792/791/198 791/792/198
o Plane.499
v 0.682624 3.654939 -0.249111
v -0.226682 2.589744 -0.233893
v 1.076030 3.337769 1.057161
v 0.166724 2.272573 1.072378
vn -0.7068 0.6085 0.3606
vt 0.043868 0.484769
vt 0.275137 0.484769
vt 0.275137 0.716037
vt 0.043868 0.716037
s 0
usemtl Grass
f 793/793/199 794/794/199 796/795/199 795/796/199
o Plane.500
v 0.858286 2.706886 0.169224
v 1.023050 1.711334 0.259628
v 1.499875 2.882463 0.933411
v 1.664639 1.886912 1.023815
vn -0.7567 -0.0662 0.6505
vt 0.043868 0.484769
vt 0.275137 0.484769
vt 0.275137 0.716037
vt 0.043868 0.716037
s 0
usemtl Grass
f 797/797/200 798/798/200 800/799/200 799/800/200
o Plane.502
v 0.980176 2.430667 -0.811891
v 1.141406 2.098213 0.131467
v 1.102687 3.385572 -0.496306
v 1.263917 3.053118 0.447052
vn -0.9798 0.0630 0.1897
vt 0.043868 0.484769
vt 0.275137 0.484769
vt 0.275137 0.716037
vt 0.043868 0.716037
s 0
usemtl Grass
f 801/801/201 802/802/201 804/803/201 803/804/201
o Plane.503
v -0.118385 2.432938 -1.372317
v 0.715491 2.103904 -0.923066
v 0.202370 3.378021 -1.275501
v 1.036246 3.048986 -0.826250
vn -0.4540 0.0630 0.8888
vt 0.043868 0.484769
vt 0.275137 0.484769
vt 0.275137 0.716037
vt 0.043868 0.716037
s 0
usemtl Grass
f 805/805/202 806/806/202 808/807/202 807/808/202
o Plane.504
v -0.369708 2.430667 -1.558722
v -0.907507 2.098213 -0.767083
v -0.500199 3.385571 -1.246352
v -1.037998 3.053118 -0.454713
vn -0.8376 0.0630 -0.5426
vt 0.043868 0.484769
vt 0.275137 0.484769
vt 0.275137 0.716037
vt 0.043868 0.716037
s 0
usemtl Grass
f 809/809/203 810/810/203 812/811/203 811/812/203
o Plane.505
v -1.182859 2.430667 0.234988
v -0.485311 2.098213 0.890233
v -0.894807 3.385571 0.412832
v -0.197259 3.053118 1.068077
vn -0.6672 0.0630 0.7422
vt 0.043868 0.484769
vt 0.275137 0.484769
vt 0.275137 0.716037
vt 0.043868 0.716037
s 0
usemtl Grass
f 813/813/204 814/814/204 816/815/204 815/816/204
o Plane.506
v 0.951733 2.651452 -0.432510
v 0.669198 2.318998 0.481871
v 0.918387 3.606356 -0.095627
v 0.635852 3.273902 0.818754
vn -0.9598 0.0630 -0.2736
vt 0.043868 0.484769
vt 0.275137 0.484769
vt 0.275137 0.716037
vt 0.043868 0.716037
s 0
usemtl Grass
f 817/817/205 818/818/205 820/819/205 819/820/205
o Plane.507
v 0.882511 2.885890 0.356955
v 0.132290 2.524444 0.933990
v 0.642427 3.829772 0.636048
v -0.107794 3.468325 1.213083
vn -0.6289 0.0690 -0.7744
vt 0.043868 0.484769
vt 0.275137 0.484769
vt 0.275137 0.716037
vt 0.043868 0.716037
s 0
usemtl Grass
f 821/821/206 822/822/206 824/823/206 823/824/206
o Plane.508
v -0.697606 2.885890 0.905068
v -1.119806 2.524444 0.057986
v -0.925391 3.829772 0.615850
v -1.347590 3.468325 -0.231233
vn 0.8808 0.0690 -0.4684
vt 0.043868 0.484769
vt 0.275137 0.484769
vt 0.275137 0.716037
vt 0.043868 0.716037
s 0
usemtl Grass
f 825/825/207 826/826/207 828/827/207 827/828/207
o Plane.509
v 0.850512 2.913290 -0.661028
v 0.606079 3.036715 0.303574
v 0.248909 3.675537 -0.911009
v 0.004477 3.798962 0.053593
vn -0.7620 -0.6379 -0.1115
vt 0.043868 0.484769
vt 0.275137 0.484769
vt 0.275137 0.716037
vt 0.043868 0.716037
s 0
usemtl Grass
f 829/829/208 830/830/208 832/831/208 831/832/208
o Plane.510
v 0.686484 3.274537 -0.488842
v -0.153284 2.288689 0.012173
v 0.995156 3.669671 0.806038
v 0.155388 2.683822 1.307053
vn -0.7647 0.6442 -0.0143
vt 0.043868 0.484769
vt 0.275137 0.484769
vt 0.275137 0.716037
vt 0.043868 0.716037
s 0
usemtl Grass
f 833/833/209 834/834/209 836/835/209 835/836/209
o Plane.511
v 0.980176 2.850848 -0.811891
v 1.141406 2.518394 0.131467
v 1.102687 3.805753 -0.496306
v 1.263917 3.473299 0.447052
vn -0.9798 0.0630 0.1897
vt 0.043868 0.484769
vt 0.275137 0.484769
vt 0.275137 0.716037
vt 0.043868 0.716037
s 0
usemtl Grass
f 837/837/210 838/838/210 840/839/210 839/840/210
o Plane.512
v 0.951733 3.268969 -0.432510
v 0.669198 2.936515 0.481871
v 0.918387 4.223874 -0.095627
v 0.635852 3.891420 0.818754
vn -0.9598 0.0630 -0.2736
vt 0.043868 0.484769
vt 0.275137 0.484769
vt 0.275137 0.716037
vt 0.043868 0.716037
s 0
usemtl Grass
f 841/841/211 842/842/211 844/843/211 843/844/211
o Plane.513
v 0.240340 2.871185 0.781914
v 0.160683 2.860689 -0.228032
v 0.379490 3.874491 0.760513
v 0.299833 3.863996 -0.249433
vn 0.9874 -0.1386 -0.0764
vt 0.043868 0.484769
vt 0.275137 0.484769
vt 0.275137 0.716037
vt 0.043868 0.716037
s 0
usemtl Grass
f 845/845/212 846/846/212 848/847/212 847/848/212
o Plane.514
v 0.114072 3.676648 0.470985
v 0.471976 2.611454 -0.365063
v -1.238873 3.359478 0.295906
v -0.880970 2.294282 -0.540142
vn -0.0401 0.6085 -0.7925
vt 0.043868 0.484769
vt 0.275137 0.484769
vt 0.275137 0.716037
vt 0.043868 0.716037
s 0
usemtl Grass
f 849/849/213 850/850/213 852/851/213 851/852/213
o Plane.515
v 0.513009 2.850848 1.184659
v -0.413814 2.518394 0.946083
v 0.174917 3.805753 1.167428
v -0.751906 3.473299 0.928852
vn 0.2275 0.0630 -0.9717
vt 0.043868 0.484769
vt 0.275137 0.484769
vt 0.275137 0.716037
vt 0.043868 0.716037
s 0
usemtl Grass
f 853/853/214 854/854/214 856/855/214 855/856/214
o Plane.516
v 0.171411 2.673161 0.791560
v -0.547525 2.340707 0.159856
v -0.122392 3.628066 0.623386
v -0.841328 3.295612 -0.008318
vn 0.6421 0.0630 -0.7640
vt 0.043868 0.484769
vt 0.275137 0.484769
vt 0.275137 0.716037
vt 0.043868 0.716037
s 0
usemtl Grass
f 857/857/215 858/858/215 860/859/215 859/860/215
o Plane.517
v -0.812385 3.435138 0.385453
v -0.929357 2.170657 0.177373
v -0.991205 3.658145 -0.869212
v -1.108176 2.393664 -1.077292
vn 0.9861 -0.0662 -0.1523
vt 0.043868 0.484769
vt 0.275137 0.484769
vt 0.275137 0.716037
vt 0.043868 0.716037
s 0
usemtl Grass
f 861/861/216 862/862/216 864/863/216 863/864/216
o Plane.518
v 0.849684 2.263660 -1.439891
v 0.935226 1.525656 -0.620922
v 1.401385 3.003489 -0.830829
v 1.486926 2.265485 -0.011860
vn -0.8632 0.3269 0.3848
vt 0.043868 0.484769
vt 0.275137 0.484769
vt 0.275137 0.716037
vt 0.043868 0.716037
s 0
usemtl Grass
f 865/865/217 866/866/217 868/867/217 867/868/217
o Plane.519
v -0.232473 1.948098 -0.076273
v 0.545353 1.422245 -0.187299
v 0.869226 3.544425 0.081326
v 1.647053 3.018571 -0.029701
vn 0.0513 -0.1331 0.9898
vt 0.690949 0.498050
vt 0.864222 0.498050
vt 0.864222 0.849632
vt 0.690949 0.849632
s 0
usemtl Grass
f 869/869/218 870/870/218 872/871/218 871/872/218
o Plane.520
v 0.174809 2.163295 -0.540346
v 0.474758 1.638755 0.183735
v 0.295421 3.755635 0.563218
v 0.595370 3.231095 1.287298
vn -0.9460 -0.1331 0.2955
vt 0.690949 0.498050
vt 0.864222 0.498050
vt 0.864222 0.849632
vt 0.690949 0.849632
s 0
usemtl Grass
f 873/873/219 874/874/219 876/875/219 875/876/219
o Plane.521
v 0.815475 2.008893 0.255631
v -0.037392 1.391011 -0.097845
v -0.203991 3.884590 -0.563347
v -1.056859 3.266709 -0.916823
vn 0.4602 -0.1331 -0.8778
vt 0.690949 0.498050
vt 0.864222 0.498050
vt 0.864222 0.849632
vt 0.690949 0.849632
s 0
usemtl Grass
f 877/877/220 878/878/220 880/879/220 879/880/220
o Plane.522
v 0.445877 2.455023 -0.393916
v 0.280774 1.737811 0.034883
v -0.476300 3.370811 0.782766
v -0.641402 2.653600 1.211566
vn -0.8281 -0.1347 -0.5442
vt 0.690949 0.498050
vt 0.864222 0.498050
vt 0.864222 0.849632
vt 0.690949 0.849632
s 0
usemtl Grass
f 881/881/221 882/882/221 884/883/221 883/884/221
o Plane.501
v -1.438054 1.323172 0.866065
v -0.524174 0.929755 1.534985
v -1.074054 2.453180 1.033369
v -0.160175 2.059763 1.702289
vn -0.5717 0.0630 0.8181
vt 0.043868 0.484769
vt 0.275137 0.484769
vt 0.275137 0.716037
vt 0.043868 0.716037
s 0
usemtl Grass
f 885/885/222 886/886/222 888/887/222 887/888/222
o Plane.523
v -0.279596 2.696774 1.598691
v -0.992925 2.389692 1.076565
v -0.563716 3.578803 1.468101
v -1.277045 3.271721 0.945975
vn 0.5717 0.0630 -0.8181
vt 0.043868 0.484769
vt 0.275137 0.484769
vt 0.275137 0.716037
vt 0.043868 0.716037
s 0
usemtl Grass
f 889/889/223 890/890/223 892/891/223 891/892/223
o Plane.524
v -0.976144 1.323172 -1.306053
v -1.409664 0.929755 -0.259779
v -1.052507 2.453181 -0.912791
v -1.486027 2.059763 0.133484
vn -0.9302 0.0630 -0.3617
vt 0.043868 0.484769
vt 0.275137 0.484769
vt 0.275137 0.716037
vt 0.043868 0.716037
s 0
usemtl Grass
f 893/893/224 894/894/224 896/895/224 895/896/224
o Plane.525
v -1.413648 2.696774 -0.007072
v -1.075264 2.389692 -0.823742
v -1.354043 3.578803 -0.314033
v -1.015659 3.271721 -1.130703
vn 0.9302 0.0630 0.3617
vt 0.043868 0.484769
vt 0.275137 0.484769
vt 0.275137 0.716037
vt 0.043868 0.716037
s 0
usemtl Grass
f 897/897/225 898/898/225 900/899/225 899/900/225
o Plane.526
v 1.612334 1.323172 -0.091011
v 1.012356 0.929755 -1.051560
v 1.336537 2.453181 -0.381566
v 0.736559 2.059764 -1.342115
vn 0.8347 0.0630 -0.5472
vt 0.043868 0.484769
vt 0.275137 0.484769
vt 0.275137 0.716037
vt 0.043868 0.716037
s 0
usemtl Grass
f 901/901/226 902/902/226 904/903/226 903/904/226
o Plane.527
v 0.320898 2.889024 -1.244077
v 1.018378 2.581942 -0.700960
v 0.601007 3.771053 -1.105092
v 1.298487 3.463971 -0.561975
vn -0.5957 0.0630 0.8007
vt 0.043868 0.484769
vt 0.275137 0.484769
vt 0.275137 0.716037
vt 0.043868 0.716037
s 0
usemtl Grass
f 905/905/227 906/906/227 908/907/227 907/908/227
o Plane.528
v 0.930720 1.323172 1.680104
v 1.395175 0.929755 0.647190
v 1.018749 2.453181 1.289288
v 1.483204 2.059763 0.256374
vn 0.9190 0.0630 0.3892
vt 0.043868 0.484769
vt 0.275137 0.484769
vt 0.275137 0.716037
vt 0.043868 0.716037
s 0
usemtl Grass
f 909/909/228 910/910/228 912/911/228 911/912/228
o Plane.529
v 1.298203 2.504363 0.490246
v 0.986511 2.292804 1.346893
v 0.900053 3.348859 0.553936
v 0.588361 3.137300 1.410583
vn -0.8415 -0.3668 -0.3967
vt 0.043868 0.484769
vt 0.275137 0.484769
vt 0.275137 0.716037
vt 0.043868 0.716037
s 0
usemtl Grass
f 913/913/229 914/914/229 916/915/229 915/916/229
o Plane.530
v -0.888079 1.173738 0.704121
v -1.268790 1.314651 -0.286580
v -0.911401 2.232179 0.863632
v -1.292112 2.373092 -0.127069
vn 0.9344 0.0731 -0.3487
vt 0.043868 0.484769
vt 0.275137 0.484769
vt 0.275137 0.716037
vt 0.043868 0.716037
s 0
usemtl Grass
f 917/917/230 918/918/230 920/919/230 919/920/230
