# Blender 5.2.0 LTS
# www.blender.org
mtllib grass_tall1.mtl
o Plane.073
v 6.369087 0.127110 2.726998
v 6.592303 0.127110 2.726998
v 6.369087 1.515200 2.874960
v 6.592303 1.515200 2.874960
v 6.369087 0.821155 2.697304
v 6.592303 0.821155 2.697304
v 6.592303 1.168178 2.790147
v 6.369087 1.168178 2.774197
v 6.369087 0.474133 2.711791
v 6.592303 0.474133 2.711791
vn -0.0000 0.0438 0.9990
vn -0.0345 -0.2582 0.9655
vn -0.0175 -0.0989 0.9949
vn -0.0346 -0.2479 0.9682
vn -0.0346 -0.2477 0.9682
vn -0.0000 0.0427 0.9991
vt 0.117741 0.380588
vt 0.164930 0.380588
vt 0.164930 0.448086
vt 0.117741 0.448086
vt 0.117741 0.245593
vt 0.164930 0.245593
vt 0.164930 0.313091
vt 0.117741 0.313091
vt 0.117741 0.178096
vt 0.164930 0.178096
s 1
usemtl Grass
f 8/1/5 7/2/4 4/3/2 3/4/2
f 9/5/6 10/6/6 6/7/3 5/8/3
f 5/8/3 6/7/3 7/2/4 8/1/5
f 1/9/1 2/10/1 10/6/6 9/5/6
