# Blender 5.2.0 LTS
# www.blender.org
mtllib grass_tall3.mtl
o Plane.075
v 6.502306 0.127110 2.726998
v 6.692492 0.127110 2.726998
v 6.502306 1.309800 2.868975
v 6.692492 1.309800 2.855889
v 6.502306 0.718455 2.698765
v 6.692492 0.718455 2.698765
v 6.692492 1.014127 2.733673
v 6.502306 1.014127 2.746333
v 6.502306 0.422782 2.715122
v 6.692492 0.422782 2.715122
vn -0.0000 0.0401 0.9992
vn 0.0624 -0.3818 0.9221
vn 0.0166 -0.0416 0.9990
vn 0.0480 -0.2616 0.9640
vn 0.0482 -0.2628 0.9637
vn -0.0000 0.0477 0.9989
vt 0.205467 0.350499
vt 0.244204 0.350499
vt 0.244204 0.405907
vt 0.205467 0.405907
vt 0.205467 0.239683
vt 0.244204 0.239683
vt 0.244204 0.295091
vt 0.205467 0.295091
vt 0.205467 0.184274
vt 0.244204 0.184274
s 1
usemtl Grass
f 8/1/5 7/2/4 4/3/2 3/4/2
f 9/5/6 10/6/6 6/7/3 5/8/3
f 5/8/3 6/7/3 7/2/4 8/1/5
f 1/9/1 2/10/1 10/6/6 9/5/6
