# Blender 5.2.0 LTS
# www.blender.org
mtllib grass_tall2.mtl
o Plane.074
v -0.089145 -0.054641 -0.091939
v 0.089145 -0.054641 -0.091939
v -0.089145 1.054072 0.019564
v 0.089145 1.054072 0.038081
v -0.089145 0.499715 -0.118869
v 0.089145 0.499715 -0.118869
v 0.089145 0.776894 -0.075911
v -0.089145 0.776894 -0.096738
v -0.089145 0.222537 -0.102641
v 0.089145 0.222537 -0.102641
vn -0.0000 0.0386 0.9993
vn -0.1014 -0.3817 0.9187
vn -0.0291 -0.0292 0.9992
vn -0.0807 -0.2529 0.9641
vn -0.0803 -0.2506 0.9648
vn -0.0000 0.0485 0.9988
vt 0.038470 0.340129
vt 0.075201 0.340129
vt 0.075201 0.392667
vt 0.038470 0.392667
vt 0.038470 0.235053
vt 0.075201 0.235053
vt 0.075201 0.287591
vt 0.038470 0.287591
vt 0.038470 0.182514
vt 0.075201 0.182514
s 1
usemtl Grass
f 8/1/5 7/2/4 4/3/2 3/4/2
f 9/5/6 10/6/6 6/7/3 5/8/3
f 5/8/3 6/7/3 7/2/4 8/1/5
f 1/9/1 2/10/1 10/6/6 9/5/6
