# Blender 5.2.0 LTS
# www.blender.org
mtllib grass3.mtl
o Grass3
v -3.111293 0.130539 2.818937
v -1.843642 0.130539 2.818937
v -3.111293 1.602771 2.818937
v -1.843642 1.602771 2.818937
vn -0.0000 -0.0000 1.0000
vt 0.319604 0.018294
vt 0.624524 0.018294
vt 0.624524 0.359752
vt 0.319604 0.359752
s 0
usemtl Grass
f 1/1/1 2/2/1 4/3/1 3/4/1
o Plane.011
v -2.076073 0.130539 3.429238
v -2.878862 0.130539 2.208636
v -2.076073 1.827253 3.429238
v -2.878862 1.827253 2.208636
vn 0.8355 -0.0000 -0.5495
vt 0.319604 0.018294
vt 0.624524 0.018294
vt 0.624524 0.359752
vt 0.319604 0.359752
s 0
usemtl Grass
f 5/5/2 6/6/2 8/7/2 7/8/2
o Plane.012
v -2.091362 0.130539 2.276124
v -2.863574 0.130539 3.361750
v -2.091362 1.677799 2.276124
v -2.863574 1.677799 3.361750
vn -0.8149 -0.0000 -0.5796
vt 0.319604 0.018294
vt 0.624524 0.018294
vt 0.624524 0.359752
vt 0.319604 0.359752
s 0
usemtl Grass
f 9/9/3 10/10/3 12/11/3 11/12/3
