# Blender 5.2.0 LTS
# www.blender.org
mtllib sharp_leaf1.mtl
o Plane.008
v -0.168061 -0.000000 -0.138443
v 0.168061 -0.000000 -0.138443
v -0.168061 2.275110 0.225181
v 0.168061 2.275110 0.225181
v -0.168061 1.137555 -0.183157
v 0.168061 1.137555 -0.183157
v 0.168061 1.706333 -0.043352
v -0.168061 1.706333 -0.067371
v -0.168061 0.568778 -0.197622
v 0.168061 0.568778 -0.197622
vn -0.0000 0.1035 0.9946
vn -0.0320 -0.4421 0.8964
vn -0.0175 -0.1227 0.9923
vn -0.0337 -0.3330 0.9423
vn -0.0337 -0.3314 0.9429
vn -0.0000 0.0391 0.9992
vt 0.685984 0.920672
vt 0.685984 0.967861
vt 0.608444 0.967861
vt 0.608444 0.920672
vt 0.841063 0.920672
vt 0.841063 0.967861
vt 0.763523 0.967861
vt 0.763523 0.920672
vt 0.918603 0.920672
vt 0.918603 0.967861
s 1
usemtl Grass
f 8/1/5 7/2/4 4/3/2 3/4/2
f 9/5/6 10/6/6 6/7/3 5/8/3
f 5/8/3 6/7/3 7/2/4 8/1/5
f 1/9/1 2/10/1 10/6/6 9/5/6
