# Blender 5.2.0 LTS
# www.blender.org
mtllib sharp_leaf2.mtl
o Plane.006
v -0.168061 -0.000000 -0.138443
v 0.168061 -0.000000 -0.138443
v -0.168061 2.956513 0.265295
v 0.168061 2.956513 0.265295
v -0.168061 1.478256 -0.257343
v 0.168061 1.478256 -0.257343
v 0.168061 2.217385 -0.043352
v -0.168061 2.217385 -0.067371
v -0.168061 0.739128 -0.232908
v 0.168061 0.739128 -0.232908
vn -0.0000 0.1268 0.9919
vn -0.0328 -0.3978 0.9169
vn -0.0171 -0.1141 0.9933
vn -0.0337 -0.3307 0.9431
vn -0.0337 -0.3295 0.9436
vn -0.0000 0.0798 0.9968
vt 0.660010 0.853172
vt 0.660010 0.900361
vt 0.564997 0.900361
vt 0.564997 0.853172
vt 0.850037 0.853172
vt 0.850037 0.900361
vt 0.755023 0.900361
vt 0.755023 0.853172
vt 0.945050 0.853172
vt 0.945050 0.900361
s 1
usemtl Grass
f 8/1/5 7/2/4 4/3/2 3/4/2
f 9/5/6 10/6/6 6/7/3 5/8/3
f 5/8/3 6/7/3 7/2/4 8/1/5
f 1/9/1 2/10/1 10/6/6 9/5/6
