# Blender 5.2.0 LTS
# www.blender.org
mtllib rock_small1.mtl
o Rock_small1
v 0.013800 0.040485 -0.044425
v 0.055146 0.018807 -0.052496
v -0.027808 0.035921 -0.051642
v -0.059363 0.003295 -0.058665
v -0.047196 -0.020643 -0.061748
v -0.007902 -0.030131 -0.051849
v 0.045651 -0.024890 -0.041790
v 0.063580 -0.001317 -0.052291
v 0.015064 0.053948 -0.009765
v 0.055647 0.022555 -0.006795
v -0.034229 0.050680 -0.014592
v -0.078727 0.007779 -0.018169
v -0.054779 -0.019099 -0.019858
v -0.012472 -0.027691 -0.015876
v 0.051789 -0.032366 -0.005222
v 0.072847 -0.003699 -0.002268
v 0.015588 0.033967 0.057584
v -0.042264 0.031341 0.052522
v -0.078045 0.006397 0.049294
v -0.050958 -0.020231 0.041446
v -0.011375 -0.029828 0.045511
v 0.027498 -0.025369 0.046895
v 0.048620 0.019910 0.056741
v 0.054242 -0.007748 0.057437
v 0.003026 0.012010 0.091270
v -0.035045 0.009185 0.088113
v 0.017772 -0.004356 0.094992
v 0.021559 -0.015460 0.086717
v -0.019522 -0.026260 0.080114
v 0.009648 -0.025772 0.082413
v -0.045800 -0.001476 0.083906
v -0.039885 -0.018330 0.080660
v 0.018933 0.019067 -0.079222
v -0.020695 0.014519 -0.077388
v 0.033854 0.006223 -0.078358
v 0.042969 -0.003923 -0.071997
v -0.002287 -0.022127 -0.069672
v 0.038091 -0.014139 -0.060786
v -0.022099 0.001009 -0.075482
v -0.014872 -0.012248 -0.075264
vn 0.2140 0.8849 -0.4137
vn 0.6842 0.6088 -0.4015
vn -0.3254 0.7812 -0.5327
vn -0.7820 0.0794 -0.6182
vn -0.4933 -0.6884 -0.5317
vn -0.0401 -0.9604 -0.2757
vn 0.4210 -0.8593 -0.2904
vn 0.8855 -0.1211 -0.4486
vn 0.2355 0.9717 -0.0206
vn 0.7399 0.6724 0.0198
vn -0.3598 0.9277 -0.0994
vn -0.9832 0.0888 -0.1593
vn -0.5451 -0.8359 -0.0642
vn -0.1119 -0.9937 -0.0093
vn 0.4371 -0.8993 0.0138
vn 0.9881 -0.1404 0.0626
vn 0.2170 0.8760 0.4308
vn -0.3849 0.8449 0.3715
vn -0.9468 0.0599 0.3163
vn -0.5154 -0.8500 0.1089
vn -0.0983 -0.9941 0.0457
vn 0.3125 -0.9341 0.1726
vn 0.7046 0.5596 0.4363
vn 0.8476 -0.2818 0.4496
vn 0.0456 0.5226 0.8514
vn -0.2735 0.4679 0.8404
vn 0.2733 0.0621 0.9599
vn 0.4401 -0.4718 0.7640
vn -0.1294 -0.8041 0.5802
vn 0.1373 -0.7958 0.5898
vn -0.5813 -0.0793 0.8099
vn -0.3896 -0.7278 0.5644
vn 0.1273 0.4919 -0.8613
vn -0.2367 0.4206 -0.8758
vn 0.3071 0.2056 -0.9292
vn 0.4923 -0.2616 -0.8302
vn 0.0999 -0.7600 -0.6422
vn 0.3356 -0.7317 -0.5933
vn -0.2780 -0.0010 -0.9606
vn -0.0975 -0.4867 -0.8681
vt 0.818197 0.874139
vt 0.851612 0.852974
vt 0.875899 0.879190
vt 0.837676 0.901460
vt 0.806686 0.934164
vt 0.778072 0.897055
vt 0.964369 0.766770
vt 0.970164 0.788391
vt 0.949763 0.796931
vt 0.940573 0.781344
vt 0.943950 0.806275
vt 0.930833 0.791880
vt 0.930174 0.823505
vt 0.914216 0.806164
vt 0.898507 0.846959
vt 0.881347 0.828475
vt 0.886091 0.866308
vt 0.865377 0.839583
vt 0.831650 0.812218
vt 0.847482 0.804192
vt 0.867353 0.792797
vt 0.889265 0.776414
vt 0.911529 0.767540
vt 0.925441 0.759103
vt 0.936683 0.743507
vt 0.750515 0.830494
vt 0.803397 0.816121
vt 0.750453 0.785495
vt 0.790149 0.777368
vt 0.815724 0.762664
vt 0.838943 0.767562
vt 0.857951 0.761963
vt 0.881837 0.751456
vt 0.898515 0.747064
vt 0.911093 0.742354
vt 0.914621 0.734249
vt 0.753774 0.743485
vt 0.783319 0.734248
vt 0.799182 0.741093
vt 0.736148 0.758452
vt 0.800669 0.756206
vt 0.735793 0.777652
vt 0.875709 0.928883
vt 0.839164 0.960803
vt 0.905351 0.884749
vt 0.897168 0.907601
vt 0.940501 0.834905
vt 0.911676 0.862391
vt 0.959487 0.815258
vt 0.950641 0.824309
vt 0.967914 0.808419
vt 0.924347 0.954823
vt 0.883917 0.986187
vt 0.863468 0.983750
vt 0.916991 0.936915
vt 0.847095 0.975462
vt 0.899508 0.931549
s 1
usemtl rock
f 9/1/9 10/2/10 2/3/2 1/4/1
f 9/1/9 1/4/1 3/5/3 11/6/11
f 11/7/11 3/8/3 4/9/4 12/10/12
f 12/10/12 4/9/4 5/11/5 13/12/13
f 13/12/13 5/11/5 6/13/6 14/14/14
f 14/14/14 6/13/6 7/15/7 15/16/15
f 15/16/15 7/15/7 8/17/8 16/18/16
f 2/3/2 10/2/10 16/18/16 8/17/8
f 10/2/10 23/19/23 24/20/24 16/18/16
f 16/18/16 24/20/24 22/21/22 15/16/15
f 15/16/15 22/21/22 21/22/21 14/14/14
f 14/14/14 21/22/21 20/23/20 13/12/13
f 13/12/13 20/23/20 19/24/19 12/10/12
f 12/10/12 19/24/19 18/25/18 11/7/11
f 11/6/11 18/26/18 17/27/17 9/1/9
f 17/27/17 18/26/18 26/28/26 25/29/25
f 24/20/24 23/19/23 27/30/27 28/31/28
f 21/22/21 22/21/22 30/32/30 29/33/29
f 19/24/19 20/23/20 32/34/32 31/35/31
f 19/24/19 31/35/31 26/36/26 18/25/18
f 23/19/23 17/27/17 25/29/25 27/30/27
f 22/21/22 24/20/24 28/31/28 30/32/30
f 20/23/20 21/22/21 29/33/29 32/34/32
f 29/37/29 30/38/30 28/39/28 32/40/32
f 27/41/27 31/42/31 32/40/32 28/39/28
f 26/28/26 31/42/31 27/41/27 25/29/25
f 3/5/3 1/4/1 33/43/33 34/44/34
f 2/3/2 8/17/8 36/45/36 35/46/35
f 7/15/7 6/13/6 37/47/37 38/48/38
f 5/11/5 4/9/4 39/49/39 40/50/40
f 4/9/4 3/8/3 34/51/34 39/49/39
f 5/11/5 40/50/40 37/47/37 6/13/6
f 2/3/2 35/46/35 33/43/33 1/4/1
f 7/15/7 38/48/38 36/45/36 8/17/8
f 38/52/38 37/53/37 40/54/40 36/55/36
f 36/55/36 40/54/40 39/56/39 35/57/35
f 34/44/34 33/43/33 35/57/35 39/56/39
f 9/1/9 17/27/17 23/19/23 10/2/10
