# Blender 5.2.0 LTS
# www.blender.org
mtllib rock_small2.mtl
o Rock_small2
v 0.118270 1.381918 -0.798485
v 0.176209 1.307548 -0.836568
v 0.051932 1.366527 -0.826193
v -0.003041 1.253492 -0.861015
v 0.015031 1.170516 -0.872688
v 0.078399 1.130796 -0.834908
v 0.163733 1.147153 -0.796771
v 0.186474 1.236612 -0.841044
v 0.122555 1.428146 -0.678608
v 0.185342 1.314044 -0.668706
v 0.046294 1.416719 -0.694702
v -0.022585 1.260568 -0.706694
v 0.014084 1.158274 -0.713030
v 0.079798 1.124631 -0.699273
v 0.179374 1.109046 -0.663462
v 0.211953 1.213516 -0.653612
v 0.126910 1.371066 -0.464346
v 0.031776 1.373764 -0.503905
v -0.037253 1.283295 -0.532427
v 0.013901 1.163138 -0.518378
v 0.086837 1.124622 -0.513808
v 0.157299 1.140602 -0.504618
v 0.186898 1.326392 -0.473957
v 0.219389 1.219023 -0.459340
v 0.130983 1.334155 -0.403996
v 0.045805 1.326404 -0.415318
v 0.179661 1.260875 -0.385299
v 0.189019 1.196842 -0.383369
v 0.082764 1.140776 -0.428381
v 0.152255 1.141974 -0.417340
v 0.022568 1.275387 -0.408530
v 0.037183 1.181633 -0.415019
v 0.115314 1.312016 -0.934700
v 0.053779 1.296492 -0.929006
v 0.136458 1.268713 -0.935419
v 0.150559 1.232908 -0.914208
v 0.082057 1.168227 -0.903652
v 0.145131 1.192844 -0.872905
v 0.049892 1.250049 -0.925830
v 0.061074 1.204425 -0.925100
vn 0.4681 0.8101 -0.3531
vn 0.9031 0.3484 -0.2512
vn -0.6186 0.6932 -0.3698
vn -0.9588 0.0641 -0.2767
vn -0.8153 -0.4603 -0.3514
vn -0.0892 -0.9389 -0.3325
vn 0.7232 -0.6257 -0.2923
vn 0.9613 -0.0607 -0.2689
vn 0.4849 0.8732 -0.0483
vn 0.9218 0.3840 -0.0540
vn -0.6205 0.7783 -0.0959
vn -0.9967 0.0361 -0.0721
vn -0.8190 -0.5727 -0.0346
vn -0.2445 -0.9690 -0.0350
vn 0.7215 -0.6903 -0.0537
vn 0.9963 -0.0679 -0.0524
vn 0.3825 0.8587 0.3411
vn -0.6598 0.7058 0.2578
vn -0.9906 0.0617 0.1223
vn -0.8253 -0.5411 0.1615
vn -0.2378 -0.9650 0.1105
vn 0.5623 -0.8205 0.1029
vn 0.8786 0.4469 0.1682
vn 0.9887 -0.0652 0.1347
vn 0.1954 0.5919 0.7820
vn -0.4415 0.5357 0.7198
vn 0.6250 0.3032 0.7194
vn 0.7822 -0.2618 0.5654
vn -0.2403 -0.8073 0.5389
vn 0.3297 -0.8067 0.4904
vn -0.7802 0.0852 0.6197
vn -0.6566 -0.4532 0.6029
vn 0.2457 0.5415 -0.8040
vn -0.5168 0.4477 -0.7297
vn 0.5689 0.1900 -0.8001
vn 0.7630 -0.1775 -0.6215
vn 0.1808 -0.7268 -0.6626
vn 0.6107 -0.5833 -0.5356
vn -0.6081 0.0481 -0.7924
vn -0.2589 -0.4593 -0.8497
vt 0.818197 0.874139
vt 0.851612 0.852974
vt 0.875899 0.879190
vt 0.837676 0.901460
vt 0.806686 0.934164
vt 0.778072 0.897055
vt 0.964369 0.766770
vt 0.970164 0.788391
vt 0.949763 0.796931
vt 0.940573 0.781344
vt 0.943950 0.806275
vt 0.930833 0.791880
vt 0.930174 0.823505
vt 0.914216 0.806164
vt 0.898507 0.846959
vt 0.881347 0.828475
vt 0.886091 0.866308
vt 0.865377 0.839583
vt 0.831650 0.812218
vt 0.847482 0.804192
vt 0.867353 0.792797
vt 0.889265 0.776414
vt 0.911529 0.767540
vt 0.925441 0.759103
vt 0.936683 0.743507
vt 0.750515 0.830494
vt 0.803397 0.816121
vt 0.750453 0.785495
vt 0.790149 0.777368
vt 0.815724 0.762664
vt 0.838943 0.767562
vt 0.857951 0.761963
vt 0.881837 0.751456
vt 0.898515 0.747064
vt 0.911093 0.742354
vt 0.914621 0.734249
vt 0.753774 0.743485
vt 0.783319 0.734248
vt 0.799182 0.741093
vt 0.736148 0.758452
vt 0.800669 0.756206
vt 0.735793 0.777652
vt 0.875709 0.928883
vt 0.839164 0.960803
vt 0.905351 0.884749
vt 0.897168 0.907601
vt 0.940501 0.834905
vt 0.911676 0.862391
vt 0.959487 0.815258
vt 0.950641 0.824309
vt 0.967914 0.808419
vt 0.924347 0.954823
vt 0.883917 0.986187
vt 0.863468 0.983750
vt 0.916991 0.936915
vt 0.847095 0.975462
vt 0.899508 0.931549
s 1
g Rock_small2_rock
usemtl rock
f 9/1/9 10/2/10 2/3/2 1/4/1
f 9/1/9 1/4/1 3/5/3 11/6/11
f 11/7/11 3/8/3 4/9/4 12/10/12
f 12/10/12 4/9/4 5/11/5 13/12/13
f 13/12/13 5/11/5 6/13/6 14/14/14
f 14/14/14 6/13/6 7/15/7 15/16/15
f 15/16/15 7/15/7 8/17/8 16/18/16
f 2/3/2 10/2/10 16/18/16 8/17/8
f 10/2/10 23/19/23 24/20/24 16/18/16
f 16/18/16 24/20/24 22/21/22 15/16/15
f 15/16/15 22/21/22 21/22/21 14/14/14
f 14/14/14 21/22/21 20/23/20 13/12/13
f 13/12/13 20/23/20 19/24/19 12/10/12
f 12/10/12 19/24/19 18/25/18 11/7/11
f 11/6/11 18/26/18 17/27/17 9/1/9
f 17/27/17 18/26/18 26/28/26 25/29/25
f 24/20/24 23/19/23 27/30/27 28/31/28
f 21/22/21 22/21/22 30/32/30 29/33/29
f 19/24/19 20/23/20 32/34/32 31/35/31
f 19/24/19 31/35/31 26/36/26 18/25/18
f 23/19/23 17/27/17 25/29/25 27/30/27
f 22/21/22 24/20/24 28/31/28 30/32/30
f 20/23/20 21/22/21 29/33/29 32/34/32
f 29/37/29 30/38/30 28/39/28 32/40/32
f 27/41/27 31/42/31 32/40/32 28/39/28
f 26/28/26 31/42/31 27/41/27 25/29/25
f 3/5/3 1/4/1 33/43/33 34/44/34
f 2/3/2 8/17/8 36/45/36 35/46/35
f 7/15/7 6/13/6 37/47/37 38/48/38
f 5/11/5 4/9/4 39/49/39 40/50/40
f 4/9/4 3/8/3 34/51/34 39/49/39
f 5/11/5 40/50/40 37/47/37 6/13/6
f 2/3/2 35/46/35 33/43/33 1/4/1
f 7/15/7 38/48/38 36/45/36 8/17/8
f 38/52/38 37/53/37 40/54/40 36/55/36
f 36/55/36 40/54/40 39/56/39 35/57/35
f 34/44/34 33/43/33 35/57/35 39/56/39
f 9/1/9 17/27/17 23/19/23 10/2/10
