# Blender 5.2.0 LTS
# www.blender.org
mtllib rock_mid1.mtl
o Rock_mid1
v -1.400553 1.515614 1.393375
v -1.383934 1.516999 1.752445
v -1.576229 1.506552 1.385245
v -1.568249 1.498539 1.775370
v -1.854739 1.554943 1.758875
v -1.828319 1.591069 1.416202
v -2.075821 1.544168 1.728746
v -1.995382 1.552254 1.422904
v -2.169025 1.432738 1.706294
v -2.062856 1.442849 1.430157
v -1.098824 1.437721 1.345865
v -1.039534 1.432847 1.718345
v -1.071942 1.330347 1.399812
v -1.005544 1.325473 1.772720
v -1.051176 1.232599 1.420861
v -0.973739 1.228353 1.795355
v -1.046994 1.148690 1.443975
v -0.974102 1.144467 1.804543
v -1.126061 1.107532 1.435980
v -1.062614 1.106694 1.801712
v -1.394191 1.107383 1.418160
v -1.374588 1.108725 1.795619
v -1.587062 1.121576 1.428303
v -1.588606 1.111062 1.772142
v -1.846156 1.210046 1.421382
v -1.913250 1.204890 1.742119
v -2.044507 1.276282 1.436958
v -2.126862 1.287115 1.708284
v -1.383231 1.542109 2.012244
v -1.583346 1.495774 2.075897
v -1.816388 1.494095 2.022054
v -2.003122 1.474481 1.981319
v -2.092470 1.404337 1.950965
v -2.041072 1.254785 1.960515
v -1.581478 1.102057 2.045313
v -1.856483 1.149318 2.000272
v -1.049585 1.113491 2.077278
v -1.363755 1.103261 2.094286
v -0.967403 1.226526 2.065678
v -1.006940 1.144790 2.085810
v -1.028067 1.430971 2.010541
v -0.987767 1.321995 2.064066
v -1.560203 1.478766 2.285253
v -1.785208 1.431794 2.243231
v -1.855210 1.359265 2.207756
v -1.864112 1.284958 2.199697
v -1.859994 1.199636 2.180904
v -1.751597 1.169903 2.238363
v -1.390788 1.484011 2.280833
v -1.147033 1.417939 2.246812
v -1.102863 1.324408 2.244758
v -1.098703 1.250442 2.244254
v -1.114659 1.203167 2.237561
v -1.558279 1.161862 2.266638
v -1.370177 1.170336 2.262139
v -1.152974 1.172062 2.244632
v -1.547178 1.395696 2.381841
v -1.373562 1.394673 2.357232
v -1.547038 1.322822 2.371653
v -1.388510 1.325987 2.351503
v -1.199878 1.361255 2.306407
v -1.690859 1.378995 2.354501
v -1.717926 1.322088 2.330154
v -1.201751 1.322803 2.302500
v -1.200772 1.252909 2.285258
v -1.544488 1.254703 2.339547
v -1.391224 1.249662 2.312094
v -1.723887 1.263572 2.306523
v -1.122714 1.450693 1.164566
v -1.412542 1.517977 1.194105
v -1.605356 1.538730 1.217733
v -1.829867 1.575134 1.233706
v -1.939075 1.508481 1.236405
v -1.959848 1.452274 1.242834
v -1.950339 1.275144 1.252175
v -1.624257 1.121535 1.227636
v -1.850426 1.192740 1.223417
v -1.401738 1.105566 1.206472
v -1.146179 1.121473 1.180460
v -1.078554 1.170424 1.179632
v -1.102049 1.335695 1.159920
v -1.088485 1.236858 1.171857
v -1.462536 1.518461 1.023972
v -1.674579 1.524173 1.041341
v -1.835914 1.488153 1.050332
v -1.866888 1.426473 1.052794
v -1.898602 1.371750 1.061326
v -1.921992 1.244636 1.077921
v -1.794425 1.169288 1.066044
v -1.619771 1.138555 0.993537
v -1.416293 1.149727 0.967503
v -1.231008 1.147187 1.031643
v -1.185873 1.193208 1.036057
v -1.185746 1.262073 1.019574
v -1.216703 1.457587 1.018433
v -1.187837 1.339794 1.009480
v -1.465037 1.458094 0.918861
v -1.682129 1.451652 0.938092
v -1.294964 1.404364 0.935036
v -1.258382 1.268679 0.948816
v -1.262398 1.344260 0.940030
v -1.285827 1.182636 0.977713
v -1.259002 1.214989 0.969386
v -1.429587 1.193031 0.914438
v -1.761252 1.176948 0.986929
v -1.633713 1.190932 0.932393
v -1.821227 1.223177 0.989941
v -1.770464 1.446504 0.981771
v -1.802770 1.398480 0.987230
v -1.468293 1.343668 0.869076
v -1.629554 1.335064 0.882125
v -1.819034 1.305258 0.981402
v -1.457048 1.267327 0.871170
v -1.621266 1.268926 0.885106
vn 0.1084 0.9938 0.0230
vn 0.0679 0.9974 -0.0248
vn 0.1087 0.9928 0.0498
vn 0.0153 0.9993 0.0334
vn 0.0179 0.9914 0.1294
vn 0.0110 0.9998 -0.0154
vn -0.4642 0.8793 0.1064
vn -0.4979 0.8501 -0.1713
vn -0.9712 0.2383 0.0068
vn -0.9065 0.2078 -0.3675
vn 0.6501 0.7568 -0.0680
vn 0.6472 0.7582 -0.0796
vn 0.9714 0.1844 -0.1492
vn 0.9628 0.2493 -0.1044
vn 0.9809 0.1098 -0.1608
vn 0.9935 0.0627 -0.0946
vn 0.7968 -0.5856 -0.1488
vn 0.7815 -0.6217 -0.0532
vn 0.2309 -0.9715 -0.0530
vn 0.2273 -0.9737 -0.0166
vn -0.0208 -0.9998 -0.0070
vn -0.0063 -0.9999 -0.0088
vn -0.1717 -0.9851 0.0028
vn -0.1368 -0.9895 -0.0461
vn -0.3499 -0.9363 -0.0287
vn -0.3304 -0.9418 -0.0620
vn -0.6983 -0.6728 -0.2445
vn -0.7515 -0.6585 -0.0412
vn 0.0624 0.9964 0.0567
vn -0.0886 0.9888 0.1201
vn -0.1386 0.9546 0.2638
vn -0.4709 0.7592 0.4492
vn -0.8619 0.1696 0.4779
vn -0.7038 -0.6580 0.2679
vn -0.0921 -0.9914 0.0935
vn -0.3228 -0.9438 0.0705
vn 0.2772 -0.9366 0.2142
vn 0.0120 -0.9847 0.1737
vn 0.9565 -0.0355 0.2897
vn 0.7148 -0.6091 0.3435
vn 0.6343 0.7633 0.1226
vn 0.9173 0.2967 0.2656
vn -0.1173 0.9020 0.4155
vn -0.3903 0.7668 0.5095
vn -0.6373 0.3430 0.6901
vn -0.6924 -0.1109 0.7129
vn -0.6106 -0.6169 0.4965
vn -0.3242 -0.7917 0.5178
vn 0.1174 0.8937 0.4329
vn 0.4887 0.7074 0.5106
vn 0.6951 0.1750 0.6973
vn 0.6331 -0.1130 0.7658
vn 0.5399 -0.3856 0.7482
vn -0.0655 -0.8386 0.5407
vn 0.0533 -0.7952 0.6040
vn 0.2338 -0.7248 0.6480
vn -0.0732 0.3788 0.9226
vn 0.2041 0.3513 0.9137
vn -0.0341 -0.3000 0.9533
vn 0.1750 -0.2650 0.9482
vn 0.4092 0.2424 0.8796
vn -0.3874 0.3216 0.8640
vn -0.4657 -0.1415 0.8735
vn 0.3676 -0.1170 0.9226
vn 0.2585 -0.3076 0.9157
vn -0.0302 -0.5021 0.8643
vn 0.1237 -0.4672 0.8754
vn -0.3915 -0.3706 0.8422
vn 0.6409 0.7443 -0.1879
vn 0.1462 0.9892 -0.0100
vn 0.0902 0.9949 -0.0449
vn -0.1458 0.9685 -0.2021
vn -0.6650 0.6487 -0.3701
vn -0.8849 0.2115 -0.4151
vn -0.7975 -0.5640 -0.2142
vn -0.1716 -0.9851 -0.0131
vn -0.4168 -0.9090 -0.0020
vn -0.0049 -0.9966 -0.0820
vn 0.3121 -0.9266 -0.2096
vn 0.8248 -0.4565 -0.3336
vn 0.9338 0.1375 -0.3303
vn 0.9355 0.0460 -0.3503
vn 0.1095 0.9473 -0.3009
vn -0.0545 0.9314 -0.3599
vn -0.4084 0.7589 -0.5072
vn -0.7020 0.3697 -0.6087
vn -0.8238 0.1412 -0.5490
vn -0.8013 -0.4839 -0.3518
vn -0.3906 -0.9041 -0.1736
vn -0.1293 -0.9435 -0.3050
vn 0.0612 -0.8991 -0.4335
vn 0.2950 -0.8397 -0.4560
vn 0.6654 -0.3834 -0.6405
vn 0.7605 -0.0844 -0.6438
vn 0.4852 0.7616 -0.4296
vn 0.7714 0.0979 -0.6287
vn 0.0864 0.6610 -0.7454
vn -0.2310 0.6000 -0.7659
vn 0.3823 0.4749 -0.7927
vn 0.5140 -0.1756 -0.8396
vn 0.5166 0.1121 -0.8489
vn 0.3334 -0.5842 -0.7399
vn 0.4769 -0.3730 -0.7959
vn 0.1202 -0.6057 -0.7865
vn -0.3492 -0.7405 -0.5742
vn -0.2013 -0.6460 -0.7363
vn -0.5519 -0.4743 -0.6859
vn -0.4280 0.4960 -0.7555
vn -0.5525 0.1946 -0.8105
vn 0.0990 0.1623 -0.9818
vn -0.2656 0.1517 -0.9521
vn -0.5645 -0.0235 -0.8251
vn 0.1230 -0.2618 -0.9572
vn -0.2455 -0.2291 -0.9419
vt 0.087609 0.652727
vt 0.085513 0.589885
vt 0.133735 0.586690
vt 0.131423 0.649059
vt 0.192660 0.649260
vt 0.194092 0.678534
vt 0.129943 0.680955
vt 0.189768 0.722036
vt 0.139262 0.726873
vt 0.186962 0.747741
vt 0.146057 0.756225
vt 0.188487 0.774524
vt 0.147017 0.779196
vt 0.192997 0.816999
vt 0.144186 0.810704
vt 0.200554 0.592250
vt 0.122522 0.558418
vt 0.193339 0.561533
vt 0.115596 0.531691
vt 0.191284 0.532684
vt 0.111084 0.507474
vt 0.188317 0.505892
vt 0.110252 0.485006
vt 0.195098 0.483891
vt 0.916158 0.316040
vt 0.953516 0.318157
vt 0.952762 0.329204
vt 0.916658 0.335766
vt 0.946431 0.105060
vt 0.940260 0.177803
vt 0.899895 0.167863
vt 0.908909 0.101848
vt 0.833076 0.152595
vt 0.853338 0.091938
vt 0.213079 0.863365
vt 0.130369 0.863042
vt 0.078018 0.689639
vt 0.108744 0.756907
vt 0.094206 0.729349
vt 0.097090 0.812393
vt 0.112334 0.777766
vt 0.895132 0.219417
vt 0.842284 0.205624
vt 0.997576 0.115316
vt 1.000000 0.187855
vt 0.066207 0.539238
vt 0.055459 0.517415
vt 0.071063 0.563908
vt 0.037598 0.655728
vt 0.041435 0.605460
vt 0.050385 0.503796
vt 0.934161 0.234363
vt 0.057484 0.850774
vt 0.048765 0.734081
vt 0.037640 0.687948
vt 0.043237 0.782727
vt 0.051101 0.761067
vt 0.004948 0.813156
vt 0.035714 0.809448
vt 0.006716 0.646997
vt 0.016110 0.602858
vt 0.033099 0.578925
vt 0.026034 0.557433
vt 0.020175 0.542983
vt 0.926910 0.270286
vt 0.892595 0.263442
vt 0.856506 0.254765
vt 0.009811 0.533576
vt 0.994056 0.241503
vt 0.002439 0.690064
vt 0.882646 0.331662
vt 0.886190 0.311250
vt 0.956220 0.298031
vt 0.919345 0.293505
vt 0.006720 0.750883
vt 0.011330 0.727711
vt 0.009579 0.590347
vt 0.001769 0.565370
vt 0.890052 0.291922
vt 0.968613 0.274880
vt 0.001769 0.773072
vt 0.855642 0.285424
vt 0.855457 0.320747
vt 0.853300 0.302825
vt 0.231964 0.599323
vt 0.226969 0.651557
vt 0.950304 0.064754
vt 1.000000 0.065316
vt 0.222654 0.685622
vt 0.217579 0.722925
vt 0.219281 0.746877
vt 0.222909 0.761656
vt 0.238085 0.813925
vt 0.861013 0.053676
vt 0.907859 0.062683
vt 0.258073 0.613468
vt 0.257534 0.660492
vt 0.251896 0.501445
vt 0.242494 0.521064
vt 0.241578 0.541065
vt 0.238814 0.569833
vt 0.262553 0.845809
vt 0.952789 0.018355
vt 0.987278 0.033295
vt 0.254600 0.699322
vt 0.255027 0.731673
vt 0.263260 0.749182
vt 0.267561 0.767198
vt 0.278508 0.806467
vt 0.306049 0.835340
vt 0.915182 0.019883
vt 0.288468 0.616470
vt 0.283083 0.658415
vt 0.279776 0.533984
vt 0.277778 0.557163
vt 0.272053 0.581581
vt 0.879083 0.025745
vt 0.290580 0.518045
vt 0.283959 0.701692
vt 0.952378 0.002254
vt 0.979327 0.016937
vt 0.300486 0.565974
vt 0.292821 0.592971
vt 0.307782 0.533334
vt 0.301875 0.545581
vt 0.888042 0.011391
vt 0.913227 0.001556
vt 0.302359 0.775588
vt 0.310436 0.806015
vt 0.279782 0.724808
vt 0.286396 0.743778
vt 0.325808 0.824158
vt 0.317980 0.654842
vt 0.322404 0.689700
vt 0.342657 0.649703
vt 0.344497 0.687320
vt 0.374729 0.690954
vt 0.369590 0.639524
vt 0.309046 0.604278
vt 0.336861 0.599026
vt 0.296236 0.736667
vt 0.332258 0.741344
vt 0.363692 0.741922
vt 0.357046 0.595459
vt 0.370227 0.599823
vt 0.381387 0.726577
s 1
g Rock_mid1_rock
usemtl rock
f 29/1/29 41/2/41 12/3/12 2/4/2
f 2/4/2 1/5/1 3/6/3 4/7/4
f 6/8/6 5/9/5 4/7/4 3/6/3
f 5/9/5 6/8/6 8/10/8 7/11/7
f 7/11/7 8/10/8 10/12/10 9/13/9
f 9/13/9 10/12/10 27/14/27 28/15/28
f 11/16/11 12/3/12 14/17/14 13/18/13
f 13/18/13 14/17/14 16/19/16 15/20/15
f 15/20/15 16/19/16 18/21/18 17/22/17
f 17/22/17 18/21/18 20/23/20 19/24/19
f 60/25/60 64/26/64 61/27/61 58/28/58
f 21/29/21 22/30/22 24/31/24 23/32/23
f 23/32/23 24/31/24 26/33/26 25/34/25
f 25/35/25 26/36/26 28/15/28 27/14/27
f 2/4/2 4/7/4 30/37/30 29/1/29
f 5/9/5 7/11/7 32/38/32 31/39/31
f 9/13/9 28/15/28 34/40/34 33/41/33
f 26/33/26 24/31/24 35/42/35 36/43/36
f 19/44/19 20/45/20 22/30/22 21/29/21
f 18/21/18 16/19/16 39/46/39 40/47/40
f 14/17/14 12/3/12 41/2/41 42/48/42
f 41/2/41 29/1/29 49/49/49 50/50/50
f 14/17/14 42/48/42 39/46/39 16/19/16
f 18/21/18 40/47/40 37/51/37 20/23/20
f 22/30/22 38/52/38 35/42/35 24/31/24
f 26/36/26 36/53/36 34/40/34 28/15/28
f 9/13/9 33/41/33 32/38/32 7/11/7
f 5/9/5 31/39/31 30/37/30 4/7/4
f 30/37/30 31/39/31 44/54/44 43/55/43
f 32/38/32 33/41/33 46/56/46 45/57/45
f 34/40/34 36/53/36 48/58/48 47/59/47
f 49/49/49 58/60/58 61/61/61 50/50/50
f 42/48/42 41/2/41 50/50/50 51/62/51
f 40/47/40 39/46/39 52/63/52 53/64/53
f 35/42/35 38/52/38 55/65/55 54/66/54
f 32/38/32 45/57/45 44/54/44 31/39/31
f 29/1/29 30/37/30 43/55/43 49/49/49
f 39/46/39 42/48/42 51/62/51 52/63/52
f 35/42/35 54/66/54 48/67/48 36/43/36
f 34/40/34 47/59/47 46/56/46 33/41/33
f 56/68/56 37/51/37 40/47/40 53/64/53
f 22/30/22 20/45/20 37/69/37 38/52/38
f 49/49/49 43/55/43 57/70/57 58/60/58
f 58/28/58 57/71/57 59/72/59 60/25/60
f 65/73/65 64/26/64 60/25/60 67/74/67
f 44/54/44 45/57/45 63/75/63 62/76/62
f 44/54/44 62/76/62 57/70/57 43/55/43
f 52/63/52 51/62/51 64/77/64 65/78/65
f 51/62/51 50/50/50 61/61/61 64/77/64
f 52/63/52 65/78/65 56/68/56 53/64/53
f 54/66/54 55/65/55 67/74/67 66/79/66
f 37/69/37 56/80/56 55/65/55 38/52/38
f 48/58/48 68/81/68 46/56/46 47/59/47
f 48/67/48 54/66/54 66/79/66 68/82/68
f 46/56/46 68/81/68 63/75/63 45/57/45
f 59/72/59 57/71/57 62/83/62 63/84/63
f 68/82/68 66/79/66 59/72/59 63/84/63
f 60/25/60 59/72/59 66/79/66 67/74/67
f 55/65/55 56/80/56 65/73/65 67/74/67
f 1/5/1 11/16/11 69/85/69 70/86/70
f 19/44/19 21/29/21 78/87/78 79/88/79
f 3/6/3 1/5/1 70/86/70 71/89/71
f 8/10/8 6/8/6 72/90/72 73/91/73
f 27/14/27 10/12/10 74/92/74 75/93/75
f 23/32/23 25/34/25 77/94/77 76/95/76
f 69/85/69 95/96/95 83/97/83 70/86/70
f 17/22/17 19/24/19 79/98/79 80/99/80
f 13/18/13 15/20/15 82/100/82 81/101/81
f 13/18/13 81/101/81 69/85/69 11/16/11
f 6/8/6 3/6/3 71/89/71 72/90/72
f 10/12/10 8/10/8 73/91/73 74/92/74
f 25/35/25 27/14/27 75/93/75 77/102/77
f 21/29/21 23/32/23 76/95/76 78/87/78
f 15/20/15 17/22/17 80/99/80 82/100/82
f 78/87/78 91/103/91 92/104/92 79/88/79
f 72/90/72 71/89/71 84/105/84 85/106/85
f 74/92/74 73/91/73 86/107/86 87/108/87
f 77/102/77 75/93/75 88/109/88 89/110/89
f 78/87/78 76/95/76 90/111/90 91/103/91
f 99/112/99 97/113/97 83/97/83 95/96/95
f 82/100/82 80/99/80 93/114/93 94/115/94
f 69/85/69 81/101/81 96/116/96 95/96/95
f 71/89/71 70/86/70 83/97/83 84/105/84
f 73/91/73 72/90/72 85/106/85 86/107/86
f 75/93/75 74/92/74 87/108/87 88/109/88
f 76/95/76 77/94/77 89/117/89 90/111/90
f 80/99/80 79/98/79 92/118/92 93/114/93
f 81/101/81 82/100/82 94/115/94 96/116/96
f 84/105/84 83/97/83 97/113/97 98/119/98
f 104/120/104 102/121/102 92/104/92 91/103/91
f 96/116/96 94/115/94 100/122/100 101/123/101
f 93/114/93 92/118/92 102/124/102 103/125/103
f 90/111/90 89/117/89 105/126/105 106/127/106
f 88/109/88 87/108/87 112/128/112 107/129/107
f 86/107/86 85/106/85 108/130/108 109/131/109
f 85/106/85 84/105/84 98/119/98 108/130/108
f 86/107/86 109/131/109 112/128/112 87/108/87
f 88/109/88 107/129/107 105/132/105 89/110/89
f 90/111/90 106/127/106 104/120/104 91/103/91
f 93/114/93 103/125/103 100/122/100 94/115/94
f 96/116/96 101/123/101 99/112/99 95/96/95
f 98/119/98 97/113/97 110/133/110 111/134/111
f 111/134/111 110/133/110 113/135/113 114/136/114
f 106/137/106 114/136/114 113/135/113 104/138/104
f 2/4/2 12/3/12 11/16/11 1/5/1
f 101/139/101 110/133/110 97/113/97 99/112/99
f 100/140/100 113/135/113 110/133/110 101/139/101
f 108/130/108 98/119/98 111/134/111 109/141/109
f 111/134/111 114/136/114 112/142/112 109/141/109
f 106/137/106 107/143/107 112/142/112 114/136/114
f 100/140/100 103/144/103 104/138/104 113/135/113
f 103/144/103 102/145/102 104/138/104
f 106/137/106 105/146/105 107/143/107
