# Blender 5.2.0 LTS
# www.blender.org
mtllib rock_mid4.mtl
o Rock_mid4
v -0.080363 0.424756 0.062028
v -0.079459 0.427306 -0.177025
v 0.067670 0.368897 0.076145
v 0.065403 0.393561 -0.183045
v 0.256428 0.323986 -0.169559
v 0.263198 0.335585 0.063323
v 0.386165 0.241883 -0.156268
v 0.386002 0.245724 0.066871
v 0.446099 0.138551 -0.142527
v 0.436506 0.139313 0.065252
v -0.340245 0.336083 0.094030
v -0.339461 0.330474 -0.135653
v -0.364760 0.212531 0.068586
v -0.355479 0.206923 -0.148211
v -0.381502 0.100056 0.058982
v -0.376415 0.095170 -0.158015
v -0.382812 0.003504 0.043261
v -0.377711 -0.001356 -0.172271
v -0.320241 -0.043856 0.046573
v -0.312723 -0.044819 -0.169405
v -0.092050 -0.044027 0.045391
v -0.082860 -0.042483 -0.183285
v 0.064967 -0.047741 0.045724
v 0.075425 -0.046948 -0.173434
v 0.257030 -0.042652 0.061827
v 0.271230 -0.045289 -0.158270
v 0.416140 -0.006210 0.059884
v 0.412326 0.005094 -0.143446
v -0.069267 0.456199 -0.333528
v 0.089609 0.402883 -0.359290
v 0.265264 0.339623 -0.331891
v 0.383602 0.245934 -0.321751
v 0.437047 0.151289 -0.309027
v 0.399013 0.015275 -0.310401
v 0.086275 -0.050156 -0.332669
v 0.278884 -0.044421 -0.318382
v -0.302618 -0.036998 -0.340306
v -0.078853 -0.048769 -0.359106
v -0.361500 0.093067 -0.331215
v -0.332544 -0.000983 -0.345510
v -0.327077 0.328316 -0.322842
v -0.348509 0.202921 -0.335144
v 0.080792 0.383312 -0.492921
v 0.256205 0.328305 -0.473433
v 0.310016 0.232805 -0.456486
v 0.316632 0.146098 -0.451096
v 0.312262 0.049339 -0.438281
v 0.228903 0.027914 -0.460660
v -0.051952 0.389348 -0.498045
v -0.237653 0.313320 -0.489693
v -0.266306 0.205698 -0.476356
v -0.267689 0.120587 -0.467564
v -0.255832 0.066190 -0.459236
v 0.077544 0.018660 -0.468144
v -0.069745 0.028411 -0.471332
v -0.229048 0.030397 -0.466646
v 0.074831 0.287726 -0.553861
v -0.062281 0.286549 -0.543770
v 0.073868 0.203873 -0.541701
v -0.051178 0.207514 -0.534635
v -0.197442 0.248096 -0.526733
v 0.186541 0.268509 -0.537094
v 0.206616 0.203028 -0.520122
v -0.195548 0.203851 -0.519749
v -0.195505 0.123425 -0.499513
v 0.070115 0.125490 -0.516739
v -0.051215 0.119689 -0.503675
v 0.210106 0.135695 -0.503083
v -0.321845 0.351010 0.225698
v -0.079820 0.426947 0.218169
v 0.086634 0.413866 0.207781
v 0.272875 0.352500 0.205902
v 0.359608 0.241854 0.209861
v 0.376548 0.177163 0.206183
v 0.360817 0.013864 0.199798
v 0.084954 -0.046128 0.202402
v 0.272116 -0.035103 0.217864
v -0.093619 -0.046117 0.206982
v -0.308759 -0.027814 0.214129
v -0.365636 0.028513 0.211215
v -0.344456 0.218685 0.227764
v -0.358117 0.104956 0.217656
v -0.049690 0.427553 0.346237
v 0.129981 0.416545 0.342437
v 0.260119 0.331287 0.350060
v 0.283562 0.251266 0.349590
v 0.308079 0.182036 0.345930
v 0.321679 0.045862 0.335275
v 0.214850 -0.004766 0.326647
v 0.070050 -0.008424 0.341459
v -0.091190 0.004697 0.347664
v -0.237016 0.001775 0.329824
v -0.273846 0.054730 0.327992
v -0.273994 0.133970 0.339022
v -0.247864 0.358942 0.345512
v -0.271851 0.223401 0.348022
v -0.055322 0.359002 0.408647
v 0.124349 0.347995 0.404848
v -0.189791 0.297700 0.394409
v -0.217309 0.141572 0.376855
v -0.214901 0.228541 0.387629
v -0.194245 0.042564 0.354331
v -0.216034 0.079792 0.363431
v -0.082444 0.054525 0.371897
v 0.183105 0.025876 0.366929
v 0.079474 0.051730 0.369034
v 0.232784 0.066344 0.381248
v 0.200002 0.322083 0.386714
v 0.224751 0.259399 0.382686
v -0.054381 0.227802 0.408267
v 0.075891 0.216987 0.403358
v 0.233949 0.155800 0.384530
v -0.062391 0.140016 0.393615
v 0.068630 0.141333 0.391397
vn -0.0385 0.9985 -0.0391
vn -0.0500 0.9969 0.0608
vn 0.2470 0.9649 -0.0893
vn 0.2914 0.9532 0.0805
vn 0.4357 0.8993 0.0377
vn 0.4473 0.8922 -0.0620
vn 0.7442 0.6679 0.0067
vn 0.7920 0.6075 0.0603
vn 0.9918 0.1267 -0.0175
vn 0.9775 0.1129 0.1782
vn -0.7777 0.6282 0.0232
vn -0.7821 0.6230 -0.0136
vn -0.9868 0.1555 0.0444
vn -0.9861 0.1603 -0.0449
vn -0.9950 0.0870 0.0490
vn -0.9958 0.0586 -0.0704
vn -0.9005 -0.4307 0.0595
vn -0.8841 -0.4585 -0.0907
vn -0.3425 -0.9382 0.0496
vn -0.3245 -0.9453 -0.0347
vn -0.0180 -0.9998 0.0087
vn -0.0162 -0.9999 0.0038
vn 0.0035 -1.0000 0.0048
vn -0.0030 -1.0000 0.0086
vn 0.1620 -0.9861 0.0367
vn 0.1802 -0.9836 -0.0097
vn 0.7542 -0.6392 0.1502
vn 0.7490 -0.6617 -0.0343
vn -0.0856 0.9912 -0.1006
vn 0.2832 0.9575 -0.0554
vn 0.5121 0.8568 -0.0607
vn 0.7960 0.5618 -0.2254
vn 0.9459 0.0956 -0.3102
vn 0.7350 -0.5949 -0.3253
vn 0.0217 -0.9721 -0.2336
vn 0.2375 -0.9381 -0.2522
vn -0.3886 -0.8631 -0.3227
vn -0.0232 -0.9586 -0.2838
vn -0.9417 -0.0336 -0.3347
vn -0.7972 -0.4356 -0.4180
vn -0.7815 0.5849 -0.2172
vn -0.9447 0.1305 -0.3009
vn 0.1989 0.7989 -0.5676
vn 0.5454 0.6402 -0.5410
vn 0.7121 0.2585 -0.6528
vn 0.6419 -0.0655 -0.7640
vn 0.5462 -0.4493 -0.7069
vn 0.2360 -0.6170 -0.7507
vn -0.1129 0.7639 -0.6354
vn -0.5644 0.4924 -0.6625
vn -0.7214 0.0207 -0.6922
vn -0.6595 -0.1196 -0.7421
vn -0.6002 -0.2678 -0.7537
vn 0.0378 -0.6686 -0.7427
vn -0.0308 -0.6299 -0.7761
vn -0.2847 -0.5619 -0.7767
vn 0.0806 0.2020 -0.9761
vn -0.1068 0.1795 -0.9779
vn 0.0339 -0.2255 -0.9736
vn -0.0737 -0.2189 -0.9730
vn -0.3409 0.0850 -0.9362
vn 0.3201 0.1731 -0.9314
vn 0.3568 -0.1123 -0.9274
vn -0.3081 -0.1516 -0.9392
vn -0.2293 -0.2503 -0.9406
vn 0.0242 -0.3383 -0.9407
vn -0.0524 -0.3296 -0.9427
vn 0.2770 -0.2480 -0.9283
vn -0.7474 0.6281 0.2165
vn -0.1035 0.9941 -0.0313
vn 0.2197 0.9693 -0.1103
vn 0.5744 0.8185 0.0139
vn 0.8515 0.4607 0.2505
vn 0.9252 0.1335 0.3552
vn 0.7362 -0.5780 0.3521
vn 0.0133 -0.9891 0.1469
vn 0.2496 -0.9421 0.2240
vn -0.0326 -0.9858 0.1648
vn -0.4154 -0.8573 0.3041
vn -0.8706 -0.3356 0.3597
vn -0.9336 0.1148 0.3393
vn -0.9316 0.0361 0.3617
vn -0.0989 0.9022 0.4199
vn 0.2617 0.8909 0.3713
vn 0.6306 0.5862 0.5086
vn 0.7059 0.2578 0.6597
vn 0.7331 0.0837 0.6749
vn 0.6699 -0.4028 0.6236
vn 0.1920 -0.8207 0.5382
vn 0.0033 -0.7891 0.6143
vn -0.0494 -0.7354 0.6759
vn -0.3008 -0.6862 0.6623
vn -0.6218 -0.2659 0.7366
vn -0.6905 -0.0633 0.7205
vn -0.5619 0.6165 0.5515
vn -0.7217 0.0513 0.6903
vn -0.0852 0.3623 0.9282
vn 0.1748 0.3461 0.9218
vn -0.3163 0.2158 0.9238
vn -0.3314 -0.1478 0.9318
vn -0.3721 -0.0199 0.9280
vn -0.1775 -0.3508 0.9195
vn -0.2993 -0.2317 0.9256
vn -0.0486 -0.3289 0.9431
vn 0.0529 -0.5044 0.8618
vn 0.0011 -0.3523 0.9359
vn 0.2282 -0.3020 0.9256
vn 0.3435 0.2809 0.8962
vn 0.3344 0.0414 0.9415
vn -0.0434 -0.0818 0.9957
vn 0.0694 -0.0686 0.9952
vn 0.2680 -0.0397 0.9626
vn -0.0443 -0.1915 0.9805
vn 0.0306 -0.1561 0.9873
vt 0.293555 0.249075
vt 0.290597 0.317050
vt 0.244922 0.321404
vt 0.254795 0.252026
vt 0.195103 0.253215
vt 0.190449 0.214079
vt 0.255683 0.214014
vt 0.189924 0.163567
vt 0.250305 0.161634
vt 0.188240 0.124417
vt 0.245395 0.122421
vt 0.187529 0.094042
vt 0.241395 0.091352
vt 0.184868 0.055669
vt 0.242548 0.053029
vt 0.186913 0.321044
vt 0.250581 0.353750
vt 0.192003 0.353836
vt 0.255933 0.384995
vt 0.193472 0.385402
vt 0.263313 0.413321
vt 0.197057 0.414594
vt 0.268007 0.439784
vt 0.192909 0.440693
vt 0.907048 0.404025
vt 0.865174 0.404077
vt 0.865153 0.391105
vt 0.904884 0.380986
vt 0.884056 0.610724
vt 0.890166 0.545743
vt 0.935108 0.550872
vt 0.928852 0.613174
vt 0.990907 0.557875
vt 0.983550 0.620869
vt 0.169739 0.000111
vt 0.254612 0.002184
vt 0.301456 0.207976
vt 0.286678 0.122312
vt 0.292554 0.159437
vt 0.288491 0.061323
vt 0.282197 0.096677
vt 0.940344 0.505816
vt 0.995147 0.511989
vt 0.818789 0.607714
vt 0.824239 0.545818
vt 0.304872 0.378021
vt 0.317762 0.404792
vt 0.300297 0.347779
vt 0.339361 0.246407
vt 0.336173 0.301030
vt 0.323669 0.419200
vt 0.894227 0.496095
vt 0.311913 0.024083
vt 0.329521 0.159082
vt 0.338823 0.209219
vt 0.330515 0.103453
vt 0.326531 0.128897
vt 0.361028 0.063106
vt 0.332248 0.073822
vt 0.375039 0.256386
vt 0.362018 0.304910
vt 0.344165 0.331489
vt 0.350810 0.356949
vt 0.356615 0.374354
vt 0.898866 0.457952
vt 0.940113 0.462928
vt 0.983244 0.465240
vt 0.368034 0.385513
vt 0.830198 0.496817
vt 0.376825 0.204655
vt 0.944632 0.382354
vt 0.942751 0.406635
vt 0.864048 0.428041
vt 0.905501 0.430673
vt 0.370359 0.133986
vt 0.366027 0.161635
vt 0.369015 0.319582
vt 0.376825 0.349064
vt 0.940204 0.429872
vt 0.853219 0.456224
vt 0.372087 0.106968
vt 0.980575 0.431340
vt 0.976769 0.391134
vt 0.981165 0.411197
vt 0.155385 0.313989
vt 0.156416 0.253677
vt 0.881436 0.656621
vt 0.819701 0.656144
vt 0.156575 0.213438
vt 0.153121 0.165470
vt 0.150356 0.129750
vt 0.148601 0.111117
vt 0.139231 0.061888
vt 0.985189 0.666004
vt 0.932069 0.658047
vt 0.125176 0.298379
vt 0.125068 0.247042
vt 0.136591 0.425426
vt 0.147931 0.402277
vt 0.147869 0.379710
vt 0.149278 0.347428
vt 0.113787 0.032604
vt 0.879733 0.699021
vt 0.838275 0.691759
vt 0.124843 0.206050
vt 0.116335 0.169918
vt 0.107920 0.148240
vt 0.105004 0.125605
vt 0.099894 0.083948
vt 0.068061 0.056617
vt 0.925460 0.698465
vt 0.094517 0.295909
vt 0.102247 0.249877
vt 0.102600 0.388857
vt 0.104580 0.362445
vt 0.110416 0.334520
vt 0.966926 0.697505
vt 0.090390 0.407716
vt 0.103074 0.205184
vt 0.880834 0.715040
vt 0.849203 0.706609
vt 0.082042 0.354208
vt 0.090158 0.322890
vt 0.072918 0.391999
vt 0.079865 0.377475
vt 0.957176 0.711694
vt 0.927049 0.717360
vt 0.074506 0.127351
vt 0.065159 0.094288
vt 0.103570 0.182769
vt 0.089714 0.164356
vt 0.049095 0.072422
vt 0.064937 0.251886
vt 0.062781 0.210353
vt 0.035166 0.255217
vt 0.037222 0.210029
vt 0.004713 0.203180
vt 0.003779 0.262684
vt 0.069991 0.307778
vt 0.037925 0.310686
vt 0.052449 0.152590
vt 0.019508 0.147586
vt 0.014742 0.311435
vt 0.000240 0.304278
vt 0.001009 0.163572
s 1
usemtl rock
f 29/1/29 41/2/41 12/3/12 2/4/2
f 2/4/2 1/5/1 3/6/3 4/7/4
f 6/8/6 5/9/5 4/7/4 3/6/3
f 5/9/5 6/8/6 8/10/8 7/11/7
f 7/11/7 8/10/8 10/12/10 9/13/9
f 9/13/9 10/12/10 27/14/27 28/15/28
f 11/16/11 12/3/12 14/17/14 13/18/13
f 13/18/13 14/17/14 16/19/16 15/20/15
f 15/20/15 16/19/16 18/21/18 17/22/17
f 17/22/17 18/21/18 20/23/20 19/24/19
f 60/25/60 64/26/64 61/27/61 58/28/58
f 21/29/21 22/30/22 24/31/24 23/32/23
f 23/32/23 24/31/24 26/33/26 25/34/25
f 25/35/25 26/36/26 28/15/28 27/14/27
f 2/4/2 4/7/4 30/37/30 29/1/29
f 5/9/5 7/11/7 32/38/32 31/39/31
f 9/13/9 28/15/28 34/40/34 33/41/33
f 26/33/26 24/31/24 35/42/35 36/43/36
f 19/44/19 20/45/20 22/30/22 21/29/21
f 18/21/18 16/19/16 39/46/39 40/47/40
f 14/17/14 12/3/12 41/2/41 42/48/42
f 41/2/41 29/1/29 49/49/49 50/50/50
f 14/17/14 42/48/42 39/46/39 16/19/16
f 18/21/18 40/47/40 37/51/37 20/23/20
f 22/30/22 38/52/38 35/42/35 24/31/24
f 26/36/26 36/53/36 34/40/34 28/15/28
f 9/13/9 33/41/33 32/38/32 7/11/7
f 5/9/5 31/39/31 30/37/30 4/7/4
f 30/37/30 31/39/31 44/54/44 43/55/43
f 32/38/32 33/41/33 46/56/46 45/57/45
f 34/40/34 36/53/36 48/58/48 47/59/47
f 49/49/49 58/60/58 61/61/61 50/50/50
f 42/48/42 41/2/41 50/50/50 51/62/51
f 40/47/40 39/46/39 52/63/52 53/64/53
f 35/42/35 38/52/38 55/65/55 54/66/54
f 32/38/32 45/57/45 44/54/44 31/39/31
f 29/1/29 30/37/30 43/55/43 49/49/49
f 39/46/39 42/48/42 51/62/51 52/63/52
f 35/42/35 54/66/54 48/67/48 36/43/36
f 34/40/34 47/59/47 46/56/46 33/41/33
f 56/68/56 37/51/37 40/47/40 53/64/53
f 22/30/22 20/45/20 37/69/37 38/52/38
f 49/49/49 43/55/43 57/70/57 58/60/58
f 58/28/58 57/71/57 59/72/59 60/25/60
f 65/73/65 64/26/64 60/25/60 67/74/67
f 44/54/44 45/57/45 63/75/63 62/76/62
f 44/54/44 62/76/62 57/70/57 43/55/43
f 52/63/52 51/62/51 64/77/64 65/78/65
f 51/62/51 50/50/50 61/61/61 64/77/64
f 52/63/52 65/78/65 56/68/56 53/64/53
f 54/66/54 55/65/55 67/74/67 66/79/66
f 37/69/37 56/80/56 55/65/55 38/52/38
f 48/58/48 68/81/68 46/56/46 47/59/47
f 48/67/48 54/66/54 66/79/66 68/82/68
f 46/56/46 68/81/68 63/75/63 45/57/45
f 59/72/59 57/71/57 62/83/62 63/84/63
f 68/82/68 66/79/66 59/72/59 63/84/63
f 60/25/60 59/72/59 66/79/66 67/74/67
f 55/65/55 56/80/56 65/73/65 67/74/67
f 1/5/1 11/16/11 69/85/69 70/86/70
f 19/44/19 21/29/21 78/87/78 79/88/79
f 3/6/3 1/5/1 70/86/70 71/89/71
f 8/10/8 6/8/6 72/90/72 73/91/73
f 27/14/27 10/12/10 74/92/74 75/93/75
f 23/32/23 25/34/25 77/94/77 76/95/76
f 69/85/69 95/96/95 83/97/83 70/86/70
f 17/22/17 19/24/19 79/98/79 80/99/80
f 13/18/13 15/20/15 82/100/82 81/101/81
f 13/18/13 81/101/81 69/85/69 11/16/11
f 6/8/6 3/6/3 71/89/71 72/90/72
f 10/12/10 8/10/8 73/91/73 74/92/74
f 25/35/25 27/14/27 75/93/75 77/102/77
f 21/29/21 23/32/23 76/95/76 78/87/78
f 15/20/15 17/22/17 80/99/80 82/100/82
f 78/87/78 91/103/91 92/104/92 79/88/79
f 72/90/72 71/89/71 84/105/84 85/106/85
f 74/92/74 73/91/73 86/107/86 87/108/87
f 77/102/77 75/93/75 88/109/88 89/110/89
f 78/87/78 76/95/76 90/111/90 91/103/91
f 99/112/99 97/113/97 83/97/83 95/96/95
f 82/100/82 80/99/80 93/114/93 94/115/94
f 69/85/69 81/101/81 96/116/96 95/96/95
f 71/89/71 70/86/70 83/97/83 84/105/84
f 73/91/73 72/90/72 85/106/85 86/107/86
f 75/93/75 74/92/74 87/108/87 88/109/88
f 76/95/76 77/94/77 89/117/89 90/111/90
f 80/99/80 79/98/79 92/118/92 93/114/93
f 81/101/81 82/100/82 94/115/94 96/116/96
f 84/105/84 83/97/83 97/113/97 98/119/98
f 104/120/104 102/121/102 92/104/92 91/103/91
f 96/116/96 94/115/94 100/122/100 101/123/101
f 93/114/93 92/118/92 102/124/102 103/125/103
f 90/111/90 89/117/89 105/126/105 106/127/106
f 88/109/88 87/108/87 112/128/112 107/129/107
f 86/107/86 85/106/85 108/130/108 109/131/109
f 85/106/85 84/105/84 98/119/98 108/130/108
f 86/107/86 109/131/109 112/128/112 87/108/87
f 88/109/88 107/129/107 105/132/105 89/110/89
f 90/111/90 106/127/106 104/120/104 91/103/91
f 93/114/93 103/125/103 100/122/100 94/115/94
f 96/116/96 101/123/101 99/112/99 95/96/95
f 98/119/98 97/113/97 110/133/110 111/134/111
f 111/134/111 110/133/110 113/135/113 114/136/114
f 106/137/106 114/136/114 113/135/113 104/138/104
f 2/4/2 12/3/12 11/16/11 1/5/1
f 101/139/101 110/133/110 97/113/97 99/112/99
f 100/140/100 113/135/113 110/133/110 101/139/101
f 108/130/108 98/119/98 111/134/111 109/131/109
f 111/134/111 114/136/114 112/141/112 109/131/109
f 106/137/106 107/142/107 112/141/112 114/136/114
f 100/140/100 103/143/103 104/138/104 113/135/113
f 103/143/103 102/144/102 104/138/104
f 106/137/106 105/145/105 107/142/107
