# Blender 5.2.0 LTS
# www.blender.org
mtllib rock_mid2.mtl
o Rock_mid2
v -0.208456 1.514916 1.829069
v -0.144050 1.492722 1.443641
v -0.019525 1.417042 1.849900
v 0.103461 1.446593 1.442944
v 0.382848 1.353795 1.493699
v 0.187816 1.341564 1.839483
v 0.671658 1.228879 1.501024
v 0.306202 1.221579 1.844136
v 0.899615 1.065654 1.511011
v 0.379223 1.076852 1.842100
v -0.502770 1.433290 1.855855
v -0.561100 1.444593 1.475463
v -0.500812 1.280487 1.812472
v -0.543191 1.256325 1.438543
v -0.487238 1.131178 1.792069
v -0.530249 1.060199 1.408163
v -0.490245 0.980156 1.769077
v -0.521621 0.860412 1.373196
v -0.416266 0.914518 1.773482
v -0.422385 0.790202 1.380039
v -0.148820 0.929088 1.784147
v -0.072462 0.812933 1.381520
v 0.017179 0.896694 1.799066
v 0.143295 0.801592 1.434963
v 0.174350 0.870934 1.830951
v 0.404998 0.799704 1.498140
v 0.354696 0.891026 1.834023
v 0.826678 0.858874 1.507901
v -0.095682 1.497938 1.124453
v 0.186154 1.468192 1.095577
v 0.523053 1.422414 1.167193
v 0.762305 1.265075 1.185186
v 0.870059 1.096117 1.197350
v 0.800919 0.858745 1.184714
v 0.227296 0.727457 1.097127
v 0.567783 0.754114 1.163313
v -0.432486 0.721519 1.008302
v -0.060743 0.711567 1.007198
v -0.528802 0.973761 1.030917
v -0.484750 0.787500 0.996822
v -0.529992 1.404891 1.082264
v -0.528507 1.183855 1.037276
v 0.138257 1.457068 0.853148
v 0.489578 1.394615 0.908714
v 0.607910 1.234279 0.939303
v 0.626185 1.081031 0.940857
v 0.627177 0.906100 0.951433
v 0.461025 0.855741 0.897992
v -0.097955 1.450949 0.821415
v -0.397969 1.343098 0.789081
v -0.429596 1.146901 0.792741
v -0.421240 0.988301 0.796283
v -0.395349 0.886942 0.805852
v 0.173875 0.817007 0.849655
v -0.087111 0.823367 0.814074
v -0.351557 0.817240 0.793584
v 0.121136 1.290007 0.730243
v -0.119188 1.282315 0.722727
v 0.128542 1.139808 0.741981
v -0.090951 1.140633 0.731040
v -0.336219 1.211905 0.720365
v 0.342812 1.270842 0.776599
v 0.388795 1.160222 0.807032
v -0.326007 1.131940 0.727495
v -0.312050 0.986761 0.751755
v 0.136156 1.000984 0.774233
v -0.073494 0.986591 0.772777
v 0.403554 1.042094 0.831097
v -0.451025 1.439375 2.047898
v -0.174312 1.529712 2.049151
v 0.025072 1.466638 2.033182
v 0.216637 1.343989 2.034581
v 0.257049 1.192771 2.045455
v 0.279183 1.103989 2.045680
v 0.247875 0.895537 2.026360
v 0.055603 0.834087 2.035806
v 0.169556 0.827425 2.057025
v -0.116386 0.863955 2.031015
v -0.384665 0.892703 2.019840
v -0.448451 0.980233 2.015565
v -0.444561 1.260978 2.048407
v -0.434279 1.098926 2.026498
v -0.146190 1.488424 2.279171
v 0.074260 1.425614 2.267944
v 0.216477 1.286941 2.254410
v 0.219842 1.179235 2.243801
v 0.223704 1.080018 2.263568
v 0.195728 0.894858 2.269844
v 0.107731 0.820451 2.286542
v -0.005044 0.810736 2.343108
v -0.144766 0.843260 2.351733
v -0.343282 0.866841 2.265899
v -0.386194 0.954739 2.259579
v -0.387674 1.071765 2.289583
v -0.391301 1.404896 2.269743
v -0.397170 1.204256 2.299933
v -0.133046 1.381526 2.418741
v 0.085516 1.332523 2.404698
v -0.310590 1.292907 2.409345
v -0.321838 1.056014 2.404004
v -0.332326 1.188514 2.407675
v -0.284690 0.909227 2.353593
v -0.318206 0.966758 2.368964
v -0.159220 0.839821 2.405017
v 0.094136 0.838538 2.383434
v 0.021841 0.818095 2.408051
v 0.163199 0.879086 2.387369
v 0.160671 1.272609 2.350019
v 0.174453 1.186428 2.345898
v -0.148752 1.239926 2.525022
v 0.109125 1.174403 2.523088
v 0.206705 1.017459 2.384027
v -0.148329 0.948586 2.519101
v 0.102157 0.931653 2.518654
vn 0.0294 0.9991 -0.0306
vn 0.0346 0.9993 0.0165
vn 0.3630 0.9304 -0.0512
vn 0.2313 0.9640 0.1311
vn 0.3547 0.8918 0.2808
vn 0.5241 0.8447 0.1084
vn 0.5485 0.7215 0.4226
vn 0.7074 0.5969 0.3786
vn 0.8925 0.1800 0.4136
vn 0.7445 0.1608 0.6480
vn -0.8080 0.5743 0.1315
vn -0.7910 0.6117 0.0103
vn -0.9806 -0.0866 0.1761
vn -0.9971 -0.0628 0.0441
vn -0.9856 -0.0512 0.1609
vn -0.9969 -0.0625 0.0472
vn -0.9196 -0.3542 0.1699
vn -0.8829 -0.4548 0.1169
vn -0.3866 -0.9116 0.1399
vn -0.3204 -0.9171 0.2373
vn -0.0627 -0.9973 0.0374
vn -0.0369 -0.9695 0.2424
vn -0.1330 -0.9911 -0.0024
vn -0.0771 -0.9761 0.2030
vn 0.0479 -0.9980 0.0406
vn 0.0652 -0.9774 0.2013
vn 0.5157 -0.7043 0.4880
vn 0.6662 -0.6408 0.3815
vn -0.0415 0.9963 -0.0748
vn 0.1406 0.9901 0.0026
vn 0.4082 0.9127 0.0185
vn 0.7181 0.6784 -0.1550
vn 0.9339 0.1926 -0.3013
vn 0.7079 -0.6395 -0.2998
vn 0.0597 -0.9937 -0.0947
vn 0.2338 -0.9619 -0.1414
vn -0.3996 -0.9038 -0.1531
vn 0.0314 -0.9891 -0.1440
vn -0.9725 -0.0930 -0.2136
vn -0.8574 -0.4475 -0.2543
vn -0.7641 0.6089 -0.2131
vn -0.9729 0.0131 -0.2309
vn 0.1314 0.8572 -0.4980
vn 0.4610 0.7015 -0.5435
vn 0.6616 0.3289 -0.6739
vn 0.6218 0.0027 -0.7832
vn 0.5537 -0.4289 -0.7138
vn 0.3151 -0.5999 -0.7354
vn -0.0670 0.8330 -0.5491
vn -0.5412 0.5519 -0.6345
vn -0.7718 -0.0007 -0.6359
vn -0.7147 -0.1186 -0.6893
vn -0.6603 -0.2551 -0.7064
vn 0.1594 -0.6661 -0.7286
vn 0.0741 -0.6346 -0.7692
vn -0.2710 -0.5874 -0.7625
vn 0.1374 0.2575 -0.9565
vn -0.0061 0.2551 -0.9669
vn 0.1357 -0.1537 -0.9788
vn 0.0397 -0.1438 -0.9888
vn -0.3081 0.1314 -0.9422
vn 0.3266 0.2299 -0.9168
vn 0.3905 -0.0406 -0.9197
vn -0.2559 -0.1000 -0.9615
vn -0.1640 -0.1935 -0.9673
vn 0.1412 -0.2628 -0.9545
vn 0.0634 -0.2570 -0.9643
vn 0.3374 -0.1667 -0.9265
vn -0.7751 0.5981 0.2039
vn 0.0224 0.9992 0.0338
vn 0.4268 0.9028 -0.0528
vn 0.7639 0.6448 0.0270
vn 0.9356 0.2958 0.1927
vn 0.9461 0.0704 0.3161
vn 0.7677 -0.6018 0.2204
vn -0.1017 -0.9830 -0.1527
vn 0.2908 -0.9567 -0.0143
vn -0.1241 -0.9814 -0.1465
vn -0.4849 -0.8745 -0.0120
vn -0.9427 -0.2909 0.1634
vn -0.9757 -0.0535 0.2126
vn -0.9798 -0.0329 0.1972
vn -0.0192 0.9149 0.4031
vn 0.4669 0.8278 0.3110
vn 0.8691 0.4062 0.2824
vn 0.9516 0.1436 0.2717
vn 0.9700 0.0234 0.2420
vn 0.8585 -0.4845 0.1678
vn 0.3474 -0.9350 0.0712
vn -0.0501 -0.9986 0.0146
vn -0.2270 -0.9708 0.0769
vn -0.5408 -0.8106 0.2246
vn -0.8950 -0.2875 0.3412
vn -0.9293 -0.0901 0.3582
vn -0.7090 0.5551 0.4349
vn -0.9270 -0.0052 0.3751
vn -0.0664 0.6835 0.7269
vn 0.4912 0.6286 0.6029
vn -0.5659 0.4164 0.7115
vn -0.7266 -0.1739 0.6646
vn -0.7168 0.0770 0.6930
vn -0.5640 -0.6115 0.5550
vn -0.7178 -0.3679 0.5911
vn -0.3373 -0.7989 0.4980
vn 0.4051 -0.8526 0.3301
vn 0.1384 -0.8930 0.4283
vn 0.7419 -0.5860 0.3259
vn 0.8145 0.3725 0.4449
vn 0.8892 0.1654 0.4267
vn -0.2086 0.2905 0.9339
vn 0.5013 0.2454 0.8297
vn 0.9258 -0.0995 0.3647
vn -0.3080 -0.3528 0.8836
vn 0.4313 -0.3586 0.8279
vt 0.615251 0.526615
vt 0.614147 0.589488
vt 0.560643 0.590019
vt 0.567039 0.530438
vt 0.507817 0.540236
vt 0.503543 0.506999
vt 0.569583 0.492422
vt 0.502456 0.469002
vt 0.566587 0.449030
vt 0.499621 0.436929
vt 0.575050 0.410825
vt 0.497710 0.405588
vt 0.579918 0.385694
vt 0.488810 0.368495
vt 0.576663 0.366111
vt 0.505750 0.586484
vt 0.566915 0.617318
vt 0.508735 0.611106
vt 0.573892 0.647695
vt 0.508734 0.636145
vt 0.583484 0.680758
vt 0.510826 0.663320
vt 0.583036 0.703642
vt 0.506505 0.682008
vt 0.786792 0.481966
vt 0.824886 0.486014
vt 0.824679 0.499227
vt 0.787893 0.505474
vt 0.805956 0.264864
vt 0.792900 0.331984
vt 0.757834 0.323939
vt 0.778737 0.263043
vt 0.715071 0.314174
vt 0.752664 0.258507
vt 0.462342 0.341163
vt 0.543149 0.318410
vt 0.622218 0.484968
vt 0.609027 0.406530
vt 0.613138 0.438285
vt 0.608461 0.362601
vt 0.605153 0.387481
vt 0.744653 0.379819
vt 0.689199 0.369862
vt 0.849031 0.266122
vt 0.850365 0.333814
vt 0.636909 0.651518
vt 0.650313 0.681519
vt 0.628420 0.619319
vt 0.663092 0.532467
vt 0.660201 0.582162
vt 0.653992 0.696788
vt 0.790638 0.393991
vt 0.619926 0.320194
vt 0.647222 0.439471
vt 0.661109 0.493206
vt 0.647282 0.390133
vt 0.643506 0.412085
vt 0.677571 0.350045
vt 0.646516 0.364120
vt 0.698008 0.545663
vt 0.686695 0.591091
vt 0.671338 0.611983
vt 0.679397 0.638692
vt 0.684780 0.657105
vt 0.793078 0.429593
vt 0.752230 0.421685
vt 0.705459 0.416855
vt 0.694413 0.670370
vt 0.850365 0.396027
vt 0.701642 0.493451
vt 0.748929 0.500555
vt 0.751845 0.476264
vt 0.825950 0.461847
vt 0.787481 0.456031
vt 0.692572 0.417374
vt 0.688571 0.444600
vt 0.694252 0.606273
vt 0.701642 0.635533
vt 0.754020 0.453543
vt 0.835741 0.434167
vt 0.693613 0.391386
vt 0.709458 0.450578
vt 0.713090 0.490227
vt 0.708498 0.470448
vt 0.477098 0.579473
vt 0.474841 0.537580
vt 0.798907 0.224059
vt 0.843041 0.225587
vt 0.472981 0.506218
vt 0.467412 0.469217
vt 0.458727 0.441448
vt 0.454195 0.423741
vt 0.441230 0.380227
vt 0.751617 0.220841
vt 0.770373 0.223632
vt 0.443397 0.573878
vt 0.441279 0.536834
vt 0.456705 0.676930
vt 0.464131 0.657028
vt 0.466124 0.635001
vt 0.469521 0.606755
vt 0.422592 0.366668
vt 0.802497 0.170533
vt 0.835458 0.185326
vt 0.435751 0.503400
vt 0.427930 0.471550
vt 0.421178 0.452868
vt 0.409725 0.436202
vt 0.392678 0.402049
vt 0.377119 0.383920
vt 0.778733 0.172935
vt 0.407392 0.572940
vt 0.415216 0.537103
vt 0.416078 0.649237
vt 0.417117 0.625812
vt 0.424331 0.601876
vt 0.760469 0.182872
vt 0.407113 0.666664
vt 0.409698 0.502579
vt 0.804105 0.161461
vt 0.828238 0.168354
vt 0.390948 0.621019
vt 0.400102 0.594881
vt 0.387158 0.654272
vt 0.391423 0.640825
vt 0.761701 0.166528
vt 0.774021 0.162296
vt 0.381983 0.434536
vt 0.368404 0.408603
vt 0.409030 0.481115
vt 0.401756 0.464498
vt 0.360053 0.394662
vt 0.388666 0.540240
vt 0.378528 0.501782
vt 0.342156 0.540372
vt 0.341848 0.499864
vt 0.309011 0.507926
vt 0.312917 0.546816
vt 0.386390 0.581232
vt 0.358382 0.582714
vt 0.393429 0.471354
vt 0.355496 0.466303
vt 0.324509 0.476599
vt 0.337471 0.583993
vt 0.324156 0.577682
vt 0.313168 0.490630
s 1
g Rock_mid2_rock
usemtl rock
f 29/1/29 41/2/41 12/3/12 2/4/2
f 2/4/2 1/5/1 3/6/3 4/7/4
f 6/8/6 5/9/5 4/7/4 3/6/3
f 5/9/5 6/8/6 8/10/8 7/11/7
f 7/11/7 8/10/8 10/12/10 9/13/9
f 9/13/9 10/12/10 27/14/27 28/15/28
f 11/16/11 12/3/12 14/17/14 13/18/13
f 13/18/13 14/17/14 16/19/16 15/20/15
f 15/20/15 16/19/16 18/21/18 17/22/17
f 17/22/17 18/21/18 20/23/20 19/24/19
f 60/25/60 64/26/64 61/27/61 58/28/58
f 21/29/21 22/30/22 24/31/24 23/32/23
f 23/32/23 24/31/24 26/33/26 25/34/25
f 25/35/25 26/36/26 28/15/28 27/14/27
f 2/4/2 4/7/4 30/37/30 29/1/29
f 5/9/5 7/11/7 32/38/32 31/39/31
f 9/13/9 28/15/28 34/40/34 33/41/33
f 26/33/26 24/31/24 35/42/35 36/43/36
f 19/44/19 20/45/20 22/30/22 21/29/21
f 18/21/18 16/19/16 39/46/39 40/47/40
f 14/17/14 12/3/12 41/2/41 42/48/42
f 41/2/41 29/1/29 49/49/49 50/50/50
f 14/17/14 42/48/42 39/46/39 16/19/16
f 18/21/18 40/47/40 37/51/37 20/23/20
f 22/30/22 38/52/38 35/42/35 24/31/24
f 26/36/26 36/53/36 34/40/34 28/15/28
f 9/13/9 33/41/33 32/38/32 7/11/7
f 5/9/5 31/39/31 30/37/30 4/7/4
f 30/37/30 31/39/31 44/54/44 43/55/43
f 32/38/32 33/41/33 46/56/46 45/57/45
f 34/40/34 36/53/36 48/58/48 47/59/47
f 49/49/49 58/60/58 61/61/61 50/50/50
f 42/48/42 41/2/41 50/50/50 51/62/51
f 40/47/40 39/46/39 52/63/52 53/64/53
f 35/42/35 38/52/38 55/65/55 54/66/54
f 32/38/32 45/57/45 44/54/44 31/39/31
f 29/1/29 30/37/30 43/55/43 49/49/49
f 39/46/39 42/48/42 51/62/51 52/63/52
f 35/42/35 54/66/54 48/67/48 36/43/36
f 34/40/34 47/59/47 46/56/46 33/41/33
f 56/68/56 37/51/37 40/47/40 53/64/53
f 22/30/22 20/45/20 37/69/37 38/52/38
f 49/49/49 43/55/43 57/70/57 58/60/58
f 58/28/58 57/71/57 59/72/59 60/25/60
f 65/73/65 64/26/64 60/25/60 67/74/67
f 44/54/44 45/57/45 63/75/63 62/76/62
f 44/54/44 62/76/62 57/70/57 43/55/43
f 52/63/52 51/62/51 64/77/64 65/78/65
f 51/62/51 50/50/50 61/61/61 64/77/64
f 52/63/52 65/78/65 56/68/56 53/64/53
f 54/66/54 55/65/55 67/74/67 66/79/66
f 37/69/37 56/80/56 55/65/55 38/52/38
f 48/58/48 68/81/68 46/56/46 47/59/47
f 48/67/48 54/66/54 66/79/66 68/82/68
f 46/56/46 68/81/68 63/75/63 45/57/45
f 59/72/59 57/71/57 62/83/62 63/84/63
f 68/82/68 66/79/66 59/72/59 63/84/63
f 60/25/60 59/72/59 66/79/66 67/74/67
f 55/65/55 56/80/56 65/73/65 67/74/67
f 1/5/1 11/16/11 69/85/69 70/86/70
f 19/44/19 21/29/21 78/87/78 79/88/79
f 3/6/3 1/5/1 70/86/70 71/89/71
f 8/10/8 6/8/6 72/90/72 73/91/73
f 27/14/27 10/12/10 74/92/74 75/93/75
f 23/32/23 25/34/25 77/94/77 76/95/76
f 69/85/69 95/96/95 83/97/83 70/86/70
f 17/22/17 19/24/19 79/98/79 80/99/80
f 13/18/13 15/20/15 82/100/82 81/101/81
f 13/18/13 81/101/81 69/85/69 11/16/11
f 6/8/6 3/6/3 71/89/71 72/90/72
f 10/12/10 8/10/8 73/91/73 74/92/74
f 25/35/25 27/14/27 75/93/75 77/102/77
f 21/29/21 23/32/23 76/95/76 78/87/78
f 15/20/15 17/22/17 80/99/80 82/100/82
f 78/87/78 91/103/91 92/104/92 79/88/79
f 72/90/72 71/89/71 84/105/84 85/106/85
f 74/92/74 73/91/73 86/107/86 87/108/87
f 77/102/77 75/93/75 88/109/88 89/110/89
f 78/87/78 76/95/76 90/111/90 91/103/91
f 99/112/99 97/113/97 83/97/83 95/96/95
f 82/100/82 80/99/80 93/114/93 94/115/94
f 69/85/69 81/101/81 96/116/96 95/96/95
f 71/89/71 70/86/70 83/97/83 84/105/84
f 73/91/73 72/90/72 85/106/85 86/107/86
f 75/93/75 74/92/74 87/108/87 88/109/88
f 76/95/76 77/94/77 89/117/89 90/111/90
f 80/99/80 79/98/79 92/118/92 93/114/93
f 81/101/81 82/100/82 94/115/94 96/116/96
f 84/105/84 83/97/83 97/113/97 98/119/98
f 104/120/104 102/121/102 92/104/92 91/103/91
f 96/116/96 94/115/94 100/122/100 101/123/101
f 93/114/93 92/118/92 102/124/102 103/125/103
f 90/111/90 89/117/89 105/126/105 106/127/106
f 88/109/88 87/108/87 112/128/112 107/129/107
f 86/107/86 85/106/85 108/130/108 109/131/109
f 85/106/85 84/105/84 98/119/98 108/130/108
f 86/107/86 109/131/109 112/128/112 87/108/87
f 88/109/88 107/129/107 105/132/105 89/110/89
f 90/111/90 106/127/106 104/120/104 91/103/91
f 93/114/93 103/125/103 100/122/100 94/115/94
f 96/116/96 101/123/101 99/112/99 95/96/95
f 98/119/98 97/113/97 110/133/110 111/134/111
f 111/134/111 110/133/110 113/135/113 114/136/114
f 106/137/106 114/136/114 113/135/113 104/138/104
f 2/4/2 12/3/12 11/16/11 1/5/1
f 101/139/101 110/133/110 97/113/97 99/112/99
f 100/140/100 113/135/113 110/133/110 101/139/101
f 108/130/108 98/119/98 111/134/111 109/141/109
f 111/134/111 114/136/114 112/142/112 109/141/109
f 106/137/106 107/143/107 112/142/112 114/136/114
f 100/140/100 103/144/103 104/138/104 113/135/113
f 103/144/103 102/145/102 104/138/104
f 106/137/106 105/146/105 107/143/107
