# Blender 5.2.0 LTS
# www.blender.org
mtllib rock_mid3.mtl
o Rock_mid3
v -0.274751 0.276881 0.392303
v -0.228939 0.469805 0.402453
v 0.085763 0.237224 0.382227
v 0.081555 0.480362 0.404658
v 0.280184 0.491506 0.269035
v 0.271115 0.275387 0.271613
v 0.371899 0.470871 0.071195
v 0.371736 0.262981 0.076897
v 0.401042 0.446643 -0.078921
v 0.418544 0.264708 -0.076486
v -0.365211 0.267386 0.235896
v -0.325460 0.441558 0.203641
v -0.392487 0.260895 0.031450
v -0.334012 0.442520 0.033692
v -0.390297 0.269399 -0.129526
v -0.325347 0.436578 -0.137125
v -0.374964 0.275388 -0.270526
v -0.310414 0.440847 -0.227425
v -0.295504 0.290107 -0.371882
v -0.264216 0.463747 -0.327205
v -0.102151 0.299221 -0.406429
v -0.099217 0.510069 -0.394106
v 0.073500 0.298605 -0.406196
v 0.077413 0.509121 -0.400959
v 0.242865 0.270593 -0.347414
v 0.256964 0.472735 -0.355055
v 0.378483 0.275739 -0.254004
v 0.377870 0.465787 -0.256122
v -0.159507 0.622299 0.372665
v 0.083017 0.624512 0.370127
v 0.255271 0.633333 0.210447
v 0.320975 0.579542 0.056071
v 0.331966 0.577618 -0.079914
v 0.317290 0.556429 -0.250904
v 0.069351 0.643716 -0.354675
v 0.247157 0.605615 -0.326340
v -0.232721 0.587974 -0.279584
v -0.093580 0.643842 -0.348220
v -0.256068 0.587302 -0.124466
v -0.246419 0.585078 -0.198604
v -0.262658 0.587566 0.190856
v -0.267471 0.593455 0.023651
v 0.060988 0.741448 0.234441
v 0.211587 0.713266 0.158749
v 0.263386 0.667880 0.042862
v 0.260966 0.676420 -0.089471
v 0.259733 0.660051 -0.196842
v 0.189240 0.720055 -0.238422
v -0.070148 0.743656 0.235755
v -0.192273 0.697246 0.179895
v -0.214237 0.676646 0.029612
v -0.211869 0.675889 -0.091691
v -0.213794 0.659097 -0.175938
v 0.062685 0.753672 -0.251955
v -0.076638 0.759527 -0.244981
v -0.152856 0.712278 -0.215203
v 0.062094 0.811769 0.128858
v -0.074617 0.815538 0.130454
v 0.060078 0.837457 0.029622
v -0.068639 0.845084 0.025956
v -0.164504 0.755262 0.098247
v 0.148193 0.790424 0.115683
v 0.172324 0.783360 0.028310
v -0.167663 0.753019 0.024940
v -0.167462 0.747271 -0.099401
v 0.058583 0.837905 -0.100614
v -0.061396 0.847335 -0.099864
v 0.186024 0.766787 -0.100498
v -0.336112 0.115008 0.233173
v -0.204941 0.104759 0.358988
v 0.092474 0.118461 0.354102
v 0.265109 0.148015 0.264577
v 0.345342 0.129763 0.071152
v 0.362282 0.133190 -0.024869
v 0.366646 0.135247 -0.232449
v 0.066945 0.133787 -0.397854
v 0.257849 0.122307 -0.339936
v -0.101369 0.130722 -0.399004
v -0.293363 0.126032 -0.380988
v -0.367628 0.125442 -0.249637
v -0.356509 0.114301 0.040921
v -0.364039 0.122758 -0.127298
v -0.156792 0.026809 0.303351
v 0.104974 0.021224 0.281826
v 0.234649 0.017767 0.221127
v 0.267323 0.002377 0.079027
v 0.286738 0.005582 -0.032992
v 0.293096 0.012824 -0.210526
v 0.200583 0.020958 -0.294907
v 0.061601 0.032801 -0.356995
v -0.109633 0.028156 -0.345380
v -0.252397 0.021620 -0.298264
v -0.282110 0.024453 -0.208483
v -0.273512 0.022210 -0.093932
v -0.264973 0.018603 0.208693
v -0.266906 0.016498 0.040643
v -0.084495 0.002678 0.253504
v 0.100912 0.001560 0.236739
v -0.184885 -0.001053 0.170699
v -0.198594 0.003154 -0.075431
v -0.183863 -0.000117 0.054613
v -0.200388 0.005275 -0.228784
v -0.205044 0.004622 -0.167524
v -0.086140 0.004519 -0.188838
v 0.147141 0.003384 -0.248353
v 0.075324 0.003900 -0.188237
v 0.190543 0.002471 -0.187282
v 0.160706 -0.000734 0.165534
v 0.189592 -0.001387 0.072981
v -0.068557 -0.000997 0.065769
v 0.065721 -0.001403 0.047656
v 0.205104 -0.000007 -0.052561
v -0.065954 0.001544 -0.056349
v 0.068790 0.000856 -0.057076
vn -0.6010 -0.0636 0.7967
vn -0.5934 0.2608 0.7615
vn 0.2822 -0.1190 0.9520
vn 0.3097 0.1044 0.9451
vn 0.7846 0.1731 0.5953
vn 0.7595 -0.0750 0.6462
vn 0.9358 0.2304 0.2669
vn 0.9380 -0.0921 0.3342
vn 0.9706 0.2399 0.0171
vn 0.9932 -0.1099 0.0386
vn -0.9510 0.0037 0.3091
vn -0.9166 0.3289 0.2272
vn -0.9982 0.0382 0.0467
vn -0.9346 0.3556 0.0085
vn -0.9940 0.0995 -0.0444
vn -0.9198 0.3834 -0.0835
vn -0.9453 0.1389 -0.2953
vn -0.8916 0.3856 -0.2372
vn -0.6255 0.1485 -0.7660
vn -0.7065 0.3429 -0.6191
vn -0.1150 0.0440 -0.9924
vn -0.2293 0.2428 -0.9426
vn 0.1472 -0.0154 -0.9890
vn 0.1254 0.1698 -0.9775
vn 0.4645 -0.0437 -0.8845
vn 0.4937 0.1368 -0.8588
vn 0.8867 -0.0862 -0.4543
vn 0.8794 0.2485 -0.4061
vn -0.4525 0.5810 0.6765
vn 0.2977 0.5294 0.7944
vn 0.7403 0.5134 0.4341
vn 0.8662 0.4730 0.1609
vn 0.8532 0.5211 -0.0220
vn 0.8061 0.4819 -0.3435
vn 0.1168 0.5261 -0.8424
vn 0.5625 0.5158 -0.6462
vn -0.7397 0.4806 -0.4710
vn -0.3065 0.5428 -0.7819
vn -0.8908 0.4454 -0.0901
vn -0.8720 0.4561 -0.1774
vn -0.8423 0.4994 0.2030
vn -0.8847 0.4661 -0.0111
vn 0.2086 0.7695 0.6037
vn 0.6530 0.6786 0.3363
vn 0.8036 0.5891 0.0851
vn 0.7917 0.6081 -0.0584
vn 0.7698 0.6021 -0.2118
vn 0.5192 0.7391 -0.4291
vn -0.2570 0.7922 0.5535
vn -0.7296 0.6366 0.2500
vn -0.8542 0.5200 0.0039
vn -0.8454 0.5253 -0.0962
vn -0.8273 0.5318 -0.1813
vn 0.1735 0.7981 -0.5770
vn -0.3222 0.7729 -0.5467
vn -0.6688 0.6386 -0.3805
vn 0.2054 0.9036 0.3760
vn -0.3103 0.8862 0.3440
vn 0.2346 0.9674 0.0953
vn -0.3139 0.9449 0.0931
vn -0.7089 0.6772 0.1969
vn 0.4910 0.8175 0.3011
vn 0.6154 0.7863 0.0545
vn -0.7688 0.6390 0.0239
vn -0.7450 0.6500 -0.1499
vn 0.2365 0.9478 -0.2140
vn -0.2837 0.9360 -0.2086
vn 0.6038 0.7832 -0.1480
vn -0.8307 -0.4523 0.3247
vn -0.3646 -0.4733 0.8019
vn 0.2560 -0.3600 0.8971
vn 0.7403 -0.2728 0.6144
vn 0.8986 -0.3426 0.2740
vn 0.9176 -0.3882 0.0851
vn 0.8645 -0.3632 -0.3476
vn 0.1484 -0.2455 -0.9580
vn 0.5067 -0.3085 -0.8050
vn -0.0744 -0.2716 -0.9595
vn -0.5728 -0.3605 -0.7361
vn -0.8994 -0.3734 -0.2271
vn -0.8899 -0.4537 0.0473
vn -0.9034 -0.4289 -0.0022
vn -0.1732 -0.8285 0.5326
vn 0.1793 -0.7845 0.5936
vn 0.5001 -0.7594 0.4161
vn 0.5073 -0.8490 0.1476
vn 0.5300 -0.8474 0.0307
vn 0.5456 -0.8069 -0.2263
vn 0.2475 -0.8404 -0.4821
vn 0.0566 -0.8251 -0.5622
vn -0.0336 -0.8566 -0.5149
vn -0.3485 -0.8560 -0.3819
vn -0.5493 -0.8306 -0.0915
vn -0.5091 -0.8607 0.0031
vn -0.5028 -0.8305 0.2396
vn -0.4976 -0.8673 0.0107
vn -0.0128 -0.9751 0.2214
vn 0.0519 -0.9789 0.1975
vn -0.1153 -0.9894 0.0887
vn -0.1213 -0.9925 -0.0148
vn -0.1025 -0.9947 -0.0062
vn -0.0781 -0.9927 -0.0916
vn -0.1333 -0.9909 -0.0156
vn 0.0019 -0.9961 -0.0878
vn -0.0068 -0.9901 -0.1399
vn -0.0131 -0.9959 -0.0890
vn 0.0544 -0.9960 -0.0706
vn 0.0685 -0.9918 0.1078
vn 0.0446 -0.9987 0.0258
vn -0.0017 -1.0000 -0.0031
vn -0.0044 -1.0000 -0.0026
vn 0.0388 -0.9990 -0.0208
vn -0.0060 -0.9997 -0.0216
vn -0.0050 -0.9998 -0.0201
vt 0.514426 0.256340
vt 0.470336 0.250733
vt 0.464210 0.205594
vt 0.504074 0.213810
vt 0.498140 0.166406
vt 0.581351 0.158981
vt 0.578012 0.222597
vt 0.630815 0.168124
vt 0.633446 0.227525
vt 0.673818 0.161459
vt 0.676689 0.221958
vt 0.704810 0.159080
vt 0.706811 0.215130
vt 0.744525 0.157385
vt 0.744518 0.225976
vt 0.467969 0.159916
vt 0.432978 0.207760
vt 0.435070 0.152611
vt 0.399126 0.207604
vt 0.404696 0.150308
vt 0.379130 0.210771
vt 0.374172 0.148200
vt 0.623482 0.995398
vt 0.548399 0.986740
vt 0.543682 0.954946
vt 0.612769 0.956304
vt 0.386001 0.901228
vt 0.395285 0.939012
vt 0.379336 0.941433
vt 0.367717 0.909380
vt 0.600500 0.888955
vt 0.524808 0.895858
vt 0.517694 0.838642
vt 0.593226 0.828468
vt 0.516761 0.775102
vt 0.595067 0.765248
vt 0.506601 0.724397
vt 0.585356 0.708751
vt 0.577321 0.263579
vt 0.671769 0.258427
vt 0.633477 0.271100
vt 0.738840 0.264519
vt 0.700219 0.262649
vt 0.472688 0.849281
vt 0.470049 0.791514
vt 0.406125 0.263536
vt 0.389417 0.265861
vt 0.438002 0.259178
vt 0.528888 0.310219
vt 0.483578 0.292276
vt 0.486659 0.966260
vt 0.494531 0.947162
vt 0.478184 0.897629
vt 0.472755 0.754937
vt 0.628093 0.303451
vt 0.573561 0.310219
vt 0.693207 0.304073
vt 0.664088 0.293976
vt 0.432222 0.820415
vt 0.432396 0.785955
vt 0.333485 0.923099
vt 0.362850 0.968766
vt 0.446478 0.292501
vt 0.418674 0.297547
vt 0.398379 0.294350
vt 0.437243 0.895592
vt 0.434630 0.858412
vt 0.718603 0.304412
vt 0.445578 0.921790
vt 0.456331 0.950584
vt 0.323024 0.872531
vt 0.358817 0.871457
vt 0.379155 0.869858
vt 0.419931 0.930820
vt 0.404471 0.894332
vt 0.338363 0.811618
vt 0.367554 0.779556
vt 0.374669 0.834414
vt 0.357895 0.844733
vt 0.434168 0.959407
vt 0.404077 0.971198
vt 0.401391 0.867032
vt 0.401262 0.826991
vt 0.403031 0.783943
vt 0.478699 0.124820
vt 0.512867 0.125411
vt 0.662097 0.881064
vt 0.671459 0.945327
vt 0.583511 0.127466
vt 0.628164 0.134151
vt 0.666295 0.122859
vt 0.684940 0.119428
vt 0.728135 0.107096
vt 0.652495 0.754361
vt 0.654514 0.823161
vt 0.491234 0.098316
vt 0.521647 0.102459
vt 0.685674 0.982928
vt 0.416834 0.103573
vt 0.448404 0.112455
vt 0.645625 0.704608
vt 0.390867 0.096085
vt 0.702874 0.880108
vt 0.710117 0.928400
vt 0.589009 0.098290
vt 0.623113 0.098309
vt 0.645772 0.084797
vt 0.667254 0.076994
vt 0.702632 0.726783
vt 0.695962 0.768466
vt 0.693946 0.820592
vt 0.506683 0.078241
vt 0.539283 0.090885
vt 0.418685 0.056397
vt 0.442837 0.066265
vt 0.468171 0.079071
vt 0.703454 0.060835
vt 0.726959 0.947113
vt 0.588947 0.088463
vt 0.743874 0.870791
vt 0.730033 0.914016
vt 0.460305 0.046483
vt 0.487494 0.060361
vt 0.745600 0.918448
vt 0.714151 0.783816
vt 0.736123 0.806917
vt 0.655758 0.051784
vt 0.681108 0.031976
vt 0.609397 0.078787
vt 0.629211 0.066620
vt 0.724642 0.762933
vt 0.440839 0.037241
vt 0.542136 0.053937
vt 0.582524 0.051558
vt 0.542943 0.028667
vt 0.584688 0.029983
vt 0.588055 0.002439
vt 0.537031 0.000526
vt 0.505933 0.052816
vt 0.501045 0.024769
vt 0.620257 0.059976
vt 0.627071 0.033766
vt 0.624333 0.004833
vt 0.499066 0.004954
s 1
usemtl rock
f 29/1/29 41/2/41 12/3/12 2/4/2
f 2/4/2 1/5/1 3/6/3 4/7/4
f 6/8/6 5/9/5 4/7/4 3/6/3
f 5/9/5 6/8/6 8/10/8 7/11/7
f 7/11/7 8/10/8 10/12/10 9/13/9
f 9/13/9 10/12/10 27/14/27 28/15/28
f 11/16/11 12/3/12 14/17/14 13/18/13
f 13/18/13 14/17/14 16/19/16 15/20/15
f 15/20/15 16/19/16 18/21/18 17/22/17
f 17/23/17 18/24/18 20/25/20 19/26/19
f 60/27/60 64/28/64 61/29/61 58/30/58
f 21/31/21 22/32/22 24/33/24 23/34/23
f 23/34/23 24/33/24 26/35/26 25/36/25
f 25/36/25 26/35/26 28/37/28 27/38/27
f 2/4/2 4/7/4 30/39/30 29/1/29
f 5/9/5 7/11/7 32/40/32 31/41/31
f 9/13/9 28/15/28 34/42/34 33/43/33
f 26/35/26 24/33/24 35/44/35 36/45/36
f 19/26/19 20/25/20 22/32/22 21/31/21
f 18/21/18 16/19/16 39/46/39 40/47/40
f 14/17/14 12/3/12 41/2/41 42/48/42
f 41/2/41 29/1/29 49/49/49 50/50/50
f 14/17/14 42/48/42 39/46/39 16/19/16
f 18/24/18 40/51/40 37/52/37 20/25/20
f 22/32/22 38/53/38 35/44/35 24/33/24
f 26/35/26 36/45/36 34/54/34 28/37/28
f 9/13/9 33/43/33 32/40/32 7/11/7
f 5/9/5 31/41/31 30/39/30 4/7/4
f 30/39/30 31/41/31 44/55/44 43/56/43
f 32/40/32 33/43/33 46/57/46 45/58/45
f 34/54/34 36/45/36 48/59/48 47/60/47
f 49/61/49 58/30/58 61/29/61 50/62/50
f 42/48/42 41/2/41 50/50/50 51/63/51
f 40/47/40 39/46/39 52/64/52 53/65/53
f 35/44/35 38/53/38 55/66/55 54/67/54
f 32/40/32 45/58/45 44/55/44 31/41/31
f 29/1/29 30/39/30 43/56/43 49/49/49
f 39/46/39 42/48/42 51/63/51 52/64/52
f 35/44/35 54/67/54 48/59/48 36/45/36
f 34/42/34 47/68/47 46/57/46 33/43/33
f 56/69/56 37/52/37 40/51/40 53/70/53
f 22/32/22 20/25/20 37/52/37 38/53/38
f 49/61/49 43/71/43 57/72/57 58/30/58
f 58/30/58 57/72/57 59/73/59 60/27/60
f 65/74/65 64/28/64 60/27/60 67/75/67
f 44/76/44 45/77/45 63/78/63 62/79/62
f 44/76/44 62/79/62 57/72/57 43/71/43
f 52/80/52 51/81/51 64/28/64 65/74/65
f 51/81/51 50/62/50 61/29/61 64/28/64
f 52/80/52 65/74/65 56/69/56 53/70/53
f 54/67/54 55/66/55 67/75/67 66/82/66
f 37/52/37 56/69/56 55/66/55 38/53/38
f 48/59/48 68/83/68 46/84/46 47/60/47
f 48/59/48 54/67/54 66/82/66 68/83/68
f 46/84/46 68/83/68 63/78/63 45/77/45
f 59/73/59 57/72/57 62/79/62 63/78/63
f 68/83/68 66/82/66 59/73/59 63/78/63
f 60/27/60 59/73/59 66/82/66 67/75/67
f 55/66/55 56/69/56 65/74/65 67/75/67
f 1/5/1 11/16/11 69/85/69 70/86/70
f 19/26/19 21/31/21 78/87/78 79/88/79
f 3/6/3 1/5/1 70/86/70 71/89/71
f 8/10/8 6/8/6 72/90/72 73/91/73
f 27/14/27 10/12/10 74/92/74 75/93/75
f 23/34/23 25/36/25 77/94/77 76/95/76
f 69/85/69 95/96/95 83/97/83 70/86/70
f 17/23/17 19/26/19 79/88/79 80/98/80
f 13/18/13 15/20/15 82/99/82 81/100/81
f 13/18/13 81/100/81 69/85/69 11/16/11
f 6/8/6 3/6/3 71/89/71 72/90/72
f 10/12/10 8/10/8 73/91/73 74/92/74
f 25/36/25 27/38/27 75/101/75 77/94/77
f 21/31/21 23/34/23 76/95/76 78/87/78
f 15/20/15 17/22/17 80/102/80 82/99/82
f 78/87/78 91/103/91 92/104/92 79/88/79
f 72/90/72 71/89/71 84/105/84 85/106/85
f 74/92/74 73/91/73 86/107/86 87/108/87
f 77/94/77 75/101/75 88/109/88 89/110/89
f 78/87/78 76/95/76 90/111/90 91/103/91
f 99/112/99 97/113/97 83/97/83 95/96/95
f 82/99/82 80/102/80 93/114/93 94/115/94
f 69/85/69 81/100/81 96/116/96 95/96/95
f 71/89/71 70/86/70 83/97/83 84/105/84
f 73/91/73 72/90/72 85/106/85 86/107/86
f 75/93/75 74/92/74 87/108/87 88/117/88
f 76/95/76 77/94/77 89/110/89 90/111/90
f 80/98/80 79/88/79 92/104/92 93/118/93
f 81/100/81 82/99/82 94/115/94 96/116/96
f 84/105/84 83/97/83 97/113/97 98/119/98
f 104/120/104 102/121/102 92/104/92 91/103/91
f 96/116/96 94/115/94 100/122/100 101/123/101
f 93/118/93 92/104/92 102/121/102 103/124/103
f 90/111/90 89/110/89 105/125/105 106/126/106
f 88/117/88 87/108/87 112/127/112 107/128/107
f 86/107/86 85/106/85 108/129/108 109/130/109
f 85/106/85 84/105/84 98/119/98 108/129/108
f 86/107/86 109/130/109 112/127/112 87/108/87
f 88/109/88 107/131/107 105/125/105 89/110/89
f 90/111/90 106/126/106 104/120/104 91/103/91
f 93/114/93 103/132/103 100/122/100 94/115/94
f 96/116/96 101/123/101 99/112/99 95/96/95
f 98/119/98 97/113/97 110/133/110 111/134/111
f 111/134/111 110/133/110 113/135/113 114/136/114
f 106/137/106 114/136/114 113/135/113 104/138/104
f 2/4/2 12/3/12 11/16/11 1/5/1
f 101/139/101 110/133/110 97/113/97 99/112/99
f 100/140/100 113/135/113 110/133/110 101/139/101
f 108/129/108 98/119/98 111/134/111 109/141/109
f 111/134/111 114/136/114 112/142/112 109/141/109
f 106/137/106 107/143/107 112/142/112 114/136/114
f 100/140/100 103/144/103 104/138/104 113/135/113
f 103/124/103 102/121/102 104/120/104
f 106/126/106 105/125/105 107/131/107
